<svg width="911" height="490" viewBox="0 0 911 490" fill="none" xmlns="http://www.w3.org/2000/svg">
<path d="M897.832 40.9259L895.988 37.9602C880.398 13.2411 852.204 -1.65389 822.482 0.146746C818.656 0.378346 814.852 0.882856 811.103 1.65611C784.078 7.21691 760.562 26.8121 750.82 52.0608C745.096 66.8764 743.486 83.9295 732.616 95.7528C718.457 111.045 694.418 111.535 673.282 110.899C652.147 110.264 628.108 110.807 614.018 126.165C605.198 135.777 602.391 149.467 603.107 162.35C604.992 196.456 629.691 226.948 661.105 242.108C692.519 257.268 729.492 258.631 763.878 251.958C812.038 242.611 857.845 216.965 885.365 177.338C912.885 137.71 919.862 83.6911 897.832 40.9259Z" fill="#F5F5F5"/>
<path d="M88.0502 208.446C136.679 208.446 176.1 170.514 176.1 123.723C176.1 76.9317 136.679 39 88.0502 39C39.4214 39 0 76.9317 0 123.723C0 170.514 39.4214 208.446 88.0502 208.446Z" fill="#F5F5F5"/>
<path d="M804.219 258.995C790.741 297.075 748.196 320.051 682.806 299.001C648.422 287.971 617.397 267.245 600.594 243.517L631.597 217.195C646.745 238.446 669.109 254.378 695.01 262.374C727.21 272.691 751.266 265.459 758.54 244.724C765.814 223.989 762.874 200.718 725.997 188.845L713.986 180.446L705.403 158.336L782.208 115.207L758.59 102.071L728.595 94.8168L671.804 78.0224L684.02 44.5022L845.178 94.8199L840.93 109.184L835.339 128.089L757.87 172.033C801.653 192.089 816.162 225.138 804.219 258.995Z" fill="#9C400A"/>
<path d="M785.923 245.209C774.446 282.574 732.086 305.104 663.428 284.416C627.328 273.575 608.068 256.808 589.27 233.514L624.869 209.03C641.807 229.892 646.511 240.618 673.685 248.476C707.492 258.616 731.805 251.529 737.988 231.183C744.171 210.838 731.336 193.222 692.614 181.553L669.233 174.507L677.828 146.38L754.193 104.088L655.694 74.9596L666.996 36.7411L822.814 87.0408L814.395 114.58L732.715 159.845C779.062 179.548 796.086 211.988 785.923 245.209Z" fill="#FF6F19"/>
<g opacity="0.3">
<path d="M683.622 187.972L683.181 175.01L684.31 168.629C684.31 168.629 697.038 168.973 699.749 164.524C701.76 160.868 703.422 157.043 704.716 153.098L688.878 149.576L677.265 167.04L673.756 175.593L679.26 186.767L683.622 187.972Z" fill="black"/>
</g>
<path d="M662.5 133.105C662.646 127.963 663.249 122.843 664.303 117.8C665.373 112.723 667.737 107.983 671.183 104.004C671.719 103.421 675.806 99.6608 676.535 100.032C677.058 100.283 673.962 104.004 674.045 104.599C674.744 109.923 673.746 115.325 671.183 120.09C668.802 124.736 665.895 129.114 662.514 133.145" fill="#263238"/>
<path d="M679.878 170.137C681.268 166.788 682.424 164.14 682.424 164.14C682.424 164.14 695.014 167.436 700.422 156.196C703.023 150.767 707.453 139.156 711.348 128.603C713.361 123.129 713.16 117.126 710.784 111.788C708.408 106.45 704.031 102.168 698.523 99.7932L697.381 99.3033C684.832 94.7223 673.769 102.428 669.352 114.635L652.51 156.844L657.119 169.753C657.925 172.017 659.434 173.987 661.442 175.398C663.45 176.808 665.861 177.59 668.347 177.638C670.833 177.686 673.274 176.997 675.339 175.664C677.404 174.332 678.994 172.421 679.892 170.19L679.878 170.137Z" fill="#FFBF9D"/>
<path d="M682.425 164.139C677 161.783 672.388 157.984 669.133 153.189C669.133 153.189 669.05 163.027 681.255 167.052L682.425 164.139Z" fill="#FF9A6C"/>
<path d="M699.9 136.693C699.709 137.114 699.355 137.447 698.913 137.62C698.47 137.793 697.976 137.793 697.533 137.62C697.311 137.546 697.107 137.43 696.932 137.278C696.758 137.127 696.617 136.943 696.518 136.738C696.419 136.533 696.364 136.31 696.356 136.084C696.349 135.858 696.389 135.633 696.474 135.422C696.665 134.998 697.021 134.662 697.465 134.486C697.91 134.311 698.408 134.309 698.854 134.482C699.076 134.558 699.279 134.677 699.452 134.83C699.625 134.984 699.765 135.169 699.862 135.375C699.96 135.581 700.013 135.804 700.02 136.03C700.026 136.257 699.986 136.482 699.9 136.693Z" fill="#263238"/>
<path d="M706.642 132.153C706.325 132.272 705.472 130.829 703.67 130.048C701.867 129.266 700.133 129.571 700.037 129.266C699.941 128.962 700.367 128.843 701.138 128.697C702.16 128.513 703.216 128.633 704.165 129.041C705.107 129.447 705.892 130.128 706.408 130.988C706.766 131.636 706.779 132.1 706.642 132.153Z" fill="#263238"/>
<path d="M684.627 130.748C684.436 131.169 684.081 131.501 683.639 131.674C683.197 131.847 682.702 131.848 682.26 131.675C682.038 131.601 681.833 131.485 681.659 131.333C681.484 131.182 681.343 130.998 681.244 130.792C681.145 130.587 681.09 130.365 681.083 130.139C681.075 129.913 681.115 129.688 681.2 129.477C681.392 129.052 681.747 128.717 682.192 128.541C682.637 128.365 683.135 128.364 683.581 128.537C683.802 128.613 684.006 128.732 684.179 128.885C684.352 129.038 684.491 129.224 684.589 129.43C684.686 129.636 684.74 129.859 684.746 130.085C684.753 130.311 684.712 130.537 684.627 130.748Z" fill="#263238"/>
<path d="M689.524 125.518C689.222 125.637 688.369 124.194 686.552 123.413C684.736 122.632 683.016 122.936 682.92 122.645C682.823 122.353 683.25 122.208 684.02 122.062C685.044 121.877 686.102 122.001 687.048 122.42C688.004 122.835 688.796 123.536 689.304 124.419C689.662 125.001 689.662 125.465 689.524 125.518Z" fill="#263238"/>
<path d="M688.879 141.38C689.96 141.513 691.022 141.766 692.044 142.134C692.525 142.293 693.007 142.386 693.227 142.134C693.481 141.695 693.587 141.191 693.53 140.691C693.53 139.367 693.667 138.109 693.736 136.719C694.08 131.092 694.548 126.538 694.782 126.551C695.016 126.564 694.933 131.145 694.589 136.772C694.493 138.162 694.41 139.42 694.314 140.744C694.354 141.402 694.155 142.053 693.75 142.584C693.61 142.711 693.442 142.806 693.258 142.861C693.075 142.916 692.881 142.93 692.69 142.902C692.402 142.86 692.12 142.784 691.851 142.677C690.807 142.368 689.808 141.932 688.879 141.38Z" fill="#263238"/>
<path d="M692.057 119.587C691.59 119.918 690.09 118.66 687.998 117.641C685.907 116.621 684.008 116.118 684.008 115.575C684.008 115.311 684.586 115.086 685.508 115.072C686.703 115.09 687.878 115.38 688.934 115.92C690.02 116.437 690.963 117.195 691.686 118.131C692.181 118.859 692.305 119.428 692.057 119.587Z" fill="#263238"/>
<path d="M708.927 125.836C708.432 126.087 707.372 125.147 705.886 124.512C704.4 123.876 702.997 123.585 702.9 123.042C702.9 122.79 703.244 122.473 703.974 122.34C704.914 122.215 705.872 122.363 706.726 122.764C707.597 123.16 708.319 123.808 708.79 124.618C709.175 125.213 709.161 125.743 708.927 125.836Z" fill="#263238"/>
<path d="M666.408 123.374C666.243 123.202 659.391 117.588 656.047 125.439C652.704 133.291 661.551 134.893 661.703 134.707C661.854 134.522 666.408 123.374 666.408 123.374Z" fill="#FFBF9D"/>
<path d="M660.477 130.721C660.477 130.721 660.284 130.721 660.009 130.721C659.611 130.729 659.226 130.586 658.936 130.324C658.548 129.794 658.311 129.174 658.251 128.528C658.191 127.882 658.308 127.232 658.592 126.643C658.863 125.963 659.285 125.349 659.83 124.843C660.009 124.627 660.241 124.456 660.505 124.348C660.77 124.239 661.058 124.195 661.344 124.221C661.525 124.24 661.693 124.321 661.817 124.45C661.941 124.579 662.012 124.747 662.018 124.922C662.018 125.187 661.922 125.319 662.018 125.346C662.114 125.372 662.252 125.346 662.321 124.935C662.354 124.726 662.316 124.512 662.211 124.326C662.055 124.074 661.803 123.889 661.509 123.81C661.145 123.744 660.771 123.768 660.419 123.879C660.068 123.99 659.752 124.185 659.5 124.446C658.879 124.989 658.406 125.671 658.124 126.432C657.788 127.115 657.668 127.878 657.778 128.626C657.888 129.374 658.223 130.075 658.743 130.642C658.934 130.788 659.157 130.891 659.395 130.944C659.633 130.997 659.881 130.998 660.119 130.946C660.408 130.907 660.491 130.748 660.477 130.721Z" fill="#FF9A6C"/>
<path d="M711.458 113.457C713.068 113.258 710.811 107.605 708.142 104.93C704.11 100.892 697.134 96.6816 692.097 96.1785C686.016 95.5694 680.401 96.43 675.668 100.15C671.007 104.01 667.494 108.99 665.486 114.582C664.719 116.243 664.429 118.072 664.646 119.878C665.073 122.049 666.807 123.996 665.706 126.366C665.497 126.789 665.377 127.248 665.353 127.716C665.33 128.184 665.403 128.652 665.568 129.093C666.421 131.198 668.857 130.417 670.302 129.345C673.37 126.948 675.104 123.347 676.728 119.865C678.021 117.458 678.9 114.864 679.328 112.186C679.466 110.716 679.328 109.233 679.562 107.777C679.634 107.04 679.869 106.327 680.251 105.685C680.633 105.044 681.153 104.488 681.777 104.056C682.077 103.903 682.39 103.774 682.713 103.672C684.252 103.148 685.908 103.03 687.51 103.331C689.112 103.631 690.601 104.339 691.822 105.38C695.785 108.717 702.679 114.079 705.362 113.324C707.216 112.959 708.969 112.224 710.508 111.166L711.458 113.457Z" fill="#263238"/>
<path d="M689.126 147.603C689.126 147.749 688.658 147.895 687.901 147.789C686.913 147.632 685.995 147.199 685.26 146.544C684.522 145.894 683.997 145.053 683.746 144.121C683.581 143.406 683.746 142.943 683.842 142.93C683.939 142.917 684.627 144.439 686.085 145.684C687.544 146.928 689.14 147.272 689.126 147.603Z" fill="#263238"/>
<path d="M692.979 79.4961C691.502 82.3578 689.814 85.1143 687.929 87.7446C686.243 90.4936 684.353 93.1219 682.273 95.6092C683.749 92.7507 685.436 89.9985 687.323 87.3739C689.019 84.6264 690.908 81.9942 692.979 79.4961Z" fill="#FF9A6C"/>
<path d="M657.258 323.59L682.851 346.971C682.851 346.971 670.467 426.795 672.641 426.941L703.216 429.033C703.216 429.033 721.655 336.644 720.265 331.229C718.875 325.814 674.169 283.194 674.169 283.194L673.618 275.873L660.904 274.244L657.258 323.59Z" fill="#263238"/>
<path d="M609.167 291.629C611.644 297.017 615.772 303.412 616.625 308.774L632.215 363.376L576.693 428.252L601.461 448.231C601.461 448.231 668.349 378.774 670.674 370.221C672.532 363.403 665.06 294.753 665.06 294.753L667.509 275.158L609.717 261.918V262.011C607.393 266.612 606.139 271.646 606.044 276.761C605.949 281.876 607.015 286.95 609.167 291.629Z" fill="#263238"/>
<path d="M614.368 429.959L596.48 449.819C596.48 449.819 610.308 473.214 607.35 477.186L568.258 446.734L594.925 414.693L614.368 429.959Z" fill="#263238"/>
<path d="M585.816 438.712C585.325 438.538 584.786 438.542 584.297 438.722C583.809 438.902 583.405 439.246 583.161 439.691C582.928 440.135 582.885 440.648 583.042 441.121C583.199 441.594 583.543 441.989 584 442.22C584.515 442.382 585.073 442.365 585.576 442.171C586.079 441.977 586.495 441.62 586.752 441.161C586.846 440.92 586.89 440.664 586.881 440.407C586.872 440.15 586.81 439.897 586.699 439.663C586.588 439.429 586.429 439.219 586.233 439.044C586.036 438.869 585.806 438.734 585.555 438.646" fill="#E0E0E0"/>
<path d="M568.217 446.72L570.969 443.596L607.392 474.048C607.392 474.048 608.492 476.179 607.254 477.265L568.217 446.72Z" fill="#00638D"/>
<path d="M597.264 450.124C597.085 450.31 596.067 449.661 594.595 449.542C593.122 449.423 591.953 449.86 591.843 449.648C591.733 449.436 592.957 448.536 594.719 448.694C596.48 448.853 597.443 450.005 597.264 450.124Z" fill="white"/>
<path d="M599.865 455.077C599.754 455.302 598.654 454.984 597.319 455.302C595.984 455.619 595.062 456.334 594.87 456.175C594.677 456.017 595.489 454.851 597.168 454.467C598.846 454.084 600.057 454.891 599.865 455.077Z" fill="white"/>
<path d="M598.048 461.881C597.842 461.788 598.392 460.556 599.768 459.921C601.144 459.285 602.396 459.524 602.341 459.749C602.286 459.974 601.268 460.106 600.139 460.676C599.011 461.245 598.254 462.039 598.048 461.881Z" fill="white"/>
<path d="M600.841 445.199C600.621 445.319 599.974 444.365 598.832 443.597C597.69 442.829 596.548 442.525 596.589 442.273C596.63 442.022 597.965 441.969 599.341 442.896C600.717 443.822 601.075 445.12 600.841 445.199Z" fill="white"/>
<path d="M702.019 412.906L701.689 439.717C701.689 439.717 728.425 449.171 728.837 454.136L677.595 455.142L676.439 413.343L702.019 412.906Z" fill="#263238"/>
<path d="M685.783 437.772C685.287 437.954 684.875 438.301 684.622 438.75C684.369 439.2 684.293 439.722 684.407 440.221C684.534 440.712 684.856 441.136 685.303 441.403C685.75 441.67 686.287 441.759 686.801 441.651C687.342 441.462 687.79 441.086 688.059 440.597C688.329 440.108 688.4 439.54 688.26 439.003C688.17 438.756 688.031 438.528 687.849 438.332C687.668 438.137 687.448 437.978 687.202 437.865C686.957 437.752 686.69 437.686 686.418 437.673C686.147 437.659 685.874 437.697 685.618 437.785" fill="#E0E0E0"/>
<path d="M677.582 455.142V450.918L726.691 451.527C726.691 451.527 729.003 452.494 728.783 454.175L677.582 455.142Z" fill="#00638D"/>
<path d="M702.5 439.44C702.5 439.691 701.248 439.823 700.037 440.671C698.826 441.518 698.193 442.591 697.959 442.498C697.726 442.405 698.07 440.922 699.556 439.929C701.042 438.936 702.542 439.201 702.5 439.44Z" fill="white"/>
<path d="M707.922 441.584C707.991 441.836 706.918 442.286 706.092 443.372C705.267 444.457 705.046 445.609 704.716 445.596C704.386 445.583 704.276 444.166 705.335 442.829C706.395 441.492 707.909 441.346 707.922 441.584Z" fill="white"/>
<path d="M711.128 448.058C710.894 448.058 710.522 446.853 711.128 445.41C711.733 443.967 712.903 443.424 713.013 443.636C713.123 443.848 712.407 444.603 711.926 445.768C711.444 446.933 711.32 448.018 711.128 448.058Z" fill="white"/>
<path d="M701.909 433.309C701.813 433.547 700.657 433.216 699.24 433.309C697.823 433.402 696.736 433.905 696.598 433.693C696.46 433.481 697.506 432.541 699.171 432.369C700.836 432.197 702.019 433.111 701.909 433.309Z" fill="white"/>
<path d="M665.472 290.197C665.539 290.431 665.585 290.671 665.61 290.912C665.678 291.455 665.761 292.13 665.871 292.964C666.091 294.739 666.366 297.32 666.683 300.511C667.316 306.893 668.059 315.724 668.733 325.495C669.407 335.266 669.93 344.031 670.357 350.492C670.536 353.617 670.687 356.185 670.797 358.079L670.88 360.144C670.913 360.381 670.913 360.622 670.88 360.859C670.803 360.628 670.762 360.387 670.756 360.144C670.756 359.601 670.618 358.926 670.522 358.092C670.357 356.212 670.137 353.643 669.861 350.532C669.339 344.137 668.719 335.293 668.031 325.535C667.343 315.777 666.655 306.999 666.201 300.551C665.954 297.44 665.761 294.871 665.61 292.991C665.61 292.157 665.513 291.468 665.472 290.925C665.439 290.684 665.439 290.439 665.472 290.197Z" fill="#00638D"/>
<path d="M806.889 206.813C808.806 208.017 805.953 211.657 805.953 211.657C807.199 211.856 807.979 215.287 806.536 216.259C807.438 216.378 807.92 216.169 808.615 216.736C808.968 217.012 809.247 217.367 809.43 217.774C809.613 218.18 809.694 218.625 809.668 219.075C809.622 219.522 809.428 219.948 809.116 220.286C808.804 220.624 808.392 220.857 807.941 220.949C808.589 221.205 809.137 221.65 809.511 222.226C809.886 222.802 810.071 223.481 810.04 224.174C809.982 225.007 809.609 225.799 808.995 226.395C808.691 226.693 808.336 226.938 807.948 227.116C807.808 227.201 807.655 227.261 807.495 227.293L807.274 227.265C806.948 227.159 806.644 227.01 806.318 226.934L805.931 226.862C805.346 226.78 804.75 226.776 804.159 226.85C803.883 226.918 803.603 226.963 803.321 226.985C803.144 226.954 802.971 226.908 802.803 226.849C801.642 226.753 800.465 226.894 799.347 227.262C798.11 227.641 796.8 227.673 795.569 227.355C794.969 227.165 794.476 226.752 794.193 226.203C793.91 225.654 793.859 225.011 794.051 224.411C793.658 224.549 793.232 224.54 792.854 224.386C792.477 224.232 792.176 223.944 792.011 223.579C791.865 223.212 791.817 222.812 791.871 222.416C791.925 222.02 792.081 221.64 792.322 221.312C792.819 220.657 793.486 220.143 794.25 219.827C793.778 219.905 793.299 219.802 792.914 219.539C792.529 219.276 792.268 218.873 792.187 218.416C792.129 217.951 792.195 217.476 792.376 217.036C792.557 216.595 792.849 216.203 793.223 215.897C793.974 215.291 794.844 214.847 795.774 214.594C796.687 214.312 800.492 213.082 801.366 212.671L801.025 210.056L800.99 209.711C802.413 208.674 802.786 208.299 804.099 207.46C805.044 206.811 806.056 206.337 806.889 206.813Z" fill="#FFBF9D"/>
<path d="M808.836 226.082C809.14 226.315 809.389 226.614 809.566 226.958C809.744 227.303 809.845 227.685 809.863 228.078C809.551 229.216 808.903 230.235 808.009 230.994L805.971 229.317L805.465 228.899C804.873 228.821 804.175 229.725 803.635 230.005C803.151 230.224 802.609 230.245 802.122 230.063C801.635 229.882 801.241 229.512 801.022 229.031C800.822 228.54 800.766 227.996 800.861 227.464C800.956 226.932 801.197 226.435 801.557 226.032C802.293 225.235 803.284 224.739 804.337 224.64C805.153 224.545 805.973 224.625 806.748 224.873C807.522 225.121 808.233 225.533 808.836 226.082Z" fill="#FFBF9D"/>
<path d="M809.194 222.366C806.77 222.613 804.368 223.094 802.024 223.8C799.623 224.284 797.27 225.001 795 225.941C797.43 225.701 799.837 225.218 802.182 224.501C804.581 224.028 806.931 223.312 809.194 222.366Z" fill="#FF9A6C"/>
<path d="M805.764 218.688C803.544 218.709 801.33 219.08 799.207 219.784C797.028 220.256 794.932 221.076 793.005 222.211C795.162 221.76 797.293 221.183 799.388 220.485C801.546 220.016 803.675 219.416 805.764 218.688Z" fill="#FF9A6C"/>
<path d="M803.49 214.043C801.656 214.121 799.84 214.529 798.134 215.246C796.345 215.735 794.619 216.445 793 217.359C794.819 217.139 796.605 216.667 798.305 215.957C800.084 215.474 801.82 214.834 803.49 214.043Z" fill="#FF9A6C"/>
<path d="M809.451 228.133C809.513 228.079 809.45 227.589 808.857 227.035C808.064 226.371 807.03 226.051 805.975 226.143C804.944 226.202 803.927 226.458 802.979 226.897C802.186 227.327 802.152 228.042 802.291 227.992C802.429 227.941 802.547 227.574 803.188 227.366C804.093 227.12 805.018 226.966 805.947 226.906C806.845 226.825 807.735 227.025 808.493 227.476C809.106 227.802 809.341 228.195 809.451 228.133Z" fill="#FF9A6C"/>
<path d="M676.838 229.361C676.815 228.701 676.856 228.041 676.962 227.388C677.1 226.064 677.279 224.197 677.485 222.092C677.925 217.577 678.435 211.328 678.724 204.417C679.013 197.506 678.999 191.177 678.944 186.702C678.944 184.53 678.875 182.73 678.847 181.326C678.794 180.67 678.794 180.01 678.847 179.354C678.995 179.997 679.073 180.654 679.081 181.313C679.191 182.637 679.301 184.411 679.398 186.688C679.604 191.23 679.673 197.506 679.398 204.443C679.123 211.381 678.517 217.683 677.953 222.132C677.664 224.396 677.403 226.21 677.196 227.428C677.142 228.082 677.023 228.729 676.838 229.361Z" fill="#263238"/>
<path d="M655.482 148.648C654.23 149.324 630.825 160.326 625.857 165.702C620.89 171.077 613.281 205.58 613.281 205.58L607.694 236.125L603.332 281.485L676.466 282.28C679.356 276.07 677.471 269.622 674.058 263.108L679.741 191.347L678.764 174.572L655.482 148.648Z" fill="#00638D"/>
<path d="M624.056 185.204C624.056 185.204 611.768 180.16 610.516 172.666C609.264 165.172 610.791 163.186 612.841 160.021C614.891 156.857 652.277 118.527 652.277 118.527L670.537 132.972L644.159 162.815C644.159 162.815 648.053 163.384 646.76 168.111" fill="#00638D"/>
<path d="M646.76 168.178C646.852 167.617 646.912 167.051 646.939 166.483C646.957 165.798 646.781 165.12 646.43 164.524C646.178 164.129 645.844 163.79 645.448 163.528C645.052 163.266 644.604 163.086 644.132 163.001H643.884L644.049 162.816L670.289 132.801V133.251L652.016 118.819H652.498L645.618 125.969L624.015 148.252C620.726 151.721 617.589 155.004 614.754 158.155C614.051 158.906 613.403 159.702 612.814 160.538C612.259 161.359 611.758 162.213 611.314 163.094C610.561 164.761 610.222 166.574 610.323 168.39C610.352 170.061 610.559 171.725 610.943 173.355C611.338 174.787 612.051 176.12 613.034 177.26C614.6 179.123 616.457 180.739 618.538 182.053C619.844 182.912 621.199 183.699 622.597 184.41L623.684 184.966C623.815 185.019 623.94 185.086 624.056 185.165C623.917 185.141 623.782 185.096 623.657 185.032L622.528 184.542C621.103 183.874 619.724 183.118 618.4 182.278C616.263 180.979 614.351 179.367 612.731 177.499C611.709 176.341 610.954 174.987 610.516 173.527C610.104 171.864 609.873 170.165 609.828 168.456C609.714 166.557 610.058 164.658 610.832 162.908C611.727 161.058 612.9 159.345 614.314 157.824C617.148 154.647 620.258 151.35 623.547 147.868C630.11 140.93 637.403 133.304 645.081 125.439L651.961 118.303L652.195 118.064L652.443 118.276L670.688 132.734L670.95 132.946L670.73 133.185L644.214 162.975L644.118 162.749C644.628 162.844 645.11 163.044 645.533 163.334C645.955 163.624 646.308 163.998 646.567 164.431C646.914 165.066 647.076 165.78 647.035 166.496C647.024 166.943 646.959 167.388 646.842 167.82C646.828 167.942 646.801 168.062 646.76 168.178Z" fill="#263238"/>
<path d="M654.739 87.7457C654.739 87.7457 652.593 86.1171 652.152 89.5728C651.712 93.0284 655.138 106.785 655.551 106.785C655.964 106.785 658.083 114.729 657.753 115.814C657.422 116.9 654.299 120.184 654.299 120.184L668.857 131.689L673.356 123.878C676.785 122.582 679.749 120.356 681.888 117.469C685.176 112.822 697.643 95.1468 698.001 92.6709C698.358 90.1951 695.758 89.8641 693.873 92.234C691.987 94.604 687.612 100.178 686.827 100.536C686.043 100.893 685.575 99.8205 686.002 99.2115C686.428 98.6025 694.616 85.9715 695.386 83.6148C696.418 80.5034 692.909 79.8546 692.909 79.8546C692.909 79.8546 694.134 76.5711 692.331 75.9488C690.529 75.3265 688.768 77.008 686.827 79.8017C684.887 82.5953 678.296 91.7176 677.608 92.1413C676.92 92.565 676.384 92.1413 676.989 90.8968C677.594 89.6522 685.589 78.4777 685.562 76.9021C685.534 75.3265 684.337 72.8374 680.924 76.1607C677.512 79.4839 669.916 93.3727 668.747 94.5643C667.577 95.7559 664.123 99.5557 662.789 99.1453C661.454 98.7349 658.275 94.7231 657.574 91.8898C657.198 90.2169 656.187 88.7392 654.739 87.7457Z" fill="#FFBF9D"/>
<path d="M654.739 87.7451C655.272 88.0759 655.739 88.4977 656.115 88.9896C656.607 89.5836 656.997 90.2496 657.271 90.9624C657.45 91.3861 657.546 91.8627 657.711 92.2864C657.895 92.7991 658.116 93.2991 658.372 93.7825C658.976 94.9289 659.71 96.0078 660.559 96.9998C661.44 97.9531 662.72 99.767 664.192 98.3238C665.627 97.2158 666.953 95.9837 668.155 94.6431C668.809 93.9162 669.377 93.1213 669.847 92.2731L671.471 89.6251C673.686 85.9709 676.026 81.893 679.039 77.7091C679.799 76.6225 680.727 75.6537 681.791 74.8361C682.378 74.3765 683.112 74.1242 683.869 74.1211C684.264 74.1913 684.631 74.3697 684.923 74.6351C685.216 74.9005 685.423 75.2415 685.52 75.6172C685.635 75.965 685.704 76.3253 685.726 76.6897C685.71 76.8912 685.673 77.0907 685.616 77.2855L685.41 77.7886C685.107 78.4241 684.763 79.0331 684.419 79.6554C683.704 80.8735 682.933 82.0651 682.149 83.2832L677.264 90.6976C677.078 90.9666 676.964 91.2761 676.934 91.5979C676.934 91.7435 676.934 91.7833 677.016 91.7965C677.062 91.8158 677.111 91.8258 677.161 91.8258C677.211 91.8258 677.26 91.8158 677.305 91.7965L677.443 91.6641L677.636 91.4523C677.759 91.3199 677.869 91.161 677.993 91.0153L678.709 90.115C679.658 88.8705 680.608 87.6127 681.543 86.3284L687.268 78.3844C687.786 77.7053 688.371 77.0757 689.015 76.5043C689.682 75.8476 690.58 75.4555 691.533 75.4054C692.041 75.4034 692.531 75.5827 692.909 75.9085C693.268 76.2651 693.479 76.7363 693.501 77.2325C693.559 78.1322 693.423 79.0337 693.102 79.8805L692.84 79.4303C693.426 79.5245 693.979 79.7497 694.458 80.0877C694.936 80.4258 695.324 80.8673 695.592 81.3766C695.772 81.9116 695.828 82.4778 695.756 83.0357C695.685 83.5937 695.488 84.1299 695.18 84.6072C694.216 86.5005 693.115 88.2879 692.015 90.115L688.602 95.5831L686.841 98.3371L686.387 99.0123L686.18 99.3433C686.127 99.417 686.098 99.5048 686.098 99.5949C686.085 99.6781 686.092 99.763 686.118 99.8433C686.144 99.9236 686.189 99.9971 686.249 100.058C686.301 100.1 686.367 100.123 686.435 100.123C686.503 100.123 686.569 100.1 686.621 100.058C686.845 99.8873 687.052 99.6967 687.24 99.4889L687.887 98.7872L689.139 97.3176C689.937 96.3113 690.749 95.3183 691.547 94.3253C692.345 93.3323 693.06 92.3261 693.996 91.3331C694.486 90.8387 695.096 90.47 695.771 90.2607C696.142 90.1235 696.549 90.1035 696.932 90.2035C697.315 90.3034 697.656 90.5182 697.904 90.8167C698.104 91.118 698.233 91.4583 698.281 91.8131C698.328 92.168 698.294 92.5285 698.179 92.8689C698.085 93.1839 697.961 93.4897 697.808 93.7825C697.67 94.0738 697.532 94.3651 697.381 94.6299C696.789 95.7288 696.143 96.788 695.482 97.8207C694.189 99.8994 692.84 101.938 691.506 103.924C688.827 107.905 686.167 111.754 683.525 115.47C682.864 116.396 682.259 117.323 681.543 118.224C680.824 119.104 680.023 119.92 679.149 120.66C677.432 122.088 675.479 123.229 673.37 124.036L673.549 123.89L669.036 131.689L668.857 131.993L668.581 131.781L654.065 120.236L653.844 120.077L654.037 119.879C655.009 118.883 655.928 117.84 656.789 116.754C656.986 116.491 657.165 116.217 657.326 115.933C657.479 115.686 657.537 115.396 657.491 115.112C657.435 114.481 657.343 113.853 657.216 113.232C656.968 111.988 656.679 110.796 656.363 109.644C656.211 109.075 656.046 108.505 655.867 107.963C655.766 107.689 655.67 107.424 655.578 107.168C655.578 107.049 655.454 106.903 655.413 106.837C655.413 106.837 655.606 106.837 655.482 106.837C655.401 106.822 655.328 106.779 655.276 106.718L655.179 106.493C654.535 104.499 653.998 102.475 653.569 100.429C653.157 98.5621 652.812 96.8409 652.551 95.2786C652.069 92.2069 651.657 89.6516 652.468 88.0761C652.547 87.9017 652.662 87.7448 652.807 87.615C652.951 87.4852 653.122 87.3853 653.308 87.3214C653.581 87.2373 653.874 87.2373 654.147 87.3214C654.361 87.3931 654.558 87.5057 654.725 87.6524C654.725 87.6524 654.532 87.52 654.12 87.3876C653.868 87.317 653.601 87.317 653.349 87.3876C653.177 87.4478 653.021 87.5427 652.89 87.6661C652.76 87.7894 652.658 87.9382 652.592 88.1026C651.863 89.6119 652.303 92.0745 652.826 95.1992C653.508 98.9523 654.427 102.662 655.578 106.308C655.6 106.363 655.628 106.416 655.661 106.466C655.661 106.466 655.537 106.466 655.537 106.546C655.537 106.625 655.537 106.771 655.537 106.427H655.675V106.493C655.766 106.627 655.844 106.769 655.908 106.917C656.019 107.195 656.115 107.473 656.211 107.751C656.39 108.307 656.569 108.863 656.734 109.445C657.051 110.597 657.353 111.802 657.615 113.06C657.755 113.697 657.852 114.343 657.904 114.993C657.917 115.169 657.917 115.346 657.904 115.523C657.865 115.709 657.795 115.887 657.697 116.052C657.534 116.357 657.345 116.65 657.133 116.926C656.282 118.041 655.363 119.107 654.381 120.117V119.759L668.967 131.238L668.513 131.318C669.889 128.802 671.444 126.194 672.998 123.506V123.414H673.108C675.121 122.622 676.981 121.512 678.612 120.13C679.45 119.421 680.215 118.636 680.897 117.787C681.571 116.939 682.273 115.973 682.864 115.046C685.479 111.339 688.148 107.486 690.818 103.514C692.157 101.519 693.473 99.4889 694.767 97.4235C695.413 96.3908 696.06 95.3316 696.638 94.2591C696.789 93.9943 696.927 93.7295 697.051 93.4515C697.188 93.1979 697.299 92.9318 697.381 92.6571C697.47 92.4115 697.502 92.1499 697.473 91.8912C697.444 91.6325 697.357 91.3831 697.216 91.161C697.05 90.9764 696.827 90.8475 696.58 90.7928C696.332 90.738 696.073 90.7603 695.84 90.8565C695.282 91.0388 694.781 91.3529 694.381 91.77C693.57 92.6306 692.785 93.7163 691.987 94.6828C691.189 95.6493 690.377 96.6821 689.565 97.6883C689.153 98.1914 688.74 98.6813 688.313 99.1712L687.639 99.9126C687.394 100.186 687.111 100.426 686.8 100.628C686.608 100.723 686.389 100.757 686.176 100.723C685.963 100.69 685.767 100.591 685.616 100.442C685.486 100.306 685.387 100.145 685.325 99.969C685.263 99.7934 685.241 99.6073 685.259 99.4227C685.271 99.2364 685.328 99.0553 685.424 98.8931L685.658 98.5357L686.112 97.8604L688.066 95.2919C689.221 93.4647 690.35 91.6376 691.478 89.837C692.606 88.0363 693.68 86.2092 694.615 84.3821C694.88 83.9962 695.055 83.5593 695.126 83.102C695.197 82.6446 695.164 82.1778 695.028 81.7341C694.805 81.3309 694.49 80.9819 694.106 80.7135C693.722 80.4451 693.28 80.2643 692.813 80.185L692.428 80.1056L692.551 79.7481C692.835 78.9983 692.962 78.2018 692.923 77.4046C692.911 77.0619 692.774 76.734 692.538 76.4778C692.269 76.269 691.933 76.1566 691.588 76.1601C690.807 76.2214 690.075 76.5503 689.524 77.0869C688.912 77.6315 688.355 78.2299 687.859 78.8743L682.135 86.8183C681.199 88.1423 680.25 89.3736 679.287 90.6181L678.557 91.5317L678.172 91.9951L677.98 92.2202L677.677 92.4717C677.551 92.5484 677.408 92.5956 677.26 92.6094C677.112 92.6232 676.962 92.6032 676.824 92.5512C676.679 92.4845 676.558 92.379 676.475 92.2473C676.392 92.1157 676.351 91.9637 676.356 91.8097C676.375 91.377 676.513 90.9569 676.755 90.5917C678.42 87.9437 680.126 85.5869 681.695 83.164C682.479 81.9459 683.25 80.7543 683.951 79.5495C684.295 78.9537 684.639 78.3579 684.928 77.7489L685.121 77.2987C685.134 77.1666 685.134 77.0336 685.121 76.9015C685.114 76.5864 685.059 76.274 684.956 75.9747C684.898 75.6992 684.758 75.4459 684.553 75.246C684.347 75.0461 684.086 74.9082 683.8 74.8493C683.181 74.8632 682.584 75.0778 682.108 75.4583C681.126 76.2111 680.259 77.0937 679.534 78.0799C676.521 82.1578 674.154 86.2225 671.911 89.8635C671.347 90.7638 670.811 91.6509 670.274 92.5115C669.78 93.378 669.189 94.1904 668.513 94.9344C667.278 96.2811 665.92 97.5175 664.453 98.6283C664.099 98.8894 663.698 99.0868 663.27 99.2109C663.038 99.2837 662.787 99.2837 662.555 99.2109C662.362 99.1208 662.178 99.0144 662.004 98.8931C661.404 98.4075 660.86 97.8616 660.38 97.2646C659.536 96.2434 658.807 95.1382 658.206 93.9679C657.955 93.4708 657.738 92.9576 657.56 92.432C657.408 91.9289 657.312 91.4655 657.147 91.108C656.9 90.4012 656.533 89.7389 656.06 89.1485C655.779 88.7756 655.456 88.4337 655.097 88.129C654.965 88.0119 654.846 87.8833 654.739 87.7451Z" fill="#FF9A6C"/>
<path d="M644.227 162.949C642.294 166.48 639.893 169.756 637.086 172.694C634.235 175.649 630.326 177.456 626.146 177.752" fill="#00638D"/>
<path d="M626.146 177.751C626.146 177.619 627.522 177.619 629.642 176.917C632.36 175.973 634.817 174.442 636.824 172.442C638.836 170.421 640.621 168.202 642.149 165.822C642.758 164.807 643.453 163.841 644.227 162.936C643.806 164.038 643.257 165.09 642.59 166.073C641.155 168.566 639.388 170.867 637.333 172.919C635.251 174.993 632.657 176.528 629.793 177.38C628.927 177.616 628.036 177.758 627.137 177.804C626.806 177.847 626.47 177.829 626.146 177.751Z" fill="#263238"/>
<path d="M645.658 173.156C645.133 174.133 644.455 175.026 643.649 175.804C639.958 179.74 635.189 182.594 629.889 184.04C628.811 184.392 627.683 184.58 626.545 184.596C633.987 182.738 640.67 178.754 645.713 173.17L645.658 173.156Z" fill="#263238"/>
<g opacity="0.3">
<path d="M626.655 177.114C630.095 178.319 633.37 178.769 636.687 177.3C640.044 175.797 642.66 173.095 643.979 169.766C644.915 167.37 645.135 164.722 646.236 162.378C648.699 157.175 655.139 154.183 656.597 148.648C651.465 154.05 646.649 158.883 642.672 165.357C640.777 168.533 638.302 171.355 635.366 173.685C632.878 175.745 629.753 176.955 626.477 177.128" fill="black"/>
</g>
<g opacity="0.3">
<path d="M678.297 215.776L681.517 216.689C681.517 216.689 682.755 193.572 679.329 186.568L678.297 215.776Z" fill="black"/>
</g>
<path d="M727.5 198C727.5 198 709.396 191.819 704.999 190.894C700.603 189.969 677.5 181.501 677.5 181.501C677.5 181.501 679.484 192.466 676 197C671.77 202.579 675.001 212.5 675.001 212.5C675.001 212.5 706.488 218.743 712.499 219.501C718.511 220.259 739.5 215.915 739.5 215.915L737 209.5L733 203.5L727.5 198Z" fill="#00638D"/>
<path d="M362.573 155.163L353.367 105.791C350.615 93.5705 355.789 81.8796 368.503 79.6155L369.7 79.4699C375.483 78.7772 381.325 80.204 386.065 83.4667C390.804 86.7295 394.094 91.589 395.28 97.0791C397.564 107.671 399.945 119.415 400.619 125.161C401.995 137.077 389.886 140.4 389.886 140.4C389.886 140.4 391.056 147.603 391.661 151.059L395.954 158.698L385.442 157.957L362.573 155.163Z" fill="#AE7461"/>
<path d="M389.927 140.402C384.219 141.074 378.431 140.155 373.25 137.754C373.25 137.754 378.272 146.227 390.464 143.685L389.927 140.402Z" fill="#6F4439"/>
<path d="M391.937 108.652C392.001 109.095 391.88 109.545 391.602 109.904C391.324 110.263 390.911 110.503 390.451 110.572C390.229 110.614 390 110.613 389.778 110.569C389.556 110.525 389.345 110.438 389.158 110.315C388.971 110.192 388.812 110.034 388.689 109.851C388.566 109.667 388.482 109.462 388.442 109.248C388.379 108.808 388.498 108.361 388.773 108.005C389.049 107.648 389.459 107.41 389.915 107.341C390.137 107.295 390.367 107.293 390.591 107.334C390.814 107.376 391.027 107.46 391.216 107.582C391.405 107.705 391.566 107.863 391.69 108.046C391.814 108.23 391.898 108.436 391.937 108.652Z" fill="#263238"/>
<path d="M393.382 102.654C393.189 102.893 391.731 102.111 389.832 102.336C387.933 102.562 386.653 103.66 386.419 103.449C386.185 103.237 386.419 102.945 387.025 102.442C387.794 101.788 388.756 101.38 389.777 101.277C390.765 101.154 391.768 101.34 392.639 101.807C393.217 102.164 393.464 102.535 393.382 102.654Z" fill="#263238"/>
<path d="M375.123 110.703C375.183 111.144 375.063 111.59 374.789 111.948C374.514 112.306 374.106 112.548 373.651 112.623C373.427 112.665 373.198 112.664 372.975 112.62C372.752 112.576 372.54 112.49 372.352 112.367C372.164 112.244 372.003 112.086 371.879 111.903C371.754 111.719 371.669 111.514 371.628 111.299C371.561 110.857 371.678 110.407 371.953 110.047C372.229 109.688 372.641 109.448 373.1 109.379C373.324 109.335 373.554 109.335 373.778 109.378C374.001 109.421 374.214 109.507 374.402 109.63C374.591 109.753 374.752 109.912 374.876 110.096C374.999 110.281 375.083 110.487 375.123 110.703Z" fill="#263238"/>
<path d="M374.819 105.303C374.627 105.554 373.168 104.76 371.269 104.998C369.37 105.236 368.104 106.322 367.871 106.11C367.637 105.898 367.871 105.594 368.476 105.104C369.238 104.439 370.204 104.03 371.228 103.939C372.215 103.81 373.219 103.991 374.09 104.455C374.668 104.813 374.916 105.197 374.819 105.303Z" fill="#263238"/>
<path d="M383.447 118.529C384.409 118.108 385.421 117.801 386.46 117.615C386.942 117.509 387.396 117.364 387.424 117.033C387.406 116.552 387.233 116.089 386.928 115.709L385.029 112.332C382.387 107.513 380.406 103.528 380.612 103.422C382.557 106.137 384.282 108.992 385.772 111.962L387.602 115.378C387.979 115.905 388.154 116.541 388.098 117.178C388.047 117.35 387.956 117.508 387.832 117.642C387.708 117.775 387.554 117.879 387.382 117.946C387.123 118.053 386.85 118.124 386.57 118.158C385.55 118.409 384.5 118.533 383.447 118.529Z" fill="#263238"/>
<path d="M374.695 99.5168C374.502 100.02 372.589 99.7419 370.346 99.967C368.104 100.192 366.218 100.748 365.971 100.298C365.847 100.086 366.177 99.6095 366.906 99.1461C367.891 98.5547 369.01 98.2004 370.168 98.1134C371.316 97.9991 372.476 98.1489 373.553 98.5503C374.364 98.8813 374.777 99.2652 374.695 99.5168Z" fill="#263238"/>
<path d="M392.763 97.2648C392.433 97.7414 390.823 97.5163 388.965 97.7414C387.107 97.9665 385.58 98.4828 385.154 98.0989C384.975 97.9135 385.154 97.4634 385.787 96.9735C386.662 96.3594 387.694 95.9843 388.772 95.8878C389.839 95.7437 390.926 95.8905 391.91 96.3115C392.639 96.616 392.914 97.0397 392.763 97.2648Z" fill="#263238"/>
<path d="M355.514 114.464C355.294 114.464 346.708 113.14 348.029 121.164C349.35 129.187 357.523 126.314 357.509 126.076C357.496 125.838 355.514 114.464 355.514 114.464Z" fill="#AE7461"/>
<path d="M354.427 123.4C354.427 123.4 354.303 123.519 354.069 123.665C353.911 123.766 353.733 123.835 353.546 123.867C353.359 123.899 353.167 123.893 352.982 123.85C352.387 123.601 351.872 123.203 351.489 122.698C351.107 122.193 350.872 121.599 350.808 120.977C350.675 120.287 350.703 119.577 350.891 118.899C350.914 118.62 351.011 118.352 351.172 118.121C351.333 117.889 351.554 117.701 351.813 117.575C351.975 117.509 352.155 117.5 352.323 117.548C352.491 117.596 352.637 117.699 352.735 117.839C352.886 118.051 352.859 118.21 352.914 118.223C352.969 118.237 353.065 118.064 352.914 117.733C352.838 117.54 352.691 117.38 352.501 117.283C352.374 117.215 352.235 117.171 352.091 117.155C351.947 117.139 351.801 117.151 351.661 117.191C351.316 117.302 351.007 117.499 350.765 117.761C350.524 118.024 350.358 118.343 350.285 118.687C350.039 119.44 349.988 120.24 350.134 121.017C350.217 121.747 350.523 122.437 351.012 123C351.502 123.563 352.154 123.974 352.886 124.181C353.133 124.224 353.387 124.208 353.626 124.137C353.865 124.066 354.084 123.94 354.262 123.771C354.455 123.599 354.469 123.413 354.427 123.4Z" fill="#6F4439"/>
<path d="M377.723 120.594C378.012 120.594 378.342 122.394 380.228 123.44C382.113 124.486 384.122 123.93 384.19 124.195C384.259 124.46 383.791 124.632 382.925 124.791C381.802 124.999 380.639 124.811 379.65 124.261C378.69 123.742 377.979 122.882 377.668 121.865C377.462 121.11 377.586 120.607 377.723 120.594Z" fill="#263238"/>
<path d="M410.43 83.7339C410.207 83.2786 409.807 82.9264 409.316 82.7541C408.257 82.476 407.14 82.476 406.082 82.7541C403.395 83.1018 400.661 82.8573 398.087 82.0392C398.859 81.5222 399.541 80.8923 400.11 80.1723C400.717 79.4349 401.104 78.5517 401.228 77.6184C401.351 76.685 401.207 75.7368 400.812 74.8763C400.745 74.7126 400.639 74.5663 400.503 74.449C400.367 74.3317 400.204 74.2468 400.028 74.2011C399.45 74.1084 399.051 74.7042 398.734 75.1676C398.355 75.8752 397.784 76.4707 397.082 76.8904C396.379 77.3101 395.571 77.5384 394.744 77.5508C393.609 77.6602 392.463 77.5105 391.4 77.1139L391.276 77.0212L389.79 75.962C386.943 73.7389 383.671 72.0745 380.158 71.0632C374.997 70.0776 369.654 70.4667 364.706 72.1886C360.578 73.9098 357.289 77.8288 357.385 82.1318C354.633 80.543 351.056 81.0991 348.317 82.6614H348.235C345.153 84.2635 343.845 87.8515 343.391 91.188C343.391 91.3733 343.391 91.5587 343.391 91.7441C342.559 93.5985 341.281 95.2366 339.662 96.5237C339.373 96.7355 339.057 97.0136 339.071 97.3711C339.085 97.7286 339.442 97.9536 339.759 98.1125C340.614 98.5256 341.554 98.7517 342.511 98.7745C342.348 99.5839 342.109 100.377 341.795 101.144C341.52 101.793 341.204 102.574 341.616 103.157C341.8 103.367 342.047 103.516 342.323 103.585C342.599 103.654 342.891 103.638 343.157 103.541C343.674 103.338 344.142 103.036 344.533 102.654C344.3 103.541 344.066 104.441 343.845 105.302C345.06 105.317 346.262 105.059 347.354 104.547C348.524 107.433 349.941 112.888 351.069 114.795C353.299 114.504 353.821 114.186 354.991 114.384C356.532 114.623 356.367 117.191 358.156 116.212C359.064 115.708 359.972 111.962 360.151 110.916C361.275 104.297 360.905 97.5236 359.064 91.0556C360.203 89.4853 361.641 88.1375 363.302 87.0836L363.178 87.2292C366.439 85.5742 370.141 83.853 373.663 84.9255C376.415 85.7596 378.287 88.0634 380.543 89.7978C382.428 91.3933 384.641 92.5892 387.038 93.3078C389.435 94.0263 391.962 94.2514 394.455 93.9684C395.514 97.4637 396.601 103.236 397.317 106.599L399.202 99.4895C399.373 99.0559 399.52 98.6139 399.642 98.1655V98.0331C399.849 97.3578 400.041 96.7091 400.317 95.9941C400.77 96.2956 401.324 96.4215 401.87 96.3467C402.415 96.2719 402.911 96.0019 403.258 95.5906C403.606 95.1793 403.779 94.657 403.744 94.128C403.709 93.5991 403.468 93.1023 403.069 92.7371C402.714 92.3912 402.305 92.1009 401.858 91.8765C402.348 92.2057 402.917 92.4089 403.512 92.4668C404.107 92.5248 404.707 92.4355 405.256 92.2075C405.792 91.9524 406.226 91.5367 406.494 91.0232C406.762 90.5097 406.849 89.9263 406.742 89.3609C406.634 88.9837 406.425 88.6407 406.135 88.3664C405.845 88.0921 405.485 87.8962 405.091 87.7985C406.641 87.6851 408.12 87.1322 409.343 86.2097C410.169 85.6404 410.898 84.7004 410.43 83.7339Z" fill="#263238"/>
<path d="M361.403 82.9121C361.014 83.3256 360.66 83.7684 360.344 84.2361C359.554 85.5163 359.123 86.9714 359.092 88.4597C359.034 89.4819 359.089 90.5071 359.257 91.5181C359.436 92.6038 359.711 93.7689 360 94.987C360.318 96.2609 360.557 97.5519 360.715 98.8531C360.771 99.5494 360.771 100.249 360.715 100.945C360.728 101.685 360.538 102.416 360.165 103.063C359.988 103.327 359.742 103.541 359.453 103.685C359.163 103.829 358.839 103.898 358.514 103.884C357.894 103.87 357.298 103.656 356.821 103.275C356.011 102.485 355.432 101.503 355.143 100.429H355.404C355.175 101.359 354.804 102.251 354.303 103.077C353.837 103.856 353.079 104.433 352.184 104.692C351.757 104.811 351.304 104.811 350.877 104.692C350.481 104.566 350.135 104.326 349.886 104.003C349.649 103.713 349.501 103.364 349.46 102.997C349.418 102.653 349.506 102.305 349.707 102.017L349.845 102.11C349.246 103.026 348.454 103.811 347.519 104.414C347.271 104.569 347.014 104.71 346.749 104.838L346.46 104.957C346.538 104.891 346.626 104.837 346.721 104.798C346.887 104.692 347.148 104.546 347.464 104.334C348.359 103.711 349.116 102.924 349.694 102.017L349.845 102.11C349.685 102.39 349.619 102.711 349.656 103.029C349.693 103.346 349.831 103.645 350.051 103.884C350.278 104.17 350.59 104.382 350.946 104.493C351.332 104.599 351.742 104.599 352.129 104.493C352.984 104.253 353.712 103.709 354.166 102.971C354.643 102.14 354.995 101.249 355.211 100.323L355.321 99.9255L355.473 100.323C355.755 101.325 356.305 102.238 357.069 102.971C357.501 103.312 358.038 103.507 358.596 103.527C358.87 103.537 359.141 103.477 359.382 103.354C359.624 103.23 359.827 103.048 359.972 102.825C360.317 102.221 360.492 101.541 360.481 100.852C360.537 100.169 360.537 99.4831 360.481 98.8001C360.336 97.5076 360.106 96.2252 359.793 94.9605C359.504 93.7424 359.243 92.5773 359.078 91.4652C358.919 90.44 358.872 89.4015 358.94 88.367C358.999 86.8539 359.474 85.3828 360.316 84.1037C360.611 83.6539 360.978 83.2517 361.403 82.9121Z" fill="#00638D"/>
<path d="M401.363 88.7652L401.28 88.8579L401.005 89.1227C400.881 89.2286 400.73 89.3742 400.537 89.5199C400.319 89.6978 400.09 89.8614 399.849 90.0097C398.314 90.9723 396.556 91.5545 394.73 91.7045C392.009 91.9413 389.275 91.4123 386.86 90.1819C383.947 88.6479 381.387 86.5627 379.333 84.0517C378.205 82.7277 377.241 81.4038 376.223 80.146C375.28 78.9283 374.153 77.8529 372.88 76.9551C371.745 76.1286 370.409 75.5953 368.999 75.406C368.366 75.3387 367.725 75.3655 367.1 75.4855C366.521 75.6009 365.961 75.7925 365.435 76.0548C363.832 76.866 362.605 78.2269 361.995 79.8679C361.801 80.4742 361.686 81.1012 361.651 81.7347C361.651 81.7347 361.651 81.7348 361.651 81.6156V81.2449C361.682 80.7656 361.765 80.2908 361.899 79.8282C362.149 79.1105 362.516 78.4356 362.986 77.829C363.619 77.0227 364.427 76.3586 365.353 75.8827C365.89 75.6052 366.464 75.4003 367.059 75.2736C367.709 75.1364 368.379 75.1051 369.04 75.181C370.496 75.3649 371.879 75.9026 373.058 76.7433C374.343 77.6613 375.487 78.7488 376.457 79.9738C377.489 81.2184 378.452 82.6218 379.581 83.8664C381.6 86.3546 384.123 88.4221 386.997 89.9436C389.362 91.1651 392.041 91.7074 394.717 91.5059C396.518 91.381 398.261 90.8356 399.794 89.9171C400.854 89.2551 401.335 88.6725 401.363 88.7652Z" fill="#00638D"/>
<path d="M401.721 83.377C401.596 83.5037 401.462 83.6231 401.322 83.7344C400.943 84.0447 400.538 84.3237 400.111 84.5685C399.491 84.9465 398.837 85.27 398.157 85.5351C397.315 85.8536 396.445 86.0974 395.557 86.2633C394.649 86.4224 393.727 86.4978 392.805 86.4884C392.07 86.4803 391.338 86.4094 390.617 86.2765C390.125 86.1981 389.642 86.0785 389.172 85.919C388.842 85.8131 388.663 85.7469 388.677 85.7204C388.69 85.694 389.42 85.9058 390.644 86.0779C391.359 86.1792 392.082 86.2279 392.805 86.2235C393.691 86.2254 394.576 86.1456 395.446 85.9852C396.312 85.8198 397.163 85.5896 397.992 85.2967C398.671 85.0464 399.329 84.7454 399.96 84.3964C401.019 83.8139 401.611 83.377 401.721 83.377Z" fill="#00638D"/>
<path d="M517.429 233.61L522.19 232.882C523.667 231.448 525.321 230.194 527.116 229.148C529.868 227.612 532.248 227.612 532.936 228.883C533.27 229.574 533.349 230.354 533.159 231.093C532.968 231.833 532.521 232.487 531.891 232.948C530.515 234.206 525.121 235.596 524.818 237.781C524.515 239.965 541.784 247.049 541.784 247.049L528.134 261.997L508.32 251.855L507.411 250.293L507.205 246.188L517.429 233.61Z" fill="#AE7461"/>
<path d="M379.208 274.828L385.208 342.881L383.185 354.704C383.185 354.704 358.665 422.493 359.174 450.549L387.863 449.225C387.863 449.225 415.865 372.433 418.067 363.999C420.268 355.565 431.551 298.818 431.551 298.818L450.155 343.662L450.678 354.109L439.959 419.157L473.272 420.838C473.272 420.838 486.908 347.012 485.559 337.426C484.211 327.841 462.167 252.982 462.167 252.982L450.802 243.436L385.978 254.028L379.208 274.828Z" fill="#263238"/>
<path d="M470.19 401.005L469.145 428.292C469.145 428.292 496.128 438.54 496.417 443.611L444.253 443.505L444.129 400.912L470.19 401.005Z" fill="#263238"/>
<path d="M453.031 425.948C452.519 426.12 452.088 426.463 451.818 426.916C451.548 427.368 451.456 427.899 451.559 428.411C451.671 428.915 451.986 429.356 452.434 429.638C452.882 429.921 453.428 430.022 453.953 429.92C454.502 429.736 454.963 429.365 455.249 428.878C455.535 428.391 455.627 427.82 455.508 427.272C455.15 426.279 453.76 425.485 452.838 425.948" fill="#E0E0E0"/>
<path d="M444.252 443.504L444.403 439.201L494.393 440.856C494.393 440.856 496.719 441.889 496.444 443.504H444.252Z" fill="#00638D"/>
<path d="M470.011 428.027C470.011 428.292 468.731 428.398 467.479 429.232C466.227 430.066 465.553 431.138 465.319 431.032C465.085 430.926 465.47 429.443 466.998 428.464C468.525 427.484 470.066 427.788 470.011 428.027Z" fill="white"/>
<path d="M475.488 430.344C475.488 430.596 474.442 431.033 473.576 432.119C472.709 433.204 472.447 434.369 472.2 434.356C471.952 434.343 471.787 432.887 472.888 431.549C473.988 430.212 475.474 430.093 475.488 430.344Z" fill="white"/>
<path d="M478.583 437.003C478.349 437.003 477.991 435.758 478.651 434.355C479.312 432.951 480.509 432.369 480.605 432.594C480.702 432.819 479.986 433.56 479.463 434.726C478.94 435.891 478.775 436.976 478.583 437.003Z" fill="white"/>
<path d="M469.57 421.777C469.46 422.015 468.29 421.658 466.818 421.777C465.346 421.896 464.259 422.333 464.066 422.108C463.873 421.883 465.016 420.969 466.722 420.877C468.428 420.784 469.694 421.578 469.57 421.777Z" fill="white"/>
<path d="M385.071 429.721L385.277 461.06L392.859 485.792C392.988 486.215 393.027 486.659 392.971 487.096C392.915 487.533 392.766 487.955 392.534 488.335C392.302 488.715 391.991 489.045 391.621 489.304C391.251 489.564 390.829 489.747 390.382 489.844C389.862 489.955 389.322 489.944 388.807 489.813C388.292 489.681 387.818 489.433 387.423 489.089C382.318 484.64 363.619 468.209 363.743 465.906C363.88 463.258 361.252 432.872 361.252 432.872L385.071 429.721Z" fill="#263238"/>
<path d="M390.382 489.844L363.674 463.801V465.125C363.711 466.272 364.169 467.37 364.967 468.223C367.1 470.5 373.141 476.67 387.286 489.089C387.692 489.446 388.183 489.702 388.716 489.833C389.248 489.965 389.806 489.968 390.341 489.844H390.382Z" fill="#00638D"/>
<g opacity="0.6">
<path d="M370.072 453.501C370.479 453.777 370.766 454.186 370.88 454.652C370.994 455.118 370.927 455.608 370.692 456.029C370.425 456.432 370.008 456.72 369.527 456.836C369.046 456.952 368.537 456.886 368.105 456.652C367.677 456.364 367.375 455.935 367.255 455.447C367.136 454.958 367.208 454.444 367.458 454.004C367.779 453.612 368.245 453.355 368.759 453.289C369.272 453.222 369.793 453.35 370.21 453.646" fill="white"/>
</g>
<path d="M382.526 476.366C382.718 476.445 383.406 474.777 385.278 473.85C386.456 473.356 387.722 473.086 389.007 473.056C389.007 472.976 388.621 472.738 387.851 472.658C386.845 472.582 385.838 472.784 384.948 473.241C384.053 473.686 383.312 474.371 382.815 475.214C382.457 475.876 382.457 476.339 382.526 476.366Z" fill="white"/>
<path d="M384.974 480.498C385.888 479.958 386.839 479.481 387.822 479.068C388.865 478.842 389.922 478.678 390.987 478.578C390.475 478.293 389.9 478.129 389.309 478.099C388.718 478.069 388.128 478.174 387.588 478.406C385.689 479.002 384.795 480.405 384.974 480.498Z" fill="white"/>
<path d="M378.053 471.109C379.392 470.176 380.804 469.344 382.277 468.62C383.844 468.099 385.449 467.691 387.079 467.402C385.364 467.125 383.602 467.327 382.002 467.984C380.402 468.641 379.031 469.726 378.053 471.109Z" fill="white"/>
<path d="M377.158 461.59C377.255 461.775 379.03 460.994 381.369 460.848C383.708 460.703 385.579 461.192 385.648 460.994C384.35 460.233 382.816 459.938 381.314 460.16C379.798 460.158 378.329 460.664 377.158 461.59Z" fill="white"/>
<path d="M376.857 452.389C378.264 451.912 379.731 451.618 381.219 451.515C382.706 451.627 384.169 451.939 385.567 452.442C385.567 452.362 385.25 451.992 384.493 451.594C383.48 451.102 382.361 450.846 381.225 450.846C380.09 450.846 378.971 451.102 377.957 451.594C377.187 451.939 376.815 452.323 376.857 452.389Z" fill="white"/>
<path d="M347.327 156.674C347.327 156.674 329.879 166.789 342.552 191.018C358.005 220.676 372.714 262.395 377.764 265.162C379.828 266.288 389.529 261.614 389.529 261.614L397.221 247.897L376.815 196.606L363.495 166.948L347.327 156.674Z" fill="#00638D"/>
<path d="M360.055 148.808L347.327 156.673L381.08 214.002L376.196 265.214L383.832 269.371L462.663 258.859L465.223 255.43L456.568 231.373L445.037 204.363C445.037 204.363 433.63 179.816 426.901 169.356C420.173 158.897 412.935 148.331 412.935 148.331L393.671 147.007L391.304 144.479C391.304 144.479 388.387 149.563 380.461 150.026C374.008 150.41 360.317 147.047 360.317 147.047L360.055 148.808Z" fill="#00638D"/>
<path d="M517.428 233.612C517.428 233.612 471.181 197.969 467.41 193.812C463.64 189.655 431.483 157.071 431.483 157.071C431.483 157.071 419.718 146.214 412.962 148.333C404.706 150.981 421.218 189.244 421.218 189.244C421.218 189.244 455.233 216.413 460.751 221.576C466.268 226.74 499.416 247.262 499.416 247.262L507.273 246.216L517.428 233.612Z" fill="#00638D"/>
<path d="M367.43 179.592C367.567 179.805 367.683 180.032 367.774 180.267C368.008 180.797 368.297 181.445 368.641 182.253C369.384 183.987 370.471 186.49 371.833 189.575C374.585 195.745 378.493 204.139 382.841 213.513C387.189 222.887 390.946 231.387 393.436 237.649C394.688 240.774 395.651 243.329 396.271 245.103C396.546 245.937 396.78 246.613 396.972 247.156C397.069 247.389 397.134 247.634 397.165 247.884C397.022 247.675 396.911 247.447 396.835 247.208L396.009 245.196C395.307 243.448 394.275 240.933 392.968 237.821C390.354 231.612 386.529 223.125 382.18 213.791C377.832 204.457 373.924 195.983 371.379 189.76C370.072 186.649 369.053 184.12 368.393 182.346C368.09 181.525 367.856 180.85 367.65 180.32C367.541 180.089 367.466 179.843 367.43 179.592Z" fill="#263238"/>
<path d="M424.039 165.094C424.039 165.094 424.191 165.2 424.466 165.478C424.839 165.891 425.175 166.334 425.47 166.802C426.282 167.94 427.355 169.675 428.594 171.833C431.084 176.162 434.29 182.253 437.703 189.045C441.115 195.837 444.074 202.047 446.165 206.548C447.211 208.812 448.05 210.639 448.601 211.924C448.917 212.57 449.184 213.239 449.399 213.923C448.979 213.328 448.624 212.694 448.339 212.03L445.711 206.734L437.056 189.296C433.657 182.504 430.506 176.387 428.153 172.018C426.97 169.82 425.979 168.046 425.236 166.894C424.493 165.743 423.984 165.147 424.039 165.094Z" fill="#263238"/>
<g opacity="0.3">
<path d="M377.984 203.861C377.984 203.861 374.695 186.212 376.608 175.898C378.52 165.584 383.969 150.57 383.969 150.57L393.601 146.598L443.756 170.046L447.472 174.375L440.825 194.699L445.779 231.771L377.984 203.861Z" fill="black"/>
</g>
<path d="M390.051 172.892C393.808 106.506 432.556 70.7716 481.748 73.3534C531.215 76.0014 565.409 115.51 561.652 181.921C557.896 248.333 519.436 284.055 469.955 281.46C420.763 278.851 386.281 239.29 390.051 172.892ZM515.033 179.446C517.62 133.754 502.649 113.947 479.519 112.729C456.636 111.524 439.546 129.663 436.959 175.354C434.372 221.046 449.343 240.866 472.185 242.058C495.356 243.276 512.446 225.15 515.033 179.446Z" fill="#FF6F19"/>
<g opacity="0.3">
<path d="M390.051 172.892C393.808 106.506 432.556 70.7716 481.748 73.3534C531.215 76.0014 565.409 115.51 561.652 181.921C557.896 248.333 519.436 284.055 469.955 281.46C420.763 278.851 386.281 239.29 390.051 172.892ZM515.033 179.446C517.62 133.754 502.649 113.947 479.519 112.729C456.636 111.524 439.546 129.663 436.959 175.354C434.372 221.046 449.343 240.866 472.185 242.058C495.356 243.276 512.446 225.15 515.033 179.446Z" fill="black"/>
</g>
<path d="M375.866 172.958C379.636 106.573 418.37 70.838 467.562 73.4198C517.098 76.0678 551.237 115.563 547.48 181.988C543.724 248.413 505.251 284.121 455.784 281.526C406.578 278.918 372.109 239.344 375.866 172.958ZM500.848 179.578C503.448 133.887 488.464 114.067 465.333 112.862C442.45 111.657 425.36 129.783 422.773 175.487C420.187 221.191 435.158 240.985 458.013 242.19C481.171 243.342 498.261 225.203 500.793 179.512L500.848 179.578Z" fill="#FF6F19"/>
<path d="M427.863 273.384L419.318 268.379C419.318 268.379 410.581 262.832 410.044 261.984C409.395 260.622 409.026 259.152 408.957 257.655C408.957 256.437 412.892 253.683 413.333 251.353C413.773 249.022 411.172 246.719 410.237 246.321C409.301 245.924 408.338 247.314 408.132 248.347C407.925 249.38 406.356 250.889 403.893 251.419C401.43 251.948 398.045 255.033 398.045 255.033L390.643 268.432C391.908 270.723 407.072 276.178 407.54 276.442C408.008 276.707 424.176 276.999 425.786 276.442C426.136 276.383 426.471 276.256 426.768 276.067C427.065 275.879 427.319 275.633 427.514 275.347C427.709 275.06 427.84 274.738 427.9 274.4C427.96 274.063 427.948 273.717 427.863 273.384Z" fill="#AE7461"/>
<path d="M548.265 245.475C548.347 247.712 543.697 247.567 543.697 247.567C544.247 248.666 541.839 251.313 540.202 250.731C540.628 251.512 541.068 251.777 540.986 252.664C540.958 253.112 540.818 253.546 540.579 253.931C540.339 254.316 540.007 254.64 539.61 254.875C539.212 255.102 538.748 255.198 538.288 255.148C537.829 255.098 537.399 254.904 537.064 254.597C537.224 255.266 537.169 255.966 536.906 256.605C536.643 257.243 536.185 257.79 535.592 258.172C534.863 258.612 533.991 258.777 533.143 258.635C532.721 258.562 532.316 258.419 531.946 258.212C531.798 258.151 531.663 258.066 531.547 257.96C531.498 257.902 531.465 257.834 531.45 257.761C531.34 257.444 531.299 257.113 531.175 256.808L531.01 256.451C530.743 255.933 530.405 255.452 530.005 255.021C529.799 254.835 529.606 254.636 529.427 254.425C529.349 254.267 529.285 254.103 529.235 253.935C528.668 252.935 527.89 252.06 526.951 251.366C525.924 250.607 525.15 249.576 524.722 248.401C524.533 247.809 524.592 247.17 524.885 246.619C525.177 246.068 525.682 245.648 526.29 245.448C525.966 245.207 525.744 244.86 525.666 244.473C525.587 244.086 525.658 243.684 525.864 243.343C526.086 243.012 526.392 242.739 526.753 242.552C527.113 242.364 527.518 242.268 527.928 242.271C528.752 242.289 529.556 242.522 530.253 242.946C529.917 242.612 529.729 242.166 529.729 241.701C529.729 241.237 529.917 240.79 530.253 240.457C530.606 240.142 531.036 239.918 531.502 239.805C531.968 239.692 532.457 239.693 532.923 239.808C533.858 240.063 534.723 240.515 535.454 241.132C536.211 241.688 539.404 244.018 540.243 244.482L542.224 242.681L542.486 242.443C544.151 242.986 544.687 243.065 546.118 243.621C547.26 244.018 548.224 244.548 548.265 245.475Z" fill="#AE7461"/>
<path d="M530.184 261.017C529.938 261.317 529.627 261.563 529.273 261.736C528.92 261.91 528.531 262.008 528.134 262.023C526.996 261.726 525.985 261.091 525.244 260.209C525.244 260.209 526.937 258.144 526.937 258.144L527.363 257.641C527.46 257.045 526.579 256.317 526.304 255.827C526.087 255.341 526.076 254.794 526.271 254.3C526.466 253.806 526.852 253.404 527.349 253.179C527.853 252.985 528.402 252.932 528.936 253.026C529.469 253.119 529.963 253.356 530.363 253.708C531.165 254.427 531.656 255.411 531.739 256.462C531.827 257.284 531.734 258.114 531.466 258.899C531.198 259.684 530.761 260.406 530.184 261.017Z" fill="#AE7461"/>
<path d="M537.352 254.795C535.772 252.987 534.011 251.333 532.095 249.856C530.336 248.205 528.409 246.728 526.344 245.447C529.667 248.921 533.357 252.053 537.352 254.795Z" fill="#6F4439"/>
<path d="M540.38 250.849C539.095 249.088 537.519 247.54 535.715 246.268C534.063 244.812 532.176 243.622 530.129 242.746C531.748 244.198 533.452 245.56 535.234 246.824C536.861 248.266 538.58 249.611 540.38 250.849Z" fill="#6F4439"/>
<path d="M543.352 246.997C542.259 245.559 540.902 244.325 539.348 243.356C537.951 242.201 536.407 241.222 534.752 240.443C535.951 241.785 537.341 242.957 538.88 243.925C540.27 245.079 541.767 246.107 543.352 246.997Z" fill="#6F4439"/>
<path d="M530.926 259.574C530.926 259.64 531.435 259.349 531.724 258.594C532.039 257.604 531.94 256.535 531.449 255.615C531.009 254.715 530.392 253.906 529.632 253.232C528.917 252.676 528.256 252.954 528.339 253.046C528.422 253.139 528.834 253.113 529.275 253.602C529.853 254.325 530.356 255.101 530.775 255.919C531.185 256.704 531.339 257.591 531.215 258.461C531.064 259.137 530.843 259.468 530.926 259.574Z" fill="#6F4439"/>
<path d="M226.734 415.118L222.304 440.274C222.304 440.274 248.558 450.588 248.778 455.539L197.756 454.798L204.154 413.396L226.734 415.118Z" fill="#263238"/>
<path d="M206.562 437.838C206.057 437.999 205.63 438.33 205.359 438.771C205.088 439.211 204.993 439.731 205.09 440.234C205.193 440.727 205.493 441.161 205.925 441.443C206.357 441.725 206.887 441.833 207.401 441.744C207.937 441.573 208.39 441.222 208.676 440.754C208.962 440.286 209.061 439.735 208.956 439.201C208.879 438.95 208.751 438.715 208.578 438.511C208.406 438.308 208.193 438.14 207.952 438.016C207.711 437.893 207.447 437.817 207.175 437.793C206.903 437.769 206.629 437.798 206.369 437.877" fill="#E0E0E0"/>
<path d="M197.756 454.837L198.403 450.666L246.81 452.93C246.81 452.93 249.067 453.963 248.778 455.578L197.756 454.837Z" fill="#00638D"/>
<path d="M223.129 440.061C223.129 440.313 221.877 440.405 220.638 441.213C219.4 442.021 218.726 443.053 218.505 442.947C218.285 442.841 218.671 441.398 220.184 440.458C221.698 439.518 223.198 439.836 223.129 440.061Z" fill="white"/>
<path d="M228.454 442.391C228.454 442.63 227.422 443.053 226.556 444.099C225.689 445.145 225.441 446.284 225.18 446.271C224.918 446.257 224.794 444.827 225.881 443.53C226.968 442.232 228.454 442.179 228.454 442.391Z" fill="white"/>
<path d="M231.399 448.932C231.165 448.932 230.848 447.714 231.509 446.284C232.169 444.854 233.339 444.377 233.435 444.589C233.532 444.801 232.802 445.529 232.28 446.668C231.757 447.806 231.647 448.905 231.399 448.932Z" fill="white"/>
<path d="M222.841 433.958C222.73 434.183 221.602 433.812 220.185 433.891C218.768 433.971 217.667 434.408 217.543 434.183C217.419 433.958 218.492 433.084 220.144 433.018C221.795 432.951 222.841 433.759 222.841 433.958Z" fill="white"/>
<path d="M152.967 419.076L139.427 442.365C139.427 442.365 158.168 462.861 156.063 467.336L110.737 444.828L130.373 407.756L152.967 419.076Z" fill="#263238"/>
<path d="M126.52 433.402C125.993 433.328 125.456 433.44 125.008 433.717C124.56 433.995 124.232 434.419 124.085 434.912C123.953 435.398 124.023 435.914 124.279 436.352C124.536 436.789 124.96 437.113 125.461 437.255C126.018 437.327 126.583 437.203 127.053 436.906C127.523 436.61 127.867 436.16 128.02 435.64C128.185 434.62 127.332 433.336 126.3 433.376" fill="#E0E0E0"/>
<path d="M110.737 444.828L112.856 441.16L155.512 464.158C155.512 464.158 157.053 466.051 156.049 467.375L110.737 444.828Z" fill="#00638D"/>
<path d="M140.28 442.498C140.156 442.723 138.987 442.273 137.528 442.498C136.07 442.723 134.969 443.332 134.776 443.147C134.584 442.962 135.657 441.823 137.446 441.625C139.234 441.426 140.459 442.313 140.28 442.498Z" fill="white"/>
<path d="M143.981 446.867C143.913 447.105 142.743 447.012 141.491 447.582C140.239 448.151 139.468 449.064 139.262 448.906C139.055 448.747 139.578 447.436 141.161 446.747C142.743 446.059 144.091 446.642 143.981 446.867Z" fill="white"/>
<path d="M143.582 453.99C143.362 453.99 143.582 452.666 144.876 451.713C146.169 450.759 147.408 450.786 147.394 451.024C147.38 451.263 146.403 451.594 145.399 452.348C144.394 453.103 143.816 454.096 143.582 453.99Z" fill="white"/>
<path d="M142.798 436.885C142.591 437.043 141.752 436.236 140.445 435.693C139.138 435.15 137.968 435.071 137.954 434.832C137.94 434.594 139.33 434.237 140.83 434.899C142.33 435.561 143.032 436.752 142.798 436.885Z" fill="white"/>
<path d="M184.56 264.922C184.56 264.922 193.683 349.804 190.972 359.628C188.262 369.452 144.629 444.496 144.629 444.496L114.48 428.383C114.48 428.383 151.137 360.422 150.669 357.549C150.201 354.676 151.646 346.507 151.646 346.507L131.419 281.393L135.451 253.43L171.227 249.961L184.56 264.922Z" fill="#263238"/>
<path d="M160.645 296.938C161.553 299.586 210.084 352.85 210.084 352.85C209.906 353.995 210.098 355.164 210.635 356.2C211.685 357.515 213.124 358.493 214.763 359.007L195.499 435.799L229.197 438.791C229.197 438.791 249.3 361.999 248.461 352.268C247.621 342.536 199.613 267.412 199.613 267.412L165.213 265.625L160.645 296.938Z" fill="#263238"/>
<path d="M185.454 283.473C185.411 284.184 185.296 284.889 185.11 285.578C184.885 287.503 184.829 289.443 184.945 291.377C185.512 297.762 186.491 304.108 187.875 310.376C189.262 316.674 190.264 323.045 190.875 329.455C191.017 331.41 190.981 333.372 190.765 335.321C190.682 336.035 190.526 336.741 190.297 337.426C190.307 336.712 190.371 335.999 190.49 335.294C190.591 333.361 190.55 331.423 190.366 329.495C189.967 324.596 188.619 317.91 187.174 310.509C185.76 304.211 184.84 297.82 184.422 291.39C184.345 289.432 184.474 287.471 184.807 285.538C184.963 284.834 185.18 284.143 185.454 283.473Z" fill="#00638D"/>
<path d="M257.364 152.726C257.364 152.726 263.515 143.22 269.143 142.373C274.771 141.525 284.513 142.373 284.513 142.373L279.256 162.815L267.56 164.762L257.364 152.726Z" fill="#FFBF9D"/>
<path d="M167.594 168.285L211.13 170.84L255.768 150.848L269.583 167.12L214.887 195.082L184.642 198.737L167.594 168.285Z" fill="#00638D"/>
<path d="M303.171 211.659L268.634 205.833L260.832 248.704L212.947 240.641L220.749 197.77L106.541 178.532L112.32 146.756L235.885 34.1367L287.402 42.8089L172.328 149.96L229.308 159.546L236.257 121.349L282.614 129.16L275.665 167.358L310.217 173.183L303.171 211.659Z" fill="#FF6F19"/>
<g opacity="0.3">
<path d="M303.171 211.659L268.634 205.833L260.832 248.704L212.947 240.641L220.749 197.77L106.541 178.532L112.32 146.756L235.885 34.1367L287.402 42.8089L172.328 149.96L229.308 159.546L236.257 121.349L282.614 129.16L275.665 167.358L310.217 173.183L303.171 211.659Z" fill="black"/>
</g>
<path d="M291.502 210.096L256.951 204.283L249.149 247.141L201.264 239.078L209.08 196.207L94.8721 176.969L100.651 145.193L224.216 32.5605L275.734 41.2328L160.617 148.384L217.584 157.983L224.464 119.772L270.835 127.584L263.886 165.781L298.424 171.607L291.502 210.096Z" fill="#FF6F19"/>
<g opacity="0.3">
<path d="M188.261 189.785C188.261 189.785 183.266 176.836 178.849 171.845C175.523 167.937 172.423 163.858 169.561 159.624L191.797 150.197L180.184 141.631L160.603 150.263L159.434 167.184L183.06 190.87L188.261 189.785Z" fill="black"/>
</g>
<path d="M172.038 104.07C174.276 105.866 176.027 108.157 177.144 110.746C178.261 113.335 178.709 116.146 178.451 118.939C178.189 121.587 177.35 124.711 179.125 126.803C180.9 128.895 184.45 128.895 186.142 131.027C188.138 133.543 186.349 137.197 187.023 140.295C187.386 141.752 188.28 143.035 189.542 143.912C190.804 144.789 192.352 145.201 193.903 145.075C190.231 147.841 185.836 149.577 181.203 150.093L177.776 145.67C178.351 146.504 178.621 147.497 178.544 148.495C178.467 149.492 178.047 150.436 177.35 151.178C175.886 152.647 173.997 153.657 171.928 154.078C167.159 155.393 162.139 155.632 157.258 154.776C152.378 153.919 147.768 151.99 143.789 149.139" fill="#263238"/>
<path d="M118.704 126.975C119.64 124.988 120.467 122.955 121.181 120.884C122.296 116.317 120.08 111.113 122.475 107.022C124.181 104.122 127.717 102.746 131.047 101.832C134.377 100.918 137.927 100.15 140.487 97.86C142.33 96.1785 143.417 93.8879 145.247 92.1403C147.876 89.7438 151.701 88.9759 155.32 88.8303C159.053 88.5562 162.797 89.2129 166.19 90.7368C167.872 91.5187 169.34 92.6683 170.477 94.0936C171.614 95.519 172.389 97.1806 172.74 98.9456C172.768 100.691 172.942 102.431 173.263 104.149C173.841 105.989 175.313 107.432 176.194 109.154C177.071 111.006 177.29 113.084 176.818 115.067C176.345 117.051 175.207 118.83 173.579 120.13L147.435 151.35C142.041 153.19 129.093 150.595 125.034 146.702C120.975 142.81 116.888 132.178 118.704 126.975Z" fill="#263238"/>
<path d="M172.988 116.066C172.08 108.85 166.562 100.244 159.104 101.409L136.028 108.4C134.933 108.57 133.944 109.13 133.259 109.969C132.573 110.808 132.24 111.864 132.327 112.928L138.024 165.16C138.024 165.16 136.304 166.484 135.203 166.034C135.142 166.007 135.073 165.999 135.008 166.014C134.942 166.028 134.883 166.063 134.841 166.113C134.798 166.164 134.774 166.226 134.772 166.291C134.771 166.355 134.791 166.419 134.831 166.471C137.501 170.443 150.16 187.443 163.727 182.557C166.741 181.472 163.617 172.336 164.044 168.973L163.81 160.38C163.603 155.985 163.507 154.184 163.507 154.237C163.507 154.29 173.029 152.172 174.309 139.978C174.887 133.914 173.992 124.09 172.988 116.066Z" fill="#FFBF9D"/>
<path d="M171.158 127.068C171.188 127.471 171.052 127.87 170.779 128.177C170.506 128.485 170.118 128.676 169.699 128.71C169.494 128.738 169.285 128.725 169.085 128.673C168.886 128.62 168.699 128.53 168.537 128.406C168.375 128.282 168.24 128.128 168.142 127.952C168.044 127.777 167.984 127.584 167.965 127.386C167.935 126.981 168.07 126.581 168.343 126.272C168.616 125.962 169.004 125.768 169.424 125.731C169.63 125.703 169.84 125.716 170.04 125.769C170.241 125.823 170.428 125.914 170.59 126.04C170.753 126.165 170.887 126.321 170.984 126.498C171.082 126.674 171.141 126.869 171.158 127.068Z" fill="#263238"/>
<path d="M155.526 127.769C155.553 128.172 155.415 128.569 155.143 128.875C154.871 129.182 154.485 129.374 154.067 129.411C153.862 129.437 153.653 129.423 153.453 129.37C153.253 129.317 153.067 129.226 152.904 129.103C152.741 128.98 152.606 128.826 152.505 128.652C152.405 128.477 152.342 128.285 152.32 128.087C152.293 127.683 152.43 127.285 152.702 126.976C152.974 126.668 153.36 126.472 153.778 126.432C153.985 126.404 154.196 126.417 154.397 126.47C154.598 126.523 154.787 126.615 154.95 126.74C155.113 126.865 155.249 127.021 155.348 127.198C155.447 127.375 155.507 127.569 155.526 127.769Z" fill="#263238"/>
<path d="M171.846 122.036C171.667 122.314 170.181 121.374 168.31 121.599C166.438 121.824 165.2 123.042 164.966 122.804C164.732 122.566 164.966 122.221 165.53 121.665C166.222 120.939 167.157 120.471 168.172 120.341C169.173 120.23 170.182 120.465 171.02 121.003C171.667 121.467 171.929 121.904 171.846 122.036Z" fill="#263238"/>
<path d="M155.003 123.095C154.783 123.36 153.324 122.3 151.315 122.353C149.306 122.406 147.848 123.465 147.628 123.214C147.408 122.962 147.738 122.645 148.371 122.141C149.214 121.51 150.247 121.157 151.315 121.135C152.377 121.121 153.413 121.447 154.26 122.062C154.893 122.486 155.113 122.936 155.003 123.095Z" fill="#263238"/>
<path d="M161.085 134.574C161.971 134.251 162.896 134.033 163.837 133.925C164.277 133.859 164.69 133.753 164.745 133.462C164.763 133.021 164.638 132.586 164.387 132.217L162.887 129.053C161.515 126.371 160.361 123.591 159.434 120.738C161.039 123.298 162.42 125.982 163.562 128.762L165.02 131.953C165.325 132.451 165.438 133.037 165.337 133.608C165.284 133.762 165.195 133.903 165.075 134.018C164.956 134.133 164.809 134.219 164.649 134.27C164.409 134.351 164.159 134.4 163.906 134.415C162.976 134.58 162.028 134.634 161.085 134.574Z" fill="#263238"/>
<path d="M163.452 154.237C157.547 154.642 151.641 153.464 146.39 150.834C146.39 150.834 151.109 159.083 163.603 157.269L163.452 154.237Z" fill="#FF9A6C"/>
<path d="M155.705 139.328C155.916 138.928 156.228 138.587 156.613 138.335C157.082 138.124 157.614 138.081 158.113 138.216C158.853 138.339 159.533 138.687 160.053 139.209C160.309 139.472 160.486 139.796 160.566 140.148C160.646 140.5 160.626 140.866 160.507 141.208C160.301 141.91 159.214 142.267 158.471 142.373C157.719 142.461 156.96 142.292 156.324 141.897C156.048 141.775 155.806 141.592 155.619 141.361C155.432 141.131 155.306 140.86 155.251 140.573C155.275 140.124 155.433 139.692 155.705 139.328Z" fill="#FF9A6C"/>
<path d="M156.118 136.998C156.393 136.998 156.503 138.772 158.195 139.964C159.888 141.155 161.869 140.851 161.897 141.102C161.924 141.354 161.47 141.486 160.617 141.553C159.519 141.623 158.429 141.323 157.535 140.705C156.68 140.103 156.098 139.207 155.911 138.203C155.801 137.448 155.98 136.998 156.118 136.998Z" fill="#263238"/>
<path d="M154.989 117.799C154.838 118.249 153.104 118.13 151.081 118.487C149.059 118.845 147.449 119.454 147.16 119.057C147.022 118.871 147.284 118.434 147.93 117.958C148.774 117.357 149.756 116.962 150.792 116.806C151.825 116.633 152.886 116.697 153.888 116.991C154.645 117.216 155.044 117.547 154.989 117.799Z" fill="#263238"/>
<path d="M170.552 114.94C170.222 115.338 168.846 115.02 167.195 115.099C165.543 115.179 164.181 115.523 163.837 115.099C163.493 114.676 163.837 114.53 164.47 114.133C165.294 113.633 166.248 113.366 167.222 113.365C168.181 113.314 169.135 113.525 169.974 113.974C170.442 114.371 170.648 114.755 170.552 114.94Z" fill="#263238"/>
<path d="M130.91 110.04C132.282 108.455 134.134 107.321 136.207 106.797C144.826 103.783 153.787 101.77 162.902 100.799C163.989 102.613 162.902 105.036 161.168 106.307C159.314 107.418 157.289 108.24 155.169 108.743C154.111 109.007 153.119 109.472 152.252 110.111C151.385 110.75 150.659 111.55 150.119 112.463C149.183 114.502 149.885 116.952 149.059 119.083C147.683 122.671 142.372 123.744 140.954 127.332C139.895 130.059 141.491 132.999 141.835 135.885C142.019 137.351 141.876 138.839 141.414 140.248C140.953 141.657 140.183 142.955 139.158 144.054C138.132 145.154 136.875 146.03 135.469 146.623C134.063 147.217 132.541 147.515 131.006 147.496C130.593 137.116 130.185 126.74 129.781 116.369C129.699 114.158 129.657 111.828 130.91 110.04Z" fill="#263238"/>
<path d="M108.632 135.806C110.366 134.376 112.526 133.158 113.255 131.053C114.301 128.021 111.879 124.433 113.517 121.626C115.072 119.11 119.489 119.322 120.934 116.754C122.062 114.754 120.851 112.94 121.291 111.166C121.688 110.22 122.384 109.419 123.28 108.874C124.177 108.33 125.228 108.071 126.286 108.134L140.569 128.921C141.794 135.832 143.101 139.513 141.477 143.485C140.437 145.605 139.63 147.824 139.069 150.105C138.804 151.256 138.863 152.455 139.24 153.577C139.618 154.699 140.3 155.703 141.216 156.487C132.409 156.99 124.25 152.409 116.723 147.973L108.756 143.286C107.88 142.868 107.127 142.244 106.568 141.473C105.467 139.632 106.953 137.249 108.632 135.806Z" fill="#263238"/>
<path d="M116.585 145.961C116.889 146.06 117.202 146.126 117.521 146.16C118.439 146.267 119.37 146.222 120.273 146.028C121.711 145.724 123.043 145.067 124.139 144.121C125.582 142.835 126.508 141.1 126.754 139.222C126.905 138.133 126.83 137.026 126.533 135.965C126.158 134.844 125.631 133.776 124.965 132.788C124.257 131.772 123.71 130.661 123.341 129.491C123.154 128.893 123.107 128.262 123.202 127.644C123.297 127.026 123.532 126.436 123.892 125.916C124.717 124.897 126.203 124.671 127.593 124.168C128.351 123.922 129.013 123.46 129.492 122.844C129.946 122.196 130.177 121.428 130.152 120.646C129.994 119.143 129.685 117.658 129.23 116.211C129.065 115.501 129.065 114.764 129.23 114.053C129.435 113.357 129.895 112.755 130.524 112.358C131.892 111.633 133.434 111.267 134.996 111.299C136.598 111.274 138.168 110.864 139.564 110.107C140.896 109.34 141.989 108.243 142.729 106.93C143.358 105.655 143.772 104.292 143.954 102.892C144.132 101.601 144.45 100.332 144.903 99.105C145.379 97.981 146.102 96.9693 147.022 96.1392C148.558 94.7703 150.505 93.9048 152.584 93.6669C154.663 93.4291 156.767 93.8311 158.594 94.8152C159.855 95.4613 160.984 96.3227 161.924 97.3573C162.718 98.2541 163.401 99.2359 163.961 100.283C163.961 100.283 163.961 100.204 163.961 100.072C163.961 99.9391 163.809 99.7008 163.658 99.436C163.247 98.6474 162.739 97.9094 162.144 97.2382C161.211 96.1623 160.077 95.2641 158.801 94.5902C157.107 93.6482 155.169 93.189 153.214 93.2662C150.825 93.4185 148.562 94.353 146.802 95.9142C145.83 96.7817 145.061 97.8377 144.545 99.0123C144.078 100.264 143.751 101.56 143.568 102.878C143.376 104.227 142.973 105.539 142.371 106.771C141.674 108.01 140.636 109.04 139.372 109.75C138.051 110.476 136.558 110.864 135.037 110.875C133.382 110.843 131.748 111.236 130.304 112.014C129.573 112.476 129.041 113.177 128.804 113.987C128.619 114.771 128.619 115.586 128.804 116.37C129.241 117.788 129.545 119.242 129.712 120.713C129.74 121.396 129.547 122.071 129.162 122.646C128.725 123.17 128.143 123.565 127.483 123.784C126.822 124.036 126.107 124.208 125.419 124.473C124.706 124.713 124.074 125.134 123.589 125.691C123.18 126.265 122.913 126.921 122.808 127.609C122.703 128.298 122.763 129 122.983 129.663C123.368 130.872 123.938 132.019 124.676 133.066C125.327 134.02 125.845 135.053 126.217 136.137C126.617 137.514 126.623 138.968 126.235 140.347C125.848 141.727 125.081 142.98 124.015 143.975C122.967 144.912 121.689 145.578 120.3 145.908C119.079 146.17 117.814 146.188 116.585 145.961Z" fill="#00638D"/>
<path d="M105.151 131.158C105 131.364 104.897 131.599 104.848 131.846C104.694 132.564 104.811 133.31 105.179 133.952C105.445 134.418 105.822 134.818 106.28 135.117C106.845 135.445 107.491 135.623 108.151 135.633C108.958 135.632 109.749 135.418 110.438 135.015C111.127 134.611 111.688 134.032 112.059 133.342C112.493 132.55 112.724 131.67 112.733 130.774C112.719 129.814 112.528 128.863 112.169 127.967C111.508 126.127 110.284 124.313 110.297 122.181C110.267 121.653 110.346 121.125 110.53 120.627C110.715 120.129 111 119.672 111.371 119.282C112.283 118.592 113.437 118.27 114.591 118.381C115.874 118.501 117.17 118.397 118.416 118.077C119.067 117.833 119.621 117.398 119.998 116.832C120.368 116.271 120.603 115.638 120.686 114.979C120.766 113.72 120.682 112.457 120.439 111.218C120.272 110.052 120.366 108.865 120.714 107.736C121.383 105.583 122.885 103.758 124.911 102.639C126.82 101.751 128.929 101.333 131.048 101.421C132.934 101.452 134.814 101.202 136.62 100.679C138.102 100.18 139.461 99.3911 140.611 98.3624C141.49 97.5981 142.238 96.7043 142.826 95.7144C143.352 94.9009 143.725 94.0045 143.927 93.0664C143.598 93.9621 143.173 94.8228 142.661 95.6349C141.237 97.8413 139.064 99.5064 136.51 100.348C134.721 100.837 132.865 101.06 131.006 101.01C128.818 100.905 126.637 101.328 124.663 102.242C122.532 103.398 120.938 105.292 120.205 107.538C119.842 108.732 119.739 109.985 119.902 111.218C120.147 112.417 120.23 113.641 120.15 114.859C120.115 115.441 119.914 116.002 119.57 116.481C119.225 116.96 118.749 117.338 118.196 117.574C117.011 117.868 115.782 117.962 114.563 117.852C113.283 117.736 112.006 118.112 111.013 118.898C110.591 119.327 110.265 119.835 110.057 120.391C109.849 120.947 109.762 121.539 109.802 122.128C109.827 123.219 110.075 124.294 110.531 125.293C110.944 126.259 111.398 127.159 111.742 128.06C112.098 128.902 112.289 129.799 112.306 130.708C112.31 131.546 112.102 132.373 111.701 133.117C111.364 133.756 110.853 134.295 110.223 134.677C109.593 135.06 108.868 135.271 108.123 135.289C107.663 135.297 107.205 135.209 106.783 135.03C106.362 134.852 105.985 134.587 105.68 134.255C105.375 133.922 105.149 133.53 105.017 133.105C104.885 132.68 104.851 132.232 104.917 131.793C104.984 131.578 105.062 131.366 105.151 131.158Z" fill="#263238"/>
<path d="M197.742 137.963C198.005 138.679 198.005 139.459 197.742 140.175C197.586 140.584 197.337 140.954 197.013 141.259C196.69 141.563 196.299 141.795 195.871 141.935C195.301 142.083 194.699 142.076 194.133 141.915C193.567 141.754 193.059 141.445 192.665 141.022C192.215 140.526 191.961 139.893 191.949 139.235C191.933 138.508 192.059 137.785 192.321 137.103C193.116 135.594 193.584 133.945 193.697 132.257C193.648 131.307 193.394 130.377 192.951 129.527C192.508 128.677 191.885 127.925 191.123 127.319C190.312 126.671 189.377 126.181 188.371 125.875C187.357 125.581 186.307 125.416 185.248 125.385C184.225 125.356 183.207 125.237 182.207 125.028C181.271 124.821 180.441 124.3 179.868 123.558C179.358 122.81 179.081 121.937 179.07 121.043C179.033 120.152 179.125 119.261 179.345 118.395C179.863 116.793 180.164 115.133 180.239 113.456C180.18 111.964 179.663 110.522 178.753 109.312C177.976 108.355 177.019 107.546 175.932 106.929C175.14 106.465 174.385 105.943 173.676 105.367C173.089 104.862 172.62 104.244 172.3 103.553C172.3 103.553 172.3 103.553 172.3 103.712C172.344 103.852 172.4 103.989 172.465 104.122C172.732 104.644 173.095 105.116 173.538 105.512C174.232 106.123 174.978 106.676 175.767 107.167C176.809 107.782 177.72 108.582 178.451 109.524C179.314 110.685 179.793 112.069 179.827 113.496C179.722 115.137 179.412 116.759 178.905 118.329C178.671 119.22 178.565 120.137 178.588 121.056C178.609 122.039 178.914 122.997 179.469 123.823C180.111 124.66 181.043 125.247 182.097 125.478C183.122 125.705 184.169 125.834 185.22 125.862C186.236 125.898 187.244 126.053 188.22 126.326C189.149 126.615 190.016 127.064 190.779 127.65C191.492 128.212 192.075 128.911 192.492 129.702C192.909 130.493 193.151 131.358 193.201 132.244C193.325 133.952 192.403 135.435 191.825 136.931C191.555 137.661 191.429 138.433 191.454 139.208C191.483 139.955 191.785 140.667 192.307 141.221C192.752 141.68 193.321 142.01 193.951 142.174C194.581 142.337 195.246 142.328 195.871 142.147C196.33 141.99 196.746 141.732 197.085 141.394C197.424 141.057 197.677 140.648 197.825 140.201C198.042 139.652 198.085 139.053 197.948 138.48C197.912 138.297 197.842 138.123 197.742 137.963Z" fill="#263238"/>
<path d="M287.704 141.406C288.943 143.18 285.09 145.298 285.09 145.298C286.108 145.934 285.53 149.27 283.907 149.562C284.65 149.998 285.159 149.998 285.558 150.753C285.771 151.124 285.889 151.539 285.901 151.963C285.913 152.387 285.819 152.808 285.627 153.189C285.423 153.567 285.095 153.87 284.695 154.052C284.295 154.234 283.844 154.284 283.411 154.196C283.888 154.663 284.206 155.259 284.324 155.904C284.442 156.549 284.354 157.214 284.072 157.81C283.712 158.522 283.089 159.079 282.324 159.372C281.947 159.516 281.547 159.597 281.141 159.611C280.986 159.631 280.828 159.631 280.673 159.611C280.605 159.583 280.544 159.543 280.494 159.492C280.247 159.293 280.04 159.041 279.765 158.856L279.462 158.644C278.973 158.353 278.445 158.126 277.894 157.969C277.627 157.921 277.365 157.855 277.109 157.77C276.965 157.673 276.827 157.566 276.696 157.453C275.716 156.914 274.628 156.58 273.504 156.473C272.274 156.358 271.107 155.897 270.147 155.149C269.684 154.758 269.397 154.209 269.349 153.618C269.3 153.027 269.492 152.441 269.885 151.984C269.496 151.949 269.133 151.777 268.867 151.501C268.601 151.225 268.449 150.865 268.44 150.488C268.444 150.111 268.549 149.742 268.744 149.415C268.939 149.088 269.218 148.815 269.555 148.621C270.23 148.237 271 148.036 271.784 148.039C271.338 147.929 270.954 147.656 270.715 147.277C270.476 146.899 270.4 146.445 270.504 146.013C270.628 145.588 270.86 145.199 271.18 144.883C271.5 144.566 271.896 144.331 272.335 144.199C273.227 143.946 274.167 143.887 275.087 144.027C276.008 144.12 279.806 144.464 280.728 144.424L281.402 142.001L281.485 141.697C283.122 141.326 283.59 141.128 285.063 140.889C286.136 140.704 287.195 140.664 287.704 141.406Z" fill="#FFBF9D"/>
<path d="M281.141 162.815C281.093 163.179 280.966 163.529 280.77 163.844C280.573 164.158 280.311 164.43 279.999 164.642C278.916 164.941 277.763 164.914 276.697 164.563L277.041 162.06L277.137 161.451C276.903 160.922 275.761 160.789 275.321 160.485C274.895 160.194 274.603 159.754 274.508 159.26C274.413 158.766 274.522 158.255 274.812 157.837C275.121 157.431 275.544 157.118 276.031 156.935C276.519 156.752 277.05 156.707 277.564 156.804C278.585 157.017 279.487 157.588 280.095 158.406C280.576 159.032 280.918 159.746 281.098 160.505C281.278 161.264 281.292 162.05 281.141 162.815Z" fill="#FFBF9D"/>
<path d="M283.715 154.25C279.199 153.034 274.565 152.271 269.886 151.973C272.122 152.685 274.427 153.182 276.766 153.456C279.049 153.942 281.377 154.208 283.715 154.25Z" fill="#FF9A6C"/>
<path d="M284.114 149.576C282.146 148.767 280.055 148.27 277.922 148.107C275.822 147.716 273.669 147.663 271.551 147.948C273.623 148.347 275.718 148.63 277.825 148.795C279.904 149.173 282.004 149.434 284.114 149.576Z" fill="#FF9A6C"/>
<path d="M284.512 145.007C282.874 144.374 281.131 144.028 279.366 143.988C277.628 143.717 275.861 143.668 274.109 143.842C275.786 144.345 277.527 144.622 279.283 144.663C281.011 144.935 282.762 145.05 284.512 145.007Z" fill="#FF9A6C"/>
<path d="M280.989 161.226C281.072 161.226 281.292 160.803 281.127 160.048C280.866 159.089 280.223 158.266 279.338 157.758C278.497 157.243 277.564 156.884 276.586 156.698C275.719 156.606 275.334 157.135 275.444 157.175C275.554 157.215 275.871 156.99 276.49 157.175C277.332 157.488 278.142 157.873 278.912 158.327C279.668 158.756 280.268 159.399 280.632 160.167C280.893 160.79 280.879 161.213 280.989 161.226Z" fill="#FF9A6C"/>
<path d="M136.152 159.108C128.198 166.085 122.832 168.72 121.8 175.909C121.105 182.26 121.813 188.681 123.878 194.75C128.185 207.023 133.689 221.455 137.032 228.393C138.232 230.905 138.447 233.75 137.638 236.403C135.766 242.427 130.758 253.906 131.528 277.222L205.97 272.217C205.97 272.217 193.022 243.526 190.173 229.213C189.829 227.479 191.811 206.811 190.861 202.733C187.243 187.521 170.125 172.454 164.497 164.337L163.851 161.689L136.661 157.32L136.152 159.108Z" fill="#00638D"/>
<g opacity="0.3">
<path d="M135.891 220.912C135.891 220.912 145.124 239.448 149.719 241.183C154.315 242.917 192.568 237.899 192.568 237.899L190.243 229.214L135.891 220.912Z" fill="black"/>
</g>
<path d="M169.3 170.283C169.764 170.587 170.189 170.943 170.566 171.342C171.336 172.071 172.41 173.17 173.648 174.599C176.166 177.433 179.152 181.696 182.592 186.264C185.627 190.152 188.043 194.454 189.761 199.027C190.257 200.424 190.648 201.853 190.931 203.304C191.058 203.829 191.118 204.367 191.109 204.906C190.986 204.906 190.642 202.642 189.279 199.199C187.445 194.729 185.002 190.513 182.014 186.661C178.56 182.08 175.643 177.804 173.249 174.904C172.079 173.448 171.075 172.256 170.359 171.528C169.964 171.148 169.609 170.731 169.3 170.283Z" fill="#263238"/>
<path d="M126.52 167.304C126.52 167.304 110.421 177.684 120.108 195.809C128.722 211.922 142.702 231.703 148.344 234.814C153.985 237.926 214.86 225.282 214.86 225.282L212.961 202.628L160.673 213.22L145.647 186.197C145.647 186.197 139.73 163.398 126.52 167.304Z" fill="#00638D"/>
<path d="M213.208 205.819C213.208 205.819 213.813 203.396 218.299 200.523C221.007 198.884 223.233 196.605 224.766 193.903C225.661 192.579 226.913 190.249 228.165 190.911C229.417 191.573 229.197 193.413 228.344 196.313C227.491 199.212 224.945 201.609 225.936 202.721C226.927 203.833 240.714 202.403 244.718 201.622C248.723 200.841 250.608 201.185 250.03 203.092C249.452 204.998 236.958 205.448 236.063 207.249C235.169 209.05 236.6 208.652 237.976 209.156C239.352 209.659 252.837 208.255 253.112 210.612C253.387 212.969 251.736 213.128 251.736 213.128C251.736 213.128 252.149 215.921 249.961 216.716C247.773 217.51 234.096 215.921 234.55 217.576C235.004 219.231 245.558 220.065 245.888 222.66C246.218 225.255 243.59 224.262 240.838 223.706C236.587 222.683 232.249 222.032 227.876 221.76C223.308 221.694 214.556 220.979 214.556 220.979L213.208 205.819Z" fill="#FFBF9D"/>
<path d="M251.915 213.406C248.878 213.635 245.828 213.635 242.792 213.406C239.745 213.382 236.704 213.134 233.696 212.664C236.733 212.435 239.783 212.435 242.819 212.664C245.866 212.688 248.907 212.936 251.915 213.406Z" fill="#FF6F19"/>
<path d="M156.792 220.913C156.7 219.463 157.096 218.024 157.921 216.808C158.533 215.48 159.582 214.382 160.907 213.684C161.044 213.829 159.668 215.153 158.554 217.139C157.439 219.125 157.054 220.939 156.792 220.913Z" fill="#263238"/>
<path d="M142.482 180.955C142.624 181.125 142.757 181.302 142.881 181.485C143.128 181.842 143.472 182.398 143.913 183.113C144.807 184.556 146.073 186.714 147.683 189.495C150.875 195.056 155.457 203.092 160.906 213.115L160.604 212.983L212.892 202.298L213.291 202.219V202.602C213.91 209.871 214.543 217.405 215.19 225.11V225.216V225.521L214.887 225.587C199.338 228.791 184.491 231.598 170.855 233.664C167.456 234.18 164.126 234.63 160.893 234.988C157.739 235.372 154.563 235.571 151.384 235.583C150.609 235.563 149.836 235.483 149.073 235.345C148.678 235.263 148.3 235.115 147.958 234.908L147.16 234.312C146.558 233.894 145.996 233.425 145.481 232.909C144.95 232.435 144.449 231.931 143.982 231.399C143.032 230.38 142.11 229.361 141.298 228.301C140.487 227.242 139.661 226.236 138.904 225.216C132.891 217.021 128.735 209.951 125.832 205.105C124.456 202.669 123.314 200.762 122.598 199.451C122.254 198.829 121.993 198.326 121.8 197.968C121.703 197.804 121.62 197.631 121.553 197.452C121.662 197.606 121.763 197.765 121.855 197.929L122.722 199.385L126.08 204.972C129.038 209.779 133.262 216.809 139.317 224.938C140.074 225.945 140.858 226.977 141.711 227.984C142.564 228.99 143.445 230.036 144.381 231.042C144.848 231.558 145.344 232.048 145.867 232.512C146.368 233.001 146.916 233.445 147.504 233.836L148.371 234.458C148.506 234.557 148.66 234.629 148.825 234.67C148.982 234.74 149.149 234.789 149.32 234.815C150.047 234.946 150.783 235.021 151.522 235.04C154.665 235.013 157.804 234.801 160.92 234.405C164.154 234.034 167.47 233.571 170.869 233.081C184.436 230.989 199.283 228.156 214.804 224.952L214.529 225.322V225.203C213.882 217.471 213.249 209.937 212.644 202.695L213.07 203L160.782 213.525H160.59L160.494 213.34C155.127 203.317 150.6 195.228 147.49 189.627C145.922 186.86 144.738 184.689 143.858 183.193L142.881 181.524L142.482 180.955Z" fill="#263238"/>
</svg>
