<svg width="938" height="937" viewBox="0 0 938 937" fill="none" xmlns="http://www.w3.org/2000/svg">
<path d="M142.471 242.266L145.296 236.402C169.119 186.99 220.043 155.164 278.403 155.221C285.915 155.235 293.454 155.769 300.959 156.819C355.029 164.487 406 199.746 431.615 247.181C446.606 275.041 454.318 307.761 478.597 329.195C510.188 357.073 557.111 355.277 598.064 351.667C639.016 348.058 686.004 346.395 717.487 374.402C737.2 391.936 746.266 417.997 748.267 442.954C753.621 508.887 713.596 570.47 656.459 603.23C599.323 635.989 527.666 642.79 458.98 633.828C362.755 621.263 266.821 576.988 202.768 503.729C138.715 430.471 110.885 327.183 142.471 242.266Z" fill="#F5F5F5"/>
<path d="M271.166 755.825C307.572 766.471 344.18 747.682 352.933 713.858C361.685 680.034 339.267 643.984 302.861 633.338C266.454 622.693 229.846 641.482 221.093 675.306C212.341 709.13 234.759 745.18 271.166 755.825Z" fill="#F5F5F5"/>
<path d="M841.175 879.561C841.175 879.824 665.336 880.049 448.486 880.049C231.636 880.049 55.7576 879.824 55.7576 879.561C55.7576 879.299 231.557 879.074 448.486 879.074C665.414 879.074 841.175 879.299 841.175 879.561Z" fill="#263238"/>
<path d="M499.817 799.877L497.119 844.401C497.119 844.401 546.172 861.827 546.577 870.093L451.101 868.464L452.158 798.961L499.817 799.877Z" fill="#263238"/>
<path d="M467.602 840.125C466.66 840.365 465.852 840.917 465.34 841.671C464.827 842.426 464.648 843.328 464.837 844.197C465.067 845.04 465.645 845.771 466.452 846.241C467.259 846.71 468.233 846.882 469.176 846.721C470.18 846.463 471.039 845.871 471.581 845.063C472.123 844.255 472.308 843.291 472.098 842.365C471.76 841.506 471.068 840.799 470.167 840.392C469.265 839.986 468.225 839.912 467.265 840.186" fill="#E0E0E0"/>
<path d="M451.079 868.443L451.483 861.439L542.89 865.613C542.89 865.613 547.094 867.364 546.554 870.071L451.079 868.443Z" fill="#455A64"/>
<path d="M498.67 843.951C498.67 844.379 496.422 844.542 493.994 845.845C491.566 847.148 490.42 848.919 489.993 848.756C489.566 848.593 490.307 846.15 493.162 844.684C496.018 843.218 498.783 843.565 498.67 843.951Z" fill="white"/>
<path d="M508.607 847.882C508.607 848.289 506.673 848.981 505.055 850.732C503.436 852.483 502.942 854.376 502.47 854.356C501.997 854.336 501.773 851.933 503.841 849.775C505.909 847.617 508.607 847.475 508.607 847.882Z" fill="white"/>
<path d="M514.07 858.834C513.643 858.834 513.058 856.798 514.295 854.497C515.531 852.197 517.734 851.321 517.936 851.688C518.139 852.054 516.745 853.256 515.688 855.149C514.632 857.042 514.542 858.793 514.07 858.834Z" fill="white"/>
<path d="M498.063 833.754C497.838 834.14 495.815 833.509 493.072 833.631C490.33 833.754 488.374 834.466 488.149 834.1C487.924 833.733 489.903 832.267 493.027 832.166C496.152 832.064 498.288 833.428 498.063 833.754Z" fill="white"/>
<path d="M384.221 795.539L379.05 849.265L388.492 892.831C388.653 893.573 388.643 894.337 388.464 895.076C388.285 895.814 387.941 896.511 387.451 897.124C386.962 897.737 386.339 898.252 385.621 898.638C384.903 899.024 384.105 899.271 383.277 899.366C382.311 899.481 381.329 899.384 380.413 899.083C379.498 898.782 378.675 898.285 378.016 897.636C369.519 889.228 338.383 858.181 338.99 854.273C339.709 849.733 340.294 797.27 340.294 797.27L384.221 795.539Z" fill="#263238"/>
<path d="M383.276 899.366L339.259 850.506L339.102 852.786C338.934 854.759 339.565 856.721 340.878 858.303C344.362 862.538 354.366 874.04 377.836 897.513C378.515 898.186 379.367 898.696 380.316 898.998C381.265 899.3 382.282 899.384 383.276 899.244V899.366Z" fill="#455A64"/>
<g opacity="0.6">
<path d="M352.68 833.915C353.374 834.447 353.828 835.19 353.956 836.004C354.085 836.819 353.879 837.647 353.377 838.333C352.823 838.989 352.011 839.425 351.11 839.55C350.209 839.675 349.29 839.48 348.544 839.005C347.808 838.442 347.329 837.651 347.2 836.785C347.071 835.92 347.302 835.042 347.847 834.323C348.519 833.713 349.425 833.362 350.376 833.343C351.327 833.324 352.249 833.638 352.95 834.221" fill="white"/>
</g>
<path d="M371.362 874.938C372.914 873.347 374.782 872.035 376.87 871.07C379.1 870.403 381.451 870.134 383.794 870.276C383.794 870.154 383.119 869.686 381.748 869.421C379.929 869.124 378.054 869.316 376.353 869.971C374.649 870.61 373.183 871.676 372.126 873.045C371.362 874.165 371.205 874.938 371.362 874.938Z" fill="white"/>
<path d="M375.071 882.45C376.842 881.681 378.658 881.002 380.512 880.415C382.45 880.189 384.402 880.073 386.357 880.068C385.48 879.498 384.466 879.126 383.398 878.984C382.33 878.843 381.24 878.935 380.219 879.254C376.645 880.028 374.779 882.288 375.071 882.45Z" fill="white"/>
<path d="M364.19 865.308C364.46 865.593 367.563 863.048 372.351 861.705C375.304 861.041 378.311 860.591 381.343 860.361C378.308 859.411 374.995 859.483 372.014 860.565C368.866 861.252 366.091 862.934 364.19 865.308Z" fill="white"/>
<path d="M364.19 848.858C364.325 849.204 367.697 848.145 371.991 848.247C376.285 848.349 379.59 849.489 379.725 849.163C379.86 848.837 376.622 847.127 372.014 847.127C369.263 846.861 366.496 847.473 364.19 848.858Z" fill="white"/>
<path d="M365.27 833.061C367.913 832.451 370.636 832.17 373.363 832.226C376.049 832.658 378.658 833.418 381.119 834.486C381.119 834.364 380.624 833.651 379.298 832.857C377.546 831.849 375.557 831.228 373.491 831.044C371.425 830.86 369.341 831.118 367.405 831.798C365.944 832.348 365.18 832.939 365.27 833.061Z" fill="white"/>
<path d="M373.475 829.212C373.701 828.554 373.777 827.862 373.7 827.177C373.62 825.299 373.139 823.453 372.284 821.741C371.783 820.436 370.808 819.324 369.519 818.585C369.073 818.374 368.567 818.292 368.068 818.35C367.569 818.409 367.103 818.604 366.731 818.911C366.05 819.553 365.657 820.403 365.629 821.293C365.636 823.108 366.339 824.864 367.619 826.261C368.898 827.657 370.675 828.607 372.643 828.948C374.6 829.243 376.609 829.004 378.415 828.261C380.221 827.517 381.741 826.303 382.782 824.774C383.048 824.393 383.217 823.965 383.28 823.518C383.342 823.071 383.295 822.617 383.142 822.189C382.943 821.766 382.601 821.411 382.164 821.177C381.727 820.942 381.219 820.841 380.714 820.886C379.235 821.099 377.842 821.653 376.667 822.494C374.973 823.573 373.498 824.91 372.306 826.444C371.822 826.973 371.469 827.591 371.272 828.256C372.953 826.309 374.946 824.6 377.184 823.186C378.232 822.49 379.451 822.036 380.736 821.863C381.01 821.834 381.287 821.885 381.526 822.01C381.765 822.135 381.953 822.326 382.063 822.555C382.139 822.846 382.149 823.148 382.091 823.442C382.033 823.736 381.908 824.016 381.726 824.265C380.772 825.548 379.435 826.559 377.87 827.179C376.306 827.8 374.578 828.003 372.891 827.767C371.225 827.481 369.717 826.69 368.613 825.525C367.51 824.359 366.878 822.888 366.821 821.354C366.84 820.736 367.085 820.142 367.518 819.664C367.722 819.491 367.981 819.378 368.258 819.342C368.535 819.306 368.818 819.347 369.069 819.461C370.145 820.1 370.977 821.024 371.452 822.107C372.58 824.35 373.265 826.755 373.475 829.212Z" fill="white"/>
<path d="M547.117 426.077C551.681 444.543 553.197 463.52 551.613 482.388C550.601 494.359 505.999 825.445 505.999 825.445H445.908L462.836 514.269L457.913 515.246C457.913 515.246 425.024 647.941 422.348 669.44C419.943 688.76 392.224 829.069 392.224 829.069L337.214 829.639L354.794 644.053L375.251 465.959L382.962 414.127L547.117 426.077Z" fill="#263238"/>
<path d="M453.349 482.532C454.12 483.05 454.958 483.48 455.844 483.814C458.205 484.899 460.715 485.693 463.308 486.176C465.145 486.463 467.023 486.463 468.861 486.176C471.021 485.855 473.035 484.979 474.661 483.651C476.347 482.101 477.556 480.178 478.168 478.073C478.828 475.914 479.369 473.726 479.786 471.518C481.697 462.54 483.001 454.335 483.766 448.391C484.148 445.398 484.395 442.996 484.53 441.327C484.624 440.46 484.624 439.587 484.53 438.721C484.223 439.545 484.027 440.399 483.945 441.265C483.631 443.159 483.248 445.5 482.776 448.269C481.787 454.193 480.371 462.336 478.438 471.294C477.471 475.732 476.819 480.231 473.762 482.878C472.334 483.957 470.66 484.736 468.86 485.158C467.061 485.581 465.18 485.636 463.353 485.321C460.809 484.904 458.327 484.221 455.957 483.285C455.12 482.95 454.246 482.697 453.349 482.532Z" fill="#263238"/>
<path d="M471.468 440.329C471.468 440.329 471.064 440.044 470.232 439.983C469.017 439.967 467.83 440.318 466.86 440.981C466.108 441.454 465.487 442.08 465.046 442.807C464.605 443.535 464.357 444.345 464.32 445.174C464.403 446.205 464.811 447.193 465.495 448.021C466.178 448.849 467.11 449.483 468.178 449.847C469.247 450.211 470.408 450.29 471.525 450.075C472.642 449.861 473.668 449.361 474.481 448.635C475.058 447.988 475.461 447.228 475.66 446.416C475.859 445.603 475.848 444.76 475.627 443.953C475.379 442.877 474.737 441.909 473.806 441.204C473.132 440.736 472.66 440.675 472.637 440.716C473.713 441.616 474.452 442.797 474.751 444.095C474.877 444.77 474.84 445.462 474.642 446.123C474.444 446.784 474.09 447.398 473.604 447.923C472.941 448.466 472.125 448.834 471.247 448.986C470.369 449.137 469.461 449.068 468.623 448.784C467.786 448.5 467.05 448.014 466.497 447.377C465.944 446.74 465.596 445.978 465.489 445.174C465.51 444.49 465.694 443.817 466.028 443.203C466.362 442.588 466.837 442.046 467.422 441.612C468.581 440.797 470.001 440.347 471.468 440.329Z" fill="#263238"/>
<path d="M376.038 462.765C376.706 462.961 377.404 463.057 378.106 463.05C379.984 463.18 381.871 463.18 383.749 463.05C396.293 462.399 408.203 457.847 417.47 450.163C418.863 449.014 420.162 447.776 421.359 446.458C422.191 445.521 422.641 444.992 422.573 444.931C422.506 444.87 420.46 446.804 416.863 449.552C407.45 456.738 395.846 461.161 383.592 462.236C379.006 462.704 376.061 462.561 376.038 462.765Z" fill="#263238"/>
<path d="M522.41 441.307C523.091 443.253 524.027 445.119 525.198 446.864C527.779 451.092 530.903 455.028 534.505 458.591C538 462.078 541.957 465.161 546.284 467.772C547.988 468.892 549.858 469.79 551.837 470.439C550.196 469.231 548.486 468.103 546.712 467.06C542.588 464.315 538.764 461.221 535.291 457.817C531.778 454.297 528.625 450.495 525.872 446.457C523.804 443.342 522.567 441.307 522.41 441.307Z" fill="#263238"/>
<path d="M709.382 304.091C715.767 301.913 722.871 299.714 722.871 299.714L729.143 297.454C729.199 297.86 729.199 298.27 729.143 298.676C728.94 299.432 728.94 300.221 729.143 300.976C729.569 301.609 730.196 302.111 730.942 302.416C731.688 302.721 732.518 302.815 733.324 302.687C735.031 302.559 736.672 302.032 738.087 301.158C739.502 300.284 740.641 299.092 741.395 297.699C742.073 296.348 742.365 294.864 742.244 293.383C742.122 291.903 741.59 290.475 740.698 289.23C740.875 288.396 740.875 287.539 740.698 286.705C739.259 281.107 730.626 278.135 730.626 278.135L732.695 277.076C732.695 277.076 740.046 276.282 746.723 285.667C747.724 287.105 749.277 288.157 751.084 288.619C751.618 288.792 752.188 288.854 752.752 288.801C753.316 288.748 753.86 288.582 754.344 288.314C756.816 286.787 756.254 284.812 752.096 278.908C747.937 273.004 741.934 268.505 736.764 268.118C734.375 267.885 731.971 267.81 729.57 267.894C729.57 267.894 747.712 257.267 748.836 256.534C752.073 254.499 753.759 251.445 752.433 249.368C751.579 248.025 749.42 246.925 745.576 249.226C742.227 251.262 705.223 267.711 705.223 267.711L689.329 275.854L677.415 284.507L692.994 303.684L694.815 304.254C699.538 305.769 704.702 305.711 709.382 304.091Z" fill="#FFBF9D"/>
<path d="M692.634 277.77C693.146 278.729 693.976 279.519 695.007 280.03C696.039 280.541 697.222 280.747 698.389 280.62C700.75 280.62 702.998 279.745 705.336 279.521C712.35 278.828 719.162 283.185 726.108 282.188C727.075 282.045 728.221 281.597 728.356 280.722C728.491 279.846 727.457 279.358 726.67 278.971L705.898 269.301" fill="#FFBF9D"/>
<path d="M705.898 269.301C706.686 269.483 707.443 269.764 708.146 270.135C709.63 270.746 711.743 271.662 714.35 272.823L723.478 276.894L726.108 278.096C726.917 278.543 728.176 278.788 728.761 280.131C728.866 280.471 728.856 280.831 728.732 281.165C728.608 281.5 728.375 281.792 728.064 282.004C727.546 282.35 726.945 282.58 726.31 282.676C725.173 282.842 724.02 282.897 722.871 282.839C718.729 282.246 714.636 281.403 710.619 280.315C708.895 279.957 707.122 279.833 705.358 279.948C703.74 280.091 702.211 280.477 700.75 280.701C699.594 280.996 698.381 281.058 697.196 280.882C696.012 280.706 694.884 280.297 693.893 279.683C692.522 278.666 692.477 277.648 692.544 277.648C692.97 278.276 693.527 278.822 694.185 279.256C695.151 279.738 696.217 280.035 697.315 280.13C698.413 280.224 699.521 280.114 700.57 279.806C702.11 279.433 703.671 279.134 705.246 278.91C707.115 278.726 709.005 278.816 710.843 279.175C714.71 279.785 718.667 281.312 722.938 281.577C723.974 281.639 725.014 281.598 726.04 281.455C727.007 281.292 727.727 280.824 727.502 280.376C727.277 279.928 726.423 279.439 725.523 279.032L722.916 277.79L713.923 273.454C711.361 272.192 709.315 271.174 707.899 270.42C707.181 270.127 706.509 269.75 705.898 269.301Z" fill="#FF9A6C"/>
<path d="M730.424 277.973C731.749 277.358 733.208 277.018 734.695 276.975C736.287 277.02 737.818 277.535 739.057 278.441C740.586 279.571 741.92 280.902 743.013 282.39C744.112 283.949 745.393 285.396 746.835 286.706C748.076 287.823 749.631 288.612 751.331 288.986C751.905 289.117 752.505 289.124 753.083 289.007C753.66 288.891 754.2 288.653 754.658 288.314C755.288 287.826 755.445 287.439 755.423 287.419C755.4 287.398 755.085 287.683 754.456 288.07C754.019 288.328 753.525 288.497 753.008 288.564C752.492 288.63 751.965 288.594 751.466 288.457C749.943 288.022 748.566 287.245 747.464 286.197C746.097 284.889 744.863 283.472 743.778 281.963C742.652 280.398 741.237 279.021 739.596 277.891C738.206 276.939 736.506 276.431 734.763 276.446C733.602 276.471 732.466 276.758 731.458 277.28C731.06 277.437 730.706 277.674 730.424 277.973Z" fill="#FF9A6C"/>
<path d="M750.162 255.701C748.893 256.284 747.682 256.965 746.543 257.737L737.955 262.969L729.3 268.262C728.046 268.887 726.863 269.623 725.771 270.461C727.118 270.005 728.407 269.418 729.615 268.71C731.863 267.529 735.055 265.799 738.45 263.783C741.844 261.768 744.789 259.814 746.903 258.348C748.096 257.579 749.189 256.692 750.162 255.701Z" fill="#FF9A6C"/>
<path d="M729.075 284.059C729.075 284.059 729.457 284.344 730.177 284.771C730.681 285.015 731.12 285.357 731.462 285.772C731.804 286.187 732.041 286.666 732.155 287.173C732.188 287.506 732.125 287.841 731.971 288.144C731.817 288.448 731.578 288.71 731.278 288.904C730.527 289.416 729.703 289.833 728.828 290.146C727.739 290.527 726.838 291.25 726.288 292.182C726.064 292.725 725.983 293.308 726.054 293.884C726.124 294.461 726.343 295.014 726.692 295.5C727.048 295.975 727.507 296.381 728.04 296.692C728.573 297.003 729.17 297.214 729.795 297.312C730.935 297.512 732.115 297.406 733.189 297.006C734.827 296.267 736.341 295.321 737.685 294.197C738.59 293.448 739.35 292.567 739.933 291.591C740.176 291.236 740.308 290.828 740.316 290.41C740.316 290.41 740.091 290.818 739.641 291.449C738.931 292.322 738.1 293.109 737.168 293.79C735.799 294.818 734.288 295.681 732.672 296.355C731.735 296.718 730.692 296.792 729.704 296.563C728.716 296.335 727.839 295.818 727.209 295.093C726.924 294.712 726.743 294.275 726.681 293.819C726.618 293.362 726.676 292.899 726.85 292.467C727.304 291.68 728.053 291.067 728.963 290.736C729.886 290.388 730.749 289.922 731.526 289.352C731.898 289.084 732.187 288.733 732.365 288.333C732.542 287.933 732.601 287.499 732.537 287.072C732.393 286.496 732.1 285.959 731.681 285.506C731.263 285.053 730.732 284.696 730.132 284.466C729.807 284.277 729.45 284.139 729.075 284.059Z" fill="#FF9A6C"/>
<path d="M730.155 296.763C730.155 296.763 729.682 296.865 729.188 297.456C728.862 297.889 728.651 298.385 728.573 298.904C728.495 299.423 728.552 299.952 728.738 300.448C729.055 301.178 729.576 301.821 730.25 302.314C730.924 302.807 731.728 303.132 732.582 303.258C734.663 303.547 736.787 303.102 738.517 302.016C740.243 300.996 741.565 299.506 742.294 297.761C742.883 296.345 743.039 294.812 742.744 293.323C742.564 292.332 742.166 291.383 741.575 290.534C741.17 289.923 740.855 289.658 740.81 289.679C741.456 290.854 741.903 292.109 742.137 293.404C742.329 294.785 742.128 296.186 741.552 297.476C740.848 299.065 739.624 300.422 738.045 301.364C736.495 302.331 734.608 302.751 732.74 302.545C731.998 302.448 731.295 302.186 730.695 301.78C730.094 301.375 729.615 300.84 729.3 300.224C729.123 299.8 729.047 299.347 729.078 298.894C729.109 298.441 729.246 297.999 729.48 297.598C729.84 297.028 730.199 296.763 730.155 296.763Z" fill="#FF9A6C"/>
<path d="M709.832 292.691C709.832 292.691 709.584 291.999 708.663 291.164C707.367 290.015 705.679 289.297 703.874 289.128L704.099 289.78C704.888 289.217 705.639 288.612 706.347 287.968C708.8 285.84 710.545 283.131 711.383 280.15C709.791 282.758 707.892 285.202 705.718 287.439C705.021 288.09 704.324 288.68 703.672 289.21L702.93 289.78H703.897C705.541 289.907 707.106 290.474 708.393 291.408C709.292 292.284 709.742 292.834 709.832 292.691Z" fill="#FF9A6C"/>
<path d="M740.765 274.777C740.563 274.777 739.731 276.06 740.114 277.892C740.496 279.724 741.777 280.783 741.934 280.62C742.092 280.457 741.26 279.358 740.945 277.77C740.631 276.182 740.99 274.838 740.765 274.777Z" fill="#FF9A6C"/>
<path d="M422.641 63.9052C423.697 55.6397 429.655 50.8148 437.815 46.9875C441.928 45.1029 446.482 44.143 451.092 44.1891C455.701 44.2351 460.231 45.2858 464.297 47.2521C469.693 49.9394 474.279 54.2757 480.326 55.3954C490.285 57.0852 500.312 49.1455 510.001 51.7513C512.901 52.5329 515.412 54.2024 517.104 56.4745C518.797 58.7466 519.565 61.4804 519.278 64.2087C518.992 66.937 517.668 69.4904 515.533 71.4327C513.398 73.3751 510.584 74.5858 507.573 74.8579C514.092 76.0387 517.329 83.7545 514.564 89.2308C511.799 94.7072 504.695 97.5777 498.041 97.3741C491.382 96.8338 485.014 94.651 479.629 91.0631C474.076 87.765 468.951 83.8563 463.128 80.884C457.423 77.6914 450.654 76.4294 444.02 77.3213C435.207 78.9703 428.598 86.0753 425.833 93.8318C423.068 101.588 423.585 109.956 424.372 118.058C425.158 126.161 426.417 134.345 425.068 142.488C425.064 142.965 424.934 143.434 424.687 143.856C424.441 144.278 424.086 144.639 423.652 144.911C422.281 145.521 420.82 144.3 419.92 143.201C409.536 130.682 401.98 116.43 397.687 101.263C395.192 92.4882 394.045 84.0191 398.204 75.774C402.363 67.5289 415.132 60.1389 422.618 63.9663" fill="#263238"/>
<path d="M411.67 103.583L421.202 186.319C422.978 201.771 438.759 228.358 465.601 224.694L464.927 223.371C487.969 218.607 482.147 193.851 480.348 175.508C480.348 175.508 505.639 170.907 504.83 147.842C504.448 136.706 501.593 113.803 498.76 93.0982C497.276 82.3888 491.398 72.5767 482.293 65.6107C473.189 58.6447 461.525 55.0343 449.617 55.4965L447.167 55.5983C420.685 58.0413 408.23 79.7228 411.67 103.583Z" fill="#FFBF9D"/>
<path d="M480.349 175.509C468.584 175.944 456.928 173.316 446.762 167.936C446.762 167.936 455.755 185.505 480.933 182.41L480.349 175.509Z" fill="#FF9A6C"/>
<path d="M488.734 115.574C488.784 116.43 488.461 117.27 487.834 117.913C487.208 118.557 486.329 118.952 485.384 119.015C484.924 119.068 484.456 119.038 484.009 118.925C483.562 118.812 483.145 118.618 482.782 118.356C482.42 118.094 482.119 117.769 481.898 117.399C481.676 117.03 481.54 116.624 481.495 116.205C481.445 115.35 481.764 114.511 482.385 113.865C483.006 113.219 483.88 112.817 484.822 112.744C485.286 112.691 485.756 112.722 486.206 112.836C486.655 112.95 487.075 113.145 487.44 113.409C487.805 113.673 488.108 114.001 488.33 114.372C488.552 114.744 488.689 115.153 488.734 115.574Z" fill="#263238"/>
<path d="M493.837 104.642C493.388 105.09 490.555 103.339 486.643 103.502C482.732 103.665 479.899 105.538 479.494 105.151C479.09 104.764 479.697 104.174 480.911 103.298C482.552 102.168 484.538 101.521 486.598 101.446C488.638 101.357 490.656 101.863 492.353 102.891C493.59 103.665 494.04 104.438 493.837 104.642Z" fill="#263238"/>
<path d="M454.113 116.898C454.157 117.755 453.833 118.594 453.209 119.239C452.584 119.885 451.708 120.286 450.764 120.358C450.302 120.412 449.832 120.381 449.384 120.267C448.936 120.152 448.517 119.957 448.154 119.693C447.791 119.429 447.491 119.101 447.271 118.729C447.051 118.357 446.916 117.949 446.875 117.529C446.824 116.673 447.144 115.834 447.764 115.188C448.385 114.542 449.259 114.141 450.202 114.068C450.664 114.02 451.132 114.055 451.579 114.171C452.027 114.288 452.444 114.483 452.807 114.746C453.171 115.009 453.473 115.334 453.698 115.704C453.922 116.073 454.063 116.479 454.113 116.898Z" fill="#263238"/>
<path d="M455.395 106.821C454.968 107.269 452.135 105.518 448.223 105.681C444.312 105.844 441.479 107.717 441.075 107.309C440.67 106.902 441.277 106.353 442.491 105.477C444.133 104.347 446.118 103.7 448.178 103.625C450.218 103.539 452.234 104.045 453.934 105.07C455.17 105.844 455.62 106.617 455.395 106.821Z" fill="#263238"/>
<path d="M470.861 132.531C472.897 131.853 475.02 131.415 477.179 131.228C478.168 131.106 479.089 130.882 479.247 130.271C479.283 129.329 479 128.398 478.437 127.605C477.403 125.447 476.302 123.207 475.155 120.846C470.659 111.196 467.22 103.236 467.647 103.073C468.074 102.91 472.143 110.605 476.639 120.255C477.763 122.637 478.887 124.897 479.809 127.075C480.496 128.137 480.744 129.386 480.506 130.597C480.376 130.921 480.167 131.213 479.894 131.453C479.622 131.693 479.293 131.873 478.932 131.982C478.387 132.144 477.819 132.24 477.246 132.267C475.138 132.595 472.993 132.684 470.861 132.531Z" fill="#263238"/>
<path d="M455.754 92.8952C455.395 93.8724 451.483 93.567 446.92 94.2388C442.356 94.9107 438.692 96.2747 437.927 95.3789C437.635 94.9717 438.242 94.0353 439.681 93.0377C441.621 91.8057 443.855 91.0037 446.2 90.6965C448.529 90.3381 450.919 90.4917 453.169 91.1444C455.013 91.6941 455.889 92.427 455.754 92.8952Z" fill="#263238"/>
<path d="M491.904 94.4424C491.252 95.2771 488.509 94.4424 485.272 94.6256C482.035 94.8088 479.314 95.3992 478.528 94.6256C478.235 94.2388 478.528 93.4041 479.787 92.5898C481.342 91.5853 483.204 91.0445 485.114 91.0425C487.02 90.9921 488.893 91.4911 490.465 92.4676C491.769 93.1802 492.173 94.0352 491.904 94.4424Z" fill="#263238"/>
<path d="M414.57 120.563C414.12 120.42 396.832 116.491 398.159 132.31C399.485 148.128 416.638 143.608 416.638 143.161C416.638 142.713 414.57 120.563 414.57 120.563Z" fill="#FFBF9D"/>
<path d="M410.838 137.561C410.838 137.561 410.546 137.765 410.051 138.009C409.36 138.34 408.553 138.413 407.803 138.212C405.915 137.724 404.139 135.199 403.824 132.37C403.641 130.994 403.818 129.6 404.341 128.298C404.462 127.796 404.715 127.329 405.079 126.935C405.443 126.542 405.907 126.234 406.432 126.038C406.775 125.928 407.15 125.931 407.491 126.047C407.832 126.162 408.118 126.383 408.298 126.669C408.567 127.097 408.477 127.423 408.567 127.443C408.657 127.463 408.927 127.138 408.725 126.506C408.599 126.123 408.328 125.792 407.96 125.57C407.711 125.422 407.431 125.321 407.138 125.272C406.844 125.223 406.543 125.227 406.252 125.285C405.548 125.458 404.905 125.793 404.385 126.256C403.866 126.72 403.486 127.297 403.284 127.932C402.664 129.346 402.433 130.876 402.61 132.39C402.992 135.566 405.015 138.497 407.601 138.884C408.075 138.978 408.568 138.972 409.039 138.866C409.511 138.76 409.949 138.557 410.321 138.274C410.838 137.968 410.905 137.581 410.838 137.561Z" fill="#FF9A6C"/>
<path d="M498.019 71.621C495.313 67.2551 491.45 63.5679 486.778 60.8922C477.006 54.6707 465.316 51.4006 453.372 51.5477C441.382 51.7569 429.955 56.1898 421.517 63.9052C415.013 70.2421 410.713 78.1719 409.152 86.7064C407.634 95.2092 407.993 103.9 410.209 112.276C410.816 116.057 412.629 119.594 415.424 122.455C417.313 124.084 420.438 125.082 422.438 123.575C423.489 122.551 424.137 121.241 424.282 119.85C427.047 107.635 429.722 94.3611 424.282 82.8383C427.284 78.6713 431.202 75.1092 435.792 72.3742C438.095 71.0209 440.672 70.0954 443.374 69.6516C446.075 69.2078 448.847 69.2544 451.528 69.7887C459.397 71.6617 464.5 78.2985 470.929 82.818C475.567 86.0093 480.973 88.1601 486.706 89.0943C492.438 90.0285 498.333 89.7195 503.908 88.1926L498.019 71.621Z" fill="#263238"/>
<path d="M473.694 142.224C473.402 143.698 472.871 145.124 472.121 146.459C471.746 147.126 471.22 147.714 470.577 148.184C469.933 148.654 469.188 148.996 468.389 149.187C467.517 149.303 466.626 149.22 465.798 148.947C464.97 148.673 464.23 148.217 463.645 147.619C462.491 146.394 461.798 144.868 461.667 143.262C461.51 141.837 461.937 140.046 463.466 139.659C464.126 139.547 464.807 139.589 465.444 139.781L474.144 141.674" fill="#FF9A6C"/>
<path d="M471.424 148.78C469.948 149.084 468.421 149.126 466.928 148.902C465.41 148.584 464.074 147.773 463.173 146.622C462.657 145.916 462.309 145.121 462.15 144.287C461.992 143.453 462.026 142.598 462.252 141.777C462.371 141.356 462.552 140.952 462.791 140.576C463.061 140.209 462.993 140.23 463.353 140.23C463.713 140.23 464.275 140.433 464.747 140.515L466.186 140.84C468.052 141.247 469.738 141.594 471.154 141.858C472.666 142.289 474.245 142.495 475.83 142.469C474.432 141.745 472.913 141.229 471.334 140.942C469.94 140.555 468.276 140.107 466.433 139.639L465.017 139.273C464.5 139.273 464.118 139.028 463.421 138.927C463.002 138.871 462.575 138.943 462.207 139.13C461.866 139.312 461.592 139.581 461.42 139.904C461.119 140.385 460.885 140.898 460.723 141.431C460.434 142.436 460.395 143.487 460.609 144.508C460.823 145.529 461.284 146.495 461.959 147.335C463.096 148.688 464.776 149.58 466.635 149.818C467.839 149.998 469.075 149.878 470.21 149.472C471.132 149.167 471.469 148.861 471.424 148.78Z" fill="#263238"/>
<path d="M515.576 55.1523C515.712 55.4874 515.802 55.836 515.846 56.1906C516.009 57.2168 516.009 58.2589 515.846 59.2851C515.463 61.159 514.668 62.9443 513.51 64.5354C512.352 66.1264 510.853 67.4909 509.102 68.5481C506.429 70.0072 503.463 70.971 500.375 71.3834C497.288 71.7957 494.141 71.6486 491.117 70.9503C484.17 69.7289 477.359 66.329 470.21 63.2142C463.061 60.0994 455.665 57.8804 448.853 58.654C442.826 59.3801 437.24 61.9095 432.982 65.8404C429.938 68.4297 427.42 71.4821 425.541 74.8591C424.282 77.241 423.81 78.6458 423.697 78.605C423.727 78.2483 423.818 77.898 423.967 77.5668C424.298 76.5845 424.688 75.6194 425.136 74.6759C426.835 71.2159 429.203 68.0584 432.128 65.3518C436.462 61.2213 442.216 58.5443 448.449 57.7582C455.552 56.9032 463.218 59.2036 470.39 62.3388C477.561 65.474 484.305 68.8331 491.05 70.0749C496.919 71.5052 503.175 70.7733 508.45 68.0391C511.916 66.0457 514.385 62.9041 515.329 59.2851C515.608 57.9229 515.691 56.5338 515.576 55.1523Z" fill="#455A64"/>
<path d="M399.305 96.9073C399.319 95.441 399.639 93.9904 400.25 92.6321C401.508 89.2682 403.487 86.162 406.072 83.4912C407.501 82.025 409.099 80.7011 410.838 79.5417C412.245 78.5091 413.914 77.8095 415.694 77.5059C416.929 77.3327 418.194 77.5331 419.291 78.0759C420.033 78.4628 420.302 78.8496 420.257 78.8903C418.89 78.2007 417.301 77.9632 415.761 78.2185C413.019 78.7274 409.804 81.2111 406.769 84.1427C404.283 86.733 402.285 89.6769 400.857 92.856C399.89 95.3194 399.508 96.948 399.305 96.9073Z" fill="#455A64"/>
<path d="M403.037 110.668C403.163 109.191 403.59 107.748 404.296 106.413C405.777 103.107 407.918 100.077 410.613 97.4755C413.318 94.8675 416.525 92.7288 420.078 91.1645C421.473 90.4588 422.995 89.9831 424.574 89.7598C423.196 90.5028 421.778 91.1823 420.325 91.7956C413.594 95.1844 408.201 100.395 404.903 106.698C404.363 108.051 403.74 109.377 403.037 110.668Z" fill="#455A64"/>
<path d="M419.223 178.684L449.73 200.324L469.041 222.535L476.122 199.51L481.18 181.452L489.476 188.903L510.54 229.62L534.235 425.934C534.235 425.934 492.915 436.887 471.514 438.149C450.112 439.412 416.009 434.18 416.009 434.18V330.882L403.869 228.602L418.504 189.412L419.223 178.684Z" fill="#F5F5F5"/>
<path d="M480.866 436.849C480.866 436.849 480.866 436.666 480.866 436.3C480.866 435.933 480.866 435.363 480.866 434.691C480.866 433.205 480.708 431.129 480.618 428.462C480.394 423.006 480.124 415.208 479.764 405.579C479.022 386.279 477.853 359.59 476.167 330.253C474.481 300.917 472.593 274.146 471.132 254.928C470.39 245.319 469.805 237.542 469.378 232.086C469.176 229.439 469.018 227.363 468.928 225.877C468.928 225.205 468.928 224.676 468.816 224.268C468.786 224.086 468.786 223.901 468.816 223.719C468.84 223.901 468.84 224.086 468.816 224.268C468.816 224.676 468.816 225.205 468.996 225.877C469.153 227.343 469.356 229.419 469.625 231.984C470.165 237.379 470.862 245.176 471.671 254.806C473.312 274.085 475.268 300.734 476.954 330.131C478.64 359.529 479.719 386.259 480.304 405.579C480.596 415.249 480.776 423.067 480.866 428.482C480.866 431.149 480.866 433.225 480.866 434.691V436.32C480.884 436.496 480.884 436.673 480.866 436.849Z" fill="#263238"/>
<path d="M414.48 188.863L407.399 197.678L349.623 225.223L381.793 314.026L390.448 363.944L357.963 482.226C357.963 482.226 397.372 494.44 400.834 490.572C402.295 488.923 406.432 480.393 410.748 471.11C419.313 452.554 424.885 432.98 427.294 412.987C429.699 392.853 431.903 367.161 430.284 349.775C427.272 317.202 422.506 263.497 422.056 249.368C421.606 235.239 418.864 181.941 418.864 181.941L414.48 188.863Z" fill="#00638D"/>
<path d="M485.249 183.693L504.38 193.872L566.292 212.195L561.324 251.975L558.491 354.58L577.982 477.728C577.982 477.728 557.188 484.405 548.96 481.657C540.732 478.908 529.469 462.052 529.042 451.852C528.615 441.653 512.563 342.712 512.563 342.712L496.962 209.752L485.249 183.693Z" fill="#00638D"/>
<path d="M505.549 193.75C505.83 193.999 506.093 194.264 506.336 194.544L508.584 196.926L516.542 205.924L516.7 206.128L516.475 206.27L509.731 210.912V210.403L517.621 212.663H517.869V212.887C517.734 225.651 517.532 241.714 517.329 259.12C516.992 280.374 516.677 299.593 516.452 313.599C516.295 320.521 516.183 326.14 516.093 330.089C516.093 332.003 515.98 333.489 515.935 334.588V335.749C515.935 335.484 515.935 335.057 515.935 334.588C515.935 333.489 515.935 332.003 515.935 330.089C515.935 326.14 515.935 320.5 515.935 313.579C516.093 299.593 516.318 280.354 516.542 259.1C516.835 241.694 517.082 225.651 517.284 212.887L517.532 213.192L509.641 210.871L509.056 210.688L509.551 210.362L516.295 205.802V206.148L508.247 197.007L506.224 194.544C505.984 194.29 505.759 194.025 505.549 193.75Z" fill="#263238"/>
<path d="M428.531 332.898C428.464 332.781 428.411 332.658 428.373 332.531L427.969 331.371L426.372 326.974C425.001 323.167 422.955 317.67 420.303 310.891C418.984 307.511 417.53 303.833 415.941 299.856C414.323 295.907 412.839 291.55 411.445 286.949C408.771 276.934 406.7 266.794 405.241 256.575C402.992 242.426 401.711 229.111 400.744 217.629V217.467V217.365L407.489 211.42V211.909L401.037 207.45L400.767 207.287L400.969 207.043L412.614 192.792C413.986 191.164 415.042 189.861 415.829 188.924L416.683 187.947C416.863 187.723 416.975 187.601 416.998 187.621C416.923 187.747 416.84 187.87 416.751 187.988L415.964 189.026L413.311 192.935L401.891 207.389V206.982L408.388 211.379L408.703 211.603L408.41 211.868L401.666 217.853L401.801 217.589C402.7 229.03 404.049 242.344 406.297 256.453C407.759 266.652 409.8 276.777 412.412 286.786C413.716 291.367 415.155 295.663 416.751 299.632L421.022 310.707C423.585 317.507 425.518 323.044 426.822 326.994C427.474 328.908 427.946 330.414 428.238 331.432L428.576 332.592C428.531 332.755 428.553 332.898 428.531 332.898Z" fill="#263238"/>
<g opacity="0.3">
<path d="M378.916 406.168L412.524 418.098L414.772 411.319L426.193 420.786L428.238 404.336L417.695 386.543L381.388 397.211L378.916 406.168Z" fill="black"/>
</g>
<path d="M493.118 405.924L479.472 398.432L467.602 388.599C470.386 390.611 473.535 392.168 476.909 393.2C478.518 393.623 480.235 393.559 481.801 393.019C483.367 392.479 484.696 391.492 485.587 390.207C485.587 390.207 480.686 387.418 479 386.563C477.314 385.708 460.296 374.226 455.98 373.371C451.663 372.516 423.248 367.264 423.248 367.264L422.798 368.587L408.748 395.724L421.224 398.758C423.612 401.771 425.746 404.942 427.609 408.245C430.397 413.334 444.042 418.424 449.28 420.847C454.518 423.269 460.521 418.974 460.521 418.974C466.568 420.215 468.052 414.352 468.052 414.352C474.976 413.518 475.56 406.677 475.56 406.677C480.944 408.616 486.437 410.294 492.016 411.706C492.595 411.851 493.212 411.793 493.746 411.544C494.279 411.295 494.689 410.873 494.894 410.362C495.227 409.552 495.232 408.66 494.907 407.847C494.581 407.034 493.947 406.353 493.118 405.924Z" fill="#FFBF9D"/>
<path d="M475.493 406.697C472.705 405.93 470.038 404.843 467.557 403.46C464.917 402.305 462.514 400.748 460.453 398.859C460.61 398.676 463.78 400.692 467.984 402.768C470.6 403.892 473.111 405.206 475.493 406.697Z" fill="#FF9A6C"/>
<path d="M453.394 405.699C456.2 406.782 458.837 408.192 461.24 409.893C463.804 411.364 466.266 412.976 468.613 414.718C465.797 413.682 463.143 412.313 460.723 410.646C458.165 409.142 455.717 407.49 453.394 405.699Z" fill="#FF9A6C"/>
<path d="M447.976 410.933C448.134 410.791 450.764 412.765 454.293 415.005C456.516 416.193 458.583 417.607 460.453 419.219C458.056 418.279 455.792 417.083 453.709 415.656C451.48 414.431 449.533 412.827 447.976 410.933Z" fill="#FF9A6C"/>
<path d="M451.483 377.789C452.53 377.789 453.564 377.99 454.518 378.379C456.886 379.152 459.096 380.273 461.06 381.698C463.032 383.098 464.8 384.719 466.321 386.523C467.024 387.215 467.587 388.015 467.984 388.884C467.737 389.068 465.017 385.546 460.521 382.329C457.731 380.477 454.695 378.952 451.483 377.789Z" fill="#FF9A6C"/>
<path d="M319.881 374.124C318.102 373.119 316.622 371.734 315.572 370.091C314.521 368.447 313.932 366.596 313.856 364.698C313.753 359.328 314.099 353.958 314.89 348.635C317.296 330.516 350.028 225.346 350.028 225.346L382.962 307.308L371.722 342.996L429.385 368.016L413.333 408.997C413.333 408.997 336.674 383.57 319.881 374.124Z" fill="#00638D"/>
<path d="M566.293 212.234L619.167 303.276L620.584 305.149L678.247 278.439L697.243 313.232L619.639 355.984C615.38 358.28 610.31 359.009 605.475 358.02C600.64 357.032 596.408 354.401 593.652 350.67L559.368 304.294L550.129 266.224L566.293 212.234Z" fill="#00638D"/>
<path d="M559.773 238.213C559.812 238.592 559.812 238.974 559.773 239.353C559.773 240.188 559.773 241.267 559.908 242.631C559.908 245.583 560.043 249.695 560.155 254.846C560.29 265.025 560.358 279.275 560.155 294.788C559.953 310.301 559.638 324.511 559.278 334.731C559.054 339.78 558.896 343.893 558.761 346.824C558.761 348.188 558.627 349.287 558.582 350.122C558.595 350.506 558.549 350.89 558.447 351.262C558.412 350.883 558.412 350.502 558.447 350.122C558.447 349.287 558.447 348.188 558.447 346.824C558.447 343.872 558.582 339.76 558.671 334.711C558.874 324.532 559.121 310.281 559.301 294.788C559.481 279.296 559.503 265.065 559.526 254.846C559.526 249.797 559.526 245.684 559.526 242.753C559.526 241.389 559.526 240.289 559.526 239.455C559.543 239.032 559.626 238.614 559.773 238.213Z" fill="#263238"/>
<path d="M362.797 248.086C362.951 248.379 363.072 248.686 363.157 249.002L364.033 251.689L367.136 261.563C369.698 269.91 373.228 281.453 376.825 294.299C380.422 307.145 383.232 318.831 385.03 327.361C385.907 331.616 386.582 335.077 386.986 337.54C387.188 338.66 387.323 339.576 387.458 340.309C387.493 340.627 387.493 340.947 387.458 341.266C387.335 340.962 387.245 340.648 387.188 340.329C387.031 339.617 386.806 338.721 386.559 337.601C386.019 335.117 385.255 331.697 384.311 327.524C382.378 319.055 379.433 307.369 375.858 294.543C372.284 281.718 368.844 270.114 366.439 261.767C365.27 257.695 364.191 254.275 363.629 251.832C363.314 250.712 363.089 249.796 362.909 249.104C362.836 248.769 362.799 248.428 362.797 248.086Z" fill="#263238"/>
<path d="M338.967 382.533L339.327 382.635L340.406 382.981L344.565 384.386L360.054 389.76L413.379 408.592L412.817 408.816L423.562 381.312L428.845 367.814L429.07 368.303L372.126 343.404C367.78 342.12 363.191 341.649 358.638 342.02C355.207 342.304 351.846 343.073 348.679 344.3C346.68 345.084 344.749 346.003 342.901 347.049L341.485 347.904C341.148 348.087 340.991 348.189 340.968 348.168L341.418 347.843L342.789 346.926C344.61 345.806 346.536 344.832 348.544 344.015C351.723 342.726 355.107 341.901 358.57 341.572C363.183 341.143 367.844 341.579 372.261 342.855L429.385 367.59L429.745 367.753L429.61 368.079L424.327 381.576C420.572 391.206 416.93 400.489 413.558 409.08L413.401 409.447L412.996 409.304L359.784 390.228L344.385 384.63L340.294 383.103L339.237 382.696L338.967 382.533Z" fill="#263238"/>
<path d="M620.988 304.215C621.227 305.397 621.273 306.604 621.123 307.798C620.921 310.674 620.478 313.533 619.797 316.348C619.032 319.646 618.245 322.598 617.728 324.736C617.542 325.917 617.218 327.077 616.762 328.197C616.705 327.001 616.819 325.804 617.099 324.634C617.481 322.456 618.155 319.463 618.92 316.185C619.684 312.908 620.224 309.915 620.493 307.737C620.554 306.553 620.719 305.375 620.988 304.215Z" fill="#263238"/>
<path d="M620.988 306.414C620.404 309.253 619.477 312.025 618.223 314.68C617.217 317.411 616.008 320.077 614.604 322.66C615.169 319.815 616.105 317.04 617.391 314.394C618.378 311.66 619.58 308.993 620.988 306.414Z" fill="#263238"/>
<path d="M468.321 221.764C467.748 221.35 467.208 220.901 466.703 220.42L462.409 216.573L447.909 203.136H448.538C446.647 205.217 445.364 207.696 444.807 210.343C444.478 211.734 444.357 213.158 444.447 214.578V215.473L443.683 214.903C436.331 209.529 430.396 204.236 425.945 200.653C423.697 198.841 421.966 197.395 420.707 196.398C420.04 195.914 419.409 195.39 418.819 194.83C419.564 195.213 420.264 195.663 420.91 196.174C422.236 197.09 424.079 198.474 426.35 200.245C430.846 203.767 436.938 208.979 444.334 214.293L443.615 214.639C443.52 213.157 443.648 211.671 443.997 210.221C444.589 207.434 445.95 204.829 447.954 202.648L448.269 202.322L448.583 202.627L462.881 216.247L466.995 220.319C467.489 220.759 467.934 221.243 468.321 221.764Z" fill="#263238"/>
<path d="M487.834 192.406C487.891 192.819 487.891 193.236 487.834 193.648C487.834 194.442 487.834 195.684 487.655 197.089C487.268 201.088 486.516 205.051 485.407 208.937L485.137 209.914L484.642 209.019C483.17 206.434 481.276 204.066 479.022 201.995C478.37 201.405 477.718 200.835 477.066 200.326L477.786 200.122C476.468 205.457 474.717 210.697 472.548 215.798C471.716 217.834 470.974 219.279 470.434 220.317C470.193 220.866 469.892 221.391 469.535 221.885C469.656 221.3 469.86 220.732 470.142 220.195L471.986 215.615C473.971 210.483 475.615 205.248 476.909 199.939L477.089 199.287L477.628 199.735C478.335 200.265 479.011 200.83 479.651 201.425C481.961 203.56 483.895 206.005 485.384 208.672H484.597C485.716 204.827 486.535 200.916 487.048 196.966C487.52 194.137 487.632 192.406 487.834 192.406Z" fill="#263238"/>
<path d="M540.35 398.797L545.498 413.333L574.723 410.87L565.618 397.006L540.35 398.797Z" fill="#00638D"/>
<path d="M540.35 398.799C540.92 398.689 541.499 398.621 542.081 398.595L547.206 398.127C551.702 397.76 557.997 397.211 565.595 396.641H565.843L565.955 396.824L575.105 410.688L575.487 411.237H574.768L573.261 411.36L545.543 413.599H545.25V413.355C543.677 408.815 542.463 405.211 541.631 402.606L540.687 399.715C540.575 399.394 540.485 399.068 540.417 398.738C540.417 398.738 540.597 399.124 540.867 399.796C541.136 400.468 541.541 401.527 541.991 402.728L545.902 413.172L545.543 412.948L573.261 410.606L574.768 410.484L574.408 411.095L565.416 397.19L565.775 397.353C558.402 397.862 552.13 398.208 547.656 398.453L542.418 398.738C541.069 398.799 540.372 398.819 540.35 398.799Z" fill="#263238"/>
<path d="M553.568 283.57H522.163V292.752H553.568V283.57Z" fill="#00638D"/>
<path d="M553.568 292.691C553.543 292.467 553.543 292.242 553.568 292.019C553.568 291.517 553.568 290.906 553.568 290.187C553.568 288.517 553.568 286.278 553.411 283.509L553.703 283.774C546.217 283.774 534.909 283.916 522.23 283.916L522.68 283.509V288.171C522.68 289.698 522.68 291.184 522.68 292.65L522.253 292.263C531.245 292.263 538.978 292.263 544.576 292.426L551.185 292.548C552.011 292.543 552.836 292.577 553.658 292.65C553.658 292.65 552.894 292.65 551.41 292.752H544.891C539.315 292.752 531.402 292.915 522.275 292.935H521.848V292.691C521.848 291.225 521.848 289.739 521.848 288.212V283.55L522.298 283.143C534.909 283.143 546.217 283.143 553.771 283.285H554.063V283.55C554.063 286.38 553.928 288.66 553.905 290.39C553.883 292.121 553.591 292.792 553.568 292.691Z" fill="#263238"/>
<g opacity="0.3">
<path d="M517.329 212.967L522.163 219.074C522.163 219.074 520.814 310.361 515.688 333.08L517.329 212.967Z" fill="black"/>
</g>
</svg>
