<svg width="825" height="480" viewBox="0 0 825 480" fill="none" xmlns="http://www.w3.org/2000/svg">
<path d="M824.883 0.328125H780.193V34.8924H795.524L803.251 41.7595L809.63 34.8924H824.883V0.328125Z" fill="white"/>
<path d="M824.884 0.329136C824.884 0.329136 824.884 0.533295 824.884 0.947794C824.884 1.36229 824.884 1.98095 824.884 2.80376C824.884 4.41845 824.884 6.77553 824.922 9.78219C824.922 15.8326 824.969 24.4876 825 34.9244V35.0481H809.631L809.762 34.9986L803.391 41.8347L803.267 41.9708L803.12 41.8471C800.663 39.6571 798.051 37.3433 795.369 34.98L795.501 35.0295H780V34.8872C780 22.2172 780 10.4009 780 0.32295V0.199219H780.155L812.622 0.261083H821.667H824.039H824.814H823.977H821.574L812.56 0.384815L780.194 0.44668L780.349 0.32295C780.349 10.4009 780.349 22.2172 780.349 34.8872L780.171 34.7449H795.602L795.648 34.7944L803.399 41.6615H803.128L809.514 34.7944L809.561 34.7449H824.899L824.744 34.8687C824.744 24.4629 824.806 15.8388 824.822 9.80694C824.822 6.7879 824.822 4.41845 824.822 2.79757C824.822 1.99332 824.822 1.37466 824.822 0.941606C824.822 0.508547 824.884 0.329136 824.884 0.329136Z" fill="#263238"/>
<path d="M795.19 13.2838H799.166C799.164 12.9228 799.253 12.565 799.427 12.2318C799.601 11.8986 799.857 11.5967 800.18 11.344C800.504 11.0913 800.887 10.8929 801.308 10.7607C801.729 10.6284 802.179 10.565 802.631 10.5741C803.297 10.5566 803.953 10.705 804.509 10.9988C805.064 11.2926 805.492 11.7171 805.731 12.2135C805.941 12.6287 806.026 13.0778 805.977 13.524C805.929 13.9702 805.749 14.4009 805.452 14.781C804.778 15.6656 803.297 16.4699 800.623 16.0987V23.2751H804.553V19.0559C806.164 18.6769 807.575 17.8864 808.569 16.8058C809.563 15.7251 810.085 14.4139 810.056 13.0735C810.056 8.43974 804.847 7.36328 802.623 7.36328C800.926 7.36328 795.113 7.69117 795.19 13.2838Z" fill="#FF6F19"/>
<path d="M804.609 24.7168H800.625V27.6863H804.609V24.7168Z" fill="#FF6F19"/>
<path d="M821 479.079C821 479.308 637.198 479.475 410.519 479.475C183.839 479.475 0 479.308 0 479.079C0 478.851 183.765 478.684 410.519 478.684C637.273 478.684 821 478.866 821 479.079Z" fill="#263238"/>
<path d="M197.393 294.784V326.331H98.9769V460.959H51.2949V149.945H221.241V181.481H98.9769V294.784H197.393Z" fill="#FF6F19"/>
<path d="M267.834 398.31L251.331 460.959H207.33L289.228 149.945H358.244L440.157 460.959H392.537L376.034 398.31H267.834ZM273.968 368.546H369.301L321.021 189.028L273.968 368.546Z" fill="#FF6F19"/>
<path d="M657.002 225.035V385.87C657.002 404.977 651.511 421.854 640.5 434.295C645.392 441.853 653.336 444.071 666.787 444.071H672.921V474.726H664.977C638.076 474.726 620.347 467.625 610.562 454.739C597.112 460.513 579.398 464.069 558.601 464.069C493.205 464.069 460.799 432.968 460.799 385.87V225.035C460.799 177.491 493.205 146.836 558.601 146.836C624.611 146.836 657.002 177.491 657.002 225.035ZM507.852 223.252V387.643C507.852 416.08 524.354 432.522 558.586 432.522C593.431 432.522 609.335 416.08 609.335 387.643V223.252C609.335 195.26 593.431 178.383 558.586 178.383C524.354 178.383 507.852 195.26 507.852 223.252Z" fill="#FF6F19"/>
<g opacity="0.3">
<path d="M197.393 294.782V326.329H98.9769V460.957H51.2949V149.943H221.241V181.479H98.9769V294.782H197.393Z" fill="black"/>
<path d="M267.835 398.308L251.333 460.957H207.332L289.23 149.943H358.246L440.159 460.957H392.539L376.036 398.308H267.835ZM273.97 368.544H369.303L321.023 189.026L273.97 368.544Z" fill="black"/>
<path d="M657.006 225.033V385.868C657.006 404.975 651.515 421.852 640.503 434.293C645.396 441.851 653.34 444.069 666.791 444.069H672.925V474.724H664.981C638.08 474.724 620.351 467.624 610.566 454.737C597.116 460.511 579.402 464.068 558.605 464.068C493.209 464.068 460.803 432.966 460.803 385.868V225.033C460.803 177.489 493.209 146.834 558.605 146.834C624.615 146.834 657.006 177.489 657.006 225.033ZM507.856 223.25V387.641C507.856 416.078 524.358 432.52 558.59 432.52C593.435 432.52 609.339 416.078 609.339 387.641V223.25C609.339 195.258 593.435 178.381 558.59 178.381C524.358 178.381 507.856 195.258 507.856 223.25Z" fill="black"/>
</g>
<path d="M238.218 398.31L221.716 460.959H177.699L259.613 149.945H328.628L410.542 460.959H362.921L346.419 398.31H238.218ZM244.353 368.546H339.717L291.406 189.028L244.353 368.546Z" fill="#FF6F19"/>
<path d="M178.098 294.928V326.475H79.682V461.136H32V150.123H201.931V181.67H79.682V294.928H178.098Z" fill="#FF6F19"/>
<path d="M627.387 224.699V385.568C627.387 404.674 621.881 421.563 610.885 434.003C615.777 441.55 623.721 443.78 637.172 443.78H643.306V474.402H635.362C608.461 474.402 590.732 467.289 580.963 454.403C567.512 460.177 549.783 463.733 529.002 463.733C463.59 463.733 431.199 432.632 431.199 385.534V224.699C431.199 177.155 463.59 146.5 529.002 146.5C594.98 146.533 627.387 177.189 627.387 224.699ZM478.191 222.96V387.351C478.191 415.788 494.693 432.22 528.925 432.22C563.77 432.22 579.659 415.788 579.659 387.351V222.96C579.659 194.969 563.77 178.081 528.925 178.081C494.739 178.081 478.191 194.969 478.191 222.96Z" fill="#FF6F19"/>
<path d="M664.827 147.634C663.362 150.059 668.826 152.047 671.975 152.835C675.189 153.488 678.514 153.676 681.805 153.393C686.2 153.199 690.697 152.859 694.491 151.065C697.814 149.361 700.47 146.898 702.138 143.973C703.783 141.057 705.083 138.016 706.02 134.893C706.02 134.893 671.404 136.76 664.827 147.634Z" fill="#FF6F19"/>
<g opacity="0.4">
<path d="M664.823 147.632C663.358 150.057 668.822 152.045 671.971 152.833C675.185 153.486 678.51 153.675 681.801 153.391C686.196 153.197 690.693 152.857 694.487 151.063C697.81 149.36 700.466 146.896 702.134 143.971C703.779 141.055 705.079 138.014 706.016 134.891C706.016 134.891 671.4 136.758 664.823 147.632Z" fill="black"/>
</g>
<path d="M762.594 139.875C768.301 143.224 775.14 144.998 782.136 144.942C785.49 145.097 788.797 144.235 791.438 142.517C792.566 141.657 793.416 140.566 794.573 139.741C795.364 139.184 796.287 138.759 797.034 138.165C797.428 137.884 797.732 137.527 797.919 137.125C798.105 136.723 798.169 136.289 798.103 135.862C797.814 134.809 797.101 133.868 796.082 133.195C792.112 131.328 787.365 131.4 782.795 131.485C778.221 131.649 773.703 132.381 769.391 133.655C765.846 134.649 762.14 136.08 760.338 138.747" fill="#FF6F19"/>
<g opacity="0.4">
<path d="M798.101 135.862C797.584 134.84 796.672 133.987 795.508 133.438C791.539 131.571 787.364 131.401 782.793 131.486C778.219 131.65 773.701 132.381 769.389 133.656C765.844 134.65 762.138 136.081 760.336 138.748L762.592 139.875C768.299 143.225 775.138 144.999 782.134 144.943C785.488 145.097 788.795 144.235 791.436 142.518C792.564 141.657 793.414 140.566 794.571 139.742C795.362 139.184 796.285 138.76 797.032 138.166C797.426 137.885 797.73 137.527 797.917 137.125C798.104 136.723 798.167 136.29 798.101 135.862Z" fill="black"/>
</g>
<path d="M695.004 183.385L768.029 184.185C768.178 184.185 768.325 184.156 768.457 184.1C768.59 184.045 768.705 183.964 768.793 183.865C768.881 183.766 768.94 183.651 768.966 183.53C768.991 183.409 768.981 183.285 768.938 183.167L760.368 161.054C760.368 161.054 761.628 149.998 763.371 136.71C766.022 116.525 769.553 91.151 769.597 91.2238C764.602 79.6339 735.127 77.6699 735.127 77.6699L701.537 79.3187L700.365 77.682L690.697 81.4039C688.588 82.2158 686.56 83.1644 684.632 84.2407C678.245 87.7686 662.863 95.8791 660.051 104.911C653.561 125.824 664.548 149.161 664.548 149.161L671.609 144.591C673.387 143.456 675.257 142.424 677.205 141.499L691.356 172.886C690.514 173.326 689.801 173.915 689.268 174.611C688.736 175.308 688.398 176.093 688.28 176.911C688.162 179.457 689.744 182.512 695.004 183.385Z" fill="#7EBDD7"/>
<g opacity="0.3">
<path d="M726.34 146.385C728.654 136.08 727.438 125.485 726.193 115.059C722.15 123.545 722.296 133.244 718.004 141.657C717.478 142.546 717.094 143.487 716.862 144.458C716.75 144.945 716.779 145.447 716.947 145.924C717.115 146.4 717.417 146.836 717.828 147.197C719 148.082 720.758 147.598 722.311 147.452C723.701 147.233 725.054 146.874 726.34 146.385Z" fill="black"/>
</g>
<g opacity="0.4">
<path d="M699.399 170.248C705.259 171.933 711.5 168.794 717.696 168.236C721.798 167.872 725.9 168.648 729.972 169.194C738.207 170.296 746.585 170.467 754.876 169.703C756.148 169.645 757.393 169.377 758.538 168.915C759.13 168.581 759.614 168.133 759.948 167.609C760.283 167.085 760.457 166.501 760.457 165.908C746.658 164.696 732.873 164.041 719.073 162.865C715.638 162.38 712.12 162.475 708.731 163.144C704.571 164.211 701.406 166.914 698.477 169.594" fill="black"/>
</g>
<path d="M795.993 131.887C790.031 120.77 769.01 90.0254 769.01 90.0254L752.734 106.913L756.528 140.07C756.528 140.07 765.128 132.13 789.167 131.972C790.914 132.03 792.623 132.41 794.169 133.086C795.715 133.761 797.059 134.715 798.103 135.876L795.993 131.887Z" fill="#78BDD7"/>
<path d="M698.272 126.007C697.111 123.651 696.189 121.217 695.518 118.734C694.608 116.314 693.941 113.837 693.525 111.326C694.669 113.687 695.585 116.119 696.265 118.6C697.175 121.02 697.846 123.498 698.272 126.007Z" fill="#263238"/>
<path d="M751.505 104.668C752.035 104.978 752.525 105.331 752.97 105.723C754.264 106.757 755.477 107.858 756.603 109.02C760.391 112.852 763.053 117.359 764.381 122.186C765.071 124.855 765.224 127.599 764.835 130.309C764.469 132.794 763.898 134.976 763.517 136.819C763.136 138.662 762.902 140.165 762.784 141.208C762.781 141.749 762.713 142.29 762.579 142.82C762.476 142.279 762.446 141.73 762.491 141.183C762.556 139.698 762.722 138.216 762.99 136.746C763.297 134.891 763.81 132.685 764.147 130.248C764.486 127.599 764.313 124.923 763.634 122.319C762.322 117.582 759.777 113.139 756.178 109.299C753.497 106.317 751.387 104.765 751.505 104.668Z" fill="#263238"/>
<path d="M736.592 180.718C736.083 180.905 735.546 181.036 734.995 181.105C734.369 181.242 733.733 181.343 733.091 181.409C732.343 181.493 731.494 181.627 730.542 181.663C728.31 181.833 726.064 181.833 723.832 181.663C721.102 181.431 718.404 180.984 715.775 180.33C713.16 179.634 710.629 178.737 708.216 177.65C706.26 176.747 704.402 175.704 702.664 174.535C701.903 174.05 701.287 173.541 700.731 173.116C700.25 172.758 699.796 172.378 699.368 171.977C698.961 171.665 698.611 171.305 698.328 170.91C698.431 170.825 699.998 172.28 703.001 174.183C704.756 175.288 706.612 176.277 708.553 177.141C710.939 178.178 713.429 179.042 715.995 179.723C718.578 180.368 721.226 180.822 723.906 181.081C726.095 181.276 728.298 181.333 730.498 181.251C734.262 181.081 736.562 180.621 736.592 180.718Z" fill="#263238"/>
<path d="M759.137 173.834C759.482 174.382 759.677 174.986 759.708 175.604C759.942 177.082 759.807 178.584 759.313 180.017C758.81 181.483 757.789 182.791 756.383 183.775C755.314 184.515 754.493 184.745 754.449 184.684C754.405 184.624 755.094 184.224 756.017 183.472C757.202 182.449 758.062 181.2 758.522 179.835C759.694 176.634 758.859 173.846 759.137 173.834Z" fill="#263238"/>
<path d="M755.17 178.102C755.487 179.348 755.36 180.645 754.804 181.833C754.247 183.021 753.285 184.05 752.035 184.794C751.873 184.66 753.236 183.46 754.085 181.605C754.935 179.75 754.95 178.114 755.17 178.102Z" fill="#263238"/>
<path d="M742.099 138.213C741.323 139.299 740.451 140.336 739.491 141.316C738.734 142.411 737.877 143.457 736.928 144.444C737.209 143.165 737.874 141.964 738.861 140.953C739.642 139.827 740.756 138.884 742.099 138.213Z" fill="#263238"/>
<path d="M691.969 108.851C690.853 108.309 689.772 107.718 688.731 107.081C683.522 104.249 677.609 102.421 671.431 101.735C670.138 101.657 668.851 101.515 667.578 101.31C668.876 101.162 670.192 101.162 671.489 101.31C677.836 101.759 683.914 103.632 689.068 106.73C690.149 107.322 691.126 108.036 691.969 108.851Z" fill="#263238"/>
<path d="M769.011 89.625C766.39 91.3723 763.94 93.2898 761.687 95.3593C759.612 97.568 757.755 99.9113 756.135 102.367C756.308 101.541 756.65 100.746 757.146 100.015C758.206 98.1968 759.535 96.4947 761.101 94.9471C762.671 93.4027 764.473 92.0298 766.462 90.8616C767.22 90.331 768.082 89.9126 769.011 89.625Z" fill="#263238"/>
<path d="M738.862 79.6367C738.995 79.8116 739.103 79.9988 739.184 80.1944C739.47 80.7434 739.7 81.3111 739.873 81.8917C740.49 84.0521 740.49 86.302 739.873 88.4625C738.961 91.6876 736.875 94.6033 733.896 96.8154C730.136 99.4514 725.346 100.865 720.419 100.792C715.488 100.806 710.683 99.5004 706.722 97.07C703.566 95.0757 701.005 92.5083 699.236 89.5657C698.045 87.5954 697.206 85.4923 696.746 83.3222C696.611 82.7376 696.523 82.1463 696.482 81.5522C696.441 81.3435 696.441 81.1305 696.482 80.9218C696.482 80.9218 696.643 81.7704 697.053 83.2737C697.623 85.3825 698.524 87.4205 699.734 89.3354C701.521 92.1893 704.059 94.6751 707.161 96.6093C710.978 98.9486 715.596 100.222 720.346 100.246C725.094 100.319 729.716 98.9761 733.369 96.4639C736.246 94.3329 738.287 91.5376 739.228 88.4382C739.88 86.3461 739.97 84.1612 739.492 82.0371C739.214 80.4369 738.774 79.661 738.862 79.6367Z" fill="#263238"/>
<g opacity="0.3">
<path d="M743.989 140.358C743.989 139.752 743.871 139.036 743.227 138.733C743.022 138.648 742.797 138.604 742.568 138.604C742.339 138.604 742.113 138.648 741.908 138.733C741.499 138.916 741.136 139.163 740.839 139.461C739.117 140.944 737.785 142.706 736.928 144.637L744.106 144.116C744.062 142.891 744.033 141.606 743.989 140.358Z" fill="black"/>
</g>
<g opacity="0.3">
<path d="M767.824 127.86C767.103 124.461 765.303 121.281 762.609 118.646C765.715 127.036 764.675 131.776 762.932 137.522L763.313 136.722C765.319 133.364 768.366 131.255 767.824 127.86Z" fill="black"/>
</g>
<path d="M753.482 409.679L749.102 464.052L720.536 463.773L716.039 407.242L753.482 409.679Z" fill="#FFBE9D"/>
<path d="M749.908 456.904V458.48C749.908 458.48 782.136 469.197 782.443 474.24L718.441 473.949L719.438 456.334C728.974 460.032 738.95 460.492 749.908 456.904Z" fill="black"/>
<path d="M725.929 461.979C725.322 462.131 724.802 462.462 724.468 462.908C724.133 463.354 724.007 463.886 724.113 464.404C724.269 464.921 724.662 465.368 725.208 465.651C725.755 465.933 726.412 466.03 727.042 465.92C727.694 465.758 728.25 465.402 728.602 464.92C728.954 464.439 729.077 463.866 728.947 463.313C728.715 462.789 728.245 462.361 727.638 462.119C727.031 461.877 726.334 461.84 725.695 462.016" fill="white"/>
<path d="M718.441 473.946L718.676 469.715L779.968 471.558C779.968 471.558 782.81 472.6 782.473 474.249L718.441 473.946Z" fill="#263238"/>
<path d="M750.144 458.624C750.144 458.879 748.562 458.988 747.024 459.837C745.486 460.685 744.651 461.74 744.373 461.643C744.094 461.546 744.563 460.043 746.453 459.073C748.343 458.103 750.218 458.345 750.144 458.624Z" fill="#263238"/>
<path d="M756.838 460.948C756.911 461.203 755.549 461.627 754.48 462.718C753.41 463.809 753.103 464.961 752.78 464.949C752.458 464.937 752.282 463.47 753.645 462.148C755.007 460.827 756.824 460.766 756.838 460.948Z" fill="#263238"/>
<path d="M760.603 467.618C760.31 467.618 759.885 466.406 760.706 464.963C761.526 463.521 762.976 462.999 763.108 463.205C763.24 463.411 762.332 464.175 761.643 465.351C760.955 466.527 760.925 467.594 760.603 467.618Z" fill="#263238"/>
<path d="M748.267 12.0233C749.922 8.62876 747.915 4.51896 744.355 2.32464C740.604 0.28081 736.029 -0.45544 731.625 0.275809C727.281 1.02968 723.075 2.25246 719.115 3.9128C717.274 2.376 714.953 1.29299 712.411 0.784707C709.869 0.276429 707.206 0.362887 704.72 1.03442C702.234 1.70596 700.023 2.93613 698.332 4.58759C696.642 6.23906 695.54 8.2468 695.149 10.3866C693.565 10.0567 691.903 10.0899 690.34 10.4827C688.777 10.8755 687.373 11.613 686.278 12.6161C685.184 13.6193 684.44 14.8502 684.126 16.1767C683.813 17.5033 683.942 18.8754 684.499 20.1459L704.305 25.9045L725.927 57.425C729.122 59.6813 733.201 60.8983 737.401 60.849C741.601 60.7998 745.636 59.4876 748.753 57.1574C751.87 54.8272 753.856 51.638 754.341 48.185C754.825 44.732 753.776 41.251 751.387 38.3915C752.599 37.4999 753.628 36.4518 754.434 35.2879C756.162 34.4423 757.669 33.3209 758.869 31.9889C760.069 30.657 760.936 29.1409 761.422 27.529C763.341 20.5096 756.778 12.8477 748.267 12.0233Z" fill="#263238"/>
<path d="M735.157 77.6715C733.926 72.5434 733.077 69.0276 733.091 69.064C733.106 69.1004 744.811 65.3058 743.961 51.8125C743.551 45.0962 740.46 34.5126 737.589 25.9293C735.01 18.1946 726.294 9.67196 717.08 12.133L689.144 23.4077C686.346 24.1593 685.863 26.3415 686.522 28.7055V29.9179L697.377 67.0879L701.962 83.6968C702.939 87.1072 705.424 90.0912 708.927 92.0613C712.43 94.0313 716.697 94.8446 720.889 94.3411C723.178 94.0747 725.377 93.4239 727.351 92.4287C729.325 91.4336 731.032 90.115 732.369 88.554C733.705 86.993 734.641 85.2225 735.121 83.3511C735.6 81.4797 735.613 79.547 735.157 77.6715Z" fill="#FFBE9D"/>
<path d="M737.486 34.8995C737.603 35.3297 737.517 35.7808 737.244 36.1597C736.972 36.5387 736.534 36.8166 736.021 36.9362C735.762 36.996 735.491 37.0119 735.225 36.9828C734.958 36.9538 734.702 36.8804 734.47 36.7672C734.239 36.6539 734.038 36.5031 733.879 36.3238C733.72 36.1445 733.606 35.9404 733.545 35.7239C733.428 35.2953 733.515 34.8458 733.788 34.4688C734.06 34.0918 734.498 33.8163 735.01 33.6993C735.268 33.6375 735.538 33.6199 735.804 33.6473C736.071 33.6748 736.328 33.7469 736.559 33.8592C736.791 33.9715 736.993 34.1217 737.152 34.3005C737.311 34.4794 737.425 34.6832 737.486 34.8995Z" fill="#263238"/>
<path d="M736.212 32.3168C736.007 32.5835 734.234 31.9167 732.066 32.3168C729.898 32.7169 728.521 33.8807 728.228 33.6989C727.935 33.517 728.228 33.1776 728.829 32.6441C729.634 31.9393 730.683 31.4568 731.832 31.2621C732.965 31.0599 734.147 31.1662 735.201 31.5652C736.021 31.844 736.3 32.2077 736.212 32.3168Z" fill="#263238"/>
<path d="M716.216 38.8786C716.334 39.3072 716.247 39.7567 715.974 40.1337C715.701 40.5107 715.263 40.7863 714.752 40.9032C714.499 40.9642 714.234 40.983 713.972 40.9586C713.71 40.9342 713.457 40.867 713.226 40.7611C712.996 40.6551 712.793 40.5123 712.63 40.3411C712.467 40.1699 712.347 39.9736 712.276 39.7636C712.158 39.3335 712.245 38.8824 712.517 38.5034C712.79 38.1244 713.228 37.8465 713.741 37.7269C713.995 37.6662 714.261 37.6479 714.523 37.6731C714.786 37.6983 715.04 37.7664 715.27 37.8736C715.501 37.9808 715.703 38.1249 715.865 38.2974C716.028 38.47 716.147 38.6675 716.216 38.8786Z" fill="#263238"/>
<path d="M715.149 36.5975C714.959 36.8642 713.172 36.1853 711.004 36.5975C708.835 37.0097 707.458 38.1492 707.165 37.9795C706.872 37.8098 707.165 37.4582 707.766 36.9127C708.576 36.2142 709.623 35.7363 710.769 35.5427C711.901 35.3436 713.08 35.4454 714.138 35.8337C714.915 36.1247 715.252 36.452 715.149 36.5975Z" fill="#263238"/>
<path d="M726.179 47.9974C727.253 47.507 728.394 47.1245 729.577 46.8578C730.119 46.7123 730.632 46.5305 730.647 46.2031C730.57 45.7209 730.32 45.269 729.929 44.9059L727.395 41.6811C723.85 37.0864 721.154 33.2797 721.374 33.1948C721.594 33.11 724.655 36.7106 728.2 41.3053L730.676 44.5544C731.162 45.0516 731.426 45.6725 731.423 46.3122C731.379 46.4866 731.29 46.6509 731.161 46.7934C731.032 46.9359 730.866 47.0531 730.676 47.1366C730.389 47.2622 730.084 47.3559 729.768 47.4155C728.609 47.7438 727.402 47.9396 726.179 47.9974Z" fill="#263238"/>
<path d="M733.091 69.0605C725.681 70.4464 717.953 70.1022 710.766 68.0664C710.766 68.0664 718.442 76.3587 733.926 72.3944L733.091 69.0605Z" fill="#EB996E"/>
<path d="M715.514 34.0259C715.367 34.5472 713.126 34.535 710.577 35.0564C708.028 35.5777 706.006 36.3657 705.596 35.9535C705.42 35.7595 705.713 35.2503 706.49 34.7411C707.522 34.0219 708.748 33.5188 710.064 33.2742C711.369 33.018 712.729 33.018 714.034 33.2742C715.074 33.4318 715.616 33.7834 715.514 34.0259Z" fill="#263238"/>
<path d="M735.379 26.5971C735.027 27.082 733.152 26.9608 730.984 27.3123C728.816 27.6639 727.102 28.2701 726.589 27.9185C726.355 27.7366 726.589 27.276 727.219 26.7062C728.186 26.0329 729.355 25.5889 730.603 25.4211C731.83 25.2165 733.101 25.2919 734.28 25.6393C735.173 25.9788 735.525 26.3546 735.379 26.5971Z" fill="#263238"/>
<path d="M696.046 14.7265C696.37 16.0398 697.04 17.2779 698.007 18.3529C698.975 19.4279 700.217 20.3133 701.644 20.9463C703.072 21.5793 704.651 21.9444 706.268 22.0155C707.885 22.0866 709.502 21.8622 711.003 21.358C713.317 20.5821 715.72 19.1273 718.064 19.8304C720.407 20.5336 721.374 23.2977 723.616 24.3282C726.912 25.8557 730.94 23.2128 734.617 23.4796C737.547 23.6856 739.759 25.5405 742.03 27.1165C744.3 28.6926 747.435 29.8806 749.999 28.7411C749.412 26.7165 748.541 24.7554 747.406 22.8976C746.26 21.0273 744.365 19.5445 742.044 18.703C740.755 18.2787 739.363 18.1332 738.133 17.6119C735.481 16.4965 734.295 13.9749 732.376 12.0715C731.115 10.8721 729.528 9.9385 727.744 9.34817C725.961 8.75784 724.034 8.52776 722.121 8.67699C718.957 8.94371 715.954 10.2651 712.761 10.156C710.402 10.0712 708.146 9.1983 705.788 9.23467C701.202 9.23467 697.76 12.6292 695.211 15.7934" fill="#263238"/>
<path d="M711.483 17.5033C709.373 17.37 705.067 17.0063 703.646 15.7697C702.202 14.4335 700.36 13.4345 698.303 12.8728C696.246 12.3111 694.047 12.2064 691.926 12.5691C689.822 13.0884 687.974 14.1532 686.655 15.6067C685.337 17.0602 684.617 18.8257 684.602 20.6433C682.039 21.1609 679.692 22.2418 677.81 23.7718C675.927 25.3018 674.579 27.2241 673.908 29.3357C673.226 31.5462 673.203 33.8606 673.841 36.0801C674.479 38.2996 675.759 40.3576 677.57 42.0772C678.45 42.9879 679.253 43.948 679.973 44.9505C678.979 45.9703 678.106 47.0663 677.365 48.2238C674.01 54.3581 683.107 56.7101 683.107 56.7101C683.107 60.832 687.722 60.8077 690.666 60.7956C693.611 60.7835 695.237 67.2937 697.537 67.0391L695.208 46.9508C695.549 47.0606 695.911 47.1181 696.277 47.1205C701.829 47.2054 700.379 38.5009 698.592 36.2096C700.246 34.5054 701.643 32.6409 702.752 30.6571C703.758 27.6245 703.828 24.4316 702.957 21.3706C704.817 21.1767 712.391 17.5518 711.483 17.5033Z" fill="#263238"/>
<path d="M695.939 48.0193C695.75 47.381 695.369 46.7927 694.831 46.3093C694.293 45.826 693.615 45.4633 692.862 45.2551C692.109 45.0469 691.304 45 690.523 45.1187C689.742 45.2374 689.01 45.5179 688.395 45.9341C686.93 46.9767 686.154 48.7224 687.033 51.6441C689.406 59.4515 698.386 55.8752 698.327 55.6569C698.269 55.4387 696.965 51.2441 695.939 48.0193Z" fill="#FFBE9D"/>
<path d="M694.548 53.2895C694.548 53.2895 694.417 53.4229 694.168 53.5805C693.821 53.8003 693.385 53.9002 692.952 53.8593C691.868 53.7624 690.622 52.647 690.154 51.2286C689.93 50.5658 689.885 49.8706 690.022 49.1919C690.037 48.9282 690.128 48.6714 690.289 48.4435C690.45 48.2155 690.675 48.023 690.945 47.8826C691.123 47.8032 691.328 47.778 691.527 47.8112C691.725 47.8444 691.902 47.934 692.029 48.0644C692.219 48.2463 692.205 48.416 692.263 48.4281C692.322 48.4402 692.424 48.2463 692.263 47.9432C692.151 47.7634 691.971 47.6187 691.75 47.531C691.44 47.4272 691.094 47.4272 690.784 47.531C690.416 47.6756 690.098 47.8947 689.86 48.1681C689.622 48.4415 689.471 48.7603 689.421 49.0949C689.231 49.8584 689.266 50.6485 689.524 51.3983C689.687 52.1023 690.098 52.7506 690.706 53.2618C691.313 53.773 692.089 54.1243 692.937 54.2715C693.213 54.2808 693.488 54.2388 693.741 54.1486C693.995 54.0583 694.22 53.9222 694.402 53.7502C694.592 53.4835 694.592 53.3017 694.548 53.2895Z" fill="#EB996E"/>
<path d="M746.527 37.117C746.527 37.117 747.391 36.5714 748.593 35.3591C750.25 33.6123 751.267 31.5084 751.522 29.2975C751.716 27.7881 751.537 26.2619 750.995 24.8118C750.369 23.1485 749.21 21.6568 747.64 20.4959C745.828 19.1862 743.634 18.2913 741.275 17.9001C738.916 17.5088 736.475 17.6347 734.192 18.2653C733.753 18.3865 733.343 18.5683 732.933 18.7138C732.523 18.8593 732.156 19.0775 731.775 19.2594L731.189 19.5261V18.9927C731.177 18.0535 730.756 17.1496 730.003 16.4468C729.232 15.7646 728.286 15.2343 727.234 14.895C725.245 14.2088 723.04 14.0728 720.95 14.507C716.907 15.2708 713.479 16.7983 710.241 17.1136C707.702 17.4787 705.09 17.0464 702.917 15.9012C702.343 15.5746 701.846 15.1637 701.452 14.6889C701.217 14.3616 701.1 14.1797 701.129 14.1676C701.66 14.7663 702.309 15.2867 703.048 15.7072C705.187 16.729 707.7 17.0776 710.124 16.6892C711.811 16.4266 713.46 16.0203 715.046 15.4769C716.908 14.861 718.816 14.3467 720.759 13.9372C721.842 13.7204 722.956 13.6266 724.07 13.6584C725.245 13.7098 726.4 13.9314 727.483 14.3131C728.603 14.7091 729.604 15.3053 730.413 16.0588C731.279 16.8795 731.767 17.9273 731.79 19.0169L731.204 18.7502L732.42 18.1683C732.874 18.0228 733.299 17.8288 733.768 17.6955C736.173 17.0138 738.753 16.8712 741.246 17.2822C743.739 17.6931 746.057 18.643 747.963 20.0353C749.61 21.2696 750.816 22.8548 751.449 24.6179C752.107 26.4864 752.195 28.4606 751.707 30.3643C751.219 32.2681 750.169 34.0423 748.651 35.5288C748.169 35.9845 747.623 36.3914 747.025 36.7412C746.878 36.8827 746.711 37.0089 746.527 37.117Z" fill="#455A64"/>
<path d="M744.619 9.70703C743.657 9.30299 742.632 9.01321 741.572 8.84628C740.361 8.70925 739.128 8.80466 737.968 9.12511C736.467 9.50529 735.162 10.2906 734.262 11.3558L733.896 11.7801L733.676 11.2952C732.911 9.80489 731.68 8.51036 730.109 7.54503C728.539 6.57969 726.685 5.97847 724.74 5.80333C721.685 5.70824 718.675 6.43099 716.156 7.86429C714.01 9.02205 711.728 9.99689 709.344 10.7739C707.701 11.2883 705.931 11.4631 704.187 11.2831C703.723 11.2121 703.267 11.1066 702.825 10.9679C702.532 10.8587 702.371 10.7981 702.386 10.7739C702.4 10.7496 703.045 10.9315 704.231 11.0285C705.917 11.1156 707.604 10.8877 709.168 10.3617C711.484 9.52581 713.705 8.51958 715.804 7.35511C717.101 6.68889 718.475 6.13245 719.906 5.69421C721.479 5.21944 723.161 5.04134 724.828 5.17291C726.906 5.36065 728.883 6.0111 730.549 7.05503C732.216 8.09896 733.509 9.4973 734.291 11.1012H733.72C734.727 9.96192 736.166 9.13406 737.807 8.74929C739.054 8.45008 740.369 8.39611 741.645 8.59168C742.454 8.7187 743.228 8.9651 743.931 9.31909C744.181 9.42061 744.413 9.55124 744.619 9.70703Z" fill="#455A64"/>
<path d="M725.327 51.5825C724.985 51.3457 724.586 51.1715 724.157 51.0712C723.728 50.9709 723.278 50.9468 722.837 51.0005C722.321 51.0917 721.834 51.2715 721.407 51.5284C720.981 51.7853 720.625 52.1135 720.361 52.4917C720.361 52.4917 720.288 52.5523 720.273 52.5887C720.071 52.8656 719.979 53.1877 720.01 53.5101C720.073 53.8612 720.24 54.1941 720.496 54.4794C720.751 54.7648 721.087 54.9939 721.474 55.1467C722.094 55.4065 722.795 55.5016 723.482 55.4192C724.169 55.3367 724.808 55.0807 725.313 54.686C725.791 54.2672 726.059 53.7132 726.062 53.1366C726.065 52.5601 725.802 52.0043 725.327 51.5825Z" fill="#FF6F19"/>
<path d="M726.06 55.3522C725.943 55.3522 725.811 54.9885 725.415 54.4915C724.939 53.8251 724.227 53.2957 723.376 52.9749C722.524 52.654 721.574 52.5571 720.654 52.6972C719.936 52.7821 719.497 52.9518 719.453 52.8669C719.409 52.7821 719.746 52.4911 720.537 52.2608C721.572 51.985 722.695 52.0369 723.687 52.4063C724.688 52.7751 725.479 53.4477 725.899 54.2854C726.206 54.9158 726.162 55.3401 726.06 55.3522Z" fill="#263238"/>
<path d="M696.161 56.8549C696.161 56.8549 696.586 57.4611 696.029 58.3824C695.714 58.9338 695.16 59.3667 694.477 59.5948C694.05 59.7211 693.594 59.7639 693.144 59.7197C692.694 59.6756 692.263 59.5456 691.884 59.3402C691.498 59.1462 691.172 58.8812 690.931 58.5658C690.689 58.2503 690.539 57.893 690.492 57.5217C690.448 56.9229 690.66 56.3304 691.093 55.8487C691.854 55.0485 692.704 55.0243 692.704 55.097C692.704 55.1698 692.06 55.3759 691.547 56.1033C691.25 56.5108 691.126 56.9887 691.195 57.4611C691.25 57.7378 691.376 58.0013 691.566 58.2337C691.756 58.466 692.004 58.6615 692.294 58.8068C692.58 58.9581 692.901 59.058 693.237 59.0997C693.573 59.1415 693.915 59.1243 694.242 59.0492C694.783 58.889 695.249 58.5922 695.575 58.2006C696.147 57.449 696.044 56.8549 696.161 56.8549Z" fill="#FF6F19"/>
<path d="M691.221 56.3834C691.294 56.3834 691.221 56.7956 690.532 57.0623C690.194 57.1787 689.823 57.2124 689.462 57.1597C689.101 57.1069 688.766 56.9698 688.497 56.7645C688.227 56.5593 688.034 56.2945 687.941 56.0014C687.847 55.7083 687.857 55.3991 687.969 55.1105C688.112 54.7826 688.386 54.5048 688.745 54.3225C689.346 54.0194 689.8 54.1406 689.785 54.2134C689.771 54.2861 689.434 54.371 689.067 54.6741C688.887 54.8604 688.777 55.0866 688.752 55.3243C688.726 55.562 688.786 55.8007 688.924 56.0104C689.061 56.2201 689.271 56.3915 689.526 56.5032C689.781 56.6148 690.07 56.6617 690.357 56.638C690.855 56.5532 691.118 56.3349 691.221 56.3834Z" fill="#FF6F19"/>
<path d="M707.323 164.049C707.323 164.049 743.594 165.795 765.041 165.952C781.638 166.086 789.051 162.437 792.361 153.599C795.145 146.191 789.168 131.971 789.168 131.971C777.932 131.971 771.003 133.304 763.781 136.105L765.7 142.603L707.221 146.773L707.323 164.049Z" fill="#FFBE9D"/>
<path d="M777.888 149.539C776.315 147.846 774.478 146.334 772.424 145.041C770.221 143.925 767.846 143.061 765.363 142.471C766.145 142.378 766.942 142.436 767.692 142.641C769.536 143.001 771.283 143.638 772.849 144.52C774.418 145.404 775.774 146.522 776.848 147.817C777.669 148.811 777.976 149.502 777.888 149.539Z" fill="#EB996E"/>
<path d="M694.051 136.059C694.051 136.059 682.829 138.289 674.582 142.848L683.372 162.56C686.301 169.034 695.252 172.259 702.415 168.864C713.446 163.639 717.343 148.412 717.343 148.412L729.458 104.914L709.374 94.5L694.124 136.059" fill="#FFBE9D"/>
<path d="M709.301 94.4965L710.121 80.191L705.624 65.643C705.375 64.8429 705.258 63.8367 706.049 63.3517C706.441 63.1028 706.925 62.974 707.42 62.9873C707.914 63.0005 708.387 63.155 708.759 63.4245C709.975 64.4671 715.834 77.1844 715.834 77.1844C715.834 77.1844 724.726 72.7715 726.309 72.5533C727.891 72.3351 729.868 76.2994 730 76.6025C730.058 77.4909 730.058 78.3812 730 79.2696C730 79.2696 735.494 79.403 735.992 80.0213C736.391 81.2844 736.603 82.5831 736.622 83.8886C736.622 83.8886 738.951 84.5069 739.317 85.9617C739.683 87.4165 740.445 89.8169 739.317 90.3503C738.189 90.8837 735.904 91.9263 735.904 91.9263C735.904 91.9263 734.981 99.3458 734.732 100.025C734.483 100.704 729.341 104.874 729.341 104.874L709.301 94.4965Z" fill="#FFBE9D"/>
<path d="M690.609 169.155C690.609 169.155 691.151 169.422 692.294 169.725C693.965 170.159 695.733 170.275 697.465 170.064C700.249 169.736 702.856 168.741 704.965 167.203C707.754 165.109 710.109 162.652 711.938 159.929C713.016 158.328 713.922 156.653 714.649 154.922C715.41 153.018 716.041 151.079 716.538 149.115C717.681 145.03 718.926 140.629 720.245 135.949C722.881 126.602 725.841 116.152 729.034 104.889V104.804H729.107C730.118 103.98 731.129 103.143 732.14 102.271C732.638 101.834 733.136 101.398 733.605 100.949C733.839 100.719 734.088 100.489 734.278 100.258C734.427 100.03 734.512 99.7774 734.527 99.5186C734.923 97.094 735.231 94.5845 735.553 92.0507V91.8931L735.729 91.8203L738.527 90.5232C738.732 90.414 739.054 90.2928 739.186 90.1958C739.326 90.091 739.419 89.9499 739.45 89.7958C739.518 89.3936 739.518 88.9856 739.45 88.5834C739.308 87.6944 739.087 86.8151 738.79 85.9527C738.292 85.1985 737.456 84.6368 736.461 84.3888L736.212 84.316V84.1099C736.212 83.4068 736.124 82.6794 736.022 81.9641C735.982 81.6059 735.918 81.2497 735.831 80.8973C735.797 80.7419 735.738 80.591 735.655 80.4487C735.655 80.3638 735.655 80.4487 735.568 80.3759C735.488 80.3414 735.404 80.313 735.318 80.2911C733.557 79.9734 731.76 79.8068 729.957 79.794H729.576V79.4788C729.576 78.7272 729.576 77.8907 729.576 77.0542C729.516 76.7688 729.397 76.4941 729.224 76.2419C729.078 75.951 728.902 75.6721 728.726 75.3811C728.383 74.8196 727.982 74.2841 727.525 73.7809C727.318 73.5463 727.065 73.3416 726.778 73.1747C726.672 73.1004 726.541 73.0538 726.403 73.0409C726.265 73.0279 726.125 73.0492 726.002 73.102C725.293 73.3266 724.603 73.5899 723.936 73.89C721.211 75.1023 718.545 76.3146 715.938 77.624L715.557 77.8179L715.396 77.4785C714.019 74.6053 712.642 71.7684 711.294 68.9922C710.62 67.598 709.961 66.2038 709.287 64.8339C709.183 64.527 708.977 64.2505 708.692 64.0361C708.407 63.8217 708.055 63.678 707.676 63.6216C707.325 63.5254 706.946 63.5306 706.6 63.6364C706.254 63.7421 705.962 63.9421 705.771 64.2035C705.589 64.4636 705.512 64.7652 705.551 65.0642C705.551 65.3309 705.757 65.7431 705.844 66.0705C706.079 66.7736 706.299 67.4646 706.518 68.1557C706.958 69.5498 707.383 70.9198 707.822 72.2776C708.682 75.0094 709.526 77.6765 710.356 80.279V80.3638C710.063 85.3425 709.785 90.111 709.521 94.6693V94.6451L696.176 130.579L692.411 140.58C691.972 141.708 691.635 142.593 691.4 143.211C691.166 143.829 691.02 144.096 691.02 144.096C691.02 144.096 691.093 143.781 691.298 143.187L692.221 140.532C693.07 138.192 694.286 134.81 695.824 130.494C698.989 121.813 703.486 109.423 708.921 94.4875V94.5481C709.175 90.0059 709.433 85.2374 709.697 80.2426V80.3275C708.862 77.7209 707.998 75.0538 707.134 72.3382L705.815 68.2163C705.595 67.5252 705.376 66.8221 705.141 66.1311C705.015 65.7681 704.913 65.3998 704.834 65.0278C704.78 64.607 704.887 64.1828 705.141 63.8155C705.413 63.4374 705.831 63.1467 706.328 62.9911C706.82 62.8721 707.34 62.8585 707.84 62.9519C708.339 63.0452 708.802 63.2423 709.184 63.5246C709.552 63.81 709.825 64.1691 709.976 64.5672L711.982 68.7255C713.345 71.5138 714.707 74.3507 716.099 77.2118L715.557 77.0542C718.179 75.7691 720.816 74.484 723.599 73.2838C724.303 72.9795 725.027 72.7083 725.767 72.4716C725.999 72.3919 726.251 72.3627 726.5 72.3867C726.75 72.4167 726.99 72.4911 727.203 72.6049C727.556 72.8144 727.867 73.0679 728.126 73.3566C728.616 73.8871 729.042 74.4554 729.4 75.0538C729.591 75.3569 729.766 75.6479 729.928 75.9509C730.136 76.2719 730.275 76.6207 730.338 76.9814C730.338 77.8422 730.338 78.6423 730.338 79.4061L729.972 79.0788C731.855 79.0892 733.731 79.268 735.568 79.6122C735.694 79.6486 735.816 79.6932 735.934 79.7455C736.095 79.8181 736.227 79.9275 736.315 80.0607C736.428 80.2575 736.512 80.4652 736.564 80.679C736.652 81.067 736.71 81.4307 736.769 81.8065C736.857 82.546 736.915 83.2734 736.959 84.0008L736.695 83.7099C737.295 83.8553 737.852 84.1001 738.333 84.4294C738.814 84.7587 739.209 85.1656 739.493 85.6253C739.815 86.5466 740.05 87.4869 740.197 88.4379C740.298 88.9233 740.298 89.4195 740.197 89.9049C740.133 90.1989 739.946 90.4649 739.669 90.6565C739.429 90.7896 739.18 90.9111 738.922 91.0202L736.139 92.2204L736.329 91.9901C735.992 94.5238 735.685 97.0091 735.275 99.4701L735.187 99.9429C735.153 100.134 735.056 100.315 734.908 100.464C734.693 100.73 734.453 100.981 734.191 101.216C733.692 101.677 733.194 102.125 732.726 102.562C731.715 103.434 730.704 104.271 729.679 105.095L729.781 104.95C726.558 116.2 723.57 126.651 720.889 135.998C719.556 140.665 718.282 145.066 717.11 149.139C716.608 151.118 715.963 153.069 715.176 154.983C714.422 156.73 713.491 158.421 712.393 160.038C710.521 162.796 708.111 165.279 705.258 167.385C703.086 168.933 700.412 169.919 697.568 170.222C695.798 170.418 693.996 170.269 692.309 169.785C691.879 169.655 691.463 169.497 691.063 169.312L690.609 169.155Z" fill="#EB996E"/>
<path d="M730.012 79.3035C730.012 79.3884 729.514 79.4369 728.738 79.4611C727.752 79.4767 726.77 79.5742 725.808 79.7521C724.879 79.941 724.023 80.3204 723.317 80.8553C722.79 81.2675 722.556 81.6191 722.439 81.5827C722.321 81.5463 722.439 81.1099 722.922 80.5522C723.604 79.8463 724.554 79.3509 725.617 79.1459C726.643 78.9368 727.708 78.8956 728.752 79.0247C729.543 79.1096 730.012 79.2187 730.012 79.3035Z" fill="#EB996E"/>
<path d="M725.768 79.4377C725.577 79.3771 725.562 79.0013 725.768 78.6012C725.973 78.2011 726.266 77.9223 726.456 77.9829C726.646 78.0435 726.676 78.4193 726.456 78.8194C726.236 79.2195 725.914 79.4983 725.768 79.4377Z" fill="#EB996E"/>
<path d="M736.874 83.842C735.452 84.2061 733.967 84.3741 732.479 84.3391C732.01 84.3261 731.545 84.4064 731.122 84.573C730.699 84.7397 730.33 84.9879 730.047 85.2968C729.666 85.7939 729.798 86.2061 729.681 86.2303C729.564 86.2546 729.212 85.8303 729.578 85.1029C729.78 84.6933 730.148 84.3547 730.618 84.1451C731.161 83.8989 731.76 83.7501 732.376 83.7087C733.872 83.5191 735.398 83.5644 736.874 83.842Z" fill="#EB996E"/>
<path d="M735.905 88.2052C736.11 88.2052 736.227 89.1023 736.168 90.2055C736.11 91.3088 735.89 92.1816 735.685 92.1816C735.48 92.1816 735.348 91.2724 735.407 90.1692C735.465 89.066 735.685 88.1931 735.905 88.2052Z" fill="#EB996E"/>
<path d="M741.984 120.856L743.288 117.146C743.348 116.976 743.46 116.822 743.613 116.699C743.767 116.576 743.956 116.488 744.163 116.444C744.37 116.4 744.587 116.402 744.794 116.448C745 116.495 745.188 116.585 745.339 116.71L747.053 118.152L748.108 114.649C748.17 114.446 748.305 114.265 748.497 114.128C748.688 113.992 748.925 113.907 749.176 113.886C749.427 113.865 749.68 113.908 749.9 114.01C750.12 114.112 750.298 114.267 750.408 114.455L752.795 118.601L741.984 120.856Z" fill="white"/>
<path d="M752.822 120.188C751.183 120.843 749.443 121.308 747.651 121.57C745.917 122.038 744.112 122.299 742.289 122.345C745.662 121.224 749.207 120.498 752.822 120.188Z" fill="white"/>
<path d="M665.704 99.4922C665.704 99.4922 665.162 99.9529 664.4 100.935C663.378 102.333 662.705 103.888 662.423 105.505C662.005 107.914 661.917 110.354 662.159 112.779C662.32 115.531 662.584 118.538 662.994 121.69C663.688 127.073 664.72 132.423 666.085 137.717C666.598 139.754 667.066 141.354 667.389 142.566C667.535 143.075 667.667 143.5 667.77 143.863C667.872 144.227 667.887 144.324 667.887 144.324C667.887 144.324 667.814 144.179 667.711 143.888C667.608 143.597 667.447 143.088 667.286 142.591C666.92 141.463 666.422 139.839 665.821 137.802C664.397 132.509 663.336 127.154 662.642 121.763C662.232 118.611 661.983 115.592 661.837 112.84C661.615 110.413 661.723 107.973 662.159 105.566C662.474 103.927 663.192 102.359 664.268 100.959C664.665 100.419 665.148 99.9255 665.704 99.4922Z" fill="white"/>
<path d="M696.543 82.9808L696.207 83.1263L695.24 83.5142C694.405 83.8415 693.189 84.3265 691.739 84.9932C687.958 86.7382 684.286 88.64 680.737 90.6912C676.547 93.1159 672.841 95.3223 670.131 96.9226L666.923 98.8017L666.029 99.2987C665.93 99.3647 665.821 99.4216 665.707 99.4685C665.791 99.387 665.889 99.3174 666 99.2624L666.85 98.7289L669.999 96.7771C672.68 95.1404 676.372 92.8613 680.561 90.4851C684.117 88.4251 687.815 86.5387 691.636 84.8357C693.101 84.1931 694.331 83.7324 695.196 83.4293L696.177 83.0899C696.47 83.005 696.47 82.9687 696.543 82.9808Z" fill="white"/>
<path d="M766.401 90.8719C766.309 90.8297 766.225 90.7766 766.152 90.7143L765.492 90.2415C764.676 89.6711 763.82 89.1408 762.929 88.6533C759.955 87.0841 756.8 85.7643 753.509 84.7132C750.229 83.638 746.879 82.7152 743.475 81.9491C742.156 81.646 741.102 81.4278 740.355 81.2823L739.52 81.1005C739.418 81.0831 739.319 81.0545 739.227 81.0156H739.534L740.384 81.149C741.131 81.2702 742.2 81.4642 743.519 81.743C746.956 82.461 750.332 83.3641 753.627 84.4465C756.936 85.4973 760.095 86.8471 763.046 88.4715C764.274 89.1597 765.4 89.9654 766.401 90.8719Z" fill="white"/>
<path d="M696.952 183.412C696.753 183.383 696.56 183.33 696.38 183.254C695.871 183.069 695.381 182.85 694.915 182.6C694.126 182.208 693.438 181.692 692.89 181.081C692.342 180.469 691.945 179.774 691.722 179.035C691.32 177.545 691.52 175.986 692.293 174.598C692.516 174.167 692.802 173.76 693.143 173.386C693.377 173.131 693.538 173.01 693.553 173.022C693.153 173.539 692.796 174.078 692.484 174.635C691.803 175.997 691.644 177.499 692.03 178.938C692.449 180.36 693.494 181.6 694.959 182.418C696.175 183.145 696.981 183.363 696.952 183.412Z" fill="white"/>
<path d="M692.295 170.283C692.606 170.764 692.838 171.278 692.983 171.811C693.213 172.321 693.351 172.856 693.394 173.399C693.061 172.929 692.823 172.417 692.69 171.883C692.45 171.372 692.316 170.831 692.295 170.283Z" fill="white"/>
<path d="M712.099 442.096L756.778 441.914L755.973 314.074L755.548 184.027L695.003 183.385L684.119 200.357C679.666 207.181 676.827 214.645 675.754 222.349C675.022 228.241 680.354 247.396 682.2 252.245L698.856 295.962L712.099 442.096Z" fill="#00638D"/>
<path d="M768.657 184.185L817.761 294.955C820.67 302.093 821.637 309.674 820.591 317.156C819.545 324.638 816.513 331.837 811.711 338.236L754.697 430.373L722.645 397.179L770.342 314.741L728.299 258.307L735.375 184.355L755.18 184.088L768.657 184.185Z" fill="#00638D"/>
<path d="M751.477 221.295C751.477 221.295 751.477 221.489 751.477 221.865C751.477 222.241 751.55 222.822 751.608 223.538C751.711 225.029 751.843 227.175 752.019 229.951C752.356 235.564 752.824 243.626 753.484 253.579C754.143 263.533 754.699 275.401 755.432 288.616C755.783 295.211 756.164 302.133 756.545 309.31C756.824 312.947 756.706 316.584 756.75 320.221C756.794 323.858 756.75 327.689 756.75 331.496C756.75 361.962 756.867 389.542 756.911 409.533C756.911 419.499 756.911 427.573 756.911 433.186C756.911 435.962 756.911 438.12 756.911 439.623C756.911 440.327 756.911 440.836 756.911 441.296C756.911 441.757 756.911 441.866 756.911 441.866C756.911 441.866 756.911 441.672 756.911 441.296V439.623C756.911 438.12 756.911 435.986 756.824 433.186C756.824 427.573 756.706 419.511 756.618 409.546C756.516 389.554 756.384 361.974 756.238 331.508C756.238 327.701 756.238 323.943 756.238 320.233C756.238 316.523 756.325 312.862 756.047 309.322C755.681 302.157 755.315 295.235 754.978 288.64C754.304 275.45 753.689 263.581 753.191 253.591C752.692 243.602 752.326 235.576 752.048 229.963C751.931 227.199 751.843 225.041 751.784 223.538C751.784 222.822 751.784 222.325 751.784 221.865C751.784 221.404 751.477 221.295 751.477 221.295Z" fill="#455A64"/>
<path d="M750.348 186.367C750.519 186.757 750.623 187.165 750.655 187.58C750.817 188.355 750.992 189.483 751.197 190.889C751.578 193.69 751.988 197.581 752.223 201.885C752.457 206.189 752.472 210.092 752.399 212.917C752.399 214.324 752.296 215.475 752.223 216.263C752.238 216.672 752.178 217.081 752.047 217.476C751.863 215.961 751.799 214.438 751.857 212.917C751.857 210.092 751.695 206.213 751.461 201.909C751.227 197.605 750.904 193.738 750.655 190.998C750.447 189.461 750.344 187.914 750.348 186.367Z" fill="#455A64"/>
<path d="M740.505 188.866C740.578 188.951 739.743 189.266 739.509 190.248C739.443 190.515 739.461 190.79 739.561 191.049C739.661 191.308 739.84 191.542 740.08 191.727C740.37 191.95 740.731 192.1 741.121 192.158C741.51 192.216 741.912 192.18 742.277 192.055C742.628 191.905 742.922 191.677 743.124 191.396C743.325 191.115 743.428 190.793 743.42 190.466C743.407 190.195 743.309 189.931 743.137 189.7C742.966 189.468 742.725 189.277 742.439 189.145C741.843 188.906 741.178 188.81 740.519 188.866C740.519 188.866 740.666 188.709 741.047 188.612C741.596 188.501 742.175 188.548 742.688 188.745C743.097 188.886 743.45 189.118 743.709 189.415C743.968 189.713 744.121 190.064 744.152 190.43C744.211 190.881 744.096 191.337 743.825 191.731C743.555 192.126 743.141 192.441 742.643 192.631C742.145 192.821 741.587 192.877 741.049 192.791C740.51 192.705 740.018 192.481 739.641 192.152C739.329 191.895 739.108 191.573 739.003 191.221C738.897 190.868 738.91 190.498 739.04 190.151C739.187 189.698 739.518 189.3 739.977 189.024C740.27 188.854 740.49 188.83 740.505 188.866Z" fill="#455A64"/>
<path d="M717.065 186.67C717.28 187.052 717.414 187.462 717.46 187.882C717.696 188.97 717.74 190.081 717.592 191.18C717.381 192.816 716.81 194.406 715.907 195.872C714.816 197.695 713.201 199.268 711.204 200.454C709.207 201.64 706.888 202.402 704.452 202.673C702.502 202.914 700.515 202.852 698.592 202.491C697.291 202.257 696.038 201.869 694.871 201.339C694.43 201.166 694.025 200.937 693.67 200.66C695.289 201.263 696.977 201.73 698.709 202.054C700.793 202.413 702.943 202.41 705.026 202.046C707.108 201.682 709.076 200.965 710.806 199.939C712.537 198.914 713.991 197.603 715.079 196.089C716.166 194.575 716.862 192.891 717.123 191.143C717.295 189.655 717.276 188.155 717.065 186.67Z" fill="#455A64"/>
<path d="M774.548 197.293C773.592 197.384 772.623 197.289 771.72 197.014C769.507 196.438 767.52 195.383 765.963 193.959C764.392 192.542 763.314 190.799 762.843 188.916C762.612 188.148 762.612 187.344 762.843 186.576C762.975 186.576 762.989 187.461 763.429 188.819C764.023 190.573 765.102 192.189 766.582 193.538C768.062 194.887 769.902 195.932 771.955 196.59C773.478 197.087 774.562 197.172 774.548 197.293Z" fill="#455A64"/>
<path d="M791.995 316.705C791.261 317.398 790.383 317.977 789.402 318.414C788.374 318.954 787.253 319.363 786.077 319.627C784.597 319.951 783.036 319.917 781.579 319.53C779.021 318.731 776.828 317.29 775.31 315.408C774.612 314.701 774.035 313.917 773.596 313.08C774.386 313.705 775.103 314.391 775.734 315.129C777.29 316.836 779.39 318.15 781.799 318.924C783.029 319.195 784.312 319.257 785.572 319.105C786.831 318.952 788.039 318.59 789.124 318.039C790.049 317.549 791.008 317.104 791.995 316.705Z" fill="#455A64"/>
<path d="M780.804 323.777C779.073 322.293 777.527 320.668 776.19 318.927C774.649 317.307 773.305 315.565 772.176 313.727C773.919 315.205 775.47 316.83 776.805 318.576C778.358 320.187 779.698 321.93 780.804 323.777Z" fill="#455A64"/>
<path d="M705.74 225.576C705.535 225.637 705.023 224.946 704.568 224.012C704.114 223.079 703.924 222.291 704.114 222.218C704.305 222.145 704.832 222.848 705.272 223.782C705.711 224.715 705.931 225.576 705.74 225.576Z" fill="#FAFAFA"/>
<path d="M734.102 228.947C733.882 228.947 733.721 228.353 733.721 227.613C733.721 226.874 733.882 226.268 734.102 226.268C734.321 226.268 734.482 226.874 734.482 227.613C734.482 228.353 734.307 228.947 734.102 228.947Z" fill="#FAFAFA"/>
<path d="M722.442 241.7C722.237 241.7 722.003 240.973 721.93 240.039C721.856 239.106 721.93 238.354 722.164 238.342C722.398 238.33 722.618 239.069 722.691 240.003C722.765 240.936 722.647 241.688 722.442 241.7Z" fill="#FAFAFA"/>
<path d="M701.14 251.03C700.964 251.139 700.363 250.691 699.572 250.23C698.781 249.769 698.107 249.418 698.107 249.248C698.107 249.078 699.074 249.175 699.968 249.709C700.861 250.242 701.316 251.03 701.14 251.03Z" fill="#FAFAFA"/>
<path d="M738.687 262.93C738.512 262.834 738.687 262.312 739.186 261.718C739.684 261.124 740.138 260.785 740.314 260.882C740.489 260.979 740.314 261.512 739.815 262.094C739.317 262.676 738.863 263.027 738.687 262.93Z" fill="#FAFAFA"/>
<path d="M715.514 266.282C715.309 266.282 715.133 265.276 715.133 264.051C715.133 262.827 715.309 261.809 715.514 261.809C715.719 261.809 715.895 262.815 715.895 264.051C715.895 265.288 715.675 266.282 715.514 266.282Z" fill="#FAFAFA"/>
<path d="M707.923 279.888C707.806 280.022 707.044 279.743 706.224 279.246C705.404 278.749 704.759 278.24 704.95 278.094C705.14 277.949 705.843 278.24 706.664 278.737C707.484 279.234 708.055 279.743 707.923 279.888Z" fill="#FAFAFA"/>
<path d="M731.393 284.616C731.481 284.773 731.012 285.101 730.339 285.355C729.665 285.61 729.049 285.671 728.961 285.513C728.874 285.355 729.357 285.028 730.031 284.773C730.705 284.519 731.32 284.458 731.393 284.616Z" fill="#FAFAFA"/>
<path d="M715.512 306.8C715.336 306.872 714.575 305.939 713.828 304.702C713.081 303.466 712.626 302.399 712.817 302.278C713.007 302.156 713.769 303.138 714.501 304.375C715.234 305.612 715.644 306.666 715.512 306.8Z" fill="#FAFAFA"/>
<path d="M741.395 304.74C741.205 304.655 741.542 303.843 742.128 302.91C742.714 301.976 743.373 301.297 743.593 301.382C743.812 301.467 743.446 302.279 742.845 303.213C742.245 304.146 741.571 304.825 741.395 304.74Z" fill="#FAFAFA"/>
<path d="M730.043 323.521C729.824 323.521 729.853 322.539 729.618 321.399C729.384 320.26 729.032 319.35 729.238 319.266C729.443 319.181 730.146 320.041 730.38 321.302C730.615 322.563 730.248 323.557 730.043 323.521Z" fill="#FAFAFA"/>
<path d="M717.887 334.246C717.74 334.367 717.008 333.907 716.261 333.228C715.513 332.549 715.03 331.906 715.191 331.785C715.352 331.664 716.07 332.124 716.817 332.803C717.564 333.482 718.048 334.125 717.887 334.246Z" fill="#FAFAFA"/>
<path d="M747.389 338.321C747.243 338.2 747.785 337.546 748.605 336.855C749.425 336.163 750.187 335.715 750.348 335.836C750.509 335.957 749.953 336.624 749.147 337.303C748.341 337.982 747.55 338.443 747.389 338.321Z" fill="#FAFAFA"/>
<path d="M730.423 354.383C730.218 354.383 730.218 353.426 730.423 352.31C730.628 351.195 730.951 350.322 731.17 350.346C731.39 350.37 731.376 351.292 731.17 352.407C730.965 353.522 730.628 354.407 730.423 354.383Z" fill="#FAFAFA"/>
<path d="M719.016 362.182C718.825 362.267 718.181 361.637 717.551 360.776C716.921 359.915 716.598 359.151 716.774 359.066C716.95 358.982 717.595 359.6 718.239 360.461C718.884 361.321 719.191 362.085 719.016 362.182Z" fill="#FAFAFA"/>
<path d="M746.511 372.011C746.643 372.157 745.896 372.775 744.841 373.393C743.786 374.012 742.863 374.4 742.732 374.254C742.6 374.109 743.362 373.49 744.402 372.872C745.442 372.254 746.394 371.878 746.511 372.011Z" fill="#FAFAFA"/>
<path d="M723.597 384.779C723.392 384.718 723.597 383.748 723.787 382.536C723.978 381.323 723.861 380.329 724.08 380.305C724.3 380.281 724.681 381.299 724.535 382.596C724.388 383.894 723.787 384.851 723.597 384.779Z" fill="#FAFAFA"/>
<path d="M732.757 403.108C732.581 403.217 731.966 402.805 731.365 402.187C730.765 401.568 730.428 400.974 730.589 400.865C730.75 400.756 731.365 401.168 731.966 401.787C732.567 402.405 732.918 402.999 732.757 403.108Z" fill="#FAFAFA"/>
<path d="M722.749 415.404C722.574 415.5 721.768 414.785 720.948 413.791C720.127 412.797 719.615 411.924 719.776 411.827C719.937 411.73 720.757 412.445 721.578 413.44C722.398 414.434 722.925 415.307 722.749 415.404Z" fill="#FAFAFA"/>
<path d="M750.305 399.968C750.115 399.908 750.13 399.459 750.305 398.974C750.481 398.489 750.877 398.126 751.082 398.186C751.287 398.247 751.258 398.695 751.082 399.193C750.906 399.69 750.51 400.041 750.305 399.968Z" fill="#FAFAFA"/>
<path d="M738.144 429.248C737.954 429.163 738.32 428.302 738.613 427.223C738.906 426.144 739.009 425.235 739.228 425.223C739.448 425.211 739.668 426.193 739.36 427.356C739.053 428.52 738.32 429.345 738.144 429.248Z" fill="#FAFAFA"/>
<path d="M746.056 241.892C745.865 241.964 745.397 241.479 745.016 240.801C744.635 240.122 744.474 239.516 744.664 239.443C744.855 239.37 745.323 239.855 745.704 240.534C746.085 241.213 746.276 241.819 746.056 241.892Z" fill="#FAFAFA"/>
<path d="M725.766 204.141C725.884 204.286 724.858 204.965 723.759 205.935C722.661 206.905 721.914 207.802 721.723 207.717C721.533 207.632 722.031 206.505 723.188 205.511C724.345 204.516 725.62 203.983 725.766 204.141Z" fill="#FAFAFA"/>
<path d="M743.83 203.751C743.61 203.751 743.274 203.06 742.761 202.235C742.248 201.411 741.779 200.732 741.94 200.611C742.102 200.49 742.893 201.023 743.405 201.944C743.918 202.866 744.021 203.654 743.83 203.751Z" fill="#FAFAFA"/>
<path d="M687.431 216.012C687.24 215.939 687.431 215.139 687.885 214.217C688.339 213.296 688.837 212.581 689.042 212.654C689.247 212.726 689.042 213.514 688.588 214.448C688.134 215.381 687.68 216.072 687.431 216.012Z" fill="#FAFAFA"/>
<path d="M689.259 234.313C689.113 234.447 688.278 234.059 687.384 233.44C686.49 232.822 685.919 232.228 686.007 232.083C686.095 231.937 686.988 232.337 687.882 232.956C688.776 233.574 689.391 234.18 689.259 234.313Z" fill="#FAFAFA"/>
<path d="M726.265 189.605C726.075 189.605 725.664 189.217 725.371 188.599C725.078 187.981 724.991 187.387 725.181 187.387C725.371 187.387 725.782 187.775 726.075 188.393C726.368 189.011 726.455 189.545 726.265 189.605Z" fill="#FAFAFA"/>
<path d="M761.703 198.551C761.498 198.551 761.513 197.787 761.703 196.927C761.893 196.066 762.274 195.387 762.479 195.423C762.685 195.46 762.67 196.199 762.479 197.06C762.289 197.921 761.908 198.587 761.703 198.551Z" fill="#FAFAFA"/>
<path d="M770.021 212.408C769.83 212.335 770.094 211.438 770.621 210.383C771.149 209.328 771.72 208.54 771.911 208.601C772.101 208.662 771.911 209.571 771.325 210.626C770.739 211.68 770.226 212.468 770.021 212.408Z" fill="#FAFAFA"/>
<path d="M764.088 223.588C763.898 223.661 763.195 222.824 762.521 221.721C761.847 220.618 761.466 219.636 761.656 219.563C761.847 219.49 762.535 220.327 763.209 221.43C763.883 222.533 764.279 223.503 764.088 223.588Z" fill="#FAFAFA"/>
<path d="M776.773 234.761C776.583 234.701 776.773 233.998 777.095 233.198C777.418 232.397 777.93 231.791 778.136 231.852C778.341 231.912 778.136 232.616 777.813 233.416C777.491 234.216 777.037 234.822 776.773 234.761Z" fill="#FAFAFA"/>
<path d="M765.439 245.711C765.263 245.808 764.809 245.481 764.443 244.996C764.077 244.511 763.901 244.026 764.091 243.929C764.282 243.832 764.707 244.159 765.087 244.657C765.468 245.154 765.615 245.626 765.439 245.711Z" fill="#FAFAFA"/>
<path d="M767.855 268.31C767.709 268.419 766.786 267.825 765.819 266.952C764.852 266.079 764.193 265.291 764.354 265.17C764.515 265.048 765.424 265.655 766.391 266.528C767.357 267.4 768.017 268.188 767.855 268.31Z" fill="#FAFAFA"/>
<path d="M782.721 255.324C782.56 255.433 781.755 254.827 780.934 253.954C780.114 253.081 779.587 252.305 779.748 252.196C779.909 252.087 780.715 252.705 781.535 253.566C782.355 254.427 782.897 255.227 782.721 255.324Z" fill="#FAFAFA"/>
<path d="M790.881 273.231C790.691 273.158 791.028 272.249 791.628 271.206C792.229 270.164 792.859 269.363 793.093 269.436C793.328 269.509 792.962 270.43 792.361 271.473C791.76 272.516 791.072 273.316 790.881 273.231Z" fill="#FAFAFA"/>
<path d="M773.536 287.975C773.345 288.06 772.671 287.393 771.734 286.678C770.796 285.962 769.932 285.465 770.02 285.283C770.108 285.102 771.221 285.429 772.247 286.217C773.272 287.005 773.711 287.89 773.536 287.975Z" fill="#FAFAFA"/>
<path d="M774.622 303.167C774.622 303.337 773.89 303.482 772.996 303.482C772.103 303.482 771.385 303.337 771.385 303.167C771.385 302.997 772.103 302.852 772.996 302.852C773.89 302.852 774.622 302.997 774.622 303.167Z" fill="#FAFAFA"/>
<path d="M792.448 298.918C792.257 298.833 792.638 298.07 792.917 297.124C793.195 296.178 793.312 295.354 793.532 295.342C793.752 295.33 793.986 296.215 793.664 297.27C793.341 298.324 792.609 299.015 792.448 298.918Z" fill="#FAFAFA"/>
<path d="M810.162 304.024C809.972 304.085 809.43 303.224 808.961 302.121C808.492 301.018 808.273 300.072 808.463 300.023C808.653 299.975 809.21 300.812 809.679 301.915C810.148 303.018 810.367 303.964 810.162 304.024Z" fill="#FAFAFA"/>
<path d="M807.333 324.874C807.157 324.789 807.611 323.771 808.344 322.595C809.076 321.419 809.808 320.534 810.028 320.619C810.248 320.704 809.764 321.722 809.017 322.886C808.27 324.05 807.523 324.983 807.333 324.874Z" fill="#FAFAFA"/>
<path d="M791.176 337.109C790.985 337.169 790.385 336.333 789.828 335.229C789.271 334.126 788.993 333.181 789.198 333.108C789.403 333.035 789.989 333.884 790.531 334.987C791.073 336.09 791.366 337.109 791.176 337.109Z" fill="#FAFAFA"/>
<path d="M773.273 341.848C773.273 342.018 772.657 342.164 771.91 342.164C771.163 342.164 770.562 342.018 770.562 341.848C770.562 341.679 771.178 341.533 771.91 341.533C772.643 341.533 773.273 341.679 773.273 341.848Z" fill="#FAFAFA"/>
<path d="M783.528 361.355C783.337 361.355 782.927 360.688 782.62 359.767C782.312 358.846 782.253 358.046 782.458 358.009C782.663 357.973 783.059 358.676 783.367 359.597C783.674 360.519 783.733 361.258 783.528 361.355Z" fill="#FAFAFA"/>
<path d="M770.563 354.814C770.387 354.729 770.563 354.159 771.046 353.541C771.53 352.922 772.013 352.498 772.189 352.583C772.365 352.668 772.189 353.25 771.705 353.868C771.222 354.486 770.753 354.911 770.563 354.814Z" fill="#FAFAFA"/>
<path d="M770.297 376.28C770.092 376.28 769.799 375.468 769.653 374.413C769.506 373.358 769.55 372.497 769.755 372.473C769.96 372.449 770.253 373.285 770.4 374.34C770.546 375.395 770.502 376.256 770.297 376.28Z" fill="#FAFAFA"/>
</svg>
