<svg width="894" height="581" viewBox="0 0 894 581" fill="none" xmlns="http://www.w3.org/2000/svg">
<path d="M165.742 438.881C345.397 492.734 555.448 466.546 625.85 458.641C696.252 450.737 765.223 424.173 814.509 378.406C871.585 325.408 898.613 249.164 893.207 175.654C890.432 137.83 879.101 99.6561 854.183 69.0366C818.657 25.3944 757.765 1.3705 697.509 0.0617517C637.253 -1.247 578.009 18.3583 527.827 48.291C488.052 72.0299 452.67 102.507 408.385 118.743C348.779 140.642 281.716 133.865 217.312 132.867C152.908 131.869 82.0431 139.618 37.8592 181.641C5.58496 212.351 -6.42576 258.092 3.25798 299.389C12.9417 340.686 42.9179 377.136 81.8407 400.836L165.742 438.881Z" fill="#F5F5F5"/>
<path d="M231.996 272.721C231.751 276.881 225.709 282.427 227.574 286.236C231.014 293.26 229.019 301.669 224.567 308.265C220.116 314.86 213.453 319.927 206.905 324.825C207.236 314.585 206.242 304.344 203.943 294.309C203.22 291.173 202.035 287.675 198.84 286.249C194.692 284.409 189.431 287.066 185.182 285.433C180.658 283.671 179.748 278.125 175.932 275.326C172.478 272.799 167.404 273.071 163.17 274.341C158.935 275.611 155.047 277.749 150.696 278.617C146.346 279.485 141.099 278.708 138.686 275.339C137.24 273.266 138.267 274.535 136.85 272.423C136.85 272.423 128.366 272.682 125.446 263.832C125.446 263.832 121.457 253.997 130.288 249.656C130.288 249.656 132.297 231.878 152.228 239.873C158.01 242.18 164.745 234.768 170.339 237.281C174.992 239.394 176.366 245.199 181.02 247.324C186.367 249.76 192.582 246.132 198.566 245.911C202.399 245.911 206.075 247.277 208.786 249.707C211.496 252.137 213.019 255.433 213.019 258.869C213.019 258.869 213.959 255.319 220.448 256.874C226.938 258.429 232.459 264.61 231.996 272.721Z" fill="#263238"/>
<path d="M223.541 301.332C223.666 299.32 223.249 297.312 222.327 295.475C221.489 293.959 218.352 290.512 214.913 290.292L215.418 271.982C215.456 270.165 214.736 268.401 213.4 267.035C212.063 265.669 210.206 264.799 208.192 264.596L168.17 260.812C164.899 260.503 161.592 260.789 158.447 261.655C155.303 262.521 152.387 263.949 149.874 265.852C147.361 267.755 145.303 270.094 143.825 272.729C142.347 275.363 141.479 278.239 141.273 281.182C140.304 294.982 139.726 311.867 141.547 322.155C145.219 342.888 162.909 345.479 162.909 345.479L162.476 359.94C161.797 375.347 174.66 384.625 187.928 384.625C201.196 384.625 213.453 374.35 213.063 359.098L214.363 312.45C216.605 312.264 218.69 311.341 220.217 309.858C222.417 307.459 223.596 304.437 223.541 301.332Z" fill="#FFBE9D"/>
<path d="M150.147 292.415C150.143 293.112 150.443 293.783 150.983 294.284C151.523 294.785 152.261 295.077 153.038 295.097C153.795 295.137 154.54 294.907 155.11 294.459C155.681 294.01 156.032 293.379 156.088 292.7C156.101 292.352 156.036 292.006 155.897 291.681C155.758 291.356 155.547 291.059 155.277 290.809C155.008 290.558 154.684 290.359 154.327 290.224C153.969 290.088 153.585 290.018 153.197 290.018C152.439 289.979 151.695 290.208 151.124 290.657C150.554 291.105 150.203 291.737 150.147 292.415Z" fill="#263238"/>
<path d="M145.291 289.968C145.652 290.318 147.892 288.828 151.072 288.828C154.252 288.828 156.593 290.266 156.94 289.917C157.099 289.761 156.723 289.139 155.712 288.478C154.334 287.62 152.692 287.168 151.014 287.183C149.362 287.159 147.745 287.613 146.404 288.478C145.435 289.191 145.045 289.813 145.291 289.968Z" fill="#263238"/>
<path d="M180.904 292.948C180.896 293.646 181.195 294.319 181.736 294.821C182.277 295.323 183.016 295.614 183.795 295.631C184.552 295.67 185.296 295.441 185.867 294.992C186.438 294.544 186.789 293.912 186.844 293.233C186.852 292.536 186.553 291.863 186.012 291.361C185.471 290.859 184.732 290.568 183.954 290.551C183.196 290.512 182.452 290.741 181.881 291.19C181.311 291.638 180.96 292.27 180.904 292.948Z" fill="#263238"/>
<path d="M176.611 290.499C176.973 290.849 179.213 289.359 182.393 289.372C185.572 289.385 187.914 290.797 188.261 290.447C188.42 290.292 188.058 289.67 187.032 289.009C185.654 288.151 184.013 287.698 182.335 287.713C180.684 287.696 179.069 288.15 177.724 289.009C176.756 289.722 176.423 290.344 176.611 290.499Z" fill="#263238"/>
<path d="M165.034 311.687C163.353 311.221 161.616 310.938 159.86 310.845C159.05 310.78 158.284 310.624 158.14 310.132C158.078 309.378 158.27 308.624 158.689 307.968L161.088 302.435C164.442 294.518 166.87 288.013 166.494 287.896C166.118 287.78 163.141 294.09 159.802 302.007C158.993 303.951 158.227 305.817 157.504 307.592C156.99 308.472 156.836 309.485 157.07 310.456C157.19 310.713 157.373 310.942 157.606 311.126C157.839 311.31 158.115 311.444 158.414 311.518C158.886 311.633 159.371 311.694 159.86 311.7C161.578 311.897 163.317 311.892 165.034 311.687Z" fill="#263238"/>
<path d="M162.837 345.493C173.712 345.639 184.419 343.077 193.767 338.094C193.767 338.094 185.76 353.643 162.649 351.738L162.837 345.493Z" fill="#EB996E"/>
<path d="M175.166 285.498C175.484 286.276 178.664 285.913 182.393 286.315C186.122 286.716 189.157 287.611 189.619 286.937C189.836 286.6 189.316 285.874 188.102 285.123C186.479 284.184 184.632 283.602 182.711 283.425C180.801 283.22 178.864 283.424 177.059 284.021C175.73 284.527 175.036 285.136 175.166 285.498Z" fill="#263238"/>
<path d="M144.771 283.32C145.334 283.967 147.517 283.32 150.162 283.32C152.807 283.32 155.032 283.747 155.553 283.073C155.784 282.736 155.423 282.089 154.454 281.48C153.143 280.748 151.62 280.382 150.077 280.425C148.533 280.469 147.039 280.922 145.782 281.726C144.828 282.335 144.525 282.996 144.771 283.32Z" fill="#263238"/>
<path d="M165.742 327.856C165.742 327.792 165.959 327.442 166.609 327.079C167.484 326.615 168.484 326.373 169.5 326.379C170.514 326.368 171.512 326.601 172.391 327.053C173.041 327.416 173.33 327.753 173.272 327.818C172.074 327.416 170.819 327.163 169.544 327.066C168.239 327.154 166.957 327.42 165.742 327.856Z" fill="#EB996E"/>
<path d="M212.788 306.837C213.543 306.561 214.277 306.241 214.985 305.878C215.777 305.413 216.433 304.784 216.898 304.045C217.363 303.305 217.624 302.477 217.659 301.628C217.675 300.774 217.465 299.929 217.049 299.161C216.632 298.394 216.019 297.725 215.259 297.209C214.604 296.804 213.852 296.542 213.063 296.445C212.99 296.367 214.132 296.017 215.563 296.808C216.464 297.323 217.202 298.037 217.708 298.881C218.214 299.724 218.471 300.67 218.454 301.628C218.435 302.691 218.063 303.724 217.384 304.595C216.845 305.297 216.133 305.878 215.303 306.293C214.569 306.748 213.672 306.941 212.788 306.837Z" fill="#EB996E"/>
<path d="M136.85 255.876C133.121 264.817 141.981 271.296 148.89 272.722C158.545 274.743 168.806 269.275 175.412 271.594C180.34 273.331 184.994 276.777 190.226 276.065C192.77 275.728 195.285 274.419 197.756 275.015C200.922 275.793 202.208 279.239 202.092 282.181C202.006 285.809 200.647 289.411 201.153 293.014C201.659 296.616 205.243 300.335 209.16 299.376C211.001 298.824 212.612 297.786 213.783 296.399C214.954 295.012 215.63 293.339 215.722 291.601C216.184 286.612 215.158 280.678 215.433 275.676C215.679 271.27 215.693 266.424 212.542 263.016C209.391 259.608 204.073 258.688 199.173 258.092C178.509 255.541 157.641 254.553 136.792 255.138" fill="#263238"/>
<path d="M124.695 257.782C124.57 257.483 124.502 257.168 124.493 256.849C124.439 255.923 124.648 255 125.1 254.166C125.814 252.827 127.054 251.771 128.583 251.199C129.55 250.869 130.595 250.766 131.618 250.901C132.702 250.992 133.786 251.251 134.928 251.303C136.112 251.362 137.292 251.129 138.339 250.629C139.482 250.058 140.544 249.366 141.504 248.569C142.545 247.765 143.6 246.884 144.814 246.094C146.078 245.266 147.528 244.696 149.063 244.422C152.38 243.975 155.768 244.493 158.732 245.899C161.811 247.424 164.683 249.263 167.289 251.38C169.821 253.493 172.702 255.242 175.831 256.564C177.314 257.12 178.927 257.343 180.528 257.211C182.045 257.005 183.512 256.567 184.864 255.916C187.4 254.552 190.095 253.439 192.9 252.598C195.423 251.953 198.084 251.877 200.647 252.378C202.76 252.807 204.704 253.743 206.269 255.086C207.438 256.102 208.35 257.33 208.943 258.689C209.313 259.545 209.513 260.453 209.536 261.371C209.555 261.608 209.555 261.846 209.536 262.084C209.536 262.239 209.536 262.317 209.536 262.317C209.517 261.109 209.253 259.915 208.755 258.792C208.139 257.491 207.223 256.321 206.067 255.358C204.536 254.096 202.654 253.228 200.618 252.845C198.143 252.394 195.583 252.492 193.16 253.13C190.399 253.987 187.749 255.108 185.254 256.473C183.811 257.149 182.245 257.588 180.629 257.769C178.913 257.923 177.18 257.696 175.585 257.108C172.386 255.767 169.437 253.993 166.841 251.847C164.277 249.763 161.455 247.95 158.429 246.443C155.611 245.093 152.387 244.58 149.222 244.979C146.201 245.433 144.019 247.338 141.996 248.944C140.989 249.756 139.878 250.456 138.686 251.031C137.541 251.56 136.257 251.802 134.971 251.73C133.772 251.653 132.688 251.38 131.647 251.264C130.677 251.125 129.683 251.205 128.756 251.497C127.305 252.018 126.11 252.988 125.389 254.231C124.92 255.031 124.672 255.919 124.666 256.823C124.637 257.458 124.81 257.769 124.695 257.782Z" fill="#00638D"/>
<path d="M135.867 272.188C135.536 272.27 135.186 272.27 134.856 272.188C134.368 272.101 133.907 271.922 133.503 271.663C133.1 271.404 132.762 271.07 132.514 270.684C131.817 269.425 131.623 267.988 131.965 266.616C132.306 264.801 133.118 263.083 134.335 261.601C135.81 259.782 137.859 258.401 140.218 257.636C142.925 256.734 145.889 256.666 148.644 257.441C151.573 258.421 154.31 259.812 156.752 261.562C159.293 263.418 162.173 264.865 165.265 265.838C168.424 266.557 171.752 266.394 174.805 265.372C177.691 264.445 180.465 263.26 183.086 261.834C185.492 260.539 187.977 259.366 190.53 258.323C192.775 257.406 195.182 256.849 197.641 256.677C199.43 256.544 201.231 256.74 202.934 257.253C204.636 257.765 206.204 258.583 207.541 259.657C208.235 260.268 208.812 260.977 209.247 261.756C209.402 262.027 209.518 262.315 209.594 262.612C209.036 261.58 208.277 260.645 207.353 259.852C206.021 258.851 204.48 258.096 202.821 257.632C201.161 257.167 199.415 257.001 197.684 257.143C195.289 257.344 192.951 257.919 190.776 258.841C188.254 259.893 185.803 261.074 183.433 262.378C180.777 263.835 177.964 265.046 175.036 265.994C171.841 267.067 168.356 267.239 165.049 266.486C161.9 265.482 158.966 264 156.377 262.106C154.005 260.389 151.346 259.016 148.5 258.038C145.883 257.288 143.065 257.329 140.478 258.154C138.223 258.875 136.253 260.172 134.812 261.886C133.614 263.296 132.802 264.938 132.442 266.68C132.072 267.978 132.21 269.35 132.832 270.568C133.045 270.94 133.341 271.268 133.702 271.533C134.062 271.799 134.479 271.995 134.928 272.11C135.238 272.16 135.552 272.186 135.867 272.188Z" fill="#00638D"/>
<path d="M224.379 306.721C224.379 306.721 224.9 306.099 225.666 304.907C226.716 303.205 227.306 301.305 227.386 299.361C227.451 298.046 227.266 296.732 226.837 295.473C226.306 294.018 225.526 292.645 224.524 291.405C223.512 290.109 222.313 288.683 221.258 287.129C220.059 285.534 219.401 283.661 219.364 281.738C219.57 279.841 220.231 278.007 221.301 276.361C222.225 274.897 222.778 273.269 222.92 271.592C222.96 270.176 222.587 268.776 221.84 267.528C221.092 266.281 219.995 265.23 218.656 264.478C216.79 263.488 214.6 263.104 212.455 263.39C211.674 263.515 210.901 263.684 210.143 263.895C210.306 263.778 210.486 263.683 210.678 263.61C211.235 263.394 211.816 263.233 212.412 263.131C214.635 262.73 216.944 263.061 218.916 264.064C220.372 264.837 221.574 265.942 222.399 267.266C223.224 268.591 223.643 270.088 223.613 271.605C223.483 273.373 222.92 275.094 221.966 276.646C220.95 278.209 220.319 279.95 220.116 281.751C220.151 283.55 220.769 285.301 221.894 286.792C222.905 288.295 224.09 289.668 225.102 291.055C226.125 292.358 226.915 293.796 227.444 295.318C227.871 296.656 228.033 298.051 227.921 299.439C227.796 301.414 227.131 303.333 225.984 305.023C225.669 305.485 225.306 305.919 224.9 306.319C224.538 306.604 224.394 306.734 224.379 306.721Z" fill="#00638D"/>
<path d="M163.834 291.6C163.701 290.516 163.498 289.438 163.227 288.374C162.716 286.6 161.796 284.941 160.528 283.504C159.259 282.067 157.67 280.884 155.861 280.03C154.052 279.176 152.065 278.67 150.026 278.545C147.986 278.42 145.94 278.678 144.019 279.303C141.335 280.204 139 281.784 137.298 283.852C135.473 286.077 134.488 288.767 134.488 291.529C134.488 294.292 135.473 296.982 137.298 299.207C138.142 300.276 139.177 301.213 140.362 301.98C141.471 302.738 142.705 303.337 144.019 303.755C146.303 304.51 148.762 304.739 151.171 304.422C153.579 304.105 155.861 303.252 157.807 301.941C160.457 300.152 162.365 297.621 163.227 294.749C163.496 293.689 163.698 292.616 163.834 291.536C163.925 292.637 163.818 293.744 163.516 294.814C162.747 297.849 160.814 300.546 158.053 302.433C156.046 303.825 153.68 304.739 151.173 305.093C148.667 305.446 146.102 305.227 143.715 304.455C142.33 304.026 141.027 303.405 139.856 302.615C138.618 301.81 137.53 300.835 136.633 299.725C134.7 297.391 133.656 294.56 133.656 291.652C133.656 288.745 134.7 285.914 136.633 283.58C138.421 281.407 140.885 279.757 143.715 278.837C146.272 278.017 149.026 277.825 151.694 278.28C154.524 278.774 157.136 279.987 159.219 281.774C161.302 283.562 162.769 285.848 163.444 288.361C163.764 289.416 163.896 290.509 163.834 291.6Z" fill="#263238"/>
<path d="M197.713 291.6C197.588 290.514 197.386 289.437 197.106 288.374C196.596 286.6 195.678 284.942 194.411 283.505C193.144 282.068 191.556 280.884 189.748 280.03C187.941 279.176 185.954 278.67 183.916 278.545C181.877 278.42 179.832 278.678 177.912 279.303C175.221 280.199 172.88 281.78 171.177 283.852C169.351 286.077 168.367 288.767 168.367 291.529C168.367 294.292 169.351 296.982 171.177 299.207C172.024 300.273 173.059 301.21 174.241 301.98C175.357 302.736 176.595 303.334 177.912 303.755C179.821 304.376 181.854 304.634 183.88 304.514C185.906 304.394 187.883 303.898 189.685 303.058C191.486 302.217 193.073 301.051 194.346 299.631C195.619 298.212 196.549 296.572 197.077 294.814C197.355 293.755 197.557 292.682 197.684 291.6C197.784 292.702 197.677 293.81 197.366 294.879C196.615 297.877 194.725 300.548 192.019 302.433C190.011 303.825 187.645 304.739 185.139 305.093C182.633 305.446 180.067 305.227 177.681 304.455C176.295 304.026 174.993 303.405 173.822 302.615C172.58 301.81 171.487 300.835 170.584 299.725C168.659 297.387 167.621 294.558 167.621 291.652C167.621 288.747 168.659 285.917 170.584 283.58C172.381 281.41 174.849 279.762 177.681 278.837C180.237 278.017 182.992 277.825 185.659 278.28C188.486 278.778 191.094 279.992 193.174 281.779C195.254 283.566 196.719 285.85 197.395 288.361C197.699 289.418 197.807 290.512 197.713 291.6Z" fill="#263238"/>
<path d="M168.806 289.372V289.501V289.268V289.527C168.01 289.686 167.194 289.756 166.378 289.735C164.933 289.735 163.733 289.579 163.733 289.398C163.733 289.216 164.918 289.061 166.378 289.061C167.194 289.033 168.011 289.102 168.806 289.268V289.527V289.294V289.424V289.372Z" fill="#263238"/>
<path d="M215.563 292.3C212.525 292.449 209.479 292.367 206.457 292.054C203.418 291.975 200.391 291.667 197.41 291.134C200.447 291.001 203.492 291.083 206.515 291.38C209.554 291.467 212.58 291.774 215.563 292.3Z" fill="#263238"/>
<path d="M178.288 310.975C178.557 311.645 178.592 312.372 178.389 313.061C178.08 314.785 177.076 316.347 175.569 317.453C174.061 318.558 172.154 319.13 170.208 319.06C169.412 319.104 168.62 318.927 167.939 318.555C167.939 318.451 168.835 318.659 170.208 318.555C171.994 318.5 173.71 317.921 175.094 316.908C176.478 315.894 177.452 314.502 177.869 312.944C178.288 311.765 178.201 310.975 178.288 310.975Z" fill="#263238"/>
<path d="M121.038 403.998C121.057 404.136 121.057 404.275 121.038 404.413V405.631C121.038 406.745 121.038 408.326 121.11 410.322C121.11 414.429 121.11 420.299 121.212 427.543C121.212 442.081 120.72 462.166 119.463 484.324C118.205 506.482 116.905 526.502 116.023 541.067C115.618 548.284 115.286 554.154 115.054 558.262C114.939 560.257 114.852 561.812 114.794 562.927C114.794 563.432 114.722 563.834 114.708 564.145C114.723 564.282 114.723 564.421 114.708 564.559C114.686 564.422 114.686 564.282 114.708 564.145C114.708 563.834 114.708 563.432 114.708 562.927C114.708 561.812 114.78 560.244 114.838 558.249C114.968 554.18 115.199 548.297 115.56 541.041C116.24 526.515 117.555 506.456 118.783 484.298C120.012 462.14 120.677 442.068 120.764 427.53C120.764 420.299 120.865 414.429 120.894 410.322C120.894 408.326 120.894 406.745 120.966 405.631V404.413C120.971 404.272 120.995 404.133 121.038 403.998Z" fill="#263238"/>
<path d="M260.672 381.685C252.896 373.638 237.705 372.459 230.97 376.826C224.235 381.192 220.492 388.604 219.812 396.029C219.133 403.454 221.258 410.905 224.408 417.785C229.482 428.826 236.983 437.767 248.184 449.144L277.091 483.119L221.373 531.893L244.499 564.559L291.862 530.351L331.031 493.136" fill="#FF6F19"/>
<path d="M59.2068 486.437C60.111 485.842 61.1303 485.403 62.2131 485.141C64.7747 484.366 67.4775 484.037 70.1769 484.169C72.8819 484.302 75.5348 484.891 77.9961 485.906C79.0627 486.264 80.0436 486.8 80.8868 487.486C80.8868 487.577 79.7305 487.007 77.8516 486.346C75.4085 485.483 72.8274 484.976 70.2058 484.843C67.5859 484.728 64.9621 484.981 62.4299 485.595C60.4209 486.074 59.2646 486.54 59.2068 486.437Z" fill="#263238"/>
<path d="M268.173 389.318C248.733 366.201 227.805 368.106 217.138 367.834V357.688C209.261 357.688 198.494 364.05 192.929 368.598L187.422 375.375C186.008 371.664 183.645 368.301 180.524 365.554C177.402 362.807 173.607 360.752 169.442 359.553C166.438 358.698 163.358 358.074 160.236 357.688V366.758C134.104 367.419 120.128 373.82 102.668 391.935C101.772 392.868 99.9941 394.462 97.9562 396.263L46.3 450.686C35.749 461.156 26.0653 475.565 28.3345 489.56C30.806 505.317 41.0534 515.683 60.6666 527.565L115.011 559.144L114.751 564.573H244.441C244.441 564.573 332.389 506.405 334.543 484.856C336.219 467.83 305.925 431.742 268.173 389.318ZM117.194 512.819L79.1669 487.383L120.243 449.274L117.194 512.819ZM241.724 514.841L240.697 496.013L246.219 446.553C257.059 457.696 277.12 479.816 277.12 483.12L241.724 514.841Z" fill="#FF6F19"/>
<path d="M217.109 367.885C216.834 368.424 216.505 368.94 216.127 369.427C215.433 370.386 214.436 371.772 213.12 373.444C209.734 377.827 205.928 381.937 201.746 385.728C200.517 386.842 199.274 387.892 198.06 388.889L197.453 389.395V388.656C197.383 384.398 195.477 380.33 192.134 377.305C191.254 376.358 190.113 375.635 188.824 375.206C188.329 375.119 187.815 375.197 187.379 375.426C187.548 375.237 187.774 375.094 188.029 375.014C188.285 374.934 188.56 374.919 188.824 374.973C190.216 375.322 191.465 376.024 192.423 376.994C193.988 378.328 195.28 379.898 196.239 381.633C197.437 383.817 198.089 386.21 198.147 388.643L197.54 388.397C198.725 387.399 199.968 386.363 201.182 385.248C205.328 381.473 209.168 377.437 212.672 373.172L215.852 369.284C216.217 368.781 216.638 368.312 217.109 367.885Z" fill="#263238"/>
<path d="M160.207 366.809C160.629 367.173 161.007 367.577 161.334 368.014L164.225 371.422C166.638 374.324 169.905 378.367 173.489 382.85L175.831 385.779L175.18 385.87C175.88 383.776 176.85 381.762 178.071 379.87C179.081 378.334 180.521 377.061 182.248 376.177C183.387 375.586 184.676 375.265 185.991 375.244C186.483 375.199 186.978 375.262 187.437 375.426C187.437 375.426 186.945 375.426 185.991 375.426C184.744 375.539 183.543 375.907 182.479 376.501C180.876 377.408 179.546 378.654 178.606 380.129C177.443 381.998 176.512 383.975 175.831 386.025L175.6 386.634L175.18 386.116L172.839 383.187C169.254 378.704 166.046 374.622 163.748 371.655C162.693 370.242 161.797 369.063 161.074 368.117C160.733 367.711 160.442 367.272 160.207 366.809Z" fill="#263238"/>
<g opacity="0.1">
<path d="M187.393 375.423C189.56 377.551 191.186 380.074 192.162 382.818C193.137 385.563 193.439 388.464 193.045 391.323C192.77 393.215 192.524 395.741 194.49 396.441C195.863 396.921 197.381 396.078 198.494 395.249C206.926 389.157 213.864 381.569 218.873 372.961C219.358 372.285 219.618 371.498 219.624 370.694C219.613 370.295 219.432 369.915 219.117 369.633C218.802 369.35 218.378 369.188 217.933 369.178C217.34 369.326 216.826 369.662 216.488 370.124C210.475 376.343 203.827 382.809 197.814 389.016C198.085 385.561 196.893 382.142 194.476 379.44C192.091 376.849 189.489 374.166 187.437 375.423" fill="black"/>
</g>
<path d="M242.851 562.395C242.681 562.228 242.531 562.046 242.403 561.851C242.085 561.437 241.695 560.892 241.189 560.219L236.752 554.051C232.979 548.686 227.704 541.209 221.561 532.515L221.417 532.294L221.619 532.126L235.176 519.997L264.675 493.822C268.433 490.531 271.497 487.862 273.665 485.944L276.151 483.832C276.429 483.574 276.729 483.336 277.047 483.119C276.81 483.408 276.544 483.677 276.253 483.923C275.66 484.48 274.807 485.218 273.882 486.138L265.008 494.211L235.653 520.529C230.884 524.792 226.287 528.873 222.081 532.618V532.23C228.123 540.976 233.326 548.492 237.041 553.895C238.833 556.487 240.278 558.638 241.304 560.167C241.767 560.853 242.128 561.463 242.417 561.851C242.584 562.018 242.729 562.2 242.851 562.395Z" fill="#263238"/>
<path d="M226.909 381.023L226.692 381.269L226.027 381.969C225.406 382.565 224.582 383.498 223.541 384.716C220.681 388.213 218.784 392.267 218.006 396.546C217.084 402.927 218.202 409.411 221.229 415.245C222.873 418.728 225.011 422.007 227.588 425.002C230.32 428.125 233.21 431.248 236.173 434.604C247.837 447.782 257.853 460.053 265.225 468.864L273.897 479.321C274.894 480.514 275.674 481.472 276.252 482.172L276.845 482.924L277.033 483.183C277.033 483.183 276.932 483.118 276.787 482.963L276.137 482.25L273.68 479.412C271.555 476.989 268.52 473.464 264.791 469.046C257.333 460.312 247.23 448.08 235.595 434.928C232.705 431.623 229.814 428.449 227.01 425.378C224.405 422.33 222.248 418.994 220.593 415.452C217.546 409.509 216.467 402.907 217.485 396.43C218.603 390.918 221.568 385.842 225.984 381.878L226.706 381.23C226.808 381.088 226.894 381.01 226.909 381.023Z" fill="#263238"/>
<path d="M275.66 397.752C275.66 397.817 274.865 398.063 273.506 398.711C271.606 399.651 269.876 400.843 268.375 402.248C266.162 404.351 264.222 406.672 262.594 409.168C260.613 412.288 258.457 415.315 256.133 418.238C253.952 420.9 251.13 423.088 247.878 424.641C244.626 426.193 241.026 427.069 237.344 427.205C235.134 427.305 232.919 427.117 230.768 426.648C230.184 426.53 229.61 426.378 229.048 426.195C228.849 426.136 228.655 426.062 228.47 425.974C231.364 426.598 234.342 426.851 237.315 426.726C240.525 426.529 243.661 425.777 246.551 424.51C250.082 422.955 253.146 420.662 255.483 417.824C258.041 414.843 259.978 411.656 261.944 408.883C263.625 406.364 265.639 404.036 267.942 401.95C269.51 400.544 271.327 399.379 273.318 398.504C273.862 398.276 274.422 398.081 274.995 397.92C275.207 397.838 275.431 397.781 275.66 397.752Z" fill="#FAFAFA"/>
<path d="M241.189 511.689H240.842L239.873 511.482C239.44 511.378 238.905 511.313 238.269 511.222C237.542 511.114 236.808 511.04 236.072 511.002C231.354 510.808 226.635 511.352 222.125 512.609C218.991 513.417 215.924 514.422 212.947 515.615C209.738 516.911 206.414 518.492 202.83 520.008C199.085 521.657 195.175 522.985 191.151 523.973C189.002 524.47 186.805 524.783 184.589 524.906C182.299 525.004 180.004 524.856 177.753 524.465C173.356 523.573 169.159 522.022 165.338 519.878C161.609 517.883 158.27 515.615 155.076 513.516C148.76 509.266 142.718 505.741 136.98 504.212C134.417 503.499 131.757 503.106 129.074 503.046C127.052 503.011 125.034 503.225 123.076 503.681C121.413 504.1 119.804 504.678 118.278 505.404L118.552 505.223L119.419 504.756C120.556 504.205 121.758 503.77 123.004 503.461C124.983 502.958 127.031 502.705 129.089 502.709C131.81 502.729 134.515 503.091 137.125 503.785C142.993 505.275 149.135 508.825 155.48 513.049C158.689 515.149 162.028 517.377 165.713 519.347C169.464 521.449 173.583 522.969 177.898 523.843C180.086 524.23 182.319 524.373 184.546 524.271C186.712 524.16 188.862 523.86 190.963 523.377C194.944 522.407 198.815 521.106 202.526 519.49C206.111 517.986 209.449 516.406 212.643 515.149C215.653 513.964 218.754 512.977 221.922 512.194C226.491 510.964 231.27 510.485 236.029 510.782C237.788 510.867 239.524 511.173 241.189 511.689Z" fill="#FAFAFA"/>
<path d="M98.3175 500.184C98.3175 500.184 98.3898 500.339 98.4331 500.637C98.5238 501.065 98.5818 501.498 98.6066 501.933C98.7508 503.538 98.6732 505.153 98.3753 506.74C97.948 509.128 96.9199 511.397 95.369 513.375C93.3822 515.727 90.8533 517.667 87.9545 519.063C85.0638 520.657 82.072 521.992 79.6872 523.547C77.5316 524.859 75.6444 526.494 74.1082 528.38C73.0932 529.655 72.5155 531.168 72.446 532.734C72.446 533.848 72.6339 534.457 72.5472 534.47C72.4617 534.338 72.403 534.193 72.3738 534.043C72.2498 533.618 72.1723 533.184 72.1425 532.747C72.0839 531.108 72.5885 529.494 73.5879 528.121C75.103 526.136 77.0081 524.415 79.2102 523.041C81.6384 521.422 84.5724 520.061 87.492 518.493C90.2966 517.132 92.757 515.266 94.7186 513.012C96.2374 511.119 97.2781 508.952 97.7683 506.663C98.099 505.108 98.254 503.528 98.2308 501.946C98.213 501.357 98.242 500.768 98.3175 500.184Z" fill="#FAFAFA"/>
<path d="M316.433 446.551C313.466 446.997 310.582 447.808 307.862 448.961C304.951 450.235 302.337 451.994 300.158 454.144C298.885 455.42 297.788 456.83 296.892 458.342C295.938 459.91 295.288 461.685 294.348 463.435C293.488 465.196 292.187 466.757 290.547 467.996C289.004 469.124 287.253 470.001 285.373 470.587C282.208 471.527 278.868 471.897 275.544 471.676C273.325 471.556 271.115 471.322 268.925 470.976C268.118 470.881 267.32 470.729 266.54 470.523C267.354 470.525 268.166 470.59 268.968 470.717C270.529 470.859 272.769 471.132 275.559 471.196C278.809 471.344 282.062 470.935 285.141 469.991C287.014 469.448 288.74 468.559 290.209 467.384C291.677 466.208 292.855 464.77 293.669 463.163C294.579 461.452 295.244 459.664 296.241 458.044C297.19 456.5 298.351 455.067 299.696 453.781C301.948 451.573 304.664 449.785 307.688 448.52C309.705 447.662 311.846 447.06 314.048 446.732C314.646 446.644 315.249 446.583 315.855 446.551C316.046 446.522 316.241 446.522 316.433 446.551Z" fill="#FAFAFA"/>
<path d="M244.6 457.488L244.267 457.579L243.284 457.773C242.417 457.942 241.131 458.149 239.454 458.382C234.735 459.035 229.964 459.338 225.189 459.289C218.082 459.245 211.03 458.173 204.304 456.115C200.364 454.832 196.561 453.232 192.943 451.333C189.11 449.296 185.098 447.541 180.947 446.085C178.837 445.416 176.643 444.981 174.414 444.79C172.246 444.643 170.066 444.739 167.925 445.075C163.887 445.815 159.991 447.081 156.362 448.832C149.352 452.163 143.455 455.869 138.122 458.447C133.998 460.642 129.501 462.218 124.81 463.112C123.542 463.356 122.249 463.482 120.951 463.488H119.94C119.825 463.502 119.708 463.502 119.593 463.488H119.94L120.937 463.384C122.223 463.316 123.5 463.147 124.753 462.879C129.374 461.895 133.796 460.273 137.862 458.071C143.108 455.48 148.976 451.709 156.03 448.314C159.729 446.5 163.709 445.19 167.838 444.427C170.041 444.076 172.284 443.971 174.515 444.116C176.81 444.319 179.067 444.776 181.236 445.476C185.426 446.943 189.473 448.72 193.334 450.789C196.923 452.665 200.685 454.26 204.578 455.558C211.227 457.62 218.198 458.727 225.232 458.836C229.981 458.93 234.73 458.7 239.44 458.149C241.116 457.955 242.403 457.786 243.284 457.657L244.282 457.54C244.385 457.511 244.492 457.493 244.6 457.488Z" fill="#FAFAFA"/>
<path d="M103.318 464.979C103.459 464.317 103.43 463.634 103.232 462.984C102.826 462.144 102.202 461.404 101.413 460.825C100.623 460.246 99.6909 459.844 98.6933 459.653C97.4358 459.316 96.0049 459.122 94.4729 458.811C92.7746 458.53 91.1806 457.875 89.8334 456.906C88.4211 455.765 87.3229 454.346 86.6247 452.76C85.9136 451.076 85.3577 449.342 84.9626 447.577C84.5875 445.859 84.0359 444.176 83.3149 442.549C82.6209 441.05 81.7123 439.639 80.6122 438.351C78.7559 436.145 76.37 434.343 73.6312 433.077C71.8106 432.222 69.8642 431.602 67.8499 431.237C66.4045 430.978 65.5807 430.926 65.5807 430.861C65.781 430.825 65.9874 430.825 66.1877 430.861C66.759 430.877 67.3285 430.925 67.8932 431.004C69.9989 431.266 72.0437 431.83 73.9492 432.675C76.7827 433.929 79.2556 435.751 81.1758 438.001C82.3505 439.317 83.3227 440.768 84.0665 442.316C84.8147 443.992 85.3858 445.727 85.772 447.499C86.1551 449.215 86.6916 450.901 87.3763 452.54C88.0293 454.02 89.0471 455.349 90.3537 456.427C91.6077 457.351 93.0972 457.984 94.6897 458.267C96.135 458.604 97.5804 458.824 98.9245 459.2C99.9818 459.427 100.961 459.884 101.775 460.53C102.589 461.177 103.213 461.992 103.593 462.906C103.74 463.42 103.74 463.959 103.593 464.474C103.544 464.658 103.45 464.831 103.318 464.979Z" fill="#FAFAFA"/>
<path d="M217.471 398.516C216.128 397.853 214.701 397.335 213.222 396.974C211.467 396.65 209.657 396.65 207.903 396.974C205.564 397.387 203.295 398.071 201.153 399.009C198.739 399.98 196.196 401.25 193.42 402.559C190.48 404.027 187.362 405.187 184.127 406.019C180.487 406.817 176.702 406.927 173.012 406.343C169.08 405.699 165.267 404.569 161.681 402.987C154.295 399.76 148.153 395.432 142.227 392.063C137.12 388.877 131.417 386.538 125.389 385.157C121.316 384.26 117.068 384.216 112.973 385.027C111.504 385.391 110.057 385.824 108.637 386.323C109.998 385.635 111.457 385.116 112.973 384.781C117.107 383.855 121.428 383.829 125.577 384.703C131.693 386.031 137.488 388.35 142.675 391.545C148.658 394.901 154.801 399.216 162.071 402.391C165.595 403.946 169.339 405.062 173.2 405.708C176.792 406.279 180.477 406.182 184.026 405.423C187.218 404.627 190.297 403.506 193.204 402.08C195.979 400.784 198.551 399.488 201.008 398.581C203.203 397.664 205.52 397.002 207.903 396.611C209.718 396.334 211.578 396.396 213.366 396.793C214.478 397.069 215.546 397.469 216.546 397.985C216.865 398.147 217.173 398.324 217.471 398.516Z" fill="#FAFAFA"/>
<path d="M209.305 563.028L213.323 564.829H236.448L241.116 561.408L224.293 536.451C222.226 537.268 213.149 538.537 210.215 539.457C207.684 540.254 205.02 540.657 202.338 540.65C199.348 540.709 196.359 540.487 193.42 539.989L192.784 539.807C192.392 539.656 191.969 539.576 191.542 539.574C189.041 539.38 187.061 541.725 188.463 543.578C189.865 545.431 196.701 547.906 205.431 547.686H205.85C213.511 547.686 206.486 553.439 201.933 556.86C201.129 557.442 200.505 558.199 200.121 559.058C199.736 559.918 199.604 560.852 199.737 561.771C199.763 562.101 199.868 562.423 200.045 562.713C200.222 563.004 200.467 563.257 200.763 563.455C202.699 564.557 209.305 563.028 209.305 563.028Z" fill="#FFBE9D"/>
<path d="M114.939 559.934C114.923 559.813 114.923 559.691 114.939 559.571C114.939 559.286 114.939 558.936 114.939 558.495C114.939 557.498 115.026 556.111 115.098 554.362C115.271 550.734 115.503 545.563 115.806 539.188C116.399 526.334 117.251 508.659 118.133 489.132C119.015 469.604 119.578 451.865 119.983 439.05C120.142 432.674 120.258 427.504 120.344 423.863C120.344 422.114 120.417 420.727 120.446 419.729C120.446 419.289 120.446 418.939 120.446 418.667C120.427 418.542 120.427 418.416 120.446 418.291C120.467 418.416 120.467 418.542 120.446 418.667C120.446 418.939 120.446 419.302 120.446 419.729C120.446 420.727 120.446 422.114 120.446 423.863C120.446 427.452 120.446 432.635 120.33 439.05C120.128 451.878 119.549 469.591 118.697 489.158C117.844 508.724 116.904 526.412 116.153 539.214C115.748 545.576 115.43 550.747 115.199 554.375C115.069 556.124 114.968 557.511 114.895 558.495L114.794 559.571C114.857 559.687 114.906 559.808 114.939 559.934Z" fill="#263238"/>
<path d="M177.854 562.394C177.832 562.235 177.832 562.074 177.854 561.915C177.854 561.565 177.782 561.098 177.724 560.502L177.305 555.047C177.132 552.689 176.915 549.786 176.799 546.417C176.683 543.048 176.409 539.226 176.38 534.988C176.351 530.751 176.178 526.099 176.25 521.11C176.25 518.622 176.25 516.044 176.25 513.336C176.25 510.627 176.38 507.945 176.452 505.146C176.814 493.938 177.464 481.628 178.476 468.722C180.499 442.897 183.072 419.585 184.72 402.701C185.529 394.279 186.165 387.463 186.656 382.694C186.873 380.375 187.061 378.548 187.177 377.265C187.249 376.669 187.292 376.202 187.336 375.852C187.379 375.503 187.408 375.373 187.408 375.373C187.427 375.532 187.427 375.693 187.408 375.852L187.336 377.278C187.234 378.574 187.104 380.388 186.945 382.72C186.613 387.45 186.02 394.292 185.254 402.74C183.737 419.585 181.251 442.91 179.227 468.761C178.216 481.718 177.551 493.964 177.146 505.159C177.146 507.958 176.987 510.692 176.915 513.349C176.842 516.005 176.915 518.532 176.814 521.123C176.727 526.099 176.814 530.738 176.814 534.975C176.814 539.213 177.03 543.048 177.117 546.404C177.204 549.76 177.363 552.676 177.493 555.034C177.623 557.392 177.71 559.207 177.782 560.489V561.915C177.825 562.072 177.849 562.233 177.854 562.394Z" fill="#263238"/>
<path d="M188.492 434.735C188.42 434.67 189.229 434.372 190.125 435.059C190.381 435.263 190.58 435.518 190.703 435.805C190.826 436.091 190.871 436.4 190.833 436.705C190.741 437.082 190.524 437.425 190.212 437.69C189.899 437.956 189.505 438.131 189.081 438.194C188.656 438.257 188.22 438.204 187.829 438.042C187.438 437.881 187.11 437.618 186.888 437.288C186.743 437.012 186.674 436.71 186.686 436.405C186.699 436.101 186.793 435.804 186.96 435.539C187.552 434.619 188.405 434.67 188.405 434.761C188.405 434.852 187.784 434.981 187.451 435.746C187.345 435.949 187.291 436.17 187.291 436.394C187.291 436.618 187.345 436.839 187.451 437.042C187.621 437.237 187.847 437.388 188.104 437.478C188.362 437.568 188.642 437.594 188.915 437.552C189.187 437.511 189.442 437.405 189.653 437.244C189.864 437.083 190.022 436.875 190.111 436.64C190.141 436.425 190.12 436.207 190.05 435.999C189.981 435.792 189.863 435.599 189.706 435.435C189.157 434.774 188.492 434.852 188.492 434.735Z" fill="#263238"/>
<path d="M184.43 492.914C184.358 492.849 185.182 492.538 186.078 493.238C186.331 493.441 186.525 493.695 186.646 493.979C186.767 494.263 186.81 494.568 186.772 494.87C186.697 495.254 186.487 495.606 186.172 495.875C185.857 496.143 185.454 496.313 185.023 496.361C184.599 496.437 184.158 496.391 183.764 496.231C183.37 496.07 183.042 495.803 182.826 495.467C182.686 495.187 182.62 494.882 182.635 494.576C182.65 494.27 182.746 493.971 182.913 493.704C183.505 492.784 184.358 492.849 184.358 492.927C184.358 493.005 183.737 493.16 183.404 493.912C183.294 494.113 183.237 494.335 183.237 494.559C183.237 494.784 183.294 495.006 183.404 495.207C183.555 495.428 183.776 495.603 184.039 495.71C184.301 495.817 184.594 495.851 184.878 495.808C185.163 495.765 185.426 495.646 185.635 495.468C185.844 495.289 185.988 495.058 186.049 494.806C186.083 494.593 186.064 494.375 185.994 494.169C185.924 493.964 185.805 493.774 185.645 493.614C185.11 492.914 184.43 493.005 184.43 492.914Z" fill="#263238"/>
<path d="M288.133 532.888C287.481 532.874 286.832 532.8 286.196 532.668C284.45 532.335 282.745 531.844 281.109 531.204C275.661 529.034 271.111 525.386 268.101 520.773C266.58 518.206 265.373 515.499 264.502 512.7C263.788 510.455 262.712 508.316 261.308 506.35C260.339 505.046 259.091 503.927 257.637 503.059C256.582 502.476 255.917 502.282 255.946 502.217C256.114 502.228 256.28 502.263 256.437 502.32C256.902 502.455 257.352 502.629 257.781 502.839C259.354 503.641 260.707 504.747 261.741 506.078C263.245 508.069 264.4 510.254 265.167 512.557C266.053 515.304 267.255 517.962 268.751 520.487C271.692 524.998 276.078 528.61 281.34 530.854C283.542 531.689 285.813 532.369 288.133 532.888Z" fill="#FAFAFA"/>
<path d="M436.193 564.79L411.622 500.855L422.983 439.513C426.293 422.966 428.143 408.414 423.185 400.082C409.931 377.885 393.932 375.89 372.078 370.797C367.569 369.748 333.271 368.711 329.499 369.501C299.739 372.495 280.69 386.645 270.24 409.671L258.909 450.618L243.342 493.379C242.04 495.863 240.131 498.054 237.757 499.788C235.382 501.521 232.604 502.754 229.626 503.395L169.616 521.782L170.122 532.317L169.616 546.571L249.543 533.082C265.557 530.386 281.846 525.087 286.442 511.235L295.042 488.403C299.248 498.069 303.829 506.933 303.829 506.933L298.048 564.505L436.193 564.79Z" fill="#00638D"/>
<path d="M415.612 451.202L392.775 519.658C391.032 524.878 387.877 529.629 383.59 533.491C379.303 537.352 374.018 540.203 368.205 541.79L273.16 564.493L260.556 535.078L346.467 506.441L367.554 437.894C367.554 437.894 372.425 399.565 411.088 401.534" fill="#00638D"/>
<path d="M411.073 401.533H409.917C409.151 401.533 408.024 401.455 406.535 401.533C402.183 401.643 397.884 402.428 393.83 403.852C390.9 404.881 388.142 406.267 385.635 407.973C382.664 410.022 380.031 412.439 377.816 415.151C372.517 421.905 369.084 429.69 367.8 437.866C362.019 456.94 354.792 480.291 346.799 506.453V506.608H346.64L260.672 535.388L260.889 534.96L263.129 540.143C266.67 548.436 270.168 556.6 273.477 564.335L273.029 564.128L354.691 544.691L363.898 542.488C365.343 542.126 366.918 541.789 368.393 541.4C369.84 540.992 371.259 540.507 372.642 539.949C380.565 536.735 386.939 531.079 390.607 524.011C391.699 521.822 392.598 519.561 393.296 517.247C394.818 512.72 396.263 508.401 397.632 504.289C403.196 487.78 407.662 474.485 410.741 465.415L414.311 454.919L415.25 452.211C415.467 451.602 415.597 451.291 415.597 451.291C415.597 451.291 415.51 451.615 415.323 452.224C415.135 452.833 414.831 453.766 414.441 454.958C413.646 457.381 412.49 460.919 411.001 465.493L398.109 504.457C396.75 508.595 395.305 512.914 393.773 517.415C393.079 519.756 392.181 522.043 391.084 524.257C389.919 526.558 388.465 528.731 386.748 530.736C383.076 534.956 378.327 538.324 372.902 540.558C371.489 541.126 370.041 541.624 368.566 542.048C367.121 542.437 365.574 542.774 364.057 543.149L354.85 545.352L273.203 564.893L272.885 564.97L272.769 564.698C269.459 556.924 265.947 548.786 262.406 540.506L260.166 535.323L260.036 535.012L260.383 534.895L346.308 506.284L346.091 506.491C354.17 480.355 361.383 457.005 367.265 437.957C368.578 429.712 372.077 421.869 377.469 415.087C379.712 412.35 382.384 409.919 385.404 407.869C387.945 406.163 390.737 404.78 393.7 403.761C397.787 402.342 402.124 401.591 406.506 401.546C407.632 401.489 408.762 401.489 409.888 401.546L411.073 401.533Z" fill="#263238"/>
<path d="M351.193 491.06C350.819 491.135 350.434 491.161 350.051 491.138C349.015 491.131 347.982 491.023 346.973 490.814C343.607 490.112 340.501 488.643 337.954 486.551C335.372 484.505 333.362 481.944 332.086 479.074C331.855 478.582 331.666 478.075 331.522 477.558C331.391 477.177 331.295 476.787 331.233 476.392C331.117 475.744 331.074 475.381 331.132 475.381C331.19 475.381 331.522 476.78 332.577 478.88C333.953 481.61 335.952 484.051 338.445 486.045C340.923 488.064 343.893 489.537 347.117 490.347C349.574 490.943 351.193 490.917 351.193 491.06Z" fill="#263238"/>
<path d="M294.753 438.994C294.558 439.684 294.291 440.357 293.958 441.003C293.394 442.298 292.513 444.125 291.602 446.432C289.723 451.006 287.078 457.498 286.803 464.962C286.667 468.472 287.199 471.978 288.379 475.328C289.347 478.046 290.661 480.655 292.296 483.103C293.396 484.763 294.598 486.368 295.895 487.91C296.419 488.459 296.902 489.039 297.34 489.647C297.34 489.647 297.166 489.53 296.877 489.258C296.588 488.986 296.198 488.61 295.707 488.079C294.297 486.589 293.012 485.008 291.862 483.349C290.148 480.882 288.765 478.242 287.743 475.484C286.518 472.084 285.956 468.52 286.081 464.949C286.534 458.507 288.231 452.185 291.096 446.263C292.122 443.983 293.047 442.169 293.683 440.912C293.983 440.249 294.341 439.607 294.753 438.994Z" fill="#263238"/>
<path d="M354.821 515.579C353.9 513.687 352.725 511.903 351.323 510.266C349.73 508.779 347.939 507.473 345.99 506.379C346.692 506.431 347.368 506.641 347.956 506.988C350.971 508.437 353.278 510.838 354.431 513.726C354.728 514.306 354.862 514.942 354.821 515.579Z" fill="#263238"/>
<path d="M262.305 539.174C262.305 539.174 235.118 541.351 235.494 557.185L269.344 555.643L262.305 539.174Z" fill="#B78876"/>
<path d="M306.128 273.834C303.642 284.615 301.271 295.414 299.017 306.229C296.126 319.939 293.524 334.27 297.846 347.694C300.216 355.055 304.581 361.741 308.903 368.349C311.331 372.055 313.99 375.969 318.297 377.886C324.151 380.478 331.551 378.431 336.219 374.323C340.888 370.215 343.244 364.488 344.891 358.773C348.028 347.707 348.722 336.214 349.227 324.798C349.733 313.382 349.993 301.538 346.337 290.472C342.68 279.406 334.673 268.936 322.749 264.557" fill="#263238"/>
<path d="M308.093 265.178C311.495 262.806 315.627 261.427 319.93 261.226C323.399 254.928 331.623 252.039 339.312 250.704C350.644 248.721 349.43 248.449 359.966 252.622C370.503 256.794 385.505 268.586 387.428 278.797C389.174 287.753 392.373 296.431 396.923 304.557C399.814 309.934 405.451 313.627 408.79 318.811C410.59 321.621 411.65 324.763 411.888 327.998C412.126 331.232 411.536 334.472 410.163 337.47C407.445 343.314 401.679 348.471 402.228 354.769C402.531 358.436 402.387 361.053 404.006 364.435C409.483 375.89 406.896 391.154 395.131 397.763C383.366 404.371 366.34 402.065 357.249 392.58C349.357 384.39 347.84 372.702 348.577 361.896C349.314 351.089 352.089 340.347 351.309 329.501" fill="#263238"/>
<path d="M321.593 564.492L321.419 560.76L260.137 554.968L233.283 485.76L118.278 483.428L153.067 564.492C209.926 564.881 266.101 564.881 321.593 564.492Z" fill="#263238"/>
<path d="M182.089 525.075C182.682 525.999 183.568 526.745 184.634 527.218C185.699 527.691 186.898 527.87 188.077 527.732C189.256 527.594 190.364 527.146 191.259 526.444C192.154 525.742 192.797 524.818 193.106 523.789C193.415 522.759 193.377 521.671 192.996 520.66C192.616 519.65 191.909 518.764 190.967 518.114C190.024 517.464 188.888 517.079 187.701 517.008C186.515 516.937 185.331 517.183 184.3 517.715C182.919 518.428 181.909 519.604 181.495 520.985C181.08 522.365 181.294 523.836 182.089 525.075Z" fill="white"/>
<path d="M349.502 397.569C363.291 397.569 375.691 387.035 375.287 371.381L377.773 281.972C377.817 280.1 377.074 278.282 375.693 276.878C374.311 275.474 372.392 274.586 370.315 274.392L329.224 270.504C325.866 270.187 322.471 270.482 319.244 271.372C316.017 272.262 313.024 273.728 310.445 275.682C307.866 277.635 305.754 280.037 304.237 282.741C302.721 285.446 301.83 288.397 301.618 291.418C300.635 305.568 300.043 322.893 301.907 333.454C305.665 354.692 323.833 357.4 323.833 357.4L323.385 372.237C322.691 388.045 335.887 397.556 349.502 397.556V397.569Z" fill="#B78876"/>
<path d="M310.81 302.952C310.802 303.656 311.099 304.336 311.638 304.848C312.177 305.36 312.916 305.665 313.701 305.699C314.087 305.727 314.475 305.686 314.842 305.577C315.209 305.468 315.549 305.295 315.84 305.066C316.131 304.838 316.368 304.559 316.537 304.247C316.706 303.935 316.803 303.596 316.823 303.25C316.835 302.545 316.54 301.863 316 301.35C315.46 300.837 314.718 300.533 313.932 300.503C313.547 300.475 313.159 300.516 312.791 300.625C312.424 300.733 312.085 300.907 311.794 301.135C311.503 301.364 311.266 301.642 311.097 301.954C310.928 302.266 310.83 302.605 310.81 302.952Z" fill="#263238"/>
<path d="M305.81 300.439C306.185 300.789 308.498 299.273 311.764 299.273C315.031 299.273 317.43 300.75 317.777 300.387C317.95 300.232 317.575 299.597 316.534 298.91C315.111 298.045 313.426 297.593 311.707 297.614C310.009 297.611 308.353 298.092 306.98 298.988C305.969 299.635 305.636 300.283 305.81 300.439Z" fill="#263238"/>
<path d="M342.377 303.494C342.364 304.199 342.66 304.881 343.2 305.394C343.739 305.907 344.481 306.211 345.267 306.241C345.654 306.271 346.043 306.231 346.412 306.123C346.781 306.015 347.123 305.842 347.415 305.613C347.708 305.385 347.946 305.106 348.116 304.793C348.286 304.48 348.384 304.139 348.404 303.792C348.412 303.088 348.115 302.408 347.576 301.896C347.037 301.383 346.298 301.078 345.513 301.045C345.126 301.015 344.737 301.055 344.368 301.163C343.999 301.271 343.658 301.444 343.365 301.672C343.072 301.901 342.834 302.18 342.664 302.493C342.494 302.806 342.396 303.146 342.377 303.494Z" fill="#263238"/>
<path d="M337.954 300.982C338.33 301.344 340.628 299.815 343.894 299.815C347.161 299.815 349.56 301.293 349.921 300.93C350.095 300.774 349.719 300.139 348.664 299.453C347.244 298.591 345.565 298.139 343.851 298.157C342.148 298.154 340.489 298.635 339.11 299.53C338.113 300.178 337.766 300.826 337.954 300.982Z" fill="#263238"/>
<path d="M326.088 322.726C324.366 322.244 322.584 321.957 320.783 321.871C319.945 321.793 319.15 321.638 319.005 321.132C318.94 320.355 319.136 319.579 319.569 318.903C320.35 317.102 321.173 315.197 322.041 313.215C325.466 305.09 327.952 298.417 327.576 298.3C327.201 298.184 324.136 304.663 320.711 312.774C319.887 314.783 319.092 316.662 318.341 318.515C317.824 319.417 317.671 320.451 317.907 321.443C318.029 321.707 318.216 321.944 318.453 322.134C318.691 322.325 318.974 322.465 319.28 322.545C319.751 322.659 320.237 322.716 320.725 322.713C322.505 322.925 324.307 322.929 326.088 322.726Z" fill="#263238"/>
<path d="M323.833 357.412C334.988 357.562 345.971 354.933 355.558 349.818C355.558 349.818 347.854 364.409 324.151 362.426L323.833 357.412Z" fill="#AA6550"/>
<path d="M327.475 329.786C328.09 329.078 328.9 328.526 329.825 328.183C330.749 327.84 331.758 327.718 332.751 327.829C333.471 327.887 334.17 328.074 334.808 328.379C335.447 328.684 336.01 329.101 336.465 329.604C336.903 330.093 337.164 330.691 337.21 331.317C337.257 331.943 337.087 332.566 336.725 333.103C336.197 333.639 335.5 334.019 334.726 334.192C333.951 334.366 333.137 334.325 332.389 334.075C330.848 333.582 329.43 332.825 328.212 331.846C327.847 331.61 327.534 331.316 327.287 330.978C327.163 330.816 327.096 330.624 327.096 330.427C327.096 330.23 327.163 330.038 327.287 329.876" fill="#AA6550"/>
<path d="M335.714 324.744C335.179 324.744 335.164 327.906 332.129 330.161C329.094 332.415 325.322 332.066 325.293 332.519C325.293 332.713 326.131 333.128 327.735 333.167C329.836 333.209 331.885 332.579 333.517 331.392C335.061 330.255 336.051 328.624 336.277 326.843C336.349 325.522 335.945 324.731 335.714 324.744Z" fill="#263238"/>
<path d="M336.48 295.848C336.798 296.651 340.064 296.275 343.909 296.69C347.753 297.105 350.846 297.986 351.352 297.325C351.583 296.975 351.034 296.236 349.791 295.459C348.131 294.494 346.238 293.899 344.27 293.723C342.316 293.518 340.336 293.727 338.489 294.332C337.058 294.85 336.35 295.472 336.48 295.848Z" fill="#263238"/>
<path d="M307.009 291.949C307.587 292.623 309.9 291.949 312.559 291.949C315.219 291.949 317.56 292.389 318.08 291.703C318.312 291.366 317.95 290.692 316.953 290.07C315.609 289.308 314.042 288.924 312.452 288.968C310.863 289.012 309.325 289.482 308.035 290.316C307.081 290.938 306.763 291.625 307.009 291.949Z" fill="#263238"/>
<path d="M302.11 287.894C311.027 283.256 319.714 278.966 325.235 271.192C328.313 278.966 334.326 282.854 342.304 286.987C350.283 291.121 359.2 293.544 368.031 295.915C363.565 299.803 362.973 306.087 363.999 311.594C365.025 317.102 367.381 322.401 367.771 327.973C368.277 335.411 365.242 342.706 365.054 350.157C364.794 360.381 369.823 370.035 374.752 379.248L396.157 368.065L393.079 318.242L393.339 282.983L359.966 255.176L317.705 259.322L302.11 287.894Z" fill="#263238"/>
<path d="M297.354 392.658C308.209 402.493 307.053 420.025 319.034 428.823C326.348 434.214 337.029 434.719 346.004 431.998C354.98 429.277 362.524 423.77 369.448 417.965C376.371 412.159 382.918 405.927 390.795 401.223C398.441 396.649 411.536 393.837 413.386 385.751C414.744 379.842 407.807 372.729 406.506 366.807C404.439 357.399 415.785 350.13 417.678 340.697C421.465 321.843 410.365 299.711 398.802 283.682C387.24 267.653 380.707 249.499 351.395 248.009C325.163 246.959 307.298 258.246 298.568 274.573C294.232 282.749 293.177 292.001 292.325 301.046C290.345 322.167 289.246 344.558 300.129 363.373C302.384 367.26 305.072 372.21 302.037 375.657C299.262 378.806 292.975 378.676 291.212 382.369C289.448 386.062 294.088 389.69 297.354 392.658ZM330.048 267.446C333.56 267.316 343.981 267.446 355.601 281.324C362.553 289.63 362.539 303.08 362.394 314.807C362.264 323.527 362.394 345.595 362.394 345.595C362.394 345.595 363.926 373.467 353.361 375.929C340.353 378.961 329.036 376.875 319.338 368.595C309.64 360.315 304.09 348.692 301.878 336.848C299.667 325.005 298.424 312.928 300.158 301.02C301.072 293.712 303.766 286.674 308.05 280.404C310.49 276.975 313.711 274.048 317.502 271.815C321.294 269.581 325.569 268.092 330.048 267.446Z" fill="#FF6F19"/>
<g opacity="0.3">
<path d="M411.073 376.642C402.401 380.866 396.403 387.151 389.393 393.345C382.383 399.538 374.448 405.538 364.823 407.767C355.197 409.995 343.619 407.339 338.807 399.577C365.935 403.724 397.429 384.3 406.737 361.066C406.181 363.085 406.151 365.191 406.65 367.221C407.906 370.441 409.383 373.587 411.073 376.642Z" fill="black"/>
</g>
<g opacity="0.3">
<path d="M303.208 370.229C304.15 373.374 305.798 376.313 308.053 378.867C310.307 381.42 313.119 383.534 316.317 385.078C317.802 385.633 319.193 386.37 320.451 387.268C321.071 387.729 321.522 388.345 321.746 389.039C321.97 389.732 321.957 390.469 321.708 391.155C321.25 391.854 320.536 392.389 319.687 392.668C318.838 392.946 317.908 392.952 317.054 392.685C315.391 392.083 313.906 391.142 312.718 389.937C307.992 385.843 303.121 381.696 301.792 375.943C302.561 375.105 303.096 374.114 303.353 373.053C303.419 372.11 303.37 371.163 303.208 370.229Z" fill="black"/>
</g>
<path d="M404.584 365.666C404.485 365.931 404.349 366.183 404.179 366.418C403.875 366.897 403.485 367.636 402.864 368.517C401.164 371.046 399.291 373.478 397.256 375.799C394.263 379.268 390.952 382.506 387.355 385.479C382.974 389.17 378.006 392.257 372.613 394.64C369.768 395.754 366.841 396.693 363.854 397.452C361.075 398.177 358.245 398.739 355.385 399.136C350.546 399.844 345.628 400.009 340.743 399.629C337.458 399.36 334.21 398.804 331.045 397.97C329.918 397.698 329.079 397.387 328.501 397.206C328.198 397.131 327.906 397.023 327.634 396.882C327.634 396.882 328.877 397.193 331.132 397.711C334.3 398.451 337.536 398.933 340.801 399.149C345.629 399.459 350.481 399.25 355.254 398.527C358.077 398.116 360.867 397.545 363.608 396.817C366.565 396.061 369.462 395.131 372.28 394.031C377.604 391.654 382.516 388.599 386.864 384.96C390.455 382.032 393.78 378.851 396.808 375.449C398.873 373.166 400.803 370.787 402.589 368.322C403.24 367.467 403.673 366.755 404.034 366.301C404.2 366.077 404.383 365.865 404.584 365.666Z" fill="#263238"/>
<path d="M338.055 389.704C337.504 389.905 336.926 390.04 336.335 390.105C334.742 390.364 333.127 390.494 331.508 390.494C326.102 390.51 320.795 389.202 316.159 386.711C311.522 384.219 307.734 380.639 305.203 376.357C304.436 375.073 303.802 373.728 303.309 372.34C303.099 371.84 302.963 371.317 302.904 370.785C303.724 372.607 304.651 374.389 305.68 376.124C308.263 380.252 312.003 383.705 316.53 386.141C321.057 388.577 326.214 389.912 331.493 390.015C335.555 390.118 338.041 389.561 338.055 389.704Z" fill="#263238"/>
<path d="M332.433 421.816C332.701 421.716 332.983 421.651 333.271 421.621C333.82 421.505 334.716 421.401 335.699 421.168C338.669 420.595 341.599 419.864 344.472 418.978C353.933 415.969 362.834 411.702 370.878 406.318C378.909 400.915 386.515 395.022 393.642 388.682L400.204 382.981C400.927 382.346 401.534 381.841 401.997 381.439C402.198 381.25 402.42 381.08 402.661 380.934C402.501 381.148 402.317 381.348 402.112 381.53L400.407 383.162C398.961 384.562 396.75 386.57 394.018 389.019C386.974 395.482 379.388 401.452 371.327 406.875C363.227 412.296 354.222 416.534 344.646 419.432C341.738 420.282 338.768 420.949 335.757 421.427C334.702 421.621 333.849 421.686 333.285 421.751C333.005 421.804 332.719 421.826 332.433 421.816Z" fill="#263238"/>
<path d="M841.421 448.999L790.43 395.094L790.314 395.198C788.305 393.423 786.542 391.842 785.646 390.922C767.984 372.573 753.95 366.302 726.907 365.965L674.355 366.976C664.585 367.701 642.413 363.956 621.904 388.33C584.542 430.301 554.58 466 556.271 482.845C558.396 504.161 649.076 564.933 649.076 564.933L773.722 564.843L773.462 556.329L827.242 525.036C846.639 513.283 856.771 503.007 859.228 487.458C861.381 473.619 851.813 459.365 841.421 448.999ZM613.059 481.083C613.059 477.804 632.715 457.137 643.411 446.096L648.975 493.82L648.021 512.467L613.059 481.083ZM771.192 510.458L768.229 447.561L808.872 485.255L771.192 510.458Z" fill="#00638D"/>
<path d="M693.302 475.339L601.163 516.165C598.716 517.25 597.712 519.908 598.922 522.102L628.706 576.13C629.916 578.325 632.88 579.224 635.328 578.14L727.466 537.314C729.914 536.229 730.917 533.571 729.708 531.377L699.923 477.349C698.714 475.154 695.749 474.255 693.302 475.339Z" fill="#E0E0E0"/>
<path d="M663.92 521.666C664.883 521.137 666 520.877 667.128 520.918C668.256 520.959 669.346 521.299 670.258 521.895C671.171 522.491 671.866 523.316 672.256 524.266C672.646 525.216 672.712 526.249 672.448 527.233C672.183 528.217 671.598 529.109 670.768 529.795C669.938 530.481 668.9 530.931 667.784 531.089C666.669 531.246 665.526 531.103 664.502 530.678C663.477 530.253 662.615 529.565 662.026 528.702C661.237 527.543 660.993 526.152 661.348 524.832C661.703 523.513 662.628 522.374 663.92 521.666Z" fill="white"/>
<path d="M767.449 402.803C767.468 402.94 767.468 403.08 767.449 403.217C767.449 403.528 767.449 403.917 767.449 404.422C767.449 405.524 767.449 407.079 767.449 409.048C767.449 413.117 767.536 418.922 767.594 426.088C767.68 440.471 768.302 460.323 769.545 482.248C770.788 504.172 772.06 524.011 772.739 538.381C773.086 545.56 773.317 551.339 773.447 555.408C773.447 557.377 773.534 558.932 773.563 560.034C773.563 560.539 773.563 560.928 773.563 561.239C773.579 561.377 773.579 561.516 773.563 561.653C773.548 561.516 773.548 561.377 773.563 561.239C773.563 560.928 773.563 560.539 773.476 560.034C773.476 558.932 773.317 557.442 773.216 555.408C772.985 551.352 772.652 545.547 772.262 538.407C771.38 523.998 770.181 504.172 768.851 482.273C767.521 460.375 767.059 440.471 767.117 426.088C767.117 418.935 767.117 413.13 767.218 409.048C767.218 407.079 767.218 405.524 767.29 404.422C767.29 403.917 767.29 403.528 767.29 403.217C767.33 403.075 767.383 402.937 767.449 402.803Z" fill="#263238"/>
<path d="M637.673 374.621C644.321 370.28 652.054 371.588 658.717 375.916C665.38 380.244 669.08 387.578 669.745 394.926C670.409 402.273 668.299 409.633 665.192 416.449C660.176 427.372 652.762 436.209 641.676 447.457L613.116 481.083L668.256 529.338L645.405 561.655L599.241 528.34C583.473 516.406 570.06 504.199 560.217 491.578" fill="#00638D"/>
<path d="M560.203 491.617L560.535 492.006L561.504 493.172C562.356 494.196 563.628 495.764 565.348 497.656C570.296 503.197 575.605 508.472 581.247 513.451C584.86 516.678 588.979 520.138 593.575 523.818C598.172 527.498 603.346 531.139 608.838 535.091L645.55 561.499L645.044 561.577C652.14 551.535 659.844 540.624 667.866 529.247V529.662L639.421 504.783L612.741 481.458L612.509 481.264L612.697 481.031C622.815 469.174 632.383 457.901 641.286 447.418C646.726 442.05 651.771 436.371 656.39 430.417C660.514 424.992 663.85 419.118 666.319 412.937C668.661 407.45 669.762 401.601 669.557 395.729C669.316 390.788 667.637 385.99 664.686 381.812C662.259 378.452 658.876 375.732 654.886 373.934C651.963 372.538 648.67 371.884 645.362 372.042C643.311 372.187 641.316 372.717 639.508 373.597C638.265 374.193 637.687 374.595 637.673 374.569L638.106 374.271C638.533 373.987 638.982 373.731 639.45 373.506C641.263 372.585 643.273 372.019 645.347 371.848C648.703 371.65 652.053 372.287 655.031 373.688C659.095 375.472 662.545 378.208 665.018 381.605C668.048 385.836 669.782 390.707 670.048 395.729C670.29 401.585 669.249 407.427 666.984 412.924C664.521 419.159 661.179 425.085 657.04 430.56C652.422 436.539 647.377 442.243 641.936 447.638C633.033 458.121 623.451 469.408 613.391 481.329V480.888L640.086 504.212L668.516 529.105L668.733 529.299L668.574 529.519C660.538 540.896 652.82 551.794 645.709 561.823L645.506 562.121L645.203 561.901L608.564 535.402C603.086 531.437 597.883 527.757 593.33 524.077C588.777 520.397 584.658 516.937 581.03 513.711C575.397 508.688 570.111 503.361 565.204 497.759C563.513 495.816 562.313 494.261 561.446 493.211C561.041 492.706 560.737 492.304 560.521 492.019C560.304 491.734 560.203 491.617 560.203 491.617Z" fill="#263238"/>
<path d="M828.688 484.361C827.704 484.155 826.738 483.887 825.797 483.558C821.175 482.242 816.177 482.477 811.734 484.219C810.832 484.632 809.9 484.991 808.945 485.294C809.688 484.654 810.555 484.14 811.503 483.778C813.726 482.768 816.161 482.186 818.65 482.07C821.139 481.954 823.628 482.307 825.956 483.105C826.942 483.376 827.867 483.802 828.688 484.361Z" fill="#263238"/>
<path d="M679.544 560.137L669.513 564.607C667.079 565.693 664.347 566.126 661.645 565.855C658.943 565.584 656.386 564.62 654.279 563.078L648.021 558.504L665.365 534.053C667.403 534.843 675.786 535.906 678.677 536.826C681.18 537.612 683.815 538.007 686.467 537.992C689.428 538.048 692.387 537.831 695.298 537.344C695.486 537.279 695.746 537.227 695.92 537.163C696.313 537.017 696.737 536.95 697.162 536.968C699.634 536.761 701.6 539.093 700.212 540.856C698.825 542.618 692.06 545.132 683.417 544.911H683.013C675.425 544.911 682.391 550.6 686.886 553.982C687.682 554.557 688.3 555.306 688.68 556.157C689.06 557.008 689.189 557.933 689.054 558.841C689.032 559.169 688.929 559.489 688.755 559.777C688.58 560.066 688.337 560.317 688.042 560.513C686.077 561.653 679.544 560.137 679.544 560.137Z" fill="#A36853"/>
<path d="M702.756 388.475C689.459 388.475 677.506 378.316 677.622 363.181L675.222 276.998H675.497C675.458 275.189 676.179 273.433 677.518 272.079C678.857 270.724 680.715 269.872 682.724 269.69L722.355 265.932C725.592 265.626 728.864 265.91 731.976 266.767C735.087 267.625 737.973 269.038 740.459 270.922C742.945 272.806 744.98 275.121 746.441 277.729C747.903 280.336 748.761 283.182 748.963 286.094C749.917 299.739 750.495 316.442 748.689 326.627C745.018 347.139 727.514 349.757 727.514 349.757L727.934 364.01C728.613 379.249 715.88 388.423 702.756 388.423V388.475Z" fill="#A36853"/>
<path d="M740.06 297.251C740.06 297.927 739.766 298.577 739.239 299.061C738.712 299.545 737.996 299.826 737.242 299.842C736.868 299.871 736.492 299.831 736.136 299.726C735.78 299.621 735.451 299.453 735.169 299.232C734.888 299.011 734.658 298.741 734.495 298.438C734.332 298.136 734.239 297.807 734.221 297.471C734.221 296.784 734.525 296.125 735.067 295.639C735.61 295.153 736.345 294.88 737.112 294.88C737.847 294.864 738.562 295.101 739.11 295.541C739.658 295.982 739.998 296.593 740.06 297.251Z" fill="#263238"/>
<path d="M744.858 294.814C744.497 295.164 742.286 293.687 739.077 293.7C735.868 293.713 733.628 295.112 733.296 294.775C732.963 294.438 733.498 293.998 734.51 293.337C735.872 292.49 737.491 292.038 739.149 292.041C740.786 292.031 742.384 292.485 743.717 293.337C744.728 294.05 745.061 294.659 744.858 294.814Z" fill="#263238"/>
<path d="M709.636 297.767C709.645 298.113 709.578 298.457 709.437 298.779C709.296 299.101 709.084 299.394 708.815 299.641C708.546 299.889 708.224 300.086 707.868 300.22C707.513 300.354 707.131 300.423 706.745 300.423C705.997 300.456 705.264 300.227 704.701 299.785C704.137 299.342 703.787 298.721 703.724 298.052C703.715 297.706 703.782 297.362 703.923 297.04C704.064 296.718 704.276 296.425 704.545 296.177C704.814 295.93 705.136 295.733 705.492 295.599C705.847 295.465 706.229 295.396 706.615 295.396C707.363 295.363 708.096 295.592 708.659 296.034C709.223 296.477 709.573 297.098 709.636 297.767Z" fill="#263238"/>
<path d="M713.885 295.343C713.524 295.693 711.298 294.216 708.104 294.216C704.91 294.216 702.64 295.641 702.322 295.292C702.149 295.149 702.525 294.527 703.536 293.866C704.895 293.013 706.517 292.56 708.176 292.57C709.813 292.561 711.411 293.014 712.743 293.866C713.741 294.566 714.073 295.188 713.885 295.343Z" fill="#263238"/>
<path d="M725.332 316.309C726.99 315.836 728.71 315.557 730.449 315.48C731.258 315.402 732.024 315.26 732.154 314.767C732.222 314.023 732.036 313.277 731.619 312.629C730.853 310.88 730.073 309.053 729.234 307.135C725.925 299.361 723.54 292.882 723.887 292.752C724.234 292.622 727.211 298.881 730.506 306.708C731.316 308.638 732.067 310.478 732.79 312.241C733.301 313.112 733.45 314.118 733.209 315.078C733.09 315.33 732.911 315.555 732.683 315.736C732.456 315.918 732.186 316.052 731.894 316.128C731.446 316.234 730.984 316.291 730.521 316.296C728.798 316.493 727.056 316.497 725.332 316.309Z" fill="#263238"/>
<path d="M727.515 349.755C716.756 349.897 706.165 347.363 696.917 342.434C696.917 342.434 704.837 357.841 727.688 355.923L727.515 349.755Z" fill="#8F5039"/>
<path d="M715.301 290.396C714.998 291.174 711.847 290.798 708.147 291.2C704.447 291.601 701.455 292.495 700.92 291.821C700.689 291.485 701.209 290.759 702.366 290.02C703.975 289.107 705.796 288.535 707.69 288.348C709.584 288.162 711.5 288.366 713.292 288.945C714.752 289.476 715.446 290.033 715.301 290.396Z" fill="#263238"/>
<path d="M743.717 286.637C743.168 287.285 740.985 286.637 738.383 286.637C735.782 286.637 733.556 287.064 733.05 286.39C732.819 286.066 733.18 285.432 734.134 284.823C735.422 284.075 736.938 283.708 738.47 283.773C740.004 283.79 741.492 284.243 742.719 285.069C743.659 285.665 743.962 286.326 743.717 286.637Z" fill="#263238"/>
<path d="M675.483 296.575C679.37 295.953 682.478 297.029 683.576 300.463C685.21 305.581 684.097 308.108 684.371 311.632L690.153 310.077C688.707 298.273 691.988 289.539 690.557 277.683C698.593 280.015 709.636 275.558 713.061 268.094C716.471 270.341 720.521 271.674 724.742 271.94C728.964 272.206 733.182 271.394 736.909 269.597C737.847 271.127 739.303 272.351 741.067 273.092C742.831 273.832 744.811 274.051 746.723 273.718C751.059 272.616 755.655 267.083 756.913 263.157C759.167 256.095 758.069 245.962 751.68 241.362C745.292 236.762 732.486 237.863 727.515 243.707C725.549 246.014 725.318 250.277 722.152 250.86C719.334 251.378 716.776 249.564 714.203 248.372C706.181 244.808 695.096 249.538 693.116 257.365C686.409 253.775 678.286 251.43 670.785 253.361C663.284 255.291 657.3 262.755 659.858 269.364C660.914 272.137 663.298 274.547 663.559 277.436C664.064 283.073 656.52 288.179 658.933 293.401C660.278 296.329 664.223 297.625 666.001 300.359C667.996 303.417 666.753 307.278 666.926 310.816C667.186 316.725 670.568 325.471 676.884 327.156" fill="#263238"/>
<path d="M676.075 296.512C675.106 296.635 674.192 296.99 673.429 297.54C672.666 298.089 672.082 298.813 671.739 299.635C670.898 301.205 670.496 302.935 670.568 304.675C670.44 307.396 671.416 310.066 673.314 312.191C674.288 313.224 675.597 313.957 677.059 314.29C678.521 314.622 680.062 314.536 681.466 314.044" fill="#A36853"/>
<path d="M680.021 309.6C680.021 309.664 679.168 309.95 677.824 309.522C677.048 309.255 676.364 308.808 675.844 308.226C675.218 307.473 674.851 306.572 674.789 305.635C674.717 304.738 674.922 303.842 675.381 303.043C675.769 302.388 676.323 301.824 677 301.397C678.185 300.698 679.11 300.736 679.096 300.814C678.48 301.096 677.891 301.421 677.333 301.786C676.705 302.255 676.214 302.854 675.902 303.532C675.589 304.209 675.465 304.944 675.54 305.673C675.581 306.393 675.833 307.09 676.273 307.693C676.712 308.297 677.322 308.785 678.041 309.107C678.686 309.317 679.348 309.481 680.021 309.6Z" fill="#8F5039"/>
<path d="M715.301 326.312C718.192 328.087 723.655 327.154 725.708 324.524C721.298 322.368 717.233 319.687 713.625 316.555C713.625 316.555 709.52 322.671 715.301 326.312Z" fill="#FAFAFA"/>
<path d="M724.624 332.3C723.449 331.88 722.212 331.618 720.953 331.522C719.697 331.616 718.462 331.865 717.281 332.261C717.281 332.261 717.498 331.859 718.149 331.509C719.004 331.068 719.973 330.836 720.96 330.836C721.947 330.836 722.916 331.068 723.771 331.509C724.421 331.885 724.711 332.235 724.624 332.3Z" fill="#AA6550"/>
<path d="M689.459 415.267C695.56 407.199 701.106 398.804 706.066 390.129C712.035 379.918 711.023 379.4 709.592 378.946C705.748 377.715 698.333 396.53 697.35 391.606C696.368 386.682 709.347 369.578 705.271 368.489C699.952 367.012 692.595 386.851 691.844 388.483C691.092 390.116 688.447 389.118 689.228 387.68C690.341 385.62 701.412 363.604 696.194 362.114C693.303 361.298 692.263 366.144 692.263 366.144C692.263 366.144 683.591 387.46 681.148 386.682C678.706 385.905 683.316 373.219 685.21 369.047C687.103 364.874 685.687 362.399 682.984 363.125C681.134 363.617 674.991 376.264 673.228 380.424C671.464 384.583 666.839 396.103 664.035 388.652C664.035 388.535 663.934 388.432 663.876 388.315C661.347 380.903 656.65 375.953 654.207 375.357C651.765 374.761 649.987 377.171 650.999 379.244C651.128 379.606 651.346 379.938 651.634 380.216C651.765 380.346 651.895 380.54 652.025 380.683C653.474 382.996 654.656 385.436 655.551 387.965C656.407 390.217 656.833 392.583 656.809 394.962C656.809 397.722 658.254 405.756 658.138 407.739" fill="#FFAD9D"/>
<path d="M656.693 404.798L621.731 466.996C621.731 466.996 601.958 415.722 591.292 395.326C587.23 387.551 579.079 382.161 571.26 378.584V378.442L569.626 377.859C564.015 375.454 558.119 373.624 552.051 372.404C515.166 362.931 480.42 366.236 440.197 378.883C440.197 378.883 419.312 383.91 409.18 408.336C400.074 430.364 389.856 464.055 388.107 470.015C375.576 507.826 393.469 528.883 418.372 526.291C428.634 524.84 437.364 517.221 441.223 514.267L454.39 503.175L454.679 511.766L439.893 564.828L591.277 564.543L563.961 501.71L570.031 472.905L580.423 495.037C583.687 501.996 589.146 507.95 596.13 512.168C603.114 516.386 611.319 518.685 619.74 518.783C628.16 518.88 636.429 516.773 643.532 512.718C650.635 508.663 656.264 502.838 659.728 495.957L695.125 416.059L656.693 404.798Z" fill="#FF6F19"/>
<path d="M474.393 482.34C473.993 482.955 473.539 483.54 473.035 484.089C472.124 485.178 470.751 486.746 469.002 488.624C465.519 492.395 460.504 497.462 454.679 502.813C448.854 508.165 443.304 512.765 439.142 515.94C437.075 517.546 435.355 518.79 434.141 519.62C433.543 520.107 432.895 520.541 432.204 520.915C432.743 520.395 433.328 519.914 433.953 519.477C435.109 518.583 436.771 517.274 438.795 515.59C442.842 512.311 448.319 507.673 454.13 502.334C459.94 496.995 465.028 491.968 468.583 488.313C470.39 486.473 471.806 484.957 472.789 483.921C473.272 483.353 473.808 482.824 474.393 482.34Z" fill="#263238"/>
<path d="M564.452 499.692C564.441 499.448 564.465 499.205 564.524 498.966C564.64 498.422 564.756 497.748 564.915 496.919L566.49 489.378C567.82 483.015 569.641 474.23 571.086 464.447C571.452 462.002 571.78 459.622 572.069 457.307C572.425 455.106 572.566 452.882 572.488 450.659C572.221 446.891 571.597 443.15 570.624 439.477C569.843 436.315 569.178 433.775 568.73 432C568.528 431.106 568.412 430.406 568.354 429.94C568.319 429.695 568.319 429.446 568.354 429.201C568.446 429.431 568.505 429.671 568.528 429.914C568.629 430.38 568.802 431.067 569.048 431.948C569.525 433.698 570.32 436.211 571.173 439.373C572.231 443.063 572.913 446.832 573.211 450.634C573.298 452.885 573.172 455.139 572.835 457.372C572.56 459.691 572.228 462.088 571.867 464.537C570.421 474.346 568.499 483.132 567.039 489.468C566.288 492.565 565.681 495.105 565.232 496.971C565.016 497.787 564.842 498.461 564.712 499.005C564.651 499.241 564.564 499.472 564.452 499.692Z" fill="#263238"/>
<path d="M618.652 482.21C619.203 477.102 620.253 472.046 621.788 467.102C621.63 469.686 621.219 472.253 620.56 474.773C620.16 477.296 619.522 479.784 618.652 482.21Z" fill="#263238"/>
<path d="M623.985 484.049C623.26 481.17 622.777 478.247 622.54 475.303C622.034 472.383 621.778 469.433 621.774 466.479C622.499 469.357 622.982 472.281 623.219 475.225C623.726 478.145 623.982 481.095 623.985 484.049Z" fill="#263238"/>
<path d="M512.319 564.547C512.116 564.547 511.943 543.71 511.943 518.028C511.943 492.345 512.116 471.496 512.319 471.496C512.521 471.496 512.695 492.319 512.695 518.028C512.695 543.736 512.521 564.547 512.319 564.547Z" fill="#263238"/>
<g opacity="0.2">
<path d="M569.12 432.959C576.217 445.152 582.389 457.281 582.952 471.029C583.386 481.719 578.616 490.635 583.545 500.379C583.299 500.547 579.093 492.151 577.229 488.211C573.399 480.1 570.002 472.856 570.002 472.856C570.002 472.856 572.633 454.547 572.893 451.424C573.153 448.301 569.12 432.959 569.12 432.959Z" fill="black"/>
</g>
<g opacity="0.2">
<path d="M393.469 494.91C393.469 501.026 389.234 480.838 393.194 475.875C395.984 472.389 400.754 470.692 405.379 469.668C410.004 468.644 414.846 467.957 418.95 465.781C424.255 462.969 427.622 458.006 431.337 453.652C435.051 449.298 440.009 430.652 446.137 430.25V457.462C431.461 465.979 416.196 473.652 400.436 480.436C398.192 482.264 396.409 484.502 395.208 486.998C394.006 489.494 393.413 492.192 393.469 494.91Z" fill="black"/>
</g>
<g opacity="0.2">
<path d="M454.346 503.188C464.247 498.199 471.474 491.526 482.661 489.803C493.428 488.092 504.514 489.803 515.412 489.129C514.824 484.196 514.222 479.255 513.605 474.305L482.429 473.994L454.346 503.188Z" fill="black"/>
</g>
<path d="M446.137 429.939C446.339 429.939 446.513 435.991 446.513 443.455C446.513 450.918 446.339 456.983 446.137 456.983C445.756 452.482 445.63 447.967 445.761 443.455C445.631 438.947 445.756 434.436 446.137 429.939Z" fill="#263238"/>
<path d="M393.44 494.767C393.206 493.982 393.147 493.163 393.267 492.357C393.412 490.405 393.931 488.49 394.799 486.695C395.655 484.899 396.853 483.25 398.34 481.823C398.91 481.194 399.606 480.666 400.392 480.268C398.445 482.303 396.798 484.554 395.493 486.967C394.414 489.471 393.724 492.095 393.44 494.767Z" fill="#263238"/>
<path d="M399.67 480.679C400.449 480.494 401.208 480.247 401.939 479.941C403.384 479.423 405.465 478.645 407.995 477.57C413.053 475.496 419.948 472.386 427.261 468.499C434.574 464.612 440.948 460.789 445.414 457.861C447.655 456.383 449.447 455.165 450.646 454.297C451.297 453.873 451.906 453.4 452.468 452.885C451.758 453.231 451.081 453.63 450.444 454.077L445.082 457.446C440.529 460.271 434.141 464.042 426.842 467.89C419.543 471.739 412.721 474.874 407.734 477.064L401.809 479.656C401.063 479.939 400.347 480.282 399.67 480.679Z" fill="#263238"/>
<path d="M589.586 313.862C587.1 310.946 583.155 308.679 582.36 305.115C581.362 300.334 586.696 295.85 585.727 291.056C585.091 287.777 581.724 285.471 578.284 284.201C574.844 282.931 571.057 282.322 567.906 280.625C564.124 278.45 561.221 275.243 559.625 271.476C559.153 270.447 558.743 269.396 558.396 268.328C558.074 266.038 557.488 263.784 556.647 261.603C556.517 261.032 556.401 260.462 556.286 259.892L556.445 261.188C555.965 260.11 555.334 259.091 554.566 258.156C551.921 254.994 546.631 253.232 543.003 255.448L544.738 254.411C542.545 249.656 539.021 245.488 534.507 242.31C529.992 239.132 524.64 237.052 518.967 236.27C516.804 235.998 514.614 235.933 512.434 236.076C504.644 235.713 493.385 237.747 488.63 240.455C482.559 243.902 476.344 248.632 473.295 254.476C471.662 257.624 470.549 261.266 467.513 263.365C463.38 266.164 457.584 265.075 452.424 265.594C443.926 266.462 436.526 272.306 433.635 279.523C432.289 283.177 431.805 287.041 432.213 290.871C432.621 294.701 433.912 298.413 436.005 301.772C436.901 303.262 437.956 304.986 437.248 306.553C436.516 307.717 435.371 308.629 433.996 309.145C430.531 310.747 427.764 313.343 426.134 316.518C424.688 319.745 425.237 323.826 428.157 326.107C429.381 326.982 430.844 327.548 432.394 327.746C433.944 327.944 435.525 327.768 436.974 327.234C436.112 329.187 435.656 331.264 435.629 333.363C435.568 335.657 436.194 337.924 437.442 339.928C438.69 341.931 440.515 343.597 442.726 344.753C447.25 346.865 453.58 345.751 456.24 341.851C456.223 344.727 457.074 347.553 458.703 350.03C460.333 352.507 462.679 354.543 465.494 355.922C468.309 357.301 471.488 357.971 474.693 357.862C477.899 357.752 481.011 356.868 483.701 355.301C485.84 354.005 488.037 352.295 490.567 352.709C493.096 353.124 494.527 355.301 496.261 356.882C500.886 361.197 508.778 361.689 514.863 359.24C520.947 356.791 525.428 351.893 528.651 346.658C529.775 348.166 531.35 349.358 533.195 350.1C535.041 350.841 537.082 351.101 539.085 350.849C541.087 350.597 542.97 349.845 544.517 348.677C546.064 347.509 547.213 345.974 547.831 344.248C550.084 346.861 553.177 348.79 556.693 349.775C560.209 350.76 563.978 350.753 567.489 349.755C571.001 348.757 574.085 346.816 576.326 344.195C578.567 341.574 579.856 338.399 580.018 335.1C582.56 334.763 584.96 333.837 586.981 332.414C589.002 330.991 590.574 329.12 591.542 326.986C592.51 324.852 592.839 322.528 592.499 320.245C592.159 317.961 591.16 315.797 589.601 313.965L589.586 313.862ZM444.229 317.866C444.229 317.866 444.229 317.866 444.229 317.788L444.374 317.723L444.229 317.866Z" fill="#263238"/>
<path d="M535.921 350.377C535.921 350.377 554.436 347.63 558.266 325.977C560.174 315.209 559.567 297.56 558.555 283.138C558.34 280.06 557.432 277.052 555.887 274.296C554.342 271.54 552.191 269.093 549.563 267.102C546.936 265.11 543.886 263.616 540.598 262.709C537.31 261.802 533.851 261.5 530.429 261.823L488.514 265.801C486.389 266.002 484.426 266.914 483.017 268.355C481.608 269.796 480.856 271.66 480.912 273.575L485.32 367.624C482.27 368.207 475.347 369.554 471.951 370.436C471.951 370.436 504.355 435.367 512.29 434.616C520.225 433.864 551.935 372.418 551.935 372.418C546.413 370.926 540.807 369.693 535.141 368.725C535.051 362.601 535.311 356.477 535.921 350.377Z" fill="#FFAD9D"/>
<path d="M549.189 294.931C549.197 295.653 548.891 296.35 548.335 296.873C547.779 297.396 547.017 297.703 546.212 297.73C545.816 297.768 545.416 297.732 545.036 297.624C544.656 297.516 544.306 297.34 544.006 297.105C543.706 296.87 543.463 296.582 543.293 296.26C543.123 295.937 543.029 295.586 543.018 295.229C543.01 294.507 543.316 293.81 543.872 293.288C544.428 292.765 545.19 292.457 545.995 292.43C546.389 292.402 546.785 292.445 547.16 292.556C547.536 292.667 547.882 292.844 548.18 293.077C548.477 293.31 548.72 293.595 548.893 293.913C549.067 294.231 549.167 294.577 549.189 294.931Z" fill="#263238"/>
<path d="M554.291 292.364C553.901 292.727 551.56 291.172 548.221 291.185C544.882 291.198 542.44 292.688 542.093 292.326C541.905 292.157 542.295 291.509 543.365 290.81C544.819 289.928 546.537 289.462 548.293 289.475C550.027 289.473 551.717 289.963 553.121 290.874C554.074 291.548 554.479 292.209 554.291 292.364Z" fill="#263238"/>
<path d="M517.031 295.486C517.039 296.21 516.73 296.909 516.171 297.432C515.612 297.955 514.846 298.261 514.039 298.285C513.643 298.322 513.243 298.286 512.863 298.179C512.483 298.071 512.132 297.894 511.833 297.66C511.533 297.425 511.29 297.137 511.12 296.814C510.95 296.491 510.856 296.141 510.845 295.784C510.837 295.059 511.145 294.361 511.704 293.838C512.263 293.315 513.029 293.009 513.836 292.985C514.23 292.957 514.627 293 515.002 293.111C515.377 293.222 515.724 293.399 516.021 293.632C516.319 293.865 516.561 294.149 516.735 294.468C516.908 294.786 517.009 295.132 517.031 295.486Z" fill="#263238"/>
<path d="M521.526 292.921C521.15 293.284 518.794 291.729 515.47 291.742C512.145 291.755 509.688 293.245 509.327 292.883C509.154 292.714 509.544 292.066 510.613 291.367C512.058 290.473 513.773 289.999 515.527 290.006C517.261 290.006 518.95 290.495 520.355 291.405C521.367 292.066 521.714 292.766 521.526 292.921Z" fill="#263238"/>
<path d="M533.623 315.081C535.382 314.588 537.203 314.296 539.043 314.213C539.881 314.136 540.691 313.98 540.835 313.462C540.91 312.672 540.713 311.881 540.272 311.194C539.462 309.354 538.638 307.41 537.757 305.389C534.259 297.122 531.73 290.319 532.105 290.189C532.481 290.06 535.603 296.668 539.101 304.948L541.515 310.792C542.053 311.712 542.206 312.774 541.948 313.786C541.822 314.06 541.625 314.304 541.374 314.498C541.123 314.691 540.824 314.829 540.503 314.9C540.03 315.01 539.545 315.071 539.057 315.081C537.253 315.282 535.428 315.282 533.623 315.081Z" fill="#263238"/>
<path d="M535.921 350.376C524.549 350.52 513.355 347.828 503.589 342.602C503.589 342.602 511.437 357.464 535.603 355.443L535.921 350.376Z" fill="#ED9482"/>
<path d="M524.243 319.757C524.976 319.295 525.808 318.973 526.685 318.811C527.128 318.738 527.585 318.792 527.992 318.964C528.399 319.136 528.735 319.417 528.955 319.77C529.046 320.029 529.162 320.28 529.301 320.521C529.793 321.117 530.819 320.897 531.6 321.104C531.894 321.216 532.162 321.379 532.386 321.584C532.61 321.788 532.787 322.03 532.907 322.297C533.026 322.563 533.086 322.847 533.082 323.134C533.079 323.421 533.012 323.704 532.886 323.968C532.595 324.494 532.19 324.963 531.693 325.346C531.196 325.729 530.619 326.018 529.995 326.197C528.359 326.801 526.578 327.02 524.821 326.832C524.206 326.811 523.603 326.673 523.053 326.427C522.502 326.182 522.016 325.834 521.627 325.406C521.262 324.834 521.091 324.179 521.135 323.521C521.178 322.863 521.435 322.23 521.872 321.701C522.771 320.646 523.896 319.765 525.182 319.109" fill="#ED9482"/>
<path d="M523.824 317.153C524.358 317.153 524.373 320.366 527.466 322.66C530.559 324.954 534.403 324.604 534.432 325.057C534.432 325.265 533.58 325.692 531.946 325.731C529.842 325.75 527.797 325.108 526.165 323.917C524.569 322.769 523.533 321.111 523.274 319.291C523.173 317.982 523.578 317.127 523.824 317.153Z" fill="#263238"/>
<path d="M523.029 287.699C522.696 288.503 519.372 288.127 515.47 288.542C511.567 288.956 508.388 289.928 507.882 289.189C507.65 288.853 508.2 288.088 509.472 287.298C511.176 286.334 513.103 285.73 515.106 285.532C517.11 285.335 519.137 285.549 521.034 286.157C522.451 286.676 523.173 287.311 523.029 287.699Z" fill="#263238"/>
<path d="M553.063 285.588C552.47 286.275 550.172 285.588 547.412 285.588C544.651 285.588 542.324 286.041 541.789 285.329C541.543 284.992 541.919 284.305 542.931 283.67C544.303 282.9 545.9 282.512 547.518 282.556C549.137 282.6 550.704 283.073 552.022 283.916C553.005 284.59 553.323 285.29 553.063 285.588Z" fill="#263238"/>
<path d="M544.434 258.66C543.532 262.496 541.783 266.131 539.289 269.351C536.795 272.571 533.607 275.31 529.914 277.408C526.22 279.506 522.095 280.919 517.783 281.565C513.47 282.211 509.057 282.076 504.803 281.168C504.104 285.924 502.049 290.438 498.836 294.274C495.623 298.11 491.361 301.139 486.462 303.067C493.145 313.929 495.869 326.394 494.252 338.714C493.544 343.897 491.853 349.43 487.459 352.968C480.753 358.358 469.45 357.05 463.004 351.426C456.818 346.022 454.636 337.574 456.384 329.993C458.133 322.413 463.438 315.74 470.101 310.868C467.294 310.437 464.676 309.312 462.543 307.621C460.41 305.93 458.846 303.738 458.026 301.293C457.206 298.848 457.163 296.247 457.902 293.781C458.641 291.315 460.133 289.083 462.209 287.336C464.102 285.729 466.545 284.537 467.99 282.581C469.436 280.624 469.667 278.447 470.491 276.361C472.644 270.906 478.079 267.135 483.253 263.662C487.589 260.734 492.445 257.676 497.909 257.689C500.8 257.689 503.69 258.596 506.581 258.246C510.556 257.766 513.663 255.058 516.944 253.063C521.508 250.017 527.186 248.629 532.843 249.175C538.436 249.966 543.654 253.71 544.709 258.686" fill="#263238"/>
<path d="M542.281 260.799C541.428 264.984 543.726 269.274 547.224 272.202C550.721 275.131 555.043 276.945 559.364 278.681C557.858 274.564 555.754 270.643 553.106 267.019C551.77 265.199 550.046 263.634 548.031 262.415C546.017 261.196 543.753 260.347 541.37 259.918" fill="#263238"/>
<path d="M436.077 310.712C435.912 310.274 435.868 309.808 435.947 309.351C436.162 308.028 436.939 306.83 438.115 306.008C440.018 304.766 442.364 304.194 444.706 304.401C447.409 304.401 450.401 305.205 453.711 305.023C455.501 304.888 457.231 304.375 458.758 303.526C460.286 302.677 461.567 301.516 462.498 300.138C463.531 298.597 464.098 296.843 464.146 295.046C464.29 293.193 464.146 291.249 464.218 289.228C464.24 287.108 464.976 285.044 466.328 283.306C467.833 281.57 469.83 280.228 472.11 279.419C476.662 277.566 481.851 277.54 486.823 276.71C489.29 276.35 491.668 275.604 493.847 274.507C495.89 273.341 497.662 271.832 499.065 270.063C501.883 266.59 503.777 262.716 506.364 259.412C509.473 255.262 514.048 252.169 519.353 250.63C524.658 249.091 530.386 249.195 535.618 250.924C537.787 251.627 539.835 252.599 541.702 253.814C543.321 254.812 544.759 256.027 545.966 257.416C545.861 257.348 545.764 257.27 545.677 257.183L544.882 256.47C543.842 255.581 542.726 254.767 541.543 254.034C537.16 251.325 531.936 249.924 526.613 250.03C522.706 250.149 518.885 251.094 515.462 252.787C512.038 254.48 509.109 256.874 506.913 259.774C504.384 263.014 502.505 266.888 499.687 270.465C498.229 272.306 496.383 273.873 494.252 275.078C492.014 276.221 489.567 276.998 487.025 277.371C481.938 278.213 476.908 278.239 472.457 279.963C470.296 280.734 468.401 282.004 466.964 283.643C465.683 285.275 464.988 287.219 464.97 289.215C464.84 291.171 464.97 293.102 464.869 295.033C464.797 296.924 464.184 298.766 463.091 300.384C462.103 301.827 460.746 303.038 459.133 303.917C457.519 304.796 455.695 305.317 453.812 305.438C450.357 305.593 447.38 304.79 444.735 304.725C442.481 304.488 440.208 305 438.347 306.164C437.203 306.937 436.42 308.064 436.15 309.325C436.061 309.783 436.036 310.249 436.077 310.712Z" fill="#FAFAFA"/>
<path d="M471.98 410.734L473.512 445.254L477.385 478.297L518.331 476.729L515.383 411.486L471.98 410.734Z" fill="#263238"/>
<path d="M465.967 410.617L467.499 445.254L471.373 478.296L512.319 476.728L509.37 411.382L465.967 410.617Z" fill="#00638D"/>
<path d="M462.122 482.339C472.989 481.895 483.816 480.857 494.541 479.229C507.231 477.402 507.101 476.379 506.653 475.07C505.439 471.571 484.193 477.506 488.008 473.852C491.824 470.198 514.848 469.317 513.403 465.714C511.538 461.011 489.41 467.593 487.502 468.021C485.595 468.448 484.901 465.973 486.65 465.662C489.165 465.222 515.455 460.013 513.663 455.374C512.68 452.782 507.723 454.959 507.723 454.959C507.723 454.959 483.47 461.438 482.704 459.274C481.938 457.11 496.044 452.795 500.901 451.629C505.757 450.463 507.13 447.988 504.861 446.446C503.314 445.422 488.341 448.571 483.571 449.802C478.802 451.033 465.736 454.583 470.708 448.104C470.794 448.001 470.852 447.897 470.925 447.793C476.027 441.548 477.631 435.211 476.706 433.086C475.781 430.961 472.558 431.156 471.329 433.086C471.088 433.398 470.92 433.751 470.838 434.123C470.838 434.291 470.708 434.512 470.65 434.693C469.469 437.113 468.016 439.418 466.314 441.574C464.818 443.542 462.955 445.265 460.807 446.666C458.336 448.286 452.135 454.221 450.184 455.27" fill="#FFAD9D"/>
<path d="M452.742 453.367L474.393 482.341L438.708 514.969L439.922 462.049L452.742 453.367Z" fill="#FF6F19"/>
</svg>
