<svg width="636" height="464" viewBox="0 0 636 464" fill="none" xmlns="http://www.w3.org/2000/svg">
<path d="M386.141 441.139L265.851 407.581C265.53 407.494 265.193 407.459 264.858 407.477L172.34 413.432C156.081 379.19 135.71 336.386 126.441 316.838C124.897 313.634 122.408 310.839 119.226 308.735C116.044 306.631 112.281 305.292 108.314 304.853L8.12138 293.479C6.93009 293.353 5.72171 293.502 4.6171 293.909C3.5125 294.317 2.55041 294.969 1.82706 295.801C1.10372 296.633 0.644472 297.616 0.495288 298.65C0.346104 299.685 0.512204 300.736 0.976967 301.697L57.3956 416.023C58.1424 417.54 59.2438 418.905 60.63 420.033C62.0161 421.161 63.6568 422.026 65.448 422.574L180.05 462.31C182.669 463.217 185.507 463.545 188.308 463.263L195.641 462.563C221.032 460.255 346.41 449.164 385.627 445.59C386.249 445.562 386.838 445.342 387.289 444.969C387.739 444.596 388.021 444.095 388.084 443.556C388.146 443.018 387.984 442.479 387.628 442.035C387.271 441.592 386.744 441.274 386.141 441.139Z" fill="#E0E0E0"/>
<path d="M386.141 441.138C386.542 441.251 386.907 441.444 387.205 441.703C387.503 441.962 387.725 442.279 387.855 442.627C388.01 443.067 388.014 443.538 387.864 443.98C387.715 444.422 387.42 444.816 387.015 445.113C386.475 445.476 385.813 445.675 385.13 445.679L382.869 445.888L354.72 448.478L251.168 457.843L216.903 460.939L198.656 462.577L189.284 463.455C186.039 463.895 182.717 463.56 179.673 462.488L103.02 435.957L82.5466 428.856L72.1127 425.253L66.8529 423.436C65.9791 423.109 65.1396 422.841 64.1973 422.498C63.3007 422.154 62.4504 421.724 61.6617 421.218C60.075 420.197 58.7456 418.905 57.7554 417.422C56.7959 415.933 56.1791 414.369 55.391 412.836L50.8165 403.591C47.7441 397.397 44.6544 391.139 41.5477 384.817C29.092 359.507 16.1739 333.423 2.96441 306.654L1.14831 302.977C0.380566 301.754 -0.0145749 300.38 0.000410908 298.987C0.0990237 297.567 0.741205 296.218 1.82474 295.152C2.90828 294.086 4.37089 293.366 5.97978 293.106C6.37384 293.032 6.78503 293.106 7.19622 293.002L8.37839 293.076L10.6399 293.344L15.1459 293.851L24.1235 294.863L59.5543 298.898L94.1628 302.828L102.729 303.796C105.556 304.168 108.383 304.332 111.296 304.912C116.923 306.173 121.81 309.208 125.002 313.428C126.43 315.53 127.629 317.743 128.583 320.039C129.634 322.262 130.684 324.475 131.735 326.679L137.954 339.795L150.084 365.343C158 382.048 165.624 398.097 172.871 413.372L172.494 413.164L262.648 407.372L265.149 407.208C265.6 407.204 266.048 407.275 266.468 407.417L267.65 407.759L272.173 409.069L281.288 411.615L298.472 416.513L328.798 425.014L371.201 436.925L382.338 440.096C384.856 440.811 386.141 441.198 386.141 441.198C386.141 441.198 384.839 440.87 382.304 440.185L371.133 437.118L328.712 425.297L298.37 416.871L281.065 412.047L271.951 409.516L267.273 408.221C266.538 407.959 265.766 407.784 264.978 407.7L262.476 407.863L172.34 413.819H172.083L171.963 413.595C164.699 398.335 157.075 382.33 149.125 365.596L136.978 340.048C134.922 335.721 132.843 331.349 130.741 326.932C129.696 324.728 128.634 322.465 127.589 320.292C126.649 318.044 125.473 315.876 124.077 313.815C121.017 309.764 116.333 306.845 110.936 305.627C108.263 305.061 105.385 304.883 102.575 304.525L94.0085 303.558L59.383 299.642L23.9522 295.622L14.9574 294.61L10.4515 294.089C9.00888 293.835 7.53312 293.755 6.06545 293.851C4.65523 294.083 3.37431 294.717 2.42494 295.653C1.47557 296.588 0.911859 297.772 0.822795 299.017C0.812163 300.293 1.18415 301.55 1.90216 302.664L3.76964 306.342L42.3358 384.519C45.4539 390.831 48.5379 397.089 51.5875 403.293C53.1295 406.389 54.6372 409.471 56.162 412.538C56.933 414.027 57.6012 415.665 58.4921 417.005C59.4157 418.4 60.6645 419.612 62.1585 420.563C62.8997 421.039 63.6982 421.443 64.54 421.769C65.3624 422.082 66.2533 422.364 67.1442 422.677L72.404 424.508L82.8208 428.126L103.38 435.228L179.998 461.833C182.926 462.875 186.126 463.199 189.25 462.771L198.639 461.892L216.886 460.284L251.151 457.307L354.737 448.18L382.903 445.724L385.165 445.545C385.819 445.544 386.455 445.362 386.981 445.024C387.37 444.743 387.657 444.37 387.806 443.949C387.956 443.529 387.96 443.08 387.82 442.657C387.657 442.132 387.263 441.683 386.724 441.406C386.347 441.213 386.141 441.153 386.141 441.138Z" fill="#263238"/>
<path d="M231.329 420.443L276.44 436.85L332.653 431.758L285.383 414.801L231.329 420.443Z" fill="#F5F5F5"/>
<path d="M197.32 451.454L285.383 444.546L201.295 415.574L174.259 417.346L188.548 447.301L197.32 451.454Z" fill="#F5F5F5"/>
<path d="M377.421 441.095L376.821 441.184L375.022 441.378L368.169 441.988L342.709 444.147L258.758 450.951L192.762 456.132H192.488L192.385 455.908L177.771 424.926L173.762 416.261C173.316 415.269 172.974 414.51 172.734 413.984C172.609 413.721 172.5 413.453 172.408 413.18C172.408 413.18 172.563 413.433 172.837 413.939L173.968 416.187L178.165 424.777C181.763 432.222 186.903 442.866 193.071 455.67L192.694 455.462L258.673 450.147L342.709 443.566L368.117 441.69L374.971 441.214L376.769 441.11L377.421 441.095Z" fill="black"/>
<path d="M3.88962 297.615H4.64346L6.87074 297.839L15.4372 298.806L46.8589 302.528C60.1197 304.136 75.9848 306.072 93.4432 308.32L106.875 310.121L110.302 310.627C110.867 310.702 111.467 310.821 112.015 310.94C112.307 310.94 112.615 311.044 112.906 311.119C114.351 311.623 115.663 312.378 116.761 313.337C117.206 313.749 117.56 314.228 117.806 314.751L118.474 316.24C122.055 324.012 125.756 332.066 129.559 340.299C144.705 373.276 158.394 403.142 168.331 424.789C173.248 435.583 177.223 444.337 179.999 450.411C181.335 453.389 182.38 455.771 183.117 457.409C183.459 458.183 183.716 458.779 183.905 459.225C184.002 459.428 184.082 459.637 184.145 459.851C184.024 459.657 183.915 459.458 183.819 459.255L182.945 457.454L179.673 450.531C176.846 444.456 172.82 435.747 167.68 424.983L128.823 340.582C125.019 332.349 121.318 324.295 117.738 316.523L117.069 315.034C116.863 314.595 116.567 314.191 116.196 313.843C115.429 313.119 114.503 312.537 113.472 312.131C113.215 312.024 112.952 311.93 112.683 311.848L111.861 311.67C111.313 311.565 110.765 311.461 110.148 311.387L106.721 310.866L93.289 309.034L46.7561 303.079L15.3686 299.104L6.8022 298.002L4.59206 297.69L3.88962 297.615Z" fill="black"/>
<path d="M92.4497 366.057C96.7329 371.045 97.5895 376.777 94.3857 378.861C91.1818 380.946 85.0825 378.608 80.7993 373.621C76.5161 368.633 75.6594 362.916 78.8633 360.817C82.0671 358.718 88.1664 361.085 92.4497 366.057Z" fill="white"/>
<path d="M634.5 281.032C628.76 252.745 592.764 235.698 580.874 226.289L598.743 247.058C607.89 279.836 611.354 313.617 609.023 347.284C608.783 350.962 609.246 355.919 612.261 356.441C613.351 356.519 614.433 356.226 615.277 355.622C625.83 349.741 632.684 336.267 634.208 322.392C635.733 308.516 637.104 294.119 634.5 281.032Z" fill="#FF6F19"/>
<path d="M615.794 252.702C614.022 249.666 614.748 239.984 605.164 250.095L604.544 246.311L545.317 205.455L413.312 211.607C400.644 212.323 381.617 232.004 376.869 240.223C372.971 270.793 372.192 297.93 372.192 297.93C372.192 297.93 367.656 331.919 372.192 347.991C376.727 364.063 382.095 369.866 389.111 382.361C394.245 390.898 400.646 398.77 408.138 405.762L415.5 461H552H568H584H598.5H606L610.5 460.5L613.5 460C613.5 460 609.681 371.98 609.681 370.486C609.681 369.787 617.565 353.444 626.034 336.1C640.42 306.419 632.305 281.349 615.794 252.702Z" fill="#455A64"/>
<path d="M273.236 393.542C273.904 393.542 280.569 354.401 284.937 345.513C289.049 337.131 377.095 237.648 377.095 237.648L397.826 295.712L388.934 326.768L340.962 376.926L327.41 413.283L273.236 393.542Z" fill="#455A64"/>
<path d="M625.899 279.096C619.577 244.272 588.361 245.791 588.361 245.791L557.333 292.703V389.714L407.643 400.969L404.868 433.634C404.868 433.634 554.009 463.261 588.464 453.331C611.267 446.765 630.525 430.195 632.632 403.113C634.74 376.032 632.238 313.934 625.899 279.096Z" fill="#455A64"/>
<path d="M341.116 376.865C340.681 374.646 340.109 372.45 339.403 370.284C337.525 365.082 334.136 360.389 329.562 356.657C324.988 352.925 319.385 350.281 313.292 348.979C310.758 348.485 308.196 348.107 305.617 347.848C306.322 347.775 307.036 347.775 307.741 347.848C309.662 347.916 311.571 348.135 313.446 348.503C319.698 349.706 325.459 352.356 330.119 356.172C334.779 359.988 338.164 364.828 339.917 370.18C340.456 371.785 340.823 373.43 341.013 375.093C341.132 375.678 341.166 376.273 341.116 376.865Z" fill="black"/>
<path d="M412.766 399.631C412.979 399.581 413.197 399.546 413.417 399.526L415.319 399.288L422.651 398.44L449.67 395.462L538.761 386.053L558.567 383.998L558.173 384.37C559.32 357.989 559.886 334.733 559.68 318.074C559.68 309.751 559.475 303.067 559.355 298.466C559.355 296.203 559.235 294.431 559.201 293.196V291.826C559.201 291.513 559.201 291.364 559.201 291.35C559.218 291.508 559.218 291.668 559.201 291.826C559.201 292.168 559.201 292.615 559.303 293.181C559.303 294.431 559.475 296.158 559.595 298.466C559.817 303.052 560.057 309.736 560.194 318.074C560.503 334.733 560.091 358.018 558.978 384.385V384.713H558.601L538.795 386.782L449.619 395.968L422.583 398.663L415.216 399.348L413.297 399.511L412.766 399.631Z" fill="black"/>
<path d="M634.671 399.631C634.694 399.829 634.694 400.028 634.671 400.226C634.671 400.643 634.671 401.224 634.568 401.953C634.413 404.174 634.122 406.385 633.695 408.579C633.021 412.058 632.042 415.487 630.765 418.836C629.015 423.26 626.669 427.488 623.775 431.432C620.253 436.234 615.808 440.474 610.634 443.968C604.687 447.979 597.815 450.828 590.485 452.32C586.54 453.144 582.532 453.726 578.492 454.062C574.289 454.389 570.068 454.528 565.848 454.479C556.999 454.323 548.175 453.607 539.447 452.335L488.887 445.114L466.837 441.928L447.631 438.846C435.93 436.94 426.438 435.496 419.859 434.633L412.269 433.665L410.299 433.427C410.072 433.409 409.848 433.369 409.631 433.308H410.299L412.286 433.486C414 433.65 416.604 433.903 419.91 434.305C426.507 435.079 436.015 436.449 447.751 438.28L466.923 441.258L488.99 444.37L539.549 451.546C548.248 452.833 557.044 453.564 565.866 453.734C570.149 453.734 574.329 453.63 578.424 453.347C582.417 453.027 586.379 452.46 590.28 451.65C597.516 450.195 604.306 447.402 610.188 443.461C615.314 440.032 619.729 435.868 623.244 431.149C626.142 427.253 628.505 423.076 630.285 418.702C631.594 415.388 632.619 411.994 633.352 408.549C633.917 405.705 634.26 403.472 634.38 401.953L634.585 400.226C634.598 400.026 634.627 399.827 634.671 399.631Z" fill="black"/>
<path d="M408.722 402.029C408.652 401.83 408.606 401.625 408.585 401.418C408.5 400.957 408.38 400.346 408.26 399.602C407.986 397.934 407.592 395.612 407.112 392.664V392.768L395.77 381.855C393.559 379.116 391.561 376.251 389.791 373.28C387.811 369.897 386.06 366.418 384.548 362.858C381.205 354.813 378.906 346.469 377.695 337.98C376.499 328.792 376.252 319.529 376.958 310.303C377.489 301.817 378.5 294.194 379.459 287.822C380.419 281.45 381.327 276.314 381.978 272.755L382.749 268.676C382.835 268.244 382.903 267.902 382.972 267.619C382.985 267.496 383.019 267.376 383.074 267.262C383.09 267.38 383.09 267.5 383.074 267.619C383.074 267.917 383.074 268.259 382.937 268.691C382.783 269.703 382.595 271.073 382.338 272.8C381.789 276.358 380.984 281.51 380.093 287.897C379.202 294.284 378.397 301.877 377.866 310.363C377.212 319.541 377.475 328.752 378.654 337.891C379.848 346.327 382.1 354.624 385.37 362.635C386.85 366.158 388.566 369.603 390.51 372.952C392.244 375.907 394.196 378.761 396.352 381.498L407.54 392.545L408.465 399.498C408.551 400.257 408.62 400.867 408.688 401.329C408.747 401.558 408.759 401.795 408.722 402.029Z" fill="black"/>
<path d="M580.137 405.647C579.007 404.558 577.971 403.398 577.036 402.178C575.168 399.989 572.547 397.012 569.48 393.84C566.413 390.669 563.518 387.885 561.376 385.92C560.146 384.9 559.001 383.806 557.95 382.645C559.344 383.486 560.63 384.454 561.788 385.533C564.732 388.003 567.518 390.612 570.131 393.349C572.763 396.068 575.228 398.906 577.515 401.85C578.535 403.035 579.413 404.307 580.137 405.647Z" fill="black"/>
<path d="M309.866 398.319C308.598 391.962 301.933 387.004 301.933 387.004C301.933 387.004 298.747 379.263 293.984 377.223C289.221 375.183 285.417 379.263 281.271 378.161C277.125 377.059 268.233 376.776 265.372 378.161C262.511 379.545 259.015 387.272 259.015 387.272C256.131 387.373 253.309 388.035 250.757 389.208C248.594 390.179 246.723 391.576 245.292 393.287C244.05 392.867 242.691 392.784 241.393 393.05C240.096 393.316 238.922 393.918 238.028 394.776C236.289 396.541 234.989 398.599 234.207 400.82L231.945 406.091C231.51 406.895 231.31 407.779 231.363 408.667C231.537 409.396 231.992 410.053 232.652 410.529C233.311 411.005 234.138 411.272 234.995 411.287C235.866 411.29 236.728 411.134 237.525 410.829C238.322 410.524 239.036 410.076 239.621 409.515C240.787 408.515 241.816 407.401 242.688 406.195L243.253 409.649C243.253 409.649 244.195 415.113 249.284 415.441C252.796 415.679 256.6 412.135 256.6 412.135L265.492 411.302L266.759 419.029C267.345 420.518 268.465 421.804 269.954 422.699C271.444 423.594 273.225 424.051 275.035 424.001C278.221 424.001 282.333 419.311 282.333 419.311L290.608 422.066C290.608 422.066 300.134 427.872 304.589 425.937C305.835 425.389 306.829 424.489 307.408 423.385C307.987 422.281 308.117 421.039 307.776 419.862C309.678 417.989 311.18 415.837 312.213 413.505C313.412 410.2 311.202 404.677 309.866 398.319Z" fill="#FFBE9D"/>
<path d="M243.047 408.325C242.685 405.592 242.795 402.827 243.373 400.122C243.67 397.386 244.444 394.705 245.669 392.172C245.909 392.172 244.966 395.79 244.247 400.241C243.527 404.693 243.373 408.325 243.047 408.325Z" fill="#EB996E"/>
<path d="M256.942 401.059C257.483 402.937 257.736 404.869 257.696 406.805C257.878 408.204 257.715 409.62 257.216 410.959C256.72 412.001 256.017 412.448 255.966 412.329C255.914 412.21 256.326 411.748 256.617 410.84C256.911 409.541 256.974 408.211 256.805 406.895C256.544 404.953 256.59 402.989 256.942 401.059Z" fill="#EB996E"/>
<path d="M262.87 397.769C263.042 397.918 261.877 399.258 260.249 400.628C258.621 401.998 257.182 403.099 256.994 402.95C256.805 402.802 257.987 401.462 259.615 400.092C261.243 398.722 262.699 397.62 262.87 397.769Z" fill="#EB996E"/>
<path d="M264.053 382.912C264.245 384.305 264.314 385.709 264.258 387.111C264.258 389.716 264.378 393.289 264.618 397.234C264.858 401.18 265.218 404.753 265.475 407.343C265.718 408.732 265.821 410.137 265.783 411.542C265.31 410.194 265 408.807 264.858 407.403C264.429 404.827 263.984 401.254 263.727 397.279C263.47 393.304 263.504 389.716 263.624 387.111C263.599 385.702 263.743 384.295 264.053 382.912Z" fill="#EB996E"/>
<path d="M297.393 385.874C297.393 385.874 297.016 386.619 296.416 387.959C295.581 389.856 294.916 391.807 294.429 393.795C294.12 395.075 293.795 396.46 293.435 397.934C293.095 399.547 292.59 401.132 291.927 402.668C291.188 404.404 289.942 405.943 288.312 407.134C287.422 407.805 286.362 408.283 285.219 408.529C284.075 408.775 282.881 408.782 281.733 408.549C280.541 408.315 279.463 407.763 278.649 406.971C277.899 406.184 277.418 405.229 277.262 404.216C277.018 402.408 276.978 400.583 277.142 398.767C277.336 395.721 277.875 392.699 278.752 389.745C279.341 387.754 280.097 385.804 281.014 383.909C281.339 383.239 281.596 382.733 281.802 382.42C281.889 382.239 282.005 382.069 282.145 381.914C281.931 382.638 281.662 383.35 281.339 384.043C280.553 385.959 279.895 387.912 279.369 389.894C278.59 392.828 278.12 395.818 277.964 398.827C277.828 400.584 277.88 402.348 278.118 404.097C278.258 404.972 278.673 405.797 279.318 406.479C280.016 407.146 280.93 407.613 281.939 407.819C282.956 408.023 284.014 408.014 285.026 407.794C286.039 407.574 286.977 407.149 287.764 406.554C289.293 405.438 290.471 404.004 291.191 402.385C292.267 399.519 293.154 396.601 293.846 393.646C294.384 391.647 295.141 389.698 296.108 387.825C296.375 387.312 296.678 386.815 297.016 386.336C297.221 386.023 297.359 385.859 297.393 385.874Z" fill="#EB996E"/>
<path d="M300.751 389.225C300.51 390.875 299.672 392.417 298.357 393.627C297.042 394.836 295.318 395.651 293.435 395.954C294.936 395.093 296.362 394.138 297.701 393.095C298.827 391.873 299.847 390.579 300.751 389.225Z" fill="#EB996E"/>
<path d="M282.35 408.475C282.912 410.541 283.057 412.677 282.778 414.787C282.687 416.665 282.383 418.53 281.87 420.355V420.459C281.806 420.488 281.735 420.504 281.663 420.506C281.591 420.508 281.519 420.495 281.453 420.469C281.387 420.444 281.329 420.405 281.283 420.357C281.236 420.309 281.203 420.252 281.185 420.192C281.185 420.043 281.185 419.983 281.185 419.983C281.185 419.983 281.185 420.058 281.305 420.117C281.425 420.177 281.545 420.236 281.596 420.117L281.494 420.236C281.494 419.224 281.751 417.11 281.905 414.668C281.886 412.597 282.035 410.527 282.35 408.475Z" fill="#EB996E"/>
<path d="M302.516 402.309C301.856 403.256 301.074 404.135 300.186 404.929C298.223 406.913 296.5 409.069 295.046 411.361C293.6 413.649 292.779 416.196 292.647 418.805C292.647 420.814 293.041 422.035 292.887 422.065C292.287 421.059 291.986 419.938 292.014 418.805C291.962 416.073 292.736 413.378 294.258 410.988C295.767 408.638 297.635 406.474 299.809 404.557C300.598 403.71 301.507 402.955 302.516 402.309Z" fill="#EB996E"/>
<path d="M299.003 416.039C298.467 414.365 298.557 412.587 299.259 410.96C299.961 409.333 301.239 407.942 302.91 406.987C308.889 403.295 326.793 393.588 327.17 393.588C327.547 393.588 348.192 387.633 356.878 386.859C365.565 386.084 403.582 402.491 403.582 402.491C403.582 402.491 412.406 413.538 410.984 424.138C409.562 434.739 401.612 435.349 401.612 435.349L390.579 433.012L379.202 431.121C379.202 431.121 354.034 437.21 350.076 436.093C346.119 434.977 344.748 431.24 349.031 429.215C353.315 427.19 365.633 424.019 365.633 424.019L375.108 420.535L344.268 424.362C344.268 424.362 318.192 428.828 315.142 428.203C312.093 427.578 311.63 425.597 311.373 423.736C311.373 423.736 300.871 428.203 297.753 425.761C294.634 423.319 293.264 418.004 299.003 416.039Z" fill="#FFBE9D"/>
<path d="M365.565 409.516C364.8 409.623 364.025 409.658 363.252 409.62C361.778 409.62 359.637 409.62 356.998 409.769C353.921 409.891 350.863 410.264 347.866 410.886C346.1 411.277 344.379 411.81 342.727 412.479C341.013 413.164 339.3 413.968 337.587 414.861C335.839 415.729 334.018 416.481 332.139 417.109C330.381 417.673 328.541 418.019 326.673 418.136C323.595 418.137 320.526 418.437 317.524 419.03C315.565 419.572 313.835 420.608 312.556 422.007C312.122 422.551 311.739 423.123 311.408 423.719C311.408 423.719 311.408 423.526 311.511 423.198C311.688 422.718 311.942 422.262 312.264 421.843C313.499 420.297 315.27 419.134 317.319 418.523C320.352 417.834 323.47 417.469 326.605 417.436C330.335 417.058 333.918 415.953 337.09 414.206C338.803 413.357 340.517 412.494 342.333 411.794C344.024 411.123 345.785 410.595 347.592 410.216C350.643 409.596 353.763 409.272 356.896 409.248C359.568 409.248 361.71 409.248 363.2 409.337C363.993 409.333 364.785 409.392 365.565 409.516Z" fill="#EB996E"/>
<path d="M356.244 398.215C356.067 398.317 355.878 398.402 355.679 398.468C355.319 398.617 354.754 398.81 353.966 399.034C351.863 399.597 349.716 400.025 347.541 400.314C344.817 400.731 341.527 401.044 338.032 401.803C334.266 402.792 330.649 404.166 327.256 405.897C320.933 408.954 314.332 411.553 307.519 413.669C304.914 414.473 302.773 415.068 301.282 415.455C300.526 415.693 299.746 415.868 298.952 415.976C299.662 415.645 300.408 415.376 301.179 415.172L307.296 413.148C314.01 410.899 320.536 408.247 326.827 405.212C330.284 403.453 333.979 402.072 337.827 401.103C341.003 400.48 344.218 400.012 347.455 399.704C349.612 399.466 351.751 399.123 353.863 398.676C354.646 398.484 355.441 398.33 356.244 398.215Z" fill="#EB996E"/>
<path d="M381.275 404.603C381.049 404.022 380.882 403.424 380.779 402.817C380.369 401.424 379.579 400.138 378.475 399.068C377.372 397.997 375.987 397.174 374.439 396.668C373.758 396.508 373.093 396.299 372.452 396.043C372.452 395.953 373.309 395.864 374.645 396.147C376.381 396.553 377.945 397.385 379.151 398.544C380.348 399.709 381.128 401.153 381.395 402.698C381.575 403.329 381.533 403.993 381.275 404.603Z" fill="#EB996E"/>
<path d="M395.53 421.324C395.499 420.487 395.413 419.651 395.273 418.823C394.689 416.887 393.374 415.178 391.538 413.969C389.649 412.777 387.564 411.838 385.353 411.185C384.391 410.964 383.469 410.628 382.612 410.188C383.613 410.199 384.604 410.36 385.542 410.664C387.906 411.192 390.133 412.106 392.104 413.359C394.102 414.67 395.455 416.59 395.89 418.733C396.139 419.606 396.011 420.528 395.53 421.324Z" fill="#EB996E"/>
<path d="M311.476 423.704C311.04 424.042 310.534 424.304 309.986 424.478C308.555 425.064 307.077 425.562 305.565 425.967C304.524 426.283 303.46 426.537 302.379 426.726C301.075 426.876 299.749 426.758 298.507 426.384C297.805 426.161 297.165 425.812 296.628 425.361C296.091 424.91 295.669 424.365 295.389 423.764C294.68 422.54 294.394 421.165 294.566 419.803C294.744 418.776 295.355 417.842 296.279 417.183C297.067 416.581 297.95 416.08 298.901 415.694L298.678 416.141C297.981 414.296 298.14 412.287 299.124 410.543C299.939 409.235 301.039 408.078 302.362 407.134C303.21 406.519 304.115 405.966 305.069 405.481C305.396 405.276 305.761 405.12 306.148 405.02C306.234 405.124 304.76 405.868 302.721 407.476C301.518 408.431 300.52 409.566 299.775 410.826C298.93 412.434 298.832 414.263 299.5 415.932L299.603 416.215L299.278 416.364C297.667 417.094 295.731 418.166 295.543 419.923C295.4 421.134 295.649 422.356 296.262 423.451C296.489 423.966 296.839 424.433 297.287 424.823C297.736 425.213 298.274 425.517 298.867 425.714C299.961 426.063 301.132 426.195 302.293 426.101C303.345 425.936 304.386 425.723 305.411 425.461C307.313 424.999 308.838 424.538 309.866 424.21C310.381 423.993 310.92 423.823 311.476 423.704Z" fill="#EB996E"/>
<path d="M444.222 122.532C440.504 90.2847 432.64 58.186 434.268 25.7598L403.754 42.3153C405.279 55.1488 392.001 65.0941 384.308 76.1112C379.705 82.8417 377.004 90.4253 376.43 98.239C375.855 106.053 377.422 113.873 381.001 121.058C383.743 126.418 387.632 131.48 388.643 137.286C390.356 147.083 383.383 157.043 385.953 166.705C388.9 177.827 404.559 183.931 417.186 180.804C429.813 177.678 438.859 167.405 442.577 156.522C446.295 145.639 445.524 133.892 444.222 122.532Z" fill="#263238"/>
<path d="M405.399 36.8676C407.087 28.9991 411.152 21.6623 417.178 15.6088C423.204 9.55534 430.974 5.00302 439.691 2.41837C448.409 -0.166277 457.76 -0.690312 466.787 0.899988C475.814 2.49029 484.193 6.13774 491.063 11.4685C496.632 15.8009 501.189 21.2053 507.631 24.4956C514.912 28.2027 515.855 26.9521 523.873 29.2002C531.891 31.4483 547.602 49.6415 547.859 56.9665L554.095 88.8269C554.301 96.3454 543.507 101.184 535.146 99.2486C526.785 97.3131 520.892 90.8964 516.094 84.6136C511.297 78.3309 506.74 71.527 499.356 67.5817C487.106 61.0458 471.378 64.3807 457.5 67.5817C443.622 70.7826 427.5 73.5369 415.953 66.0928C406.084 59.6165 403.137 47.4083 405.399 36.8676Z" fill="#263238"/>
<path d="M400.979 83.022C400.979 62.0595 415.182 35.6034 439.271 36.5563L515.169 49.0623C518.702 49.1981 522.048 50.4826 524.542 52.6611C527.036 54.8396 528.497 57.7531 528.636 60.8238L531.497 217.893H532.011C532.011 217.893 505.643 275.51 455.273 264.701C445.284 262.557 452.668 240.955 450.03 231.486L449.533 231.575C449.43 230.429 449.345 229.372 449.242 228.285C447.768 221.199 447.153 213.999 447.409 206.801C446.364 194.161 446.004 188.936 446.004 189.099C446.004 189.263 414.993 186.271 406.221 151.805C401.869 134.743 400.893 106.322 400.979 83.022Z" fill="#FFBE9D"/>
<path d="M414.376 110.445C414.443 111.608 415.03 112.703 416.013 113.496C416.995 114.289 418.296 114.716 419.636 114.688C420.293 114.7 420.947 114.597 421.557 114.386C422.168 114.175 422.724 113.859 423.192 113.458C423.66 113.057 424.031 112.578 424.282 112.05C424.534 111.523 424.661 110.956 424.656 110.385C424.589 109.221 424.002 108.126 423.019 107.334C422.037 106.541 420.737 106.113 419.396 106.142C418.739 106.13 418.086 106.233 417.475 106.444C416.864 106.655 416.308 106.971 415.84 107.372C415.372 107.773 415.002 108.252 414.75 108.779C414.499 109.307 414.372 109.873 414.376 110.445Z" fill="#263238"/>
<path d="M409.082 97.4181C409.75 97.969 413.468 95.2593 419.002 94.9913C424.536 94.7233 428.751 96.897 429.282 96.2866C429.573 96.0037 428.836 94.9914 427.003 93.9641C424.509 92.6451 421.606 92.0313 418.694 92.2073C415.847 92.3841 413.136 93.3376 410.95 94.9318C409.236 96.0931 408.739 97.1799 409.082 97.4181Z" fill="#263238"/>
<path d="M464.233 108.018C464.3 109.182 464.887 110.277 465.87 111.07C466.852 111.862 468.152 112.29 469.493 112.261C470.15 112.273 470.803 112.171 471.414 111.959C472.025 111.748 472.581 111.433 473.049 111.031C473.517 110.63 473.887 110.152 474.139 109.624C474.39 109.096 474.517 108.53 474.513 107.959C474.446 106.787 473.852 105.685 472.858 104.891C471.864 104.097 470.551 103.675 469.202 103.716C468.549 103.71 467.901 103.817 467.296 104.031C466.691 104.245 466.142 104.561 465.679 104.962C465.217 105.362 464.851 105.839 464.602 106.364C464.354 106.888 464.228 107.451 464.233 108.018Z" fill="#263238"/>
<path d="M463.479 95.4837C464.147 96.0197 467.865 93.3249 473.399 93.0421C478.933 92.7592 483.148 94.9626 483.679 94.3373C483.953 94.0545 483.25 93.0421 481.4 92.0148C478.903 90.7022 476.002 90.0888 473.091 90.258C470.218 90.4084 467.472 91.3408 465.244 92.923C463.65 94.1438 463.136 95.2306 463.479 95.4837Z" fill="#263238"/>
<path d="M445.884 132.149C445.884 131.866 442.457 131.539 436.803 131.211C435.381 131.211 434.028 130.973 433.736 130.154C433.529 128.891 433.768 127.604 434.422 126.462C435.553 123.484 436.718 120.254 437.951 116.919C442.834 103.311 446.261 92.1597 445.627 91.996C444.993 91.8322 440.487 102.715 435.655 116.308L432.314 125.926C431.523 127.446 431.384 129.162 431.92 130.765C432.153 131.189 432.495 131.562 432.92 131.854C433.344 132.146 433.841 132.349 434.37 132.447C435.164 132.591 435.976 132.646 436.786 132.611C442.406 132.581 445.884 132.417 445.884 132.149Z" fill="#263238"/>
<path d="M446.004 189.189C464.878 188.445 483.144 183.168 498.773 173.943C498.773 173.943 486.917 198.881 446.621 197.764L446.004 189.189Z" fill="#EB996E"/>
<path d="M449.019 143.601C449.989 142.394 451.297 141.423 452.821 140.779C454.344 140.136 456.031 139.841 457.722 139.924C458.948 139.95 460.154 140.193 461.268 140.639C462.381 141.084 463.379 141.722 464.199 142.514C464.994 143.275 465.501 144.231 465.651 145.25C465.802 146.27 465.588 147.306 465.038 148.216C464.212 149.125 463.092 149.799 461.822 150.152C460.553 150.505 459.191 150.52 457.911 150.196C455.243 149.531 452.755 148.407 450.595 146.891C449.93 146.545 449.349 146.09 448.882 145.551C448.66 145.297 448.531 144.992 448.509 144.674C448.488 144.356 448.576 144.039 448.762 143.765" fill="#EB996E"/>
<path d="M462.349 134.623C461.441 134.623 461.783 139.834 456.917 143.794C452.052 147.754 445.61 147.531 445.61 148.261C445.61 148.588 447.1 149.199 449.807 149.124C453.325 148.986 456.674 147.773 459.265 145.7C461.749 143.707 463.242 140.951 463.428 138.018C463.548 135.829 462.777 134.564 462.349 134.623Z" fill="#263238"/>
<path d="M460.823 77.2721C461.457 78.5525 466.94 77.6443 473.467 77.9867C479.995 78.3291 485.358 79.5797 486.129 78.3589C486.471 77.7783 485.478 76.6021 483.285 75.3813C480.353 73.9782 477.092 73.174 473.749 73.0295C470.407 72.885 467.07 73.4042 463.993 74.5476C461.68 75.5748 460.635 76.6617 460.823 77.2721Z" fill="#263238"/>
<path d="M410.144 83.4088C411.19 84.4509 414.925 83.1259 419.499 82.8281C424.073 82.5304 428.065 83.1259 428.819 81.9349C429.179 81.3542 428.494 80.2971 426.712 79.3592C424.353 78.2341 421.661 77.7464 418.981 77.9586C416.301 78.1708 413.755 79.0732 411.669 80.5502C410.127 81.7562 409.682 82.9026 410.144 83.4088Z" fill="#263238"/>
<path d="M439.956 27.593L443.074 23.6328C466.372 24.682 489.398 28.4785 511.52 34.918C520.36 37.4936 529.338 40.6648 535.677 46.6051C544.415 54.7638 546.556 66.5551 548.27 77.6021C554.814 119.631 560.845 162.97 548.441 204.002C544.398 199.059 537.031 197.138 530.109 196.349C523.187 195.56 515.974 195.59 509.549 193.163C506.06 191.775 502.944 189.768 500.4 187.27C497.857 184.773 495.943 181.841 494.781 178.662C492.492 172.248 492.875 165.338 495.86 159.144C499.098 152.251 505.249 145.432 503.107 138.301C500.863 130.753 490.463 126.926 487.551 119.557C482.531 106.812 502.628 94.0385 497.471 81.339C495.552 76.6492 490.515 73.4334 485.238 71.498C479.961 69.5625 474.273 68.6246 468.944 66.8231C460.085 63.6338 452.559 58.1664 447.378 51.1543C442.196 44.1422 439.606 35.9208 439.956 27.593Z" fill="#263238"/>
<path d="M558.481 48.3617C533.57 18.0198 516.694 14.3424 493.256 13.2109L525.809 76.6341C530.692 86.8474 537.408 99.2342 538.453 110.237C539.686 123.293 534.478 134.221 527.505 145.819C519.144 159.754 509.961 173.034 495.586 182.563C481.212 192.091 449.208 204.076 432.589 197.897L455.769 209.168L511.143 209.346L575.648 209.57C575.648 209.57 583.187 203.823 589.817 188.994C606.453 151.849 586.271 82.2023 558.481 48.3617Z" fill="#FF6F19"/>
<path d="M604.414 245.984C604.414 245.984 590.537 221.24 572.427 207.633C554.318 194.025 543.198 194.159 517.362 196.065C491.526 197.97 455.375 201.514 446.809 199.623L446.004 189.201C441.755 188.829 424.331 181.459 420.938 177.008C414.462 182.769 411.635 188.918 413.109 195.454L408.877 196.839C402.634 198.823 397.451 202.736 394.316 207.83C391.181 212.924 390.314 218.842 391.881 224.456C393.491 229.816 397.381 233.106 405.193 234.282C436.204 238.942 519.11 219.469 544.072 219.394C569.035 219.32 604.414 245.984 604.414 245.984Z" fill="#FF6F19"/>
<path d="M402.384 234.002C403.111 233.983 403.839 234.018 404.559 234.106C405.964 234.225 407.986 234.418 410.71 234.582C418.268 235.094 425.855 235.203 433.428 234.91C444.648 234.408 455.801 233.093 466.769 230.979C472.971 229.803 479.43 228.374 486.061 226.706L506.517 221.213C520.549 217.506 534.615 214.975 547.482 216.076C558.818 216.977 569.789 220.026 579.623 225.009C586.225 228.371 592.194 232.594 597.322 237.53C598.715 238.864 600.019 240.265 601.228 241.728C601.676 242.197 602.082 242.695 602.444 243.217C601.904 242.801 601.421 242.331 601.005 241.818C600.131 240.85 598.744 239.495 596.91 237.798C583.836 225.898 566.223 218.542 547.362 217.104C534.752 216.091 520.909 218.592 506.928 222.285C499.921 224.116 493.119 226.066 486.455 227.749C479.79 229.431 473.297 230.83 467.043 231.977C455.996 234.06 444.759 235.295 433.463 235.669C425.851 235.89 418.231 235.646 410.659 234.94C407.986 234.701 405.913 234.433 404.525 234.24C403.805 234.214 403.088 234.134 402.384 234.002Z" fill="#263238"/>
<path d="M605.905 237.856C574.62 202.512 514.638 189.009 467.523 206.696L417.837 215.852C404.731 217.817 383.709 221.524 382.715 232.08C381.807 243.259 384.608 254.43 390.785 264.268C402.332 281.746 396.061 305.165 407.609 322.644C413.057 330.907 418.625 339.289 426.575 345.854C434.525 352.42 445.319 357.02 456.215 355.993C468.345 354.862 478.282 347.165 485.992 338.946C502.594 321.244 512.959 299.746 528.499 281.344C544.038 262.943 562.37 249.395 595.026 247.653C600.954 247.325 617.864 254.188 617.864 254.188C618.343 252.104 607.396 239.509 605.905 237.856Z" fill="#FF6F19"/>
<g opacity="0.3">
<path d="M539.035 216.832C517.431 216.832 496.203 225.854 475.267 229.874C391.041 245.983 391.041 218.381 391.041 218.381C388.403 231.348 402.418 237.303 417.169 240.281C445.336 245.938 475.421 248.976 495.74 243.333C512.119 238.867 529.218 235.547 545.751 231.423C562.285 227.299 586.099 228.877 598.623 239.09C587.419 223.085 560.64 216.788 539.035 216.832Z" fill="black"/>
</g>
<g opacity="0.3">
<path d="M429.573 214.853C430.58 216.77 432.05 218.477 433.882 219.856C435.715 221.236 437.869 222.256 440.196 222.848C444.861 224.017 449.744 224.381 454.57 223.92C472.183 222.878 489.11 217.772 505.78 212.71C492.451 212.308 479.55 216.342 466.478 218.665C453.405 220.987 438.671 221.136 428.049 214.198" fill="black"/>
</g>
<path d="M610.137 249.186C610.137 249.186 609.983 249.081 609.743 248.858L608.698 247.816C607.79 246.878 606.402 245.568 604.569 243.9C599.407 239.184 593.169 235.457 586.254 232.958C581.427 231.375 576.358 230.422 571.211 230.129C565.309 229.713 559.372 229.878 553.513 230.62C541.074 232.109 527.933 235.905 513.987 239.359C500.041 242.813 486.729 246.416 474.067 246.997C462.905 247.415 451.724 246.721 440.744 244.928C431.389 243.439 423.937 241.712 418.78 240.595L412.852 239.285L411.327 238.928L410.796 238.779C410.977 238.755 411.162 238.755 411.344 238.779L412.903 239.062L418.865 240.238C424.005 241.265 431.509 242.888 440.864 244.317C451.797 246.033 462.918 246.672 474.016 246.223C486.54 245.612 499.87 242.173 513.747 238.555C527.625 234.938 540.851 231.29 553.393 229.846C559.318 229.12 565.318 228.98 571.279 229.429C577.672 229.748 583.928 231.168 589.684 233.607C595.44 236.045 600.581 239.453 604.808 243.632C606.624 245.344 607.978 246.684 608.835 247.652L609.811 248.739L610.137 249.186Z" fill="black"/>
<path d="M578.681 212.77C578.551 212.696 578.431 212.612 578.321 212.517L577.327 211.728C576.488 211.013 575.168 210.016 573.455 208.75C568.521 205.285 563.111 202.365 557.35 200.056C548.8 196.652 539.709 194.383 530.383 193.326C518.952 192.093 507.387 192.118 495.963 193.401C484.529 194.714 473.182 196.553 461.971 198.909C457.018 199.921 451.917 200.272 446.843 199.952C442.381 199.662 438.096 198.312 434.456 196.051C431.535 194.123 429.039 191.753 427.089 189.053C425.617 187.039 424.339 184.923 423.268 182.726C422.394 180.925 421.812 179.48 421.435 178.498L421.041 177.381C420.984 177.258 420.95 177.127 420.938 176.994C420.938 176.994 421.024 177.113 421.127 177.351C421.229 177.59 421.418 178.007 421.606 178.453C422.035 179.406 422.669 180.82 423.594 182.607C424.712 184.763 426.024 186.838 427.517 188.815C429.469 191.44 431.947 193.739 434.833 195.604C438.403 197.771 442.584 199.053 446.929 199.311C451.921 199.593 456.934 199.222 461.8 198.21C473.025 195.804 484.396 193.945 495.86 192.642C507.36 191.352 519.003 191.352 530.503 192.642C539.897 193.749 549.043 196.093 557.624 199.594C563.403 201.948 568.8 204.951 573.678 208.527C575 209.502 576.264 210.536 577.464 211.624L578.389 212.458C578.595 212.666 578.698 212.755 578.681 212.77Z" fill="black"/>
<path d="M568.572 212.04H568.144L566.876 211.862L561.993 211.162C556.01 210.361 549.982 209.83 543.935 209.569C534.961 209.185 525.965 209.434 517.037 210.313C506.114 211.587 495.289 213.432 484.621 215.837C473.245 218.219 462.177 220.303 451.915 220.169C447.07 220.196 442.241 219.696 437.54 218.68C433.44 217.673 429.649 215.888 426.438 213.455C421.831 209.956 418.089 205.681 415.439 200.889C414.431 199.154 413.633 197.333 413.057 195.455C413.139 195.561 413.202 195.676 413.246 195.798L413.708 196.84C414.137 197.763 414.788 199.088 415.747 200.74C418.486 205.431 422.258 209.609 426.849 213.038C430.011 215.38 433.725 217.092 437.729 218.055C442.371 219.037 447.137 219.512 451.915 219.47C462.057 219.47 473.039 217.489 484.467 215.092C495.175 212.669 506.047 210.829 517.02 209.584C525.992 208.744 535.029 208.55 544.038 209.003C550.105 209.31 556.145 209.921 562.13 210.834C564.255 211.177 565.883 211.46 566.996 211.683L568.247 211.936C568.452 211.981 568.572 212.026 568.572 212.04Z" fill="black"/>
<path d="M570.149 145.223C569.995 146.068 569.778 146.904 569.497 147.724C569.23 148.702 568.898 149.667 568.504 150.612C568.058 151.729 567.63 153.009 566.945 154.364C566.259 155.719 565.591 157.237 564.683 158.83C563.775 160.423 562.764 162.016 561.651 163.729C556.648 171.046 550.137 177.501 542.445 182.77C540.646 183.961 539.018 185.108 537.305 186.031C535.591 186.954 534.05 187.832 532.559 188.562C531.068 189.291 529.698 189.887 528.498 190.408C527.472 190.875 526.413 191.288 525.329 191.644C524.436 192.001 523.514 192.299 522.57 192.537C523.407 192.089 524.283 191.7 525.192 191.376C526.048 191.033 527.094 190.601 528.276 190.021C529.458 189.44 530.829 188.889 532.251 188.085C533.673 187.281 535.283 186.507 536.894 185.495C538.504 184.482 540.2 183.396 542.033 182.22C549.58 176.928 556.014 170.541 561.051 163.341C562.165 161.659 563.261 160.081 564.118 158.533C564.974 156.984 565.831 155.555 566.465 154.185C567.099 152.816 567.647 151.595 568.178 150.508C568.709 149.421 569.018 148.453 569.292 147.679C569.496 146.841 569.783 146.019 570.149 145.223Z" fill="black"/>
<path d="M567.561 233.97C567.096 233.969 566.632 233.934 566.174 233.865L564.46 233.672C563.809 233.597 563.038 233.672 562.199 233.568C557.354 233.467 552.527 234.117 547.944 235.488C544.784 236.431 541.709 237.575 538.744 238.912C535.347 240.468 532.048 242.177 528.858 244.034C522.108 247.949 515.049 252.743 507.476 257.582L468.825 282.52L457.02 289.964L453.782 291.899C453.422 292.153 453.031 292.373 452.617 292.554C452.944 292.275 453.293 292.016 453.662 291.78L456.797 289.666L468.43 281.998L506.979 256.957C514.552 252.133 521.611 247.339 528.447 243.438C531.669 241.582 535.003 239.877 538.435 238.332C541.454 237.011 544.58 235.886 547.79 234.967C552.447 233.627 557.351 233.051 562.25 233.27C563.107 233.27 563.878 233.344 564.529 233.434L566.242 233.702C566.69 233.757 567.132 233.847 567.561 233.97Z" fill="black"/>
<path d="M622.849 279.619C622.517 278.943 622.264 278.24 622.095 277.52C621.684 276.165 621.102 274.185 620.279 271.773C619.354 268.945 618.18 266.182 616.767 263.51C615.049 260.259 612.702 257.288 609.828 254.726C606.969 252.156 603.392 250.273 599.446 249.263C596.198 248.507 592.824 248.25 589.474 248.503C586.374 248.806 583.296 249.263 580.257 249.873C580.441 249.767 580.643 249.686 580.856 249.635C581.268 249.501 581.867 249.322 582.57 249.129C584.806 248.552 587.101 248.163 589.423 247.967C592.863 247.618 596.349 247.825 599.703 248.578C603.804 249.587 607.527 251.517 610.496 254.176C613.447 256.801 615.837 259.861 617.555 263.213C618.959 265.931 620.105 268.744 620.982 271.624C621.718 274.066 622.215 276.091 622.524 277.461C622.704 278.171 622.813 278.893 622.849 279.619Z" fill="black"/>
</svg>
