<svg width="680" height="714" viewBox="0 0 680 714" fill="none" xmlns="http://www.w3.org/2000/svg">
<path d="M433.042 218.884L431.8 215.628C421.319 188.496 402.369 172.032 382.396 174.031C379.826 174.285 377.271 174.834 374.752 175.673C356.619 181.799 340.78 203.433 334.233 231.137C330.38 247.43 329.301 266.194 321.993 279.132C312.483 295.953 296.326 296.482 282.1 295.782C267.875 295.082 251.736 295.682 242.27 312.59C236.341 323.171 234.455 338.294 234.935 352.388C236.196 389.916 252.797 423.46 273.922 440.139C295.047 456.818 319.89 458.317 343.001 450.977C375.369 440.695 406.15 412.421 424.655 368.881C443.16 325.342 447.893 265.937 433.042 218.884Z" fill="#F5F5F5"/>
<path d="M620.608 272.687C629.962 257.954 629.962 234.066 620.608 219.332C611.253 204.599 596.086 204.599 586.732 219.332C577.377 234.066 577.377 257.954 586.732 272.687C596.086 287.421 611.253 287.421 620.608 272.687Z" fill="#F5F5F5"/>
<path d="M497.479 642.087C517.804 642.087 534.28 616.136 534.28 584.125C534.28 552.113 517.804 526.162 497.479 526.162C477.154 526.162 460.677 552.113 460.677 584.125C460.677 616.136 477.154 642.087 497.479 642.087Z" fill="#F5F5F5"/>
<path d="M193.754 623.866C206.984 623.866 217.709 606.974 217.709 586.138C217.709 565.301 206.984 548.41 193.754 548.41C180.525 548.41 169.8 565.301 169.8 586.138C169.8 606.974 180.525 623.866 193.754 623.866Z" fill="#F5F5F5"/>
<path d="M336.235 91.9466C338.806 74.4029 331.861 56.8975 320.723 52.8473C309.584 48.797 298.469 59.7355 295.898 77.2792C293.326 94.8229 300.271 112.328 311.41 116.379C322.549 120.429 333.663 109.49 336.235 91.9466Z" fill="#F5F5F5"/>
<path d="M104.894 273.261C112.883 247.081 105.884 215.658 89.2621 203.075C72.6401 190.493 52.689 201.515 44.7001 227.695C36.7112 253.875 43.7097 285.298 60.3317 297.88C76.9537 310.463 96.9048 299.44 104.894 273.261Z" fill="#F5F5F5"/>
<path d="M580.412 671.517C580.412 671.717 472.763 671.888 340.009 671.888C207.255 671.888 99.5884 671.717 99.5884 671.517C99.5884 671.317 207.21 671.16 340 671.16C472.79 671.16 580.412 671.303 580.412 671.517Z" fill="#263238"/>
<path d="M436.19 58.5293C445.048 65.4468 451.881 74.1527 456.107 83.9054C460.334 93.6581 461.828 104.168 460.463 114.541C459.004 124.571 455.225 135.908 462.223 143.925C469.221 151.941 483.556 152.242 490.214 160.382C497.992 169.953 490.214 183.338 492.614 194.957C493.903 200.383 497.337 205.226 502.301 208.62C507.265 212.014 513.435 213.737 519.706 213.48C504.468 223.374 486.442 229.373 467.601 230.821L454.225 214.01C459.324 219.926 457.384 228.878 451.826 234.441C446.267 240.003 437.99 242.811 429.832 244.718C410.322 249.112 389.927 249.468 370.236 245.759C350.544 242.05 332.088 234.375 316.306 223.334" fill="#263238"/>
<path d="M217.016 138.185C220.295 130.592 225.494 123.652 227.853 115.794C232.932 98.9127 224.574 79.3121 234.811 64.3556C242.089 53.7606 256.585 48.9752 270.22 45.9027C283.856 42.8302 298.472 40.3404 308.969 32.0763C316.667 26.0019 321.345 17.3847 328.963 11.2926C339.9 2.60472 355.495 0.167883 370.191 0.00895836C385.306 -0.149966 400.802 1.77478 414.038 8.25535C427.274 14.7359 437.891 26.2314 439.57 39.4928C440.39 45.9557 439.13 52.6305 441.07 58.9168C443.209 65.8036 448.967 71.2776 452.346 77.8641C455.74 84.8487 456.404 92.6328 454.231 99.9873C452.059 107.342 447.175 113.848 440.35 118.478L330.383 231.985C308.249 238.289 256.105 227.253 240.109 212.349C224.114 197.446 208.739 157.379 217.016 138.185Z" fill="#263238"/>
<path d="M438.471 103.311C435.691 76.3465 414.378 43.6964 383.987 47.281L289.495 70.8724C285.048 71.4102 280.989 73.3965 278.115 76.4413C275.24 79.4861 273.758 83.3697 273.959 87.3299L290.515 289.764L289.855 289.905C289.855 289.905 313.188 346.57 375.589 327.694C387.966 323.95 393.304 311.801 395.423 299.317L395.583 267.285C395.283 250.916 395.063 244.206 395.083 244.329C395.103 244.453 433.992 237.637 440.67 192.414C444.069 169.953 441.63 133.259 438.471 103.311Z" fill="#FFBE9D"/>
<path d="M355.134 144.718C355.19 146.224 354.581 147.69 353.436 148.807C352.29 149.924 350.698 150.604 348.996 150.704C348.166 150.782 347.326 150.712 346.527 150.499C345.728 150.286 344.985 149.933 344.342 149.463C343.699 148.992 343.169 148.413 342.784 147.759C342.399 147.104 342.166 146.389 342.098 145.654C342.032 144.15 342.636 142.683 343.779 141.568C344.923 140.452 346.516 139.776 348.216 139.685C349.047 139.605 349.887 139.672 350.687 139.883C351.488 140.094 352.232 140.444 352.877 140.913C353.522 141.382 354.053 141.961 354.441 142.614C354.829 143.267 355.065 143.983 355.134 144.718Z" fill="#263238"/>
<path d="M422.836 142.759C422.891 144.265 422.282 145.731 421.137 146.848C419.992 147.965 418.4 148.645 416.698 148.745C415.868 148.821 415.029 148.749 414.231 148.535C413.433 148.321 412.691 147.968 412.049 147.498C411.407 147.028 410.877 146.45 410.491 145.797C410.105 145.144 409.87 144.429 409.8 143.695C409.739 142.191 410.343 140.724 411.485 139.607C412.627 138.49 414.217 137.809 415.918 137.709C416.749 137.633 417.588 137.705 418.388 137.919C419.187 138.133 419.93 138.485 420.574 138.955C421.218 139.425 421.749 140.003 422.138 140.656C422.526 141.309 422.763 142.024 422.836 142.759Z" fill="#263238"/>
<path d="M432.811 123.333C432.052 124.358 426.173 120.702 418.536 121.356C410.898 122.009 405.779 126.388 404.82 125.488C404.36 125.099 405.06 123.316 407.279 121.285C410.185 118.715 414.02 117.128 418.116 116.8C422.203 116.486 426.283 117.462 429.632 119.555C432.191 121.214 433.211 122.874 432.811 123.333Z" fill="#263238"/>
<path d="M362.013 127.466C361.054 128.384 355.295 124.305 347.138 124.27C338.98 124.234 332.942 128.049 332.062 127.095C331.622 126.671 332.582 124.976 335.201 123.193C338.674 120.934 342.885 119.737 347.198 119.785C351.502 119.813 355.671 121.119 359.034 123.493C361.613 125.294 362.493 127.06 362.013 127.466Z" fill="#263238"/>
<path d="M387.986 170.941C387.986 170.588 392.304 169.811 399.362 168.84C401.162 168.628 402.841 168.275 403.101 167.18C403.216 165.541 402.748 163.911 401.762 162.518C399.962 158.728 398.063 154.743 396.063 150.564C388.066 133.541 382.367 119.521 383.147 119.256C383.927 118.991 390.965 132.552 398.902 149.575L404.361 161.6C405.101 163.366 406.36 165.397 405.5 167.798C405.257 168.365 404.872 168.875 404.373 169.291C403.874 169.707 403.275 170.018 402.621 170.2C401.632 170.456 400.612 170.604 399.582 170.641C392.484 171.206 388.026 171.295 387.986 170.941Z" fill="#263238"/>
<path d="M395.164 244.364C371.163 245.269 347.349 240.281 326.364 229.955C326.364 229.955 344.539 261.14 395.424 255.665L395.164 244.364Z" fill="#EB996E"/>
<path d="M385.486 185.984C384.097 184.534 382.313 183.418 380.303 182.741C378.292 182.065 376.12 181.85 373.99 182.117C372.44 182.274 370.943 182.707 369.589 183.39C368.235 184.073 367.052 184.992 366.112 186.09C365.203 187.152 364.686 188.434 364.628 189.763C364.571 191.093 364.977 192.405 365.792 193.525C367.792 195.838 371.79 196.279 375.069 195.29C378.36 194.171 381.37 192.491 383.927 190.346C384.721 189.832 385.4 189.192 385.926 188.457C386.187 188.115 386.327 187.712 386.327 187.3C386.327 186.888 386.187 186.485 385.926 186.143" fill="#FF6F19"/>
<path d="M367.411 175.744C368.551 175.744 368.79 182.401 375.409 187.046C382.027 191.69 390.204 190.718 390.304 191.672C390.424 192.078 388.525 193.014 385.086 193.191C380.612 193.336 376.223 192.086 372.689 189.659C369.279 187.34 367.027 183.938 366.411 180.176C366.091 177.422 366.891 175.727 367.411 175.744Z" fill="#263238"/>
<path d="M362.493 110.707C361.853 112.473 354.795 111.784 346.497 112.861C338.2 113.938 331.662 116.093 330.502 114.627C329.982 113.903 331.102 112.296 333.741 110.583C337.286 108.48 341.329 107.12 345.56 106.609C349.792 106.098 354.099 106.449 358.154 107.634C361.213 108.606 362.772 109.895 362.493 110.707Z" fill="#263238"/>
<path d="M426.954 98.1012C425.574 99.5492 419.996 98.2071 413.338 98.3131C406.68 98.419 401.061 99.5492 399.722 98.1188C399.122 97.4125 399.962 95.9822 402.381 94.5872C405.708 92.8511 409.514 91.959 413.378 92.0091C417.231 91.9451 421.028 92.8384 424.335 94.5872C426.734 95.9645 427.554 97.3949 426.954 98.1012Z" fill="#263238"/>
<path d="M268.662 76.4338C273.701 70.2534 282.318 67.3398 290.496 64.956C325.83 54.6342 362.43 48.0662 399.523 45.3906C403.722 52.2597 398.983 61.1594 391.805 65.7153C384.628 70.2711 375.61 71.8073 367.193 74.1912C358.775 76.5751 350.038 80.4069 346.219 87.4702C342.22 94.975 344.739 104.175 341.121 111.839C334.882 125.047 313.409 128.455 307.271 141.699C302.632 151.693 308.71 162.889 309.77 173.607C310.332 179.078 309.566 184.591 307.525 189.779C305.483 194.968 302.212 199.712 297.93 203.696C293.648 207.68 288.454 210.812 282.693 212.882C276.933 214.953 270.738 215.915 264.523 215.704C264.137 177.033 263.75 138.361 263.364 99.6897C263.184 91.6199 263.324 82.9144 268.662 76.4338Z" fill="#263238"/>
<path d="M175.289 170.042C182.487 164.886 191.384 160.542 194.583 152.843C199.202 141.648 189.604 127.839 196.842 117.756C203.44 108.574 221.315 109.828 227.493 100.416C232.332 93.0699 227.633 86.1832 229.673 79.632C231.712 73.0808 242.669 67.748 250.266 68.8605L305.65 147.757C309.769 173.609 314.587 187.471 307.529 202.18C303.67 210.25 298.772 218.073 296.952 226.69C295.133 235.307 297.092 245.231 304.85 250.705C269.061 251.641 236.55 233.718 206.559 216.448L174.829 198.172C171.334 196.49 168.371 194.061 166.211 191.108C161.813 183.957 168.091 175.198 175.289 170.042Z" fill="#263238"/>
<path d="M206.099 208.676C207.318 209.077 208.587 209.349 209.878 209.488C213.576 209.984 217.344 209.912 221.015 209.276C226.883 208.306 232.362 205.999 236.91 202.584C242.938 197.959 246.912 191.595 248.127 184.625C248.874 180.592 248.704 176.468 247.627 172.494C246.237 168.281 244.22 164.249 241.629 160.504C238.907 156.67 236.832 152.506 235.47 148.143C234.391 143.711 234.671 138.502 238.11 134.864C241.549 131.227 247.647 130.485 253.345 128.737C256.43 127.914 259.17 126.304 261.223 124.111C263.12 121.72 264.139 118.872 264.142 115.952C264.382 110.178 261.883 104.792 260.983 99.3714C260.422 96.7013 260.558 93.9532 261.383 91.3369C262.312 88.7634 264.265 86.5741 266.881 85.1741C272.199 82.1369 278.877 81.9074 285.156 81.6425C291.647 81.7105 298.055 80.3383 303.79 77.6517C309.308 74.9595 313.886 70.9839 317.026 66.1562C319.724 61.4783 321.572 56.4551 322.504 51.2703C323.386 46.486 324.82 41.794 326.783 37.2673C328.873 33.1336 331.949 29.4472 335.801 26.4605C342.181 21.5081 350.177 18.4735 358.636 17.7943C367.095 17.1151 375.58 18.8265 382.867 22.6816C387.896 25.2437 392.371 28.5739 396.083 32.5173C399.185 35.9422 401.835 39.6686 403.98 43.6243C403.909 43.3401 403.809 43.0623 403.68 42.7944C403.44 42.2646 403.14 41.4347 402.581 40.4282C400.996 37.4459 399.023 34.6369 396.702 32.0582C393.028 27.9537 388.536 24.4768 383.446 21.7987C376.681 18.1471 368.881 16.2672 360.953 16.3776C351.293 16.6286 342.019 19.7803 334.661 25.3127C330.594 28.4309 327.335 32.2852 325.104 36.614C323.054 41.2319 321.553 46.0254 320.625 50.9172C319.708 55.9231 317.913 60.7725 315.307 65.291C312.317 69.8213 307.991 73.5502 302.79 76.0802C297.329 78.6237 291.228 79.9054 285.056 79.806C278.777 80.0356 271.72 80.1945 265.761 83.5672C262.76 85.1802 260.506 87.684 259.403 90.6305C258.492 93.5045 258.335 96.524 258.943 99.4596C259.943 105.199 262.342 110.425 262.102 115.723C262.112 118.246 261.246 120.71 259.623 122.786C257.801 124.71 255.383 126.121 252.665 126.848C249.946 127.731 247.047 128.278 244.228 129.196C241.304 130.013 238.685 131.514 236.65 133.54C232.651 137.831 232.531 143.535 233.671 148.232C235.091 152.767 237.261 157.093 240.109 161.069C242.682 164.678 244.699 168.574 246.107 172.653C247.173 176.441 247.384 180.377 246.727 184.237C245.631 190.946 241.902 197.102 236.19 201.63C231.83 205.006 226.565 207.34 220.895 208.411C216.029 209.348 211.004 209.438 206.099 208.676Z" fill="#00638D"/>
<path d="M161.553 152.365C160.916 153.115 160.467 153.976 160.233 154.89C159.508 157.546 159.899 160.345 161.333 162.766C162.339 164.534 163.822 166.056 165.652 167.198C167.885 168.509 170.489 169.243 173.17 169.317C176.434 169.403 179.663 168.694 182.502 167.268C185.341 165.841 187.681 163.752 189.265 161.229C191.134 158.344 192.19 155.104 192.344 151.782C192.407 148.202 191.729 144.641 190.344 141.276C187.885 134.336 183.127 127.467 183.447 119.503C183.391 117.547 183.782 115.6 184.596 113.78C185.41 111.96 186.631 110.303 188.185 108.908C191.524 106.206 196.463 105.73 201.341 105.888C206.22 106.047 211.538 106.736 216.857 105.147C219.537 104.314 221.852 102.757 223.475 100.697C225.019 98.6377 226.036 96.3055 226.454 93.8632C227.393 88.9895 226.354 84.2748 225.954 79.7366C225.41 75.3804 225.935 70.9718 227.493 66.8108C230.484 58.8715 236.801 52.2438 245.148 48.2873C253.146 44.5084 262.063 44.4555 270.141 44.3672C278.218 44.2789 286.136 44.2259 292.894 42.2129C298.952 40.4843 304.554 37.6979 309.369 34.0194C313.006 31.2766 316.142 28.0543 318.666 24.4663C320.919 21.4805 322.545 18.1608 323.465 14.666C321.965 17.9431 320.131 21.0933 317.986 24.0779C315.389 27.5241 312.229 30.6124 308.609 33.2425C303.858 36.7372 298.366 39.3605 292.454 40.9591C285.916 42.8486 278.298 42.8839 270.141 42.8486C261.983 42.8132 252.766 42.8486 244.268 46.7864C235.446 50.9082 228.749 57.8597 225.554 66.2104C223.904 70.6097 223.332 75.2684 223.875 79.8779C224.314 84.4514 225.274 89.0425 224.414 93.4747C223.555 97.9069 220.815 102.004 216.157 103.346C211.498 104.688 206.42 104.087 201.401 103.999C196.383 103.911 190.784 104.317 186.845 107.531C185.092 109.097 183.717 110.96 182.803 113.009C181.889 115.058 181.455 117.249 181.527 119.45C181.509 123.519 182.399 127.551 184.146 131.316C185.666 134.954 187.425 138.38 188.705 141.735C190.055 144.925 190.733 148.306 190.704 151.712C190.583 154.803 189.645 157.827 187.965 160.541C186.527 162.892 184.388 164.852 181.781 166.209C179.173 167.566 176.196 168.268 173.17 168.24C170.697 168.232 168.276 167.621 166.172 166.474C164.094 165.23 162.464 163.486 161.475 161.448C160.486 159.411 160.18 157.165 160.593 154.978C161.053 153.23 161.653 152.418 161.553 152.365Z" fill="#263238"/>
<path d="M536.261 187.417C537.14 190.137 536.935 193.042 535.681 195.646C535.003 197.146 533.951 198.492 532.605 199.586C531.259 200.68 529.653 201.494 527.904 201.967C525.575 202.468 523.133 202.385 520.855 201.726C518.577 201.068 516.551 199.861 515.008 198.241C513.236 196.351 512.28 193.967 512.308 191.514C512.337 188.8 512.948 186.116 514.108 183.603C516.287 178.305 520.486 172.725 520.266 165.75C520.199 162.206 519.291 158.713 517.6 155.498C515.909 152.283 513.473 149.417 510.449 147.085C507.28 144.616 503.609 142.698 499.632 141.435C495.551 140.235 491.31 139.511 487.016 139.28C482.881 139.051 478.779 138.49 474.76 137.603C470.996 136.74 467.701 134.725 465.462 131.917C463.495 129.068 462.47 125.789 462.503 122.452C462.482 119.183 462.973 115.926 463.963 112.775C465.782 106.56 468.242 100.521 468.182 94.4992C468.142 88.9378 466.22 83.5139 462.663 78.9246C459.633 75.2763 455.856 72.1618 451.527 69.7423C448.368 67.9229 445.367 65.8984 442.549 63.6855C440.215 61.7404 438.351 59.3977 437.071 56.7988C437.071 56.7988 437.071 56.9931 437.191 57.3639C437.35 57.9037 437.564 58.4296 437.831 58.9355C438.807 60.922 440.213 62.7213 441.969 64.2329C444.724 66.5813 447.693 68.7252 450.847 70.6429C454.98 73.0606 458.573 76.1316 461.444 79.7016C464.724 84.1122 466.468 89.2752 466.462 94.5521C466.462 100.22 464.023 106.065 462.103 112.405C461.042 115.701 460.51 119.113 460.524 122.54C460.466 126.214 461.589 129.826 463.763 132.959C466.251 136.131 469.937 138.416 474.16 139.404C478.307 140.342 482.544 140.933 486.816 141.17C490.938 141.388 495.011 142.077 498.932 143.218C502.665 144.415 506.116 146.211 509.109 148.516C511.933 150.68 514.216 153.339 515.813 156.324C517.41 159.309 518.287 162.556 518.387 165.856C518.647 172.248 514.768 177.652 512.508 183.161C511.311 185.862 510.701 188.737 510.709 191.637C510.739 194.404 511.872 197.074 513.908 199.177C515.651 200.938 517.92 202.23 520.455 202.904C522.99 203.579 525.69 203.609 528.244 202.991C531.29 202.047 533.857 200.177 535.487 197.715C537.116 195.254 537.703 192.361 537.141 189.553C536.985 188.803 536.688 188.081 536.261 187.417Z" fill="#263238"/>
<path d="M257.063 59.1283C253.644 69.1229 243.627 76.0803 237.069 84.7681C227.811 97.0229 225.672 112.386 225.472 127.148C225.952 120.208 222.813 113.516 221.273 106.7C218.533 94.594 220.923 82.0213 227.989 71.3696C235.056 60.718 246.305 52.7296 259.602 48.9219" fill="#263238"/>
<path d="M278.919 277.33C285.637 275.671 245.769 289.126 244.929 289.356L280.519 340.565L418.477 366.504L470.462 291.987L365.493 264.352L278.919 277.33Z" fill="#FFBE9D"/>
<path d="M477.958 450.472L562.073 418.546C562.073 418.546 530.083 320.489 521.685 310.089C513.288 299.688 426.474 275.885 426.474 275.885C426.474 275.885 396.483 320.03 345.158 323.068C293.833 326.105 274.399 321.302 264.302 281.959C264.302 281.959 178.328 299.476 171.65 306.169C164.972 312.861 119.665 422.995 119.665 422.995C119.665 422.995 208.818 445.28 212.197 446.763C215.576 448.247 221.435 564.879 221.435 564.879C221.435 564.879 181.627 655.766 180.007 672.118L506.65 671.376L472.94 499.509L477.958 450.472Z" fill="#00638D"/>
<path d="M187.086 362.037C187.623 363.186 188.07 364.366 188.426 365.569C189.225 368.023 190.325 371.272 191.625 375.21C194.284 383.368 197.883 394.634 201.782 407.136C203.781 413.37 205.54 419.32 207.22 424.794C208.02 427.496 208.879 430.092 209.559 432.511C210.239 434.93 210.779 437.226 211.239 439.31C212.159 443.477 212.778 446.867 213.238 449.216C213.531 450.419 213.712 451.642 213.778 452.871C213.631 452.577 213.524 452.269 213.458 451.953C213.278 451.229 213.038 450.346 212.758 449.286C212.178 446.797 211.379 443.477 210.419 439.468C209.899 437.385 209.319 435.125 208.6 432.723C207.88 430.322 207.02 427.761 206.16 425.077C204.461 419.656 202.581 413.705 200.622 407.419C196.723 394.934 193.264 383.615 190.825 375.404L187.986 365.675C187.57 364.487 187.269 363.27 187.086 362.037Z" fill="#263238"/>
<path d="M386.726 515.152C386.442 515.459 386.12 515.737 385.767 515.982L382.848 518.172C380.328 520.079 376.569 522.745 371.851 525.924C347.188 542.511 320.332 556.386 291.875 567.244C286.416 569.328 281.878 570.899 278.818 571.924L275.24 573.071C274.822 573.226 274.386 573.339 273.94 573.407C274.318 573.194 274.72 573.017 275.14 572.877C276.059 572.506 277.139 572.065 278.659 571.535C281.718 570.405 286.116 568.71 291.535 566.555C319.735 555.343 346.51 541.521 371.411 525.324C376.189 522.216 380.028 519.655 382.628 517.854L385.687 515.806C385.996 515.545 386.346 515.325 386.726 515.152Z" fill="#263238"/>
<g opacity="0.2">
<path d="M452.806 476.165C436.91 459.478 414.697 448.389 391.864 440.089C368.691 431.667 343.258 425.716 318.666 429.971C295.972 433.909 276.378 446.058 257.684 458.066C251.565 461.986 245.347 466.029 240.809 471.38C235.89 477.154 233.211 484.147 230.812 491.034C224.414 508.904 225.013 529.687 220.575 548.017L220.755 551.283C225.033 552.431 226.953 550.665 230.892 548.794C254.325 537.545 263.822 508.18 289.694 502.476C294.451 501.648 299.257 501.058 304.09 500.71C316.581 499.25 328.521 495.261 338.979 489.056C343.198 486.548 347.517 483.617 352.595 483.299C357.674 482.981 362.912 485.612 367.591 487.961C381.203 494.734 395.899 499.645 411.178 502.529C413.246 502.769 415.227 503.415 416.976 504.418C418.891 506.024 420.238 508.085 420.855 510.352C426.573 524.884 433.831 539.135 444.728 551.107C455.625 563.079 470.52 572.685 487.555 575.828C484.136 540.6 478.458 503.182 452.806 476.165Z" fill="black"/>
</g>
<g opacity="0.2">
<path d="M293.754 583.331C311.749 588.876 341.86 581.565 358.555 573.407C375.25 565.249 389.745 547.45 393.904 531.027C365.772 547.114 324.505 571.306 293.754 583.331Z" fill="black"/>
</g>
<g opacity="0.2">
<path d="M200.542 404.663C196.643 393.944 193.744 382.502 189.865 371.783H189.425C186.646 384.899 186.687 398.359 189.545 411.461C192.703 424.637 200.625 436.549 212.119 445.4C209.308 431.605 205.441 417.995 200.542 404.663Z" fill="black"/>
</g>
<path d="M185.485 333.007C183.061 329.149 181.194 325.038 179.927 320.77C177.508 313.795 176.528 307.915 176.848 307.862C177.168 307.809 178.707 313.53 181.107 320.452C183.506 327.374 185.825 332.901 185.485 333.007Z" fill="#263238"/>
<path d="M500.571 332.143C500.911 332.143 496.772 357.57 491.333 388.808C485.895 420.045 481.236 445.314 480.896 445.314C480.557 445.314 484.695 419.904 490.134 388.649C495.572 357.394 500.231 332.107 500.571 332.143Z" fill="#263238"/>
<path d="M416.837 284.659C377.449 264.37 304.411 274.629 304.411 274.629C288.536 257.218 267.342 258.154 257.785 259.69C256.389 259.925 255.13 260.583 254.224 261.55C253.319 262.517 252.825 263.733 252.826 264.988L253.326 291.475C223.335 302.353 216.357 336.363 216.357 336.363L202.881 339.7C200.51 340.288 198.426 341.553 196.954 343.297C195.482 345.041 194.705 347.166 194.744 349.341L195.243 374.963C195.281 377.185 196.169 379.329 197.763 381.048C199.357 382.766 201.562 383.958 204.021 384.428L217.317 386.953C233.072 408.638 248.548 420.345 269.301 426.49L269.821 449.305L312.329 448.687L322.186 432.794L370.171 431.682L378.029 448.899L422.196 447.009L422.656 420.186C452.967 398.343 461.204 384.358 461.884 355.133C462.564 325.909 454.946 304.313 416.837 284.659Z" fill="#FF6F19"/>
<path d="M241.328 329.249C239.811 329.846 238.608 330.932 237.964 332.285C237.32 333.638 237.284 335.156 237.862 336.532C238.44 337.908 239.59 339.037 241.077 339.691C242.565 340.345 244.278 340.475 245.87 340.053C247.461 339.631 248.811 338.69 249.646 337.421C250.48 336.152 250.735 334.65 250.361 333.22C249.986 331.791 249.009 330.541 247.629 329.724C246.248 328.908 244.567 328.586 242.928 328.825" fill="#263238"/>
<path d="M265.123 293.17C264.804 291.629 264.597 290.072 264.503 288.508C263.595 281.035 261.34 273.739 257.825 266.894C257.005 265.508 256.29 264.074 255.686 262.604C256.819 263.81 257.773 265.139 258.525 266.559C260.486 269.938 262.041 273.489 263.163 277.154C264.294 280.825 264.997 284.588 265.263 288.385C265.474 289.977 265.427 291.589 265.123 293.17Z" fill="#263238"/>
<g opacity="0.3">
<path d="M317.548 287.875L320.307 292.36C338.279 289.429 356.679 289.16 374.751 291.565L369.472 286.462C352.232 283.855 334.574 284.335 317.548 287.875Z" fill="black"/>
</g>
<path d="M206.779 361.916C206.779 364.583 205.72 366.755 204.32 366.772C202.921 366.79 201.721 364.653 201.661 361.987C201.601 359.321 202.721 357.149 204.12 357.131C205.52 357.113 206.719 359.25 206.779 361.916Z" fill="#263238"/>
<path d="M201.062 380.72C201.852 380.912 202.663 381.03 203.481 381.073C204.57 381.13 205.66 380.98 206.678 380.633C207.695 380.285 208.616 379.749 209.379 379.06C210.432 378.091 211.326 376.998 212.038 375.811C212.771 374.4 213.314 372.919 213.658 371.396C214.658 367.935 215.155 364.374 215.137 360.801C215.145 357.224 214.614 353.661 213.558 350.207C212.675 347.412 210.708 344.98 207.999 343.338C206.142 342.272 203.954 341.747 201.741 341.837C200.182 341.925 199.362 342.278 199.322 342.19C199.282 342.101 199.502 342.066 199.902 341.907C200.475 341.687 201.081 341.538 201.701 341.466C204.032 341.24 206.382 341.706 208.379 342.79C211.333 344.436 213.502 346.98 214.477 349.942C215.618 353.473 216.19 357.129 216.177 360.801C216.203 364.473 215.672 368.132 214.597 371.679C214.204 373.255 213.6 374.784 212.798 376.235C212.027 377.475 211.05 378.606 209.899 379.59C208.959 380.466 207.75 381.08 206.42 381.356C205.446 381.564 204.438 381.624 203.441 381.532C202.813 381.485 202.199 381.348 201.621 381.126C201.221 380.879 201.042 380.755 201.062 380.72Z" fill="#263238"/>
<path d="M410.479 424.195C410.041 424.334 409.593 424.446 409.139 424.531L405.26 425.325C401.881 426.014 396.943 426.862 390.844 427.78C384.746 428.698 377.408 429.546 369.271 430.376C361.133 431.206 352.116 431.647 342.659 431.859C333.202 432.071 324.164 431.859 315.987 431.524C307.809 431.188 300.431 430.552 294.273 429.899C288.115 429.246 283.156 428.61 279.757 428.133L275.759 427.515C275.339 427.451 274.925 427.362 274.519 427.25C274.988 427.236 275.457 427.265 275.919 427.338L279.917 427.798C283.336 428.239 288.315 428.769 294.453 429.334C300.591 429.899 307.949 430.411 316.127 430.764C324.304 431.117 333.282 431.223 342.719 431.029C352.156 430.835 361.133 430.27 369.271 429.616C377.408 428.963 384.706 428.08 390.824 427.233C396.943 426.385 401.881 425.643 405.28 425.061L409.279 424.443C409.668 424.324 410.07 424.241 410.479 424.195Z" fill="#263238"/>
<path d="M303.929 274.436C303.927 275.075 303.826 275.71 303.629 276.325C303.207 278.013 302.625 279.667 301.89 281.27C299.45 286.613 295.51 291.319 290.442 294.946C285.373 298.573 279.343 301.001 272.919 302C270.991 302.304 269.038 302.463 267.08 302.477C266.363 302.512 265.644 302.464 264.941 302.336C264.941 302.159 268 302.248 272.779 301.365C279.011 300.215 284.842 297.768 289.787 294.226C294.732 290.685 298.648 286.152 301.21 281.005C303.21 277.155 303.729 274.401 303.929 274.436Z" fill="#263238"/>
<path d="M251.206 294.812C251.306 294.954 248.847 296.437 245.208 299.174C235.71 306.359 228.236 315.397 223.375 325.573C221.515 329.458 220.676 331.983 220.496 331.93C220.553 331.329 220.694 330.735 220.915 330.164C221.255 328.999 221.855 327.357 222.695 325.361C227.245 314.925 234.831 305.734 244.688 298.715C246.169 297.654 247.717 296.669 249.327 295.766C249.906 295.38 250.537 295.059 251.206 294.812Z" fill="white"/>
<path d="M203.461 340.462C205.155 339.773 206.953 339.303 208.799 339.067C210.559 338.52 212.396 338.193 214.258 338.096C212.711 339.061 210.931 339.695 209.059 339.95C207.261 340.491 205.347 340.666 203.461 340.462Z" fill="white"/>
<path d="M197.082 372.86C196.571 371.568 196.268 370.218 196.182 368.852C195.262 362.314 195.262 355.701 196.182 349.163C196.293 347.799 196.595 346.452 197.082 345.154C197.402 345.154 196.522 351.352 196.522 359.016C196.522 366.68 197.382 372.825 197.082 372.86Z" fill="white"/>
<path d="M254.666 263.611C254.986 263.611 254.286 269.686 254.446 277.138C254.606 284.589 255.485 290.593 255.185 290.646C254.673 289.389 254.357 288.076 254.246 286.744C253.738 283.566 253.458 280.364 253.406 277.155C253.331 273.942 253.492 270.727 253.886 267.531C253.955 266.201 254.217 264.883 254.666 263.611Z" fill="white"/>
<path d="M291.654 266.967C281.262 262.272 269.562 260.311 257.944 261.316C259.583 260.831 261.295 260.563 263.023 260.521C271.367 259.918 279.741 261.321 287.256 264.583C288.843 265.189 290.324 265.992 291.654 266.967Z" fill="white"/>
<path d="M374.889 294.108C374.889 294.249 371.83 293.772 366.891 293.225C354.076 291.776 341.1 291.836 328.303 293.401C323.404 293.984 320.305 294.496 320.305 294.355C320.939 294.09 321.612 293.905 322.305 293.807C323.644 293.49 325.624 293.136 328.083 292.748C334.492 291.796 340.978 291.3 347.477 291.265C353.972 291.24 360.458 291.683 366.871 292.589C369.331 292.942 371.31 293.278 372.67 293.578C373.431 293.675 374.176 293.852 374.889 294.108Z" fill="white"/>
<path d="M387.306 278.284C386.285 278.214 385.275 278.06 384.287 277.825C382.287 277.472 379.548 276.977 376.089 276.448C367.042 275.063 357.895 274.243 348.717 273.993C339.542 273.788 330.361 274.16 321.245 275.106C317.746 275.459 314.907 275.812 312.968 276.077C311.96 276.257 310.937 276.363 309.909 276.395C310.875 276.088 311.873 275.864 312.888 275.724C314.887 275.353 317.646 274.911 321.145 274.452C330.29 273.32 339.526 272.859 348.757 273.075C357.978 273.308 367.161 274.224 376.209 275.812C379.688 276.43 382.467 277.013 384.387 277.49C385.382 277.685 386.358 277.95 387.306 278.284Z" fill="white"/>
<path d="M273.94 418.579C273.266 418.594 272.592 418.523 271.941 418.367C270.165 418.073 268.409 417.689 266.682 417.219C255.181 414.147 244.855 408.344 236.831 400.444C235.628 399.258 234.5 398.014 233.452 396.718C233.022 396.27 232.666 395.77 232.393 395.234C232.533 395.129 234.232 397.124 237.371 400.002C245.571 407.561 255.705 413.271 266.922 416.654C271.221 417.89 273.98 418.42 273.94 418.579Z" fill="white"/>
<path d="M446.968 389.531C446.485 390.403 445.916 391.236 445.269 392.021C444.591 392.992 443.843 393.924 443.029 394.811C442.09 395.853 441.03 397.107 439.79 398.343C438.438 399.733 437.003 401.059 435.492 402.316C433.912 403.728 432.053 405.07 430.133 406.501C421.569 412.557 411.677 416.982 401.082 419.497C398.784 420.051 396.455 420.499 394.104 420.839C392.06 421.176 389.998 421.418 387.926 421.563C386.046 421.775 384.307 421.74 382.807 421.793C381.516 421.867 380.22 421.867 378.928 421.793C377.829 421.792 376.731 421.704 375.649 421.528C376.744 421.416 377.848 421.386 378.948 421.44C379.988 421.44 381.288 421.44 382.787 421.334C384.287 421.228 385.986 421.228 387.846 420.963C389.893 420.785 391.929 420.514 393.944 420.151C396.123 419.833 398.423 419.268 400.822 418.738C406.013 417.41 411.059 415.672 415.897 413.546C420.699 411.366 425.263 408.8 429.533 405.883C431.533 404.488 433.312 403.199 434.892 401.821C436.471 400.444 437.971 399.19 439.251 397.972C440.53 396.753 441.61 395.57 442.569 394.564C443.417 393.718 444.205 392.828 444.929 391.897C445.531 391.059 446.213 390.267 446.968 389.531Z" fill="white"/>
<path d="M137.82 427.549C137.82 427.549 121.605 510.437 119.505 524.528C117.406 538.619 121.725 570.722 134.741 580.363C147.757 590.005 158.734 592.441 167.951 590.958C177.168 589.475 206.16 562.705 217.076 552.004C227.993 541.303 282.837 454.142 282.837 454.142L232.212 434.312L202.601 466.097L209.279 446.002L137.82 427.549Z" fill="#FFBE9D"/>
<path d="M203.54 464.965C202.965 465.866 202.295 466.717 201.54 467.508C200.081 469.273 198.161 471.516 195.862 474.235C193.563 476.955 190.504 480.398 187.105 484C183.465 487.959 179.531 491.699 175.328 495.196C170.963 498.573 166.204 501.533 161.132 504.025C156.574 506.426 152.495 508.598 149.276 510.682C145.815 512.943 142.62 515.504 139.739 518.328C139.739 518.328 139.859 518.063 140.199 517.639C140.687 517.025 141.214 516.435 141.778 515.874C143.857 513.734 146.197 511.803 148.756 510.117C152.552 507.628 156.489 505.312 160.553 503.177C165.542 500.658 170.231 497.7 174.548 494.348C178.713 490.886 182.633 487.2 186.285 483.312C189.724 479.78 192.703 476.46 195.222 473.706L201.22 467.19C201.912 466.385 202.688 465.64 203.54 464.965Z" fill="#EB996E"/>
<path d="M243.609 422.748C243.609 422.748 259.384 411.022 264.363 414.43C269.341 417.838 269.641 420.982 267.562 423.348C265.482 425.714 253.566 439.099 253.566 439.099L262.383 446.463L278.078 441.942L284.816 440.512C284.816 440.512 300.972 440.847 297.533 450.436C297.533 450.436 314.228 445.739 317.247 445.509C321.865 445.173 333.482 444.149 331.822 449.464C331.195 451.122 330.149 452.632 328.763 453.88C327.378 455.128 325.689 456.082 323.825 456.669C323.825 456.669 331.243 458.77 326.784 464.545C324.305 467.921 320.561 470.421 316.207 471.608L289.895 480.914C286.696 482.035 283.145 482.098 279.898 481.09L271.42 478.459L255.085 484.763C255.085 484.763 222.095 476.358 217.356 450.912L221.635 443.037L224.454 438.375C224.454 438.375 220.556 416.655 220.456 413.653C220.456 411.587 215.737 402.193 212.898 396.719C212.615 396.174 212.505 395.571 212.579 394.975C212.653 394.378 212.909 393.811 213.319 393.333C213.73 392.854 214.279 392.483 214.909 392.259C215.538 392.034 216.226 391.965 216.897 392.057C221.331 392.855 225.425 394.733 228.713 397.479C240.05 405.955 241.449 414.642 241.449 414.642L243.849 423.171" fill="#FFBE9D"/>
<path d="M232.532 432.546C232.532 432.546 233.631 431.752 235.511 430.251C237.39 428.75 239.93 426.366 243.189 423.488C244.974 421.937 246.849 420.469 248.807 419.091C251.007 417.409 253.439 415.979 256.045 414.835C257.502 414.206 259.085 413.834 260.703 413.74C261.556 413.699 262.411 413.765 263.243 413.935C263.685 414 264.116 414.119 264.522 414.288C264.909 414.467 265.283 414.667 265.642 414.888C266.42 415.334 267.098 415.902 267.641 416.566C267.865 416.936 268.021 417.335 268.101 417.749L268.461 418.808C268.809 419.607 268.893 420.477 268.701 421.316C268.459 422.072 268.165 422.815 267.821 423.541C266.352 426.302 264.484 428.884 262.263 431.222C260.266 433.422 258.116 435.51 255.825 437.473C252.015 440.95 247.507 443.77 242.529 445.79C240.83 446.452 238.99 446.782 237.133 446.757C235.277 446.733 233.448 446.355 231.772 445.649C230.872 445.258 230.064 444.718 229.393 444.059C229.135 443.849 228.925 443.597 228.773 443.318C230.518 444.829 232.759 445.813 235.176 446.131C237.593 446.448 240.062 446.081 242.229 445.084C246.976 442.97 251.267 440.137 254.905 436.714C257.133 434.758 259.229 432.688 261.183 430.516C263.337 428.25 265.145 425.745 266.562 423.064C266.901 422.377 267.182 421.669 267.401 420.945C267.529 420.292 267.453 419.62 267.181 419.002L266.822 417.925C266.764 417.605 266.649 417.295 266.482 417.007C266.05 416.453 265.5 415.979 264.862 415.612C264.559 415.413 264.238 415.236 263.903 415.082C263.573 414.944 263.223 414.849 262.863 414.8C262.137 414.644 261.389 414.585 260.643 414.623C259.16 414.704 257.708 415.033 256.365 415.594C253.824 416.683 251.446 418.048 249.287 419.656C247.187 421.139 245.288 422.516 243.629 423.911C240.329 426.701 237.63 429.032 235.631 430.445C234.631 431.169 233.811 431.681 233.252 432.017C232.692 432.352 232.532 432.546 232.532 432.546Z" fill="#EB996E"/>
<path d="M243.928 423.225C239.59 423.908 235.15 423.908 230.812 423.225C235.152 422.566 239.588 422.566 243.928 423.225Z" fill="#EB996E"/>
<path d="M251.946 450.682C252.316 450.474 252.712 450.302 253.125 450.17L256.564 448.881L269.3 444.343C272.221 443.246 275.204 442.285 278.238 441.465C281.78 440.466 285.531 440.183 289.214 440.635C291.223 440.902 293.156 441.501 294.913 442.401C295.906 442.842 296.772 443.477 297.447 444.257C298.123 445.037 298.589 445.942 298.812 446.903C298.868 447.925 298.639 448.942 298.143 449.866C297.648 450.79 296.902 451.592 295.972 452.201C294.138 453.354 292.116 454.253 289.974 454.867L266.741 462.884C263.374 464.142 259.897 465.158 256.344 465.921C253.187 466.565 249.905 466.565 246.747 465.921C245.422 465.657 244.173 465.153 243.079 464.442C241.985 463.731 241.069 462.828 240.389 461.789C239.448 460.219 238.883 458.493 238.729 456.721C238.604 455.624 238.571 454.521 238.629 453.419C238.631 453.034 238.671 452.65 238.749 452.272C238.869 452.272 238.749 453.861 239.169 456.686C239.392 458.382 239.997 460.021 240.949 461.507C241.608 462.457 242.48 463.277 243.511 463.918C244.543 464.559 245.712 465.006 246.947 465.233C249.991 465.773 253.133 465.707 256.144 465.038C259.637 464.249 263.054 463.216 266.361 461.948L289.554 453.861C291.575 453.273 293.488 452.429 295.233 451.353C296.013 450.846 296.642 450.18 297.067 449.411C297.491 448.642 297.699 447.794 297.672 446.939C297.47 446.126 297.063 445.364 296.482 444.71C295.9 444.056 295.159 443.526 294.313 443.16C292.692 442.275 290.893 441.675 289.015 441.394C285.486 440.944 281.889 441.186 278.478 442.1C275.219 442.895 272.279 443.955 269.56 444.855L256.704 449.093L253.185 450.206C252.8 450.416 252.382 450.577 251.946 450.682Z" fill="#EB996E"/>
<path d="M297.891 450.576C298.244 450.382 298.62 450.222 299.011 450.099L302.31 448.934C306.357 447.499 310.529 446.359 314.786 445.526C317.748 444.96 320.775 444.705 323.804 444.767C325.517 444.789 327.224 444.955 328.902 445.261C329.857 445.457 330.718 445.915 331.361 446.568C332.004 447.273 332.35 448.153 332.341 449.058C332.322 449.949 332.081 450.825 331.635 451.625C331.189 452.424 330.55 453.127 329.762 453.684C328.234 454.797 326.594 455.784 324.863 456.633C321.324 458.472 317.635 460.078 313.827 461.436C306.455 463.968 298.933 466.143 291.293 467.952L281.296 470.477C278.423 471.266 275.507 471.926 272.559 472.455C270.069 472.894 267.498 472.828 265.041 472.261C263.191 471.78 261.515 470.879 260.183 469.647C259.35 468.874 258.74 467.935 258.403 466.91C258.276 466.556 258.216 466.186 258.223 465.815C258.629 467.145 259.413 468.361 260.503 469.347C261.82 470.476 263.446 471.285 265.221 471.696C267.591 472.167 270.049 472.167 272.419 471.696C275.078 471.254 277.937 470.424 281.036 469.612L290.934 467.016C297.891 465.25 305.589 463.237 313.307 460.447C317.068 459.107 320.717 457.532 324.224 455.732C325.893 454.915 327.479 453.969 328.962 452.907C329.638 452.445 330.19 451.858 330.581 451.186C330.971 450.515 331.19 449.776 331.222 449.022C331.246 448.328 330.99 447.648 330.499 447.104C330.008 446.561 329.315 446.189 328.542 446.056C326.95 445.761 325.33 445.595 323.704 445.561C320.735 445.47 317.764 445.672 314.846 446.162C310.613 446.938 306.444 447.971 302.37 449.252L299.011 450.241C298.654 450.391 298.278 450.504 297.891 450.576Z" fill="#EB996E"/>
<path d="M416.816 463.379C416.816 463.379 474.539 592.054 507.129 595.427C541.859 598.958 575.549 571.835 569.231 524.9C566.812 506.906 552.596 422.129 552.596 422.129L480.317 449.587L499.512 484.745L471.04 445.473L416.816 463.379Z" fill="#FFBE9D"/>
<path d="M547.598 550.223C547.478 550.223 547.598 548.58 547.378 545.631C547.205 541.446 546.453 537.295 545.138 533.271C543.215 527.334 539.406 522.009 534.162 517.926C531.282 515.63 527.563 513.794 524.364 511.145C521.006 508.51 517.853 505.679 514.927 502.669C504.872 492.031 495.711 480.759 487.515 468.942C484.316 464.439 481.777 460.784 480.038 458.241L478.038 455.292C477.782 454.963 477.574 454.607 477.418 454.232C477.725 454.527 478 454.846 478.238 455.186L480.418 458.011L488.215 468.518C496.589 480.178 505.806 491.35 515.807 501.963C518.714 504.926 521.826 507.727 525.124 510.35C528.243 512.964 531.882 514.765 534.901 517.184C540.248 521.426 544.089 526.947 545.958 533.076C547.212 537.151 547.838 541.356 547.817 545.578C547.817 547.062 547.817 548.227 547.718 549.004C547.727 549.413 547.687 549.821 547.598 550.223Z" fill="#EB996E"/>
<path d="M449.467 396.316C452.566 400.855 459.564 414.84 459.564 414.84C459.564 414.84 478.338 438.608 477.438 454.288C477.259 457.343 466.422 463.559 466.422 463.559C466.422 463.559 432.152 486.267 423.914 487.786C415.677 489.305 403.361 482.33 401.921 482.029C400.481 481.729 354.275 455.683 354.055 452.01C353.828 450.394 354.19 448.755 355.089 447.333C355.988 445.91 357.377 444.778 359.054 444.1L411.518 441.468L436.471 424.216L435.351 411.414" fill="#FFBE9D"/>
<path d="M446.828 441.838C445.957 442.534 445.013 443.154 444.009 443.692L436.011 448.442C432.612 450.42 428.733 452.751 424.015 455.346C422.669 455.818 421.218 456.005 419.776 455.894C418.377 455.894 416.957 455.894 415.517 456.035C412.618 456.176 409.639 456.388 406.56 456.618C400.774 457.132 394.96 457.362 389.145 457.306C386.537 457.313 383.958 456.819 381.588 455.859C380.512 455.42 379.587 454.739 378.905 453.883C378.224 453.027 377.811 452.027 377.709 450.985C377.651 449.285 378.29 447.623 379.508 446.305C380.427 445.357 381.548 444.577 382.807 444.01C383.581 443.65 384.391 443.355 385.226 443.127C385.513 443.027 385.818 442.973 386.126 442.968C386.126 443.056 384.947 443.356 383.027 444.345C381.87 444.948 380.847 445.732 380.008 446.659C378.953 447.882 378.422 449.396 378.508 450.932C378.635 451.836 379.023 452.697 379.636 453.43C380.249 454.163 381.066 454.744 382.007 455.117C384.266 455.977 386.706 456.404 389.165 456.371C394.941 456.382 400.714 456.128 406.46 455.611C409.539 455.382 412.458 455.17 415.457 455.046C416.917 455.046 418.357 454.94 419.756 454.923C421.041 455.045 422.34 454.906 423.555 454.516L435.552 447.842L443.669 443.356C444.677 442.781 445.733 442.273 446.828 441.838Z" fill="#EB996E"/>
<path d="M448.587 464.154C448.259 464.288 447.907 464.371 447.547 464.402L444.548 464.967L433.472 466.732L416.997 469.328L407.259 470.847C405.56 471.076 403.88 471.412 402.061 471.571C400.151 471.779 398.216 471.438 396.543 470.6C394.883 469.752 393.523 468.834 392.064 467.863C390.604 466.891 389.185 466.097 387.745 465.337C384.975 463.814 382.066 462.497 379.048 461.4C376.169 460.34 373.25 459.722 370.63 458.733C368.195 457.81 365.957 456.526 364.012 454.937C362.213 453.506 360.693 452.182 359.394 450.928C358.203 449.87 357.491 448.463 357.394 446.973C357.37 446.501 357.453 446.03 357.638 445.587C357.824 445.144 358.108 444.739 358.474 444.395C358.726 444.156 359.053 443.99 359.414 443.918C359.414 443.918 359.094 444.077 358.654 444.536C358.048 445.23 357.755 446.099 357.834 446.973C357.834 449.357 361.173 451.617 364.612 454.389C366.524 455.88 368.707 457.074 371.07 457.921C373.609 458.857 376.549 459.44 379.508 460.499C382.601 461.589 385.578 462.918 388.405 464.472C389.885 465.267 391.344 466.114 392.804 467.015C394.263 467.915 395.683 468.922 397.182 469.699C400.162 471.324 403.8 470.246 407.179 469.84L416.917 468.392L433.432 465.991L444.568 464.472L447.627 464.101C447.948 464.081 448.271 464.098 448.587 464.154Z" fill="#EB996E"/>
<path d="M434.272 478.598C432.756 479.184 431.165 479.605 429.533 479.851C425.656 480.638 421.73 481.227 417.777 481.617C413.829 482.035 409.855 482.224 405.88 482.182C404.177 482.315 402.478 481.894 401.102 480.999C402.664 481.34 404.271 481.5 405.88 481.476C408.879 481.352 413.078 481.07 417.657 480.611C422.235 480.152 426.374 479.604 429.373 479.18C430.98 478.841 432.621 478.645 434.272 478.598Z" fill="#EB996E"/>
<path d="M469.3 458.595C469.3 458.595 469.3 458.842 469.18 459.301C469 459.957 468.731 460.591 468.38 461.19C466.995 463.385 464.973 465.214 462.522 466.488C460.863 467.389 459.092 468.118 457.243 468.66C456.284 468.96 455.424 469.331 455.244 470.09C455.064 470.85 454.924 472.015 454.504 473.004C453.703 475.167 452.159 477.055 450.086 478.407C447.823 479.708 445.287 480.591 442.628 481.003C440.098 481.386 437.628 482.032 435.27 482.928C433.171 483.952 431.051 485.17 429.072 486.195C428.072 486.724 427.072 487.254 426.073 487.731C425.047 488.152 423.942 488.404 422.814 488.472C420.845 488.595 418.867 488.404 416.975 487.907C414.289 487.216 411.68 486.312 409.178 485.206C408.234 484.86 407.33 484.434 406.479 483.934C407.471 484.138 408.436 484.434 409.358 484.817C411.901 485.758 414.513 486.549 417.175 487.183C418.983 487.591 420.855 487.729 422.714 487.59C423.719 487.505 424.7 487.266 425.613 486.883C426.513 486.477 427.492 485.894 428.472 485.365C430.471 484.287 432.471 483.122 434.75 481.974C437.191 481.036 439.747 480.355 442.368 479.944C444.866 479.566 447.252 478.749 449.386 477.542C451.242 476.323 452.636 474.636 453.385 472.704C453.784 471.768 453.784 470.938 454.184 469.772C454.432 469.279 454.809 468.845 455.286 468.506C455.763 468.168 456.324 467.936 456.924 467.83C458.726 467.331 460.462 466.662 462.102 465.835C464.488 464.665 466.508 462.99 467.98 460.961C468.94 459.513 469.18 458.559 469.3 458.595Z" fill="#EB996E"/>
<path d="M442.708 419.551C442.928 419.78 436.13 424.848 427.533 430.923C418.935 436.997 411.798 441.694 411.538 441.518C416.344 437.465 421.418 433.668 426.733 430.146C431.812 426.333 437.146 422.795 442.708 419.551Z" fill="#EB996E"/>
</svg>
