<svg width="27" height="22" viewBox="0 0 27 22" fill="none" xmlns="http://www.w3.org/2000/svg">
<path fill-rule="evenodd" clip-rule="evenodd" d="M17.4044 0.0276586C16.3523 0.115978 15.5286 0.259413 13.5188 0.70424C10.8037 1.30516 10.2459 1.38724 8.85529 1.39034C7.77889 1.39268 7.56195 1.37033 6.66112 1.16412C6.19763 1.058 6.1316 1.0526 5.9454 1.10537C5.69767 1.17558 5.49717 1.3377 5.41658 1.53298C5.32829 1.74689 5.32829 9.0512 5.41658 9.26512C5.50964 9.49054 5.71875 9.63451 6.16173 9.77821C7.63043 10.2545 9.25633 10.2955 11.3916 9.91031C11.6682 9.86042 12.6029 9.66311 13.4687 9.4719C16.1827 8.87253 16.7375 8.79107 18.1259 8.78797C19.2023 8.78563 19.4193 8.80798 20.3201 9.01419C20.7836 9.12031 20.8496 9.12571 21.0358 9.07294C21.2835 9.00273 21.484 8.84061 21.5646 8.64533C21.6529 8.43142 21.6529 1.12711 21.5646 0.913195C21.4716 0.687771 21.2625 0.543805 20.8195 0.400104C19.8297 0.0791448 18.5081 -0.0649989 17.4044 0.0276586ZM14.3281 3.10718C14.9475 3.41707 15.4033 4.06257 15.5011 4.7682C15.6328 5.7185 15.1537 6.658 14.3264 7.07197C14.0046 7.23298 13.9879 7.23626 13.4906 7.23626C12.9933 7.23626 12.9766 7.23298 12.6548 7.07197C11.3622 6.42523 11.0559 4.62742 12.056 3.55688C12.4983 3.08345 12.9106 2.91186 13.5602 2.93085C13.9679 2.94281 14.0263 2.95622 14.3281 3.10718ZM8.28081 12.1751C7.5103 12.2911 6.76594 12.5837 6.1131 13.0272C5.87758 13.1872 5.16024 13.7865 4.51895 14.3588L3.35303 15.3995L1.93563 15.4129L0.518229 15.4262L0.342525 15.544C-0.0142638 15.7832 7.94348e-05 15.6497 7.94348e-05 18.7276V21.4535L0.123221 21.6419C0.20071 21.7604 0.314232 21.8614 0.429327 21.9143C0.607044 21.996 0.857308 21.9985 9.1523 21.9994C18.6879 22.0005 18.046 22.0215 18.7207 21.6865C19.0369 21.5295 19.472 21.1628 22.7657 18.2776C24.7956 16.4994 26.5127 14.9811 26.5815 14.9034C26.6504 14.8257 26.7684 14.6327 26.8439 14.4744C26.9681 14.2139 26.9811 14.1469 26.9811 13.7661C26.9811 13.3873 26.9677 13.3169 26.8457 13.0578C26.5291 12.3851 25.9322 12.0504 25.2703 12.1744C25.1231 12.202 24.9115 12.2776 24.8002 12.3423C24.6888 12.4071 23.5641 13.3666 22.3007 14.4744C21.0373 15.5823 19.8841 16.5625 19.7381 16.6527C19.4085 16.8561 19.0338 16.9846 18.6069 17.0406C18.1912 17.0951 12.8283 17.0981 12.5975 17.044C12.2333 16.9585 12.0057 16.6516 12.0045 16.2445C12.0037 15.9512 12.1 15.7482 12.3295 15.5602L12.4928 15.4262L14.6425 15.4041L16.7922 15.382L17.0648 15.2545C17.3947 15.1002 17.6919 14.7939 17.8552 14.4398C17.9558 14.2216 17.972 14.1285 17.9724 13.7661C17.9728 13.3856 17.9598 13.3175 17.8351 13.0511C17.6661 12.69 17.4091 12.4223 17.0829 12.2675L16.8359 12.1502L12.6816 12.1441C10.3967 12.1408 8.41638 12.1547 8.28081 12.1751Z" fill="#0038FF"/>
</svg>
