<svg width="595" height="624" viewBox="0 0 595 624" fill="none" xmlns="http://www.w3.org/2000/svg">
<path d="M479.044 297.701C490.041 303.67 499.688 311.662 507.427 321.213C515.166 330.765 520.843 341.686 524.13 353.346C535.863 393.41 571.743 497.744 571.743 497.744C571.743 497.744 592.245 520.767 594.432 537.808C596.618 554.85 592.245 596.096 585.638 603.794C583.724 606.027 581.267 607.78 578.481 608.9C575.695 610.019 572.665 610.471 569.654 610.216L483.344 602.403L449.335 385.203L479.044 297.701Z" fill="#00638D"/>
<path d="M193.662 293.924C193.662 293.924 131.935 312.472 116.559 328.47L167.086 552.811L166.187 623.619H458.858C458.858 620.118 461.482 388.567 461.482 388.567L479.045 297.703L375.099 280.245L354.597 264.85L238.894 270.46L221.306 287.223L193.662 293.924Z" fill="#00638D"/>
<g opacity="0.3">
<path d="M217.198 488.562C216.299 486.661 214.987 484.597 212.85 484.18C209.327 483.484 206.971 487.449 205.781 490.695C196.449 516.128 183.519 540.224 167.351 562.314L166.598 596.768C183.602 583.065 200.461 568.389 211.344 549.818C222.227 531.246 226.283 507.945 217.198 488.562Z" fill="black"/>
</g>
<path d="M116.557 328.469C116.557 328.469 96.2242 354.923 87.7949 372.196C79.3655 389.469 9.37995 534.494 5.20171 549.495C1.02347 564.495 -9.8594 611.654 22.0847 622.598H87.8434L153.821 495.241L157.197 347.434L116.557 328.469Z" fill="#00638D"/>
<path d="M91.9992 530.596C91.9992 530.596 90.5417 529.367 87.5052 527.721C83.1711 525.503 78.5237 523.894 73.7073 522.945C70.3958 522.253 67.0337 521.803 63.6504 521.6C59.7522 521.32 55.8321 521.586 52.0145 522.389C43.3729 524.507 35.6377 529.142 29.8844 535.651C24.0344 542.086 19.7533 549.68 17.3496 557.885C15.3656 564.592 14.048 571.462 13.4143 578.404C12.7827 584.34 12.5641 589.186 12.3455 592.501C12.3455 594.078 12.1511 595.353 12.1026 596.35C12.1039 596.805 12.0385 597.257 11.9082 597.695C11.8769 597.247 11.8769 596.798 11.9082 596.35C11.9082 595.33 11.9082 594.031 11.9082 592.501C11.9082 589.139 12.0539 584.317 12.5641 578.335C13.0777 571.279 14.3227 564.289 16.2808 557.468C18.6675 549.077 23.0106 541.31 28.9856 534.746C34.9185 528.056 42.9078 523.319 51.8201 521.206C55.7165 520.432 59.7126 520.221 63.6746 520.58C67.1044 520.821 70.5082 521.325 73.853 522.087C78.7234 523.121 83.3951 524.873 87.6995 527.281C88.8589 527.964 89.9559 528.74 90.979 529.599C91.3551 529.896 91.697 530.23 91.9992 530.596Z" fill="#263238"/>
<path d="M60.8291 505.229C61.5479 505.029 62.2911 504.919 63.0397 504.904C65.0691 504.753 67.1076 504.753 69.137 504.904C72.1587 505.073 75.1586 505.5 78.1007 506.179C85.3396 507.849 92.1328 510.945 98.0446 515.268C100.453 517.017 102.689 518.973 104.725 521.111C106.105 522.56 107.364 524.111 108.49 525.748C108.949 526.315 109.325 526.939 109.608 527.602C109.413 527.742 107.616 525.284 104.069 521.76C101.974 519.756 99.7244 517.903 97.3401 516.218C94.404 514.178 91.2822 512.394 88.012 510.886C84.7232 509.422 81.31 508.227 77.8093 507.315C74.938 506.609 72.0144 506.113 69.0641 505.831C64.0113 505.205 60.8291 505.461 60.8291 505.229Z" fill="#263238"/>
<path d="M120.25 498.254C119.232 498.293 118.214 498.223 117.213 498.045C115.27 497.813 112.476 497.535 108.978 497.28C90.8108 495.987 72.5534 498.074 55.2197 503.424C51.8916 504.444 49.2195 505.348 47.3976 506.021C46.4679 506.413 45.4995 506.716 44.5068 506.925C45.343 506.371 46.2489 505.919 47.2032 505.58C48.9765 504.769 51.6244 503.749 54.9282 502.612C72.2748 496.75 90.7703 494.643 109.075 496.445C112.549 496.793 115.367 497.187 117.286 497.581C118.294 497.715 119.286 497.94 120.25 498.254Z" fill="#263238"/>
<path d="M307.516 374.328C307.249 374.107 307.02 373.849 306.836 373.563L305.038 371.244L298.43 362.526C292.77 354.875 284.851 344.21 275.547 331.69L276.568 331.551C273.021 341.474 269.11 352.418 265.005 364.01L264.737 364.729L264.057 364.312L262.697 363.477C257.404 360.243 252.591 356.344 248.389 351.884C244.505 347.732 241.078 343.211 238.162 338.39C233.308 330.233 229.531 321.535 226.915 312.492C225.158 306.385 223.739 300.194 222.663 293.944C222.275 291.857 221.983 290.165 221.74 288.89C221.672 288.457 221.566 288.031 221.424 287.615C221.424 287.336 221.254 287.197 221.279 287.174C221.303 287.151 222.275 289.493 223.149 293.875C224.024 298.257 225.408 304.563 227.789 312.191C230.479 321.149 234.305 329.761 239.182 337.834C242.09 342.564 245.483 347.006 249.312 351.096C253.442 355.449 258.164 359.254 263.353 362.41L264.689 363.245L263.766 363.57C267.92 351.977 271.855 341.103 275.45 331.11L275.815 330.09L276.47 330.971C285.604 343.607 293.475 354.365 298.989 362.063C301.637 365.819 303.848 368.81 305.329 370.989L306.957 373.308C307.18 373.628 307.368 373.97 307.516 374.328Z" fill="#263238"/>
<g opacity="0.3">
<path d="M383.676 481.422C381.056 507.583 386.996 533.876 400.68 556.682C414.284 579.264 434.252 599.412 459.103 610.216C459.904 587.193 458.738 560.067 459.54 537.044L383.676 481.422Z" fill="black"/>
</g>
<path d="M380.927 451.118C380.927 451.118 370.287 453.923 378.255 474.72C386.223 495.518 388.895 494.242 394.215 513.672C399.535 533.101 405.73 550.768 415.009 561.851C424.289 572.933 458.856 595.238 458.856 595.238L489.853 567.415C489.853 567.415 484.752 546.548 485.966 532.498C487.181 518.448 490.29 483.809 489.853 477.804C489.416 471.799 482.76 457.517 482.76 457.517V447.686L466.824 400.898C466.824 400.898 457.958 397.096 454.872 410.613L449.553 396.261C449.553 396.261 441.147 394.986 438.937 411.471C436.726 427.956 440.71 450.77 440.71 450.77L436.265 479.497L429.633 498.949L423.876 499.784C423.876 499.784 415.203 497.465 410.467 481.954C405.73 466.443 392.879 447.733 380.927 451.118Z" fill="#FFBE9D"/>
<path d="M479.552 524.707C479.552 524.707 479.552 524.36 479.406 523.664C479.261 522.968 479.261 521.832 479.188 520.557C479.018 517.729 478.799 513.81 478.532 508.965C478.046 498.879 477.39 484.829 476.613 468.437L476.734 468.784C475.941 467.999 474.937 467.437 473.832 467.159C472.727 466.881 471.563 466.898 470.467 467.208C469.278 467.483 468.159 467.982 467.175 468.674C466.191 469.367 465.361 470.24 464.734 471.242C462.013 475.392 461.867 480.818 461.017 486.034C459.341 497.882 457.738 509.22 456.28 519.444C455.551 524.591 454.774 529.46 453.73 533.982C452.746 538.174 451.455 542.296 449.867 546.316C448.507 550.003 447.292 553.272 446.539 556.355C445.867 558.894 445.533 561.504 445.543 564.122C445.629 566.375 446.038 568.606 446.758 570.753C446.466 570.233 446.223 569.69 446.029 569.13C445.453 567.523 445.125 565.844 445.057 564.146C444.942 561.457 445.212 558.766 445.859 556.147C446.711 552.705 447.773 549.314 449.041 545.991C450.543 541.986 451.76 537.888 452.685 533.727C453.681 529.252 454.434 524.452 455.114 519.259C456.523 508.965 458.102 497.696 459.754 485.826C460.143 483.206 460.434 480.586 460.92 477.989C461.318 475.364 462.242 472.838 463.641 470.546C464.364 469.421 465.314 468.444 466.435 467.672C467.557 466.9 468.828 466.348 470.175 466.049C471.485 465.673 472.878 465.656 474.197 466C475.516 466.345 476.706 467.036 477.633 467.996L477.754 468.158V468.344C478.362 484.736 478.872 498.786 479.236 508.895C479.236 513.787 479.455 517.705 479.552 520.488C479.552 521.763 479.552 522.806 479.552 523.594C479.593 523.964 479.593 524.337 479.552 524.707Z" fill="#EB996E"/>
<path d="M462.547 471.379C461.995 470.555 461.554 469.667 461.235 468.736C460.221 466.265 459.353 463.742 458.636 461.178C457.594 457.372 456.855 453.497 456.426 449.585C456.126 447.278 456.077 444.947 456.28 442.63C456.505 440.039 457.425 437.548 458.952 435.396C460.314 433.466 462.316 432.029 464.636 431.315L465.098 431.199L465.341 431.593C469.835 439.152 473.746 445.829 476.467 450.628L479.649 456.309C480.085 456.975 480.427 457.692 480.669 458.442C480.126 457.853 479.653 457.207 479.26 456.518L475.762 451.023C472.847 446.386 468.79 439.731 464.272 432.196L464.976 432.474C462.944 433.123 461.193 434.395 459.997 436.091C458.598 438.08 457.761 440.38 457.567 442.769C457.324 445.035 457.324 447.319 457.567 449.585C457.933 453.486 458.574 457.359 459.486 461.178C460.264 464.424 461.114 467.021 461.673 468.806C462.053 469.634 462.346 470.496 462.547 471.379Z" fill="#EB996E"/>
<path d="M455.117 475.182C454.9 474.293 454.802 473.382 454.825 472.469C454.825 470.475 454.631 468.018 454.509 465.119C454.315 458.906 454.096 450.327 453.975 440.844C453.612 432.737 453.742 424.616 454.364 416.523C454.668 414.066 455.221 411.644 456.015 409.289C456.251 408.401 456.637 407.555 457.157 406.785C456.265 410.013 455.624 413.298 455.238 416.616C454.631 422.76 455.238 431.338 455.238 440.821C455.238 450.304 455.432 458.883 455.408 465.096C455.408 468.018 455.408 470.475 455.408 472.469C455.415 473.381 455.318 474.291 455.117 475.182Z" fill="#EB996E"/>
<path d="M428.905 553.11C428.735 552.971 430.678 550.792 433.059 546.827C434.455 544.514 435.665 542.104 436.678 539.616C437.871 536.556 438.797 533.408 439.448 530.203C440.015 526.985 440.3 523.728 440.298 520.465C440.261 517.801 440.017 515.143 439.569 512.513C438.768 507.991 437.747 505.302 437.966 505.232C438.349 505.799 438.643 506.416 438.84 507.064C439.526 508.781 440.062 510.549 440.444 512.35C441.038 515.013 441.38 517.721 441.464 520.442C441.677 527.149 440.411 533.824 437.747 540.034C436.674 542.552 435.365 544.973 433.836 547.267C432.824 548.823 431.678 550.297 430.411 551.673C429.512 552.646 428.978 553.156 428.905 553.11Z" fill="#EB996E"/>
<path d="M483.32 538.617L510.211 547.52C510.211 547.52 535.912 534.838 553.621 547.52C571.33 560.203 586.707 593.613 581.848 607.13C581.848 607.13 569.702 621.551 560.325 623.661C550.949 625.771 514.875 617.401 499.838 614.387C484.801 611.373 458.857 595.282 458.857 595.282L483.32 538.617Z" fill="#FFBE9D"/>
<path d="M486.622 576.39C486.433 575.63 486.336 574.852 486.331 574.072C486.331 572.333 486.112 570.269 485.967 567.858C485.675 562.618 485.311 555.384 485.189 547.362C485.068 539.34 485.311 532.083 485.796 526.843C486.039 524.223 486.355 522.206 486.622 520.653C486.682 519.857 486.87 519.075 487.181 518.334C487.375 518.334 486.962 521.58 486.695 526.82C486.428 532.06 486.331 539.27 486.452 547.269C486.574 555.268 486.744 562.177 486.841 567.742C486.841 570.362 486.841 572.495 486.841 573.956C486.906 574.773 486.832 575.595 486.622 576.39Z" fill="#EB996E"/>
<path d="M575.312 546.452C572.525 543.689 569.538 541.117 566.373 538.754C558.595 533.2 549.269 529.965 539.569 529.458C529.869 528.951 520.229 531.193 511.861 535.903C508.466 537.922 505.22 540.161 502.145 542.603C502.786 541.752 503.528 540.974 504.355 540.285C506.541 538.346 508.926 536.621 511.473 535.137C519.921 530.115 529.788 527.702 539.726 528.229C549.665 528.756 559.191 532.197 567.004 538.082C569.367 539.816 571.533 541.782 573.466 543.948C574.182 544.711 574.802 545.551 575.312 546.452Z" fill="#263238"/>
<path d="M571.865 525.056C568.391 522.675 564.631 520.698 560.666 519.167C550.919 515.865 540.333 515.565 530.398 518.309C524.933 519.773 519.672 521.859 514.73 524.523C510.706 526.73 506.908 529.291 503.385 532.174C500.373 534.632 498.065 536.811 496.486 538.272C495.711 539.117 494.858 539.893 493.936 540.591C494.567 539.655 495.3 538.784 496.122 537.994C498.22 535.735 500.45 533.59 502.802 531.571C506.293 528.562 510.094 525.898 514.147 523.619C519.139 520.834 524.487 518.676 530.058 517.197C540.236 514.359 551.11 514.79 561.006 518.425C563.962 519.552 566.747 521.049 569.29 522.877C570.188 523.503 570.796 524.106 571.257 524.477C571.719 524.848 571.865 525.033 571.865 525.056Z" fill="#263238"/>
<path d="M572.081 506.506C572.081 506.738 567.223 505.37 559.498 504.373C554.933 503.789 550.33 503.51 545.724 503.539C540.082 503.598 534.453 504.079 528.89 504.976C523.337 505.95 517.872 507.33 512.541 509.103C508.196 510.576 503.967 512.342 499.885 514.389C492.913 517.867 488.978 520.696 488.832 520.487C489.657 519.723 490.561 519.039 491.528 518.447C492.587 517.652 493.698 516.924 494.856 516.267C496.192 515.456 497.699 514.505 499.448 513.624C503.531 511.469 507.778 509.609 512.152 508.06C517.521 506.19 523.047 504.763 528.671 503.794C534.289 502.886 539.977 502.429 545.676 502.426C550.338 502.448 554.991 502.812 559.595 503.515C561.563 503.747 563.312 504.188 564.842 504.489C566.171 504.746 567.485 505.071 568.777 505.463C569.908 505.719 571.014 506.068 572.081 506.506Z" fill="#263238"/>
<path d="M366.013 279.473C367.02 281.631 367.644 283.935 367.859 286.289C368.584 292.939 368.24 299.655 366.839 306.205C365.987 310.907 364.827 315.553 363.365 320.117C361.45 325.427 359.094 330.582 356.32 335.535C350.515 346.2 343.227 357.816 334.773 370.313L333.802 371.773V370.035C333.802 361.827 333.802 353.225 333.802 344.299L334.749 344.739L311.939 362.105L312.133 361.827C306.722 378.751 303.396 396.219 302.222 413.878C299.987 442.095 301.785 469.082 303.169 493.566C304.554 518.05 305.161 540.145 305.963 558.694C306.765 577.242 307.42 592.22 308.004 602.583C308.344 607.731 308.587 611.718 308.757 614.501C308.757 615.822 308.927 616.819 308.975 617.608C309.024 618.396 308.975 618.674 308.975 618.674C308.975 618.674 308.975 618.326 308.805 617.631C308.635 616.935 308.611 615.845 308.465 614.524C308.198 611.811 307.858 607.8 307.493 602.607C306.765 592.266 305.914 577.265 305.064 558.717C304.214 540.169 303.169 518.119 302.003 493.612C300.837 469.105 298.724 442.095 300.959 413.785C302.187 396.021 305.603 378.457 311.137 361.456V361.294H311.283L334.02 343.882L334.968 343.14V344.299C334.968 353.225 334.968 361.827 334.968 370.035L333.972 369.733C350.66 345.041 364.24 323.571 366.329 306.205C367.772 299.717 368.214 293.062 367.641 286.451C367.442 284.715 367.109 282.994 366.645 281.304C366.159 280.052 366.013 279.473 366.013 279.473Z" fill="#263238"/>
<path d="M322.433 578.547H321.655C319.887 578.655 318.231 579.416 317.04 580.668C315.848 581.921 315.213 583.566 315.27 585.257C315.327 586.948 316.071 588.552 317.344 589.729C318.617 590.906 320.32 591.564 322.093 591.564C323.865 591.564 325.568 590.906 326.842 589.729C328.115 588.552 328.858 586.948 328.915 585.257C328.972 583.566 328.338 581.921 327.146 580.668C325.954 579.416 324.299 578.655 322.53 578.547H322.433Z" fill="white"/>
<path d="M322.432 489.191H321.655C319.892 489.3 318.243 490.058 317.056 491.306C315.869 492.554 315.237 494.194 315.294 495.879C315.35 497.563 316.092 499.161 317.36 500.334C318.629 501.506 320.326 502.162 322.092 502.162C323.858 502.162 325.555 501.506 326.823 500.334C328.092 499.161 328.833 497.563 328.89 495.879C328.947 494.194 328.315 492.554 327.128 491.306C325.941 490.058 324.291 489.3 322.529 489.191H322.432Z" fill="white"/>
<path d="M321.652 409.247C323.466 409.36 325.252 408.782 326.619 407.638C327.986 406.495 328.821 404.88 328.94 403.149C329.059 401.418 328.453 399.713 327.255 398.408C326.057 397.104 324.365 396.307 322.551 396.193H321.652C319.835 396.193 318.093 396.882 316.808 398.108C315.523 399.335 314.802 400.998 314.802 402.732C314.802 404.466 315.523 406.129 316.808 407.355C318.093 408.581 319.835 409.27 321.652 409.27V409.247Z" fill="white"/>
<path d="M216.64 174.772C208.137 165.753 199.635 156.664 193.344 146.092C187.052 135.519 183.432 123.161 185.473 111.314C186.688 104.358 189.797 97.6343 190.331 90.4469C191.012 80.709 186.736 70.5307 190.331 61.4188C195.967 47.1367 216.105 44.9341 228.3 35.0803C237.798 27.406 242.414 14.9555 252.859 8.50994C261.993 2.85272 273.726 2.99182 284.439 4.42931C295.152 5.8668 306.035 8.48675 316.82 7.09563C324.497 6.12185 331.736 3.15412 339.242 1.36885C346.748 -0.416419 355.178 -0.949683 361.858 2.85271C368.538 6.65511 372.328 15.6278 367.931 21.7256C380.417 16.2306 396.28 25.5279 399.705 38.2335C403.13 50.9391 396.28 64.688 385.688 73.0115C375.097 81.335 361.396 85.2997 347.914 87.7342C309.678 94.6898 268.163 90.7251 235.199 70.9712" fill="#263238"/>
<path d="M351.145 297.491C349.274 283.579 347.744 272.149 347.647 270.712C347.647 270.712 396.036 260.325 393.364 213.629C392.077 191.047 385.469 144.769 378.959 102.966C375.613 81.2951 363.834 61.6237 345.969 47.873C328.105 34.1223 305.466 27.3024 282.568 28.7727L277.71 29.0509C227.061 35.1487 204.153 79.6181 211.927 127.797L239.279 289.329C239.279 289.329 250.94 325.058 275.888 331.249L307.467 374.188L312.666 355.639L336.132 336.117C340.629 331.071 344.516 325.556 347.719 319.679C351.302 312.818 352.502 305.046 351.145 297.491Z" fill="#FFBE9D"/>
<path d="M347.672 270.065C347.672 270.065 316.942 274.424 282.715 256.826C282.715 256.826 300.157 289.448 348.644 282.145L347.672 270.065Z" fill="#EB996E"/>
<path d="M363.242 143.129C363.378 144.867 362.8 146.587 361.63 147.924C360.46 149.262 358.79 150.111 356.974 150.294C356.09 150.417 355.189 150.37 354.325 150.156C353.46 149.941 352.65 149.564 351.941 149.045C351.232 148.526 350.639 147.877 350.198 147.135C349.756 146.394 349.475 145.576 349.371 144.729C349.209 142.978 349.779 141.236 350.958 139.885C352.137 138.534 353.828 137.683 355.662 137.518C356.548 137.398 357.45 137.449 358.315 137.668C359.18 137.887 359.989 138.27 360.696 138.793C361.403 139.316 361.993 139.97 362.43 140.715C362.867 141.46 363.143 142.281 363.242 143.129Z" fill="#263238"/>
<path d="M370.068 126.573C369.267 127.501 363.704 124.093 356.197 124.603C348.691 125.113 343.517 129.031 342.545 128.243C342.132 127.895 342.91 126.272 345.193 124.44C348.287 122.079 352.073 120.694 356.027 120.476C359.939 120.204 363.839 121.139 367.153 123.142C369.582 124.626 370.457 126.156 370.068 126.573Z" fill="#263238"/>
<path d="M292.261 147.97C292.403 149.706 291.826 151.427 290.655 152.762C289.483 154.097 287.809 154.94 285.993 155.111C285.111 155.238 284.211 155.194 283.346 154.983C282.482 154.771 281.671 154.395 280.961 153.878C280.252 153.361 279.659 152.714 279.217 151.973C278.775 151.233 278.494 150.416 278.39 149.57C278.253 147.836 278.828 146.119 279.993 144.782C281.158 143.445 282.822 142.593 284.633 142.405C285.518 142.282 286.42 142.328 287.287 142.543C288.153 142.757 288.965 143.134 289.676 143.653C290.387 144.171 290.982 144.821 291.426 145.562C291.869 146.303 292.153 147.122 292.261 147.97Z" fill="#263238"/>
<path d="M296.317 132.617C295.491 133.544 289.953 130.136 282.446 130.646C274.94 131.156 269.669 135.074 268.794 134.24C268.357 133.892 269.134 132.269 271.418 130.437C274.523 128.08 278.315 126.695 282.276 126.473C286.18 126.205 290.071 127.139 293.378 129.139C295.807 130.669 296.706 132.199 296.317 132.617Z" fill="#263238"/>
<path d="M327.289 184.069C327.289 183.652 331.856 182.585 339.436 181.171C341.33 180.87 343.128 180.383 343.371 179.131C343.395 177.224 342.81 175.356 341.695 173.775L335.039 160.188C325.783 140.852 318.933 124.877 319.759 124.529C320.585 124.181 328.747 139.577 338.027 158.936L344.44 172.616C345.799 174.747 346.332 177.266 345.946 179.734C345.711 180.395 345.322 180.997 344.809 181.495C344.295 181.992 343.671 182.373 342.982 182.608C341.938 182.954 340.853 183.172 339.751 183.258C332.075 184.139 327.362 184.463 327.289 184.069Z" fill="#263238"/>
<path d="M296.269 104.38C295.661 106.398 288.106 105.934 279.264 107.51C270.422 109.087 263.547 111.846 262.26 110.177C261.677 109.365 262.794 107.464 265.539 105.377C269.216 102.831 273.449 101.111 277.921 100.349C282.393 99.5856 286.988 99.7988 291.362 100.972C294.787 102.016 296.536 103.453 296.269 104.38Z" fill="#263238"/>
<path d="M365.842 105.979C364.652 107.695 359.356 106.35 353.113 106.652C346.87 106.953 341.696 108.483 340.36 106.86C339.777 106.072 340.505 104.379 342.789 102.687C345.756 100.65 349.289 99.4962 352.942 99.3725C356.595 99.2487 360.205 100.16 363.316 101.991C365.551 103.522 366.377 105.052 365.842 105.979Z" fill="#263238"/>
<path d="M218.462 162.228C217.612 161.95 184.21 154.902 187.514 186.735C190.818 218.569 226.916 208.182 226.916 207.277C226.916 206.373 218.462 162.228 218.462 162.228Z" fill="#FFBE9D"/>
<path d="M212.146 196.822C211.976 196.822 211.612 197.263 210.664 197.773C209.348 198.474 207.796 198.657 206.34 198.283C202.672 197.379 199.053 192.324 198.397 186.69C198.034 183.969 198.308 181.206 199.198 178.598C199.416 177.581 199.887 176.628 200.572 175.821C201.257 175.014 202.136 174.376 203.134 173.961C203.786 173.731 204.502 173.726 205.159 173.946C205.815 174.166 206.37 174.598 206.729 175.167C207.263 176.025 207.118 176.674 207.288 176.697C207.458 176.72 207.944 176.118 207.555 174.819C207.281 174.046 206.742 173.385 206.024 172.941C205.53 172.625 204.975 172.404 204.392 172.293C203.808 172.181 203.207 172.181 202.624 172.292C201.284 172.684 200.071 173.397 199.102 174.363C198.132 175.329 197.438 176.516 197.085 177.81C195.946 180.7 195.571 183.814 195.992 186.876C196.866 193.275 200.85 198.955 205.879 199.813C206.803 199.981 207.755 199.947 208.663 199.714C209.572 199.481 210.414 199.055 211.126 198.468C212.17 197.587 212.34 196.868 212.146 196.822Z" fill="#EB996E"/>
<path d="M376.506 59.4925C374.223 72.1749 347.355 83.7907 324.958 83.1647C304.383 82.5851 294.204 72.8472 279.265 65.9148C269.791 61.5328 269.791 61.5328 256.94 63.5963C246.568 65.1961 241.175 76.9047 235.345 85.2514C246.446 108.437 241.952 135.239 237.239 160.279C237.036 163.103 235.847 165.781 233.863 167.884C230.122 171.037 224.146 169.159 220.356 165.936C214.453 160.766 211.757 153.115 209.838 145.696C205.131 128.821 204.008 111.218 206.534 93.9227C209.088 76.543 216.926 60.2597 229.077 47.0884C244.969 31.1053 266.743 21.6371 289.808 20.6803C312.757 19.8952 335.382 26.028 354.473 38.2084C363.315 43.7497 371.478 50.5893 376.579 59.4693" fill="#263238"/>
<path d="M332.224 200.113L315.219 192.555C314.287 192.029 313.216 191.771 312.134 191.813C310.938 192.07 309.888 192.749 309.195 193.714C307.202 195.991 305.958 198.78 305.621 201.73C305.284 204.679 305.868 207.658 307.3 210.292C308.857 212.857 311.304 214.822 314.219 215.847C317.133 216.872 320.332 216.891 323.26 215.903C329.284 213.584 332.199 206.837 332.685 200.623L332.224 200.113Z" fill="#EB996E"/>
<path d="M323.793 217.109C323.793 217.248 322.992 217.712 321.364 218.059C318.929 218.477 316.422 218.301 314.077 217.549C310.49 216.397 307.484 214.007 305.647 210.849C304.485 208.924 303.788 206.777 303.608 204.562C303.427 202.348 303.767 200.123 304.603 198.05C305.457 195.902 306.802 193.962 308.538 192.37C309.381 191.609 310.309 190.941 311.307 190.376C311.905 190.036 312.58 189.837 313.275 189.796C313.95 189.771 314.622 189.889 315.243 190.144C316.15 190.581 317.034 191.06 317.89 191.582L320.198 192.95L324.352 195.407C329.381 198.468 332.417 200.508 332.247 200.786C332.077 201.064 328.725 199.581 323.453 196.891L319.154 194.573L316.724 193.297C315.898 192.903 315.024 192.37 314.295 192.092C313.996 191.955 313.663 191.9 313.332 191.932C313.002 191.965 312.688 192.085 312.425 192.277C311.618 192.763 310.869 193.33 310.19 193.97C308.748 195.34 307.623 196.982 306.886 198.792C306.181 200.548 305.882 202.429 306.007 204.305C306.133 206.182 306.681 208.01 307.615 209.666C309.129 212.441 311.613 214.623 314.635 215.834C316.727 216.637 318.964 217.039 321.218 217.016C322.822 217.086 323.721 216.946 323.793 217.109Z" fill="#263238"/>
<path d="M318.426 143.935C318.184 141.218 317.738 138.521 317.09 135.866C315.887 131.427 313.724 127.276 310.74 123.682C307.757 120.088 304.018 117.129 299.766 114.996C295.513 112.862 290.839 111.602 286.046 111.295C281.252 110.988 276.444 111.642 271.931 113.214C268.82 114.279 265.896 115.788 263.258 117.689C260.446 119.611 257.984 121.961 255.971 124.644C251.641 130.231 249.305 136.997 249.305 143.946C249.305 150.895 251.641 157.661 255.971 163.248C257.984 165.932 260.446 168.282 263.258 170.204C265.896 172.104 268.82 173.613 271.931 174.678C276.445 176.236 281.249 176.878 286.038 176.565C290.827 176.251 295.495 174.988 299.744 172.857C303.993 170.726 307.73 167.772 310.716 164.186C313.703 160.599 315.873 156.458 317.09 152.026C317.735 149.378 318.181 146.69 318.426 143.981C318.454 144.158 318.454 144.338 318.426 144.514C318.426 144.932 318.426 145.465 318.426 146.091C318.447 146.953 318.382 147.814 318.231 148.664C318.096 149.837 317.877 150.999 317.575 152.142C316.806 155.299 315.536 158.324 313.81 161.115C309.661 167.884 303.158 173.051 295.432 175.719C287.706 178.388 279.244 178.389 271.518 175.722C268.299 174.623 265.276 173.059 262.554 171.085C259.654 169.102 257.11 166.682 255.023 163.92C250.536 158.133 248.114 151.123 248.114 143.923C248.114 136.723 250.536 129.713 255.023 123.926C257.095 121.16 259.632 118.739 262.53 116.761C265.251 114.787 268.274 113.223 271.493 112.124C277.446 110.084 283.863 109.604 290.077 110.733C294.996 111.631 299.656 113.523 303.746 116.283C307.835 119.042 311.258 122.605 313.786 126.731C315.512 129.522 316.782 132.547 317.551 135.704C317.852 136.848 318.071 138.009 318.207 139.182C318.358 140.032 318.423 140.893 318.401 141.755C318.401 142.381 318.401 142.914 318.401 143.332C318.441 143.53 318.449 143.734 318.426 143.935Z" fill="#263238"/>
<path d="M401.599 140.81C401.361 138.165 400.931 135.539 400.311 132.95C398.364 125.938 394 119.755 387.922 115.399C383.781 112.393 378.953 110.367 373.833 109.487C367.959 108.458 361.904 108.946 356.294 110.901C353.276 111.943 350.436 113.404 347.865 115.237C345.159 117.127 342.782 119.412 340.82 122.007C336.621 127.457 334.356 134.045 334.356 140.81C334.356 147.575 336.621 154.163 340.82 159.613C342.776 162.207 345.154 164.484 347.865 166.36C350.429 168.209 353.271 169.678 356.294 170.719C361.906 172.663 367.958 173.151 373.833 172.134C378.953 171.253 383.781 169.227 387.922 166.221C394 161.865 398.364 155.682 400.311 148.67C400.931 146.082 401.361 143.455 401.599 140.81C401.657 141.497 401.657 142.187 401.599 142.874C401.608 143.72 401.543 144.565 401.404 145.401C401.275 146.542 401.064 147.673 400.773 148.786C399.225 154.858 395.885 160.379 391.148 164.694C386.412 169.009 380.479 171.937 374.051 173.131C367.991 174.222 361.735 173.75 355.929 171.763C349.509 169.53 343.918 165.548 339.848 160.309C335.477 154.664 333.118 147.83 333.118 140.81C333.118 133.791 335.477 126.956 339.848 121.311C343.918 116.073 349.509 112.09 355.929 109.858C361.735 107.87 367.991 107.398 374.051 108.49C380.479 109.683 386.412 112.611 391.148 116.926C395.885 121.241 399.225 126.762 400.773 132.834C401.064 133.948 401.275 135.079 401.404 136.219C401.543 137.055 401.608 137.901 401.599 138.747C401.657 139.433 401.657 140.123 401.599 140.81Z" fill="#263238"/>
<path d="M333.803 133.476C333.658 133.592 332.856 132.966 331.374 132.294C329.463 131.425 327.369 130.989 325.253 131.018C323.141 131.047 321.068 131.556 319.204 132.502C317.746 133.221 316.969 133.893 316.775 133.754C316.58 133.615 317.212 132.734 318.669 131.76C320.589 130.512 322.849 129.828 325.171 129.791C327.493 129.754 329.776 130.366 331.738 131.552C333.22 132.479 333.803 133.383 333.803 133.476Z" fill="#263238"/>
<path d="M250.842 139.203C246.035 143.37 240.956 147.242 235.636 150.796C230.546 154.659 225.207 158.213 219.651 161.438C224.453 157.255 229.541 153.382 234.882 149.845C239.957 145.974 245.288 142.419 250.842 139.203Z" fill="#263238"/>
<g opacity="0.3">
<path d="M222.056 290.104C218.68 321.566 231.215 354.791 257.669 373.849C259.733 375.356 262.333 376.84 264.786 375.982C266.422 375.226 267.729 373.946 268.479 372.365C275.887 360.148 278.666 345.871 276.349 331.93C272.171 342.456 268.576 352.797 264.349 363.786C241.344 350.432 226.915 322.053 222.056 290.104Z" fill="black"/>
</g>
<path opacity="0.3" d="M311.62 361.644L331.054 354.874L334.26 386.197C334.26 386.197 355.2 349.773 363.872 333.172C372.545 316.571 368.075 287.219 368.075 287.219C368.075 287.219 371.16 312.723 350.196 345.344L334.358 369.921V344.185L311.62 361.644Z" fill="black"/>
<g opacity="0.3">
<path d="M86.0186 520.833C77.1593 517.241 67.4266 516.077 57.9126 517.471C47.7742 518.262 38.0751 521.766 29.9282 527.58C22.0575 533.631 16.7376 543.183 17.7821 552.782L18.7538 552.898C25.5313 535.416 38.9891 522.757 56.358 521.157C73.7268 519.557 90.6584 526.977 102.513 539.149C101.225 530.06 94.5694 524.705 86.0186 520.833Z" fill="black"/>
</g>
<g opacity="0.3">
<path d="M576.577 538.617C569.845 532.022 561.044 527.7 551.507 526.306C543.201 524.979 534.688 525.451 526.599 527.686C518.509 529.922 511.049 533.863 504.77 539.22L508.462 536.345C517.856 530.946 528.64 528.152 539.604 528.277C550.609 528.457 561.162 532.482 569.265 539.591C576.553 546.176 580.901 555.102 585.055 563.797C585.728 559.261 585.314 554.639 583.846 550.278C582.377 545.917 579.892 541.93 576.577 538.617Z" fill="black"/>
</g>
<path d="M451.499 393.251C451.697 392.382 451.99 391.535 452.374 390.724C453.127 388.892 454.05 386.643 455.119 383.977C457.548 378.297 460.706 370.46 464.107 361.719C467.508 352.978 470.447 345.026 472.56 339.276L474.989 332.436C475.25 331.582 475.608 330.758 476.058 329.979C475.983 330.867 475.778 331.741 475.451 332.575C474.989 334.245 474.261 336.61 473.313 339.531C471.418 345.374 468.601 353.442 465.2 362.137C461.799 370.831 458.422 378.714 455.847 384.302C454.584 387.107 453.418 389.356 452.714 390.91C452.411 391.735 452.003 392.521 451.499 393.251Z" fill="#263238"/>
<path d="M145.246 395.52C144.906 395.52 142.258 384.554 139.343 370.874C136.428 357.195 134.339 346.182 134.606 345.996C134.873 345.811 137.57 356.963 140.485 370.642C143.4 384.322 145.586 395.451 145.246 395.52Z" fill="#263238"/>
<path d="M140.653 533.45C141.43 533.821 131.762 461.204 131.762 461.204C131.762 461.204 137.859 406.093 141.284 403.542V384.09C141.284 384.09 150.734 378.641 153.26 387.452C153.26 387.452 161.641 380.496 162.977 397.027C164.313 413.558 164.75 430.437 164.75 430.437L183.382 474.907L186.443 476.391C186.443 476.391 190.451 441.613 192.784 436.419C195.116 431.226 196.719 418.821 205.537 420.699C214.355 422.577 215.108 429.533 213.529 440.894C211.95 452.255 209.958 464.079 210.711 471.359C211.464 478.639 214.938 494.846 213.869 507.691C212.8 520.535 205.415 534.076 197.69 543.582C189.966 553.088 175.172 572.772 167.155 578.684C164.556 580.771 140.653 533.45 140.653 533.45Z" fill="#FFBE9D"/>
<path d="M150.08 474.352C149.958 473.32 149.958 472.278 150.08 471.245C150.225 468.927 150.444 466.191 150.687 462.806C151.246 455.688 152.12 445.857 153.116 434.984C153.65 429.581 154.161 424.434 154.622 419.704C154.899 417.525 154.899 415.322 154.622 413.143C154.364 411.277 153.516 409.53 152.193 408.135C151.222 407.136 150.046 406.338 148.738 405.791C147.43 405.245 146.017 404.961 144.589 404.959C143.521 405.007 142.457 405.131 141.407 405.33C141.646 405.17 141.908 405.045 142.185 404.959C142.964 404.68 143.783 404.516 144.614 404.472C146.146 404.388 147.678 404.62 149.107 405.152C150.537 405.684 151.829 406.504 152.897 407.555C154.366 409.061 155.309 410.965 155.594 413.004C155.898 415.259 155.898 417.542 155.594 419.797C155.157 424.434 154.671 429.697 154.185 435.1C153.14 445.95 152.12 455.758 151.318 462.922L150.322 471.338C150.332 472.348 150.251 473.356 150.08 474.352Z" fill="#EB996E"/>
<path d="M160.089 444.651C158.732 446.415 157.622 448.34 156.785 450.377C155.304 455.511 154.272 460.754 153.7 466.051C152.68 472.264 151.708 477.875 150.931 481.933C150.649 484.145 150.144 486.327 149.425 488.448C149.434 486.216 149.645 483.99 150.056 481.793C150.591 477.713 151.441 472.079 152.486 465.865C153.53 459.651 154.21 453.971 156.008 450.076C156.647 448.55 157.541 447.132 158.656 445.879C159.457 444.952 160.04 444.604 160.089 444.651Z" fill="#EB996E"/>
<path d="M153.234 386.5C153.573 387.237 153.794 388.019 153.89 388.819C154.23 390.302 154.643 392.459 155.105 395.148C156.028 400.504 157.048 407.946 157.704 416.224C158.36 424.501 158.481 432.013 158.384 437.438C158.384 440.151 158.263 442.353 158.141 443.86C158.162 444.643 158.064 445.424 157.85 446.179C157.555 443.267 157.434 440.341 157.485 437.415C157.364 431.99 157.072 424.524 156.441 416.293C155.809 408.062 154.935 400.62 154.23 395.241C153.717 392.349 153.385 389.43 153.234 386.5Z" fill="#EB996E"/>
<path d="M206.997 454.572C206.076 455.14 205.023 455.483 203.93 455.572C202.838 455.661 201.739 455.493 200.73 455.082C197.159 454.062 195.507 451.442 195.872 451.326C197.544 452.34 199.309 453.209 201.143 453.923C203.072 454.294 205.031 454.511 206.997 454.572Z" fill="#EB996E"/>
<path d="M141.699 524.408L92.4833 544.162H63.1384C63.1384 544.162 34.1337 552.81 29.6639 578.778C25.1942 604.745 24.5626 618.077 37.316 621.3C50.0693 624.522 86.0945 624.87 103.949 619.213C121.804 613.556 168.59 577.479 168.59 577.479L173.084 551.419L141.699 524.408Z" fill="#FFBE9D"/>
<path d="M153.237 553.106C153.237 553.106 152.679 552.712 151.828 551.877C150.657 550.665 149.592 549.362 148.646 547.982C145.565 543.397 143.246 538.383 141.772 533.121C140.248 527.904 139.231 522.564 138.735 517.169C138.408 514.942 138.342 512.686 138.541 510.445C139.067 512.62 139.424 514.828 139.61 517.053C140.359 522.368 141.487 527.628 142.986 532.796C144.453 537.953 146.608 542.909 149.399 547.542C151.61 551.043 153.407 552.944 153.237 553.106Z" fill="#EB996E"/>
<path d="M174.685 561.339C175.988 558.089 176.925 554.716 177.479 551.277C178.581 542.888 176.21 534.42 170.871 527.674C167.883 523.686 164.507 520.208 161.665 516.823C159.076 513.872 156.844 510.652 155.009 507.224C153.804 504.885 152.985 502.383 152.579 499.805C152.431 498.868 152.431 497.914 152.579 496.977C153.149 500.409 154.28 503.734 155.932 506.83C157.845 510.139 160.117 513.248 162.709 516.104C165.551 519.397 168.952 522.875 172.013 526.955C174.991 530.782 177.085 535.168 178.159 539.823C178.987 543.638 179.094 547.564 178.475 551.416C178.067 553.985 177.316 556.494 176.24 558.881C175.851 559.716 175.487 560.342 175.244 560.759C175.001 561.177 174.71 561.362 174.685 561.339Z" fill="#EB996E"/>
<path d="M98.7765 448.197C94.4105 441.438 90.4053 434.474 86.7762 427.33C80.4603 415.737 75.6018 406.092 75.8933 405.93C80.2593 412.688 84.2646 419.652 87.8936 426.796C91.9012 433.748 95.5336 440.891 98.7765 448.197Z" fill="white"/>
<path d="M178.33 363.592C180.401 357.648 182.876 351.84 185.739 346.203C188.224 340.411 191.088 334.774 194.314 329.324C192.23 335.264 189.756 341.071 186.905 346.713C184.426 352.508 181.562 358.146 178.33 363.592Z" fill="white"/>
<path d="M256.382 418.498C252.351 414.797 248.616 410.813 245.208 406.581C241.492 402.598 238.09 398.359 235.029 393.898C239.063 397.59 242.791 401.574 246.179 405.816C249.907 409.795 253.317 414.034 256.382 418.498Z" fill="white"/>
<path d="M238.43 494.008C240.895 489.77 243.705 485.723 246.835 481.905C249.653 477.87 252.813 474.063 256.284 470.521C253.826 474.764 251.015 478.811 247.879 482.624C245.077 486.67 241.915 490.479 238.43 494.008Z" fill="white"/>
<path d="M214.285 600.682C213.151 599.247 212.197 597.691 211.443 596.045C209.84 593.077 207.775 588.927 205.686 584.267C203.596 579.606 201.92 575.271 200.827 572.141C200.101 570.473 199.579 568.73 199.272 566.947C200.273 568.485 201.088 570.126 201.702 571.839L206.924 583.78C208.941 588.208 210.738 592.219 212.317 595.674C213.166 597.268 213.826 598.948 214.285 600.682Z" fill="white"/>
<path d="M282.787 555.338C277.82 555.024 272.888 554.318 268.042 553.228C263.094 552.529 258.218 551.427 253.467 549.936C263.326 550.949 273.077 552.757 282.617 555.338H282.787Z" fill="white"/>
<path d="M336.23 455.661C340.583 450.28 345.272 445.154 350.271 440.312C354.972 435.182 359.985 430.32 365.284 425.752C360.914 431.133 356.217 436.266 351.219 441.124C346.518 446.24 341.514 451.093 336.23 455.661Z" fill="white"/>
<path d="M389.674 588.582C389.406 588.814 381.56 580.119 372.135 569.222C362.709 558.325 355.3 549.283 355.568 549.074C355.835 548.865 363.681 557.537 373.106 568.434C382.532 579.331 389.892 588.373 389.674 588.582Z" fill="white"/>
<path d="M57.3566 531.943C57.5266 532.268 50.3604 535.746 42.5384 541.473C34.7163 547.199 29.2749 552.857 28.9834 552.601C29.8664 551.134 30.9807 549.804 32.2871 548.66C35.1965 545.695 38.366 542.972 41.761 540.522C45.1417 538.059 48.7334 535.872 52.4982 533.984C54.0051 533.082 55.6418 532.394 57.3566 531.943Z" fill="white"/>
<path d="M77.3748 480.656C75.8312 483.937 73.917 487.046 71.6662 489.93C69.7485 493.036 67.4754 495.929 64.8887 498.555C66.4364 495.277 68.3503 492.168 70.5973 489.281C72.5099 486.172 74.7834 483.279 77.3748 480.656Z" fill="white"/>
<path d="M122.46 531.015C118.571 525.112 116.908 518.119 117.748 511.191C118.112 511.191 118.234 515.828 119.57 521.231C120.906 526.633 122.8 530.853 122.46 531.015Z" fill="white"/>
<path d="M129.14 371.222C126.12 372.228 122.977 372.859 119.788 373.1C116.651 373.729 113.441 373.955 110.241 373.773C113.27 372.768 116.421 372.137 119.618 371.895C122.748 371.279 125.949 371.053 129.14 371.222Z" fill="white"/>
<path d="M163.002 313.883C157.77 317.578 152.053 320.602 145.997 322.879C148.483 320.866 151.235 319.175 154.183 317.847C156.935 316.175 159.898 314.843 163.002 313.883Z" fill="white"/>
<path d="M258.255 338.116C254.822 334.784 251.686 331.185 248.878 327.358C245.761 323.762 242.966 319.923 240.521 315.881C247.094 322.79 253.027 330.229 258.255 338.116Z" fill="white"/>
<path d="M379.157 395.752C372.461 389.453 367.424 381.73 364.46 373.216C364.824 373.076 367.424 378.479 371.505 384.669C375.586 390.86 379.448 395.52 379.157 395.752Z" fill="white"/>
<path d="M425.309 410.266C422.378 418.417 418.636 426.281 414.135 433.752C415.43 429.621 417.113 425.609 419.163 421.766C420.826 417.755 422.883 413.904 425.309 410.266Z" fill="white"/>
<path d="M431.775 350.145C427.359 346.053 423.251 341.668 419.483 337.023C415.389 332.637 411.615 327.989 408.188 323.111C416.688 331.598 424.569 340.63 431.775 350.145Z" fill="white"/>
<path d="M361.275 301.318C360.505 297.623 360.139 293.863 360.182 290.096C359.816 286.337 359.873 282.552 360.352 278.805C361.122 282.499 361.488 286.26 361.445 290.026C361.827 293.785 361.77 297.571 361.275 301.318Z" fill="white"/>
<path d="M418.825 298.279C413.902 299.511 408.881 300.356 403.813 300.806C398.807 301.646 393.737 302.088 388.654 302.128C393.578 300.896 398.599 300.051 403.667 299.601C408.673 298.761 413.743 298.318 418.825 298.279Z" fill="white"/>
<path d="M509.262 361.741C505.888 356.457 502.87 350.974 500.225 345.325C497.221 339.844 494.592 334.183 492.354 328.377C495.742 333.657 498.768 339.14 501.415 344.792C504.409 350.275 507.03 355.936 509.262 361.741Z" fill="white"/>
<path d="M494.127 416.571C495.143 407.716 496.981 398.964 499.617 390.418C499.323 394.867 498.616 399.281 497.504 403.61C496.795 408.02 495.664 412.358 494.127 416.571Z" fill="white"/>
<path d="M536.008 459.788C533.175 454.01 530.74 448.062 528.72 441.982C526.312 436.036 524.308 429.949 522.72 423.758C525.536 429.55 527.97 435.505 530.007 441.587C532.405 447.528 534.409 453.607 536.008 459.788Z" fill="white"/>
<path d="M530.157 485.087C525.82 484.464 521.653 483.039 517.889 480.891C513.937 479.079 510.409 476.524 507.517 473.379C507.76 473.101 512.229 476.625 518.497 479.824C524.764 483.024 530.278 484.74 530.157 485.087Z" fill="white"/>
<path d="M584.01 542.724C580.739 537.662 578.198 532.203 576.455 526.494C579.726 531.556 582.267 537.015 584.01 542.724Z" fill="white"/>
<path d="M266.293 623.131C265.257 619.786 264.622 616.34 264.398 612.859C263.783 609.423 263.571 605.931 263.767 602.449C264.876 605.813 265.553 609.293 265.783 612.813C266.365 616.222 266.536 619.684 266.293 623.131Z" fill="white"/>
<path d="M431.31 619.14C431.421 615.746 431.951 612.376 432.889 609.101C433.436 605.745 434.389 602.462 435.731 599.316C435.619 602.712 435.081 606.083 434.127 609.356C433.595 612.712 432.649 615.996 431.31 619.14Z" fill="white"/>
<path d="M377.952 387.656C340.185 365.062 270.154 376.487 270.154 376.487C254.932 357.099 234.611 358.141 225.447 359.852C224.109 360.113 222.901 360.845 222.033 361.922C221.165 362.999 220.691 364.353 220.693 365.751L221.172 395.246C192.416 407.359 185.725 445.231 185.725 445.231L172.804 448.948C170.53 449.603 168.532 451.011 167.121 452.953C165.709 454.895 164.964 457.262 165.001 459.684L165.481 488.216C165.517 490.689 166.368 493.077 167.897 494.991C169.425 496.905 171.54 498.232 173.897 498.756L186.645 501.568C201.752 525.715 216.59 538.752 236.49 545.595L236.988 571L277.745 570.312L287.197 552.614L333.207 551.376L340.741 570.548L383.089 568.444L383.53 538.575C412.593 514.251 420.492 498.677 421.143 466.134C421.795 433.59 414.491 409.542 377.952 387.656Z" fill="#FF6F19"/>
<path d="M209.668 437.31C208.213 437.975 207.059 439.184 206.442 440.69C205.825 442.197 205.79 443.888 206.344 445.42C206.899 446.952 208.001 448.21 209.427 448.938C210.853 449.666 212.496 449.81 214.022 449.341C215.548 448.871 216.843 447.823 217.643 446.41C218.442 444.997 218.688 443.324 218.328 441.732C217.969 440.14 217.033 438.748 215.709 437.839C214.385 436.93 212.773 436.572 211.201 436.838" fill="#263238"/>
<path d="M232.482 397.134C232.177 395.418 231.978 393.684 231.888 391.942C231.017 383.621 228.856 375.496 225.485 367.874C224.699 366.33 224.013 364.733 223.434 363.096C224.52 364.439 225.435 365.919 226.156 367.5C228.036 371.263 229.527 375.217 230.604 379.299C231.687 383.386 232.362 387.577 232.616 391.805C232.819 393.578 232.774 395.373 232.482 397.134Z" fill="#263238"/>
<g opacity="0.3">
<path d="M282.751 391.236L285.397 396.231C302.629 392.967 320.271 392.668 337.599 395.346L332.538 389.663C316.007 386.76 299.076 387.295 282.751 391.236Z" fill="black"/>
</g>
<path d="M176.541 473.688C176.541 476.658 175.525 479.076 174.183 479.096C172.841 479.116 171.691 476.736 171.633 473.767C171.576 470.798 172.649 468.379 173.991 468.359C175.333 468.34 176.483 470.719 176.541 473.688Z" fill="#263238"/>
<path d="M171.058 494.626C171.816 494.839 172.593 494.971 173.378 495.019C174.422 495.083 175.467 494.915 176.443 494.529C177.419 494.142 178.302 493.545 179.033 492.777C180.042 491.698 180.9 490.481 181.583 489.159C182.285 487.588 182.807 485.938 183.136 484.243C184.095 480.388 184.572 476.424 184.554 472.445C184.562 468.461 184.053 464.493 183.04 460.647C182.194 457.535 180.307 454.827 177.71 452.998C175.93 451.811 173.831 451.227 171.71 451.326C170.215 451.425 169.429 451.818 169.39 451.72C169.352 451.621 169.563 451.582 169.946 451.405C170.496 451.159 171.077 450.994 171.671 450.913C173.906 450.662 176.159 451.181 178.075 452.388C180.907 454.221 182.986 457.054 183.922 460.352C185.015 464.285 185.564 468.356 185.551 472.445C185.576 476.534 185.067 480.608 184.037 484.558C183.659 486.313 183.08 488.016 182.311 489.631C181.572 491.012 180.635 492.272 179.532 493.367C178.631 494.343 177.471 495.026 176.196 495.334C175.262 495.566 174.296 495.632 173.339 495.53C172.738 495.478 172.148 495.325 171.595 495.078C171.211 494.803 171.039 494.665 171.058 494.626Z" fill="#263238"/>
<path d="M371.855 543.039C371.436 543.193 371.007 543.318 370.571 543.413L366.852 544.298C363.612 545.064 358.876 546.008 353.029 547.031C347.182 548.053 340.147 548.997 332.344 549.921C324.541 550.846 315.895 551.337 306.828 551.573C297.76 551.809 289.094 551.573 281.254 551.2C273.413 550.826 266.339 550.118 260.434 549.39C254.529 548.663 249.775 547.955 246.516 547.424L242.682 546.736C242.28 546.664 241.883 546.566 241.493 546.441C241.943 546.425 242.392 546.458 242.835 546.539L246.669 547.05C249.948 547.542 254.721 548.132 260.607 548.761C266.492 549.39 273.547 549.961 281.388 550.354C289.229 550.747 297.836 550.865 306.885 550.649C315.934 550.433 324.541 549.803 332.344 549.076C340.147 548.348 347.144 547.365 353.01 546.421C358.877 545.477 363.612 544.652 366.871 544.003L370.705 543.314C371.078 543.182 371.464 543.09 371.855 543.039Z" fill="#263238"/>
<path d="M269.693 376.272C269.69 376.983 269.593 377.691 269.405 378.376C269 380.256 268.442 382.097 267.737 383.882C265.398 389.832 261.621 395.073 256.761 399.112C251.901 403.15 246.119 405.854 239.959 406.967C238.111 407.304 236.238 407.482 234.361 407.498C233.673 407.536 232.984 407.484 232.31 407.34C232.31 407.144 235.243 407.242 239.825 406.259C245.8 404.979 251.391 402.253 256.133 398.31C260.874 394.367 264.629 389.319 267.086 383.587C269.003 379.3 269.501 376.233 269.693 376.272Z" fill="#263238"/>
<path d="M219.14 398.963C219.236 399.12 216.878 400.772 213.389 403.82C204.282 411.821 197.115 421.885 192.454 433.217C190.671 437.543 189.866 440.355 189.693 440.296C189.749 439.626 189.884 438.966 190.096 438.33C190.422 437.032 190.997 435.203 191.802 432.981C196.165 421.36 203.439 411.125 212.89 403.309C214.309 402.127 215.794 401.03 217.338 400.025C217.892 399.594 218.498 399.238 219.14 398.963Z" fill="white"/>
<path d="M173.36 449.795C174.985 449.028 176.709 448.505 178.479 448.242C180.166 447.633 181.927 447.269 183.713 447.16C182.229 448.235 180.523 448.942 178.728 449.225C177.004 449.827 175.169 450.022 173.36 449.795Z" fill="white"/>
<path d="M167.243 485.876C166.753 484.436 166.463 482.934 166.38 481.412C165.498 474.132 165.498 466.767 166.38 459.487C166.487 457.968 166.776 456.469 167.243 455.023C167.549 455.023 166.706 461.925 166.706 470.459C166.706 478.993 167.53 485.836 167.243 485.876Z" fill="white"/>
<path d="M222.456 364.217C222.763 364.217 222.092 370.981 222.245 379.279C222.399 387.577 223.242 394.263 222.955 394.322C222.463 392.922 222.16 391.46 222.054 389.976C221.567 386.438 221.298 382.872 221.248 379.299C221.177 375.72 221.331 372.14 221.709 368.582C221.775 367.1 222.026 365.633 222.456 364.217Z" fill="white"/>
<path d="M257.923 367.954C247.958 362.727 236.74 360.543 225.601 361.662C227.172 361.122 228.813 360.824 230.47 360.777C238.471 360.105 246.5 361.668 253.705 365.3C255.227 365.975 256.647 366.869 257.923 367.954Z" fill="white"/>
<path d="M337.731 398.179C337.731 398.336 334.798 397.805 330.063 397.195C317.775 395.583 305.333 395.649 293.063 397.392C288.366 398.041 285.395 398.611 285.395 398.454C286.002 398.159 286.648 397.953 287.312 397.844C288.596 397.49 290.494 397.097 292.852 396.665C298.998 395.604 305.216 395.052 311.448 395.013C317.675 394.986 323.894 395.479 330.044 396.488C332.402 396.881 334.299 397.254 335.603 397.589C336.333 397.696 337.048 397.895 337.731 398.179Z" fill="white"/>
<path d="M349.636 380.557C348.658 380.479 347.689 380.308 346.741 380.046C344.824 379.653 342.198 379.102 338.881 378.512C330.206 376.97 321.436 376.057 312.636 375.779C303.839 375.551 295.036 375.965 286.296 377.018C282.941 377.411 280.218 377.805 278.359 378.099C277.392 378.3 276.411 378.419 275.426 378.453C276.353 378.112 277.309 377.862 278.282 377.706C280.199 377.293 282.845 376.802 286.2 376.29C294.968 375.03 303.824 374.517 312.675 374.757C321.516 375.017 330.321 376.036 338.996 377.805C342.332 378.493 344.997 379.142 346.837 379.673C347.792 379.89 348.728 380.186 349.636 380.557Z" fill="white"/>
<path d="M240.938 536.785C240.291 536.802 239.645 536.723 239.021 536.549C237.318 536.222 235.634 535.795 233.979 535.271C222.95 531.85 213.05 525.388 205.357 516.59C204.203 515.27 203.121 513.885 202.117 512.441C201.704 511.942 201.362 511.386 201.101 510.79C201.235 510.672 202.864 512.894 205.874 516.099C213.737 524.516 223.454 530.875 234.209 534.642C238.33 536.018 240.976 536.608 240.938 536.785Z" fill="white"/>
<path d="M406.842 504.439C406.378 505.41 405.833 506.338 405.212 507.212C404.562 508.294 403.845 509.331 403.065 510.319C402.164 511.479 401.148 512.875 399.959 514.252C398.662 515.8 397.287 517.277 395.837 518.676C394.323 520.249 392.54 521.743 390.7 523.336C382.488 530.08 373.004 535.008 362.844 537.809C360.641 538.425 358.408 538.924 356.154 539.303C354.194 539.678 352.217 539.947 350.23 540.109C348.428 540.345 346.76 540.306 345.322 540.365C344.084 540.448 342.841 540.448 341.603 540.365C340.548 540.365 339.496 540.266 338.459 540.07C339.509 539.945 340.567 539.912 341.622 539.972C342.619 539.972 343.865 539.972 345.303 539.854C346.741 539.736 348.37 539.736 350.153 539.441C352.116 539.243 354.068 538.941 356 538.536C358.09 538.182 360.295 537.553 362.595 536.963C367.573 535.484 372.41 533.549 377.05 531.182C381.653 528.754 386.03 525.897 390.125 522.648C392.042 521.095 393.748 519.659 395.262 518.125C396.777 516.592 398.215 515.195 399.442 513.839C400.669 512.482 401.704 511.164 402.624 510.044C403.436 509.102 404.192 508.11 404.886 507.074C405.463 506.14 406.117 505.259 406.842 504.439Z" fill="white"/>
</svg>
