<svg width="531" height="697" viewBox="0 0 531 697" fill="none" xmlns="http://www.w3.org/2000/svg">
<path d="M303.347 14.9732C301.347 11.605 298.243 8.86923 294.456 7.13555C290.669 5.40187 286.38 4.75385 282.17 5.27906C277.208 1.8558 271.126 0 264.869 0C258.612 0 252.529 1.8558 247.568 5.27906C243.859 3.29117 239.654 2.16997 235.338 2.01799C231.022 1.86601 226.732 2.6881 222.862 4.40907C219.052 6.18886 215.81 8.81233 213.445 12.0311C211.079 15.25 209.668 18.9576 209.344 22.8031C205.029 22.1732 200.604 22.7352 196.653 24.4146C192.702 26.094 189.413 28.8116 187.221 32.2073C185.219 35.6505 184.442 39.5626 184.994 43.4151C185.547 47.2677 187.403 50.875 190.312 53.75C185.66 55.1362 181.711 57.9668 179.174 61.7331C176.637 65.4994 175.679 69.9546 176.472 74.2983C177.588 78.6081 180.376 82.4206 184.336 85.0543C188.296 87.6879 193.17 88.9709 198.086 88.6738L299.286 35.8116C302.302 33.1539 304.315 29.7151 305.043 25.9778C305.771 22.2406 305.178 18.3924 303.347 14.9732Z" fill="#263238"/>
<path d="M194.926 91.1155C197.213 72.0479 207.402 54.4501 223.471 41.8171C239.54 29.1841 260.312 22.4402 281.663 22.9248H286.092C333.705 26.2598 357.096 64.0629 352.021 106.278L341.848 247.134L334.927 264.741L252.897 356.09L232.135 273.793L231.836 235.762C231.836 235.762 186.16 228.595 186.53 187.871C186.691 168.193 190.774 127.717 194.926 91.1155Z" fill="#FFBF9D"/>
<path d="M231.836 235.828C231.836 235.828 260.625 237.796 291.813 221.184C291.813 221.184 277.096 250.308 231.836 245.937V235.828Z" fill="#FF9A6C"/>
<path d="M205.676 127.655C205.62 129.18 206.235 130.663 207.388 131.783C208.541 132.904 210.139 133.571 211.836 133.641C212.667 133.727 213.509 133.662 214.311 133.449C215.113 133.236 215.86 132.88 216.506 132.403C217.152 131.925 217.684 131.336 218.07 130.669C218.457 130.003 218.69 129.274 218.756 128.525C218.8 127.003 218.182 125.526 217.031 124.408C215.881 123.29 214.29 122.619 212.597 122.539C211.766 122.453 210.924 122.518 210.121 122.731C209.319 122.944 208.573 123.3 207.927 123.777C207.281 124.255 206.749 124.844 206.362 125.51C205.975 126.177 205.742 126.906 205.676 127.655Z" fill="#263238"/>
<path d="M203.785 113.283C204.592 114.071 209.621 110.901 216.657 111.046C223.693 111.191 228.791 114.402 229.575 113.656C229.944 113.325 229.16 111.937 226.945 110.446C223.931 108.516 220.335 107.454 216.634 107.401C213.006 107.346 209.45 108.309 206.461 110.156C204.154 111.585 203.393 112.952 203.785 113.283Z" fill="#263238"/>
<path d="M268.744 130.807C268.7 132.329 269.319 133.806 270.469 134.924C271.62 136.042 273.211 136.713 274.904 136.794C275.734 136.876 276.575 136.809 277.376 136.595C278.177 136.381 278.922 136.025 279.567 135.548C280.213 135.071 280.745 134.483 281.132 133.818C281.52 133.153 281.755 132.425 281.824 131.677C281.869 130.156 281.25 128.678 280.099 127.56C278.949 126.442 277.358 125.771 275.665 125.691C274.834 125.605 273.992 125.671 273.189 125.883C272.387 126.096 271.641 126.452 270.995 126.929C270.349 127.407 269.817 127.996 269.43 128.663C269.043 129.329 268.81 130.058 268.744 130.807Z" fill="#263238"/>
<path d="M271.167 113.653C271.975 114.42 277.004 111.251 284.039 111.396C291.075 111.541 296.173 114.772 296.958 114.026C297.327 113.695 296.542 112.307 294.328 110.795C291.316 108.863 287.717 107.808 284.016 107.771C280.359 107.687 276.766 108.644 273.751 110.505C271.56 111.955 270.775 113.301 271.167 113.653Z" fill="#263238"/>
<path d="M246.899 159.6C246.899 159.248 242.585 158.502 235.503 157.528C233.727 157.342 232.02 156.99 231.743 155.892C231.633 154.234 232.092 152.586 233.058 151.169L238.663 139.114C246.437 121.921 252.112 107.773 251.328 107.504C250.543 107.235 243.6 120.947 235.826 138.14C233.934 142.283 232.158 146.426 230.451 150.278C229.282 152.169 228.898 154.371 229.367 156.493C229.617 157.062 230.009 157.573 230.513 157.986C231.017 158.399 231.619 158.703 232.273 158.875C233.264 159.135 234.287 159.281 235.318 159.31C242.447 159.848 246.876 159.952 246.899 159.6Z" fill="#263238"/>
<path d="M271.49 95.779C272.297 97.4155 278.41 96.069 285.769 96.3176C293.128 96.5662 299.241 98.0369 300.025 96.3176C300.371 95.5512 299.171 94.0598 296.634 92.6305C293.332 90.8766 289.581 89.9204 285.746 89.8548C281.963 89.7396 278.215 90.5257 274.881 92.1334C272.343 93.5419 271.051 94.9919 271.49 95.779Z" fill="#263238"/>
<path d="M205.791 96.0704C206.852 97.6032 211.834 96.5675 217.648 97.0439C223.461 97.5204 228.259 98.9703 229.574 97.6032C230.151 96.9197 229.574 95.4282 227.544 93.8954C224.832 92.0304 221.57 90.9207 218.163 90.7034C214.756 90.4862 211.352 91.1711 208.374 92.6733C206.16 93.999 205.306 95.4282 205.791 96.0704Z" fill="#263238"/>
<path d="M199.794 72.5363C199.794 72.5363 212.482 47.2651 226.461 41.5688C243.37 34.671 250.198 51.1387 266.254 47.4516C282.309 43.7645 298.549 37.0945 314.536 48.4251C332.113 60.8536 323.532 69.0356 324.224 87.119C326.992 160.447 341.571 181.43 346.646 147.003C347.2 143.233 359.08 140.458 361.202 124.508C363.948 103.794 365.424 78.7091 360.58 63.9192C356.473 51.4908 348.723 42.7495 334.697 33.0553C312.552 17.7476 281.64 16.8776 260.625 18.369C239.61 19.8604 198.618 40.5745 199.794 72.5363Z" fill="#263238"/>
<path d="M343.762 145.781C343.868 144.283 344.31 142.82 345.062 141.479C345.815 140.138 346.862 138.948 348.14 137.981C349.418 137.013 350.901 136.288 352.499 135.848C354.098 135.409 355.779 135.265 357.442 135.424C365.954 136.294 375.365 140.789 374.443 156.47C372.805 184.289 341.709 177.184 341.709 176.272C341.709 175.361 342.955 157.485 343.762 145.781Z" fill="#FFBF9D"/>
<path d="M349.138 166.145C349.276 166.145 349.668 166.518 350.568 166.932C351.83 167.494 353.287 167.591 354.628 167.201C357.996 166.269 361.064 161.733 361.549 156.741C361.776 154.355 361.397 151.954 360.441 149.718C360.197 148.835 359.716 148.019 359.041 147.34C358.365 146.662 357.516 146.141 356.566 145.824C355.952 145.637 355.284 145.65 354.68 145.862C354.076 146.075 353.576 146.472 353.267 146.984C352.806 147.751 352.967 148.31 352.783 148.351C352.598 148.393 352.16 147.854 352.46 146.715C352.681 146.036 353.153 145.444 353.798 145.037C354.699 144.496 355.801 144.295 356.866 144.478C358.134 144.757 359.301 145.325 360.255 146.127C361.208 146.929 361.916 147.937 362.31 149.056C363.495 151.521 363.986 154.21 363.74 156.886C363.209 162.478 359.657 167.574 355.066 168.527C354.215 168.709 353.329 168.716 352.474 168.547C351.619 168.378 350.818 168.039 350.13 167.553C349.161 166.828 349.022 166.207 349.138 166.145Z" fill="#FF9A6C"/>
<path d="M344.409 91.925C340.28 94.3279 335.92 96.7928 331.006 97.1243C326.093 97.4557 320.533 94.8664 319.818 90.5372C319.495 88.5901 320.072 86.3944 318.665 84.8201C317.258 83.2459 313.843 83.5151 311.214 83.7015C306.646 83.9545 302.12 82.7897 298.394 80.4025C294.669 78.0153 291.971 74.5507 290.752 70.5896C288.445 73.6345 282.932 73.4067 279.472 71.3353C276.012 69.2639 273.82 65.9082 271.121 63.0496C268.422 60.1911 264.639 57.6225 260.487 58.0575C258.18 58.3061 255.873 59.5075 253.566 59.2797C249.46 58.8654 247.545 54.5569 247.015 50.9941C246.484 47.4312 246.092 43.1227 242.655 41.072C239.218 39.0213 235.25 40.1813 231.467 40.5956C227.684 41.0099 222.793 40.1399 221.894 36.8464C221.755 35.9585 221.819 35.0546 222.08 34.1895C222.342 33.3243 222.796 32.5158 223.416 31.8128C226.064 28.4847 229.876 26.0483 234.245 24.892C238.614 23.7357 243.288 23.9262 247.522 25.4329C249.219 20.8117 252.388 16.7392 256.638 13.7203C260.887 10.7014 266.03 8.86883 271.429 8.44979C276.827 8.03075 282.244 9.04367 287.008 11.363C291.771 13.6823 295.672 17.206 298.226 21.4972C301.65 18.9016 305.705 17.0639 310.064 16.132C314.423 15.2002 318.965 15.2003 323.324 16.1323C327.651 17.1238 331.656 19.0199 335.012 21.6658C338.367 24.3117 340.978 27.6325 342.633 31.3571C346.485 30.5884 350.5 30.8146 354.215 32.0096C357.93 33.2046 361.192 35.3196 363.625 38.1099C365.927 40.9566 367.264 44.3395 367.477 47.8523C367.69 51.3652 366.769 54.8585 364.824 57.9126C370.384 60.8747 375.089 65.9289 375.089 71.7081C375.089 77.4874 368.607 83.1008 362.402 81.4644C363.504 83.7759 363.631 86.3682 362.761 88.7579C361.891 91.1476 360.082 93.1715 357.673 94.4521C355.152 95.595 352.255 95.8785 349.519 95.2501C346.783 94.6216 344.394 93.1238 342.794 91.0343" fill="#263238"/>
<path d="M364.685 81.5684C364.798 82.5383 364.671 83.5186 364.312 84.439C363.953 85.3594 363.371 86.1971 362.609 86.8919C361.007 88.6268 358.748 89.77 356.265 90.1025C354.673 90.2986 353.051 90.1776 351.516 89.748C349.981 89.3185 348.571 88.5909 347.384 87.6169L348.722 87.4719C346.995 90.0369 344.831 92.3433 342.309 94.3075C340.603 95.6317 338.64 96.6637 336.519 97.3525C334.485 97.9716 332.308 98.1072 330.198 97.746C328.412 97.5876 326.687 97.0788 325.145 96.2555C323.602 95.4322 322.279 94.3146 321.271 92.9818C320.084 91.1888 319.3 89.2043 318.964 87.1404C318.728 86.4078 318.657 85.6401 318.756 84.8826C318.895 84.8826 319.149 85.6283 319.633 86.954C320.234 88.856 321.169 90.6599 322.401 92.2982C325.285 96.441 334.904 98.5124 341.225 93.0439C343.609 91.1983 345.67 89.0405 347.338 86.6433L347.915 85.8355L348.676 86.4776C349.67 87.3188 350.854 87.9578 352.148 88.351C353.442 88.7442 354.814 88.8824 356.173 88.7561C358.357 88.5454 360.386 87.6419 361.894 86.2083C363.167 84.849 364.117 83.2699 364.685 81.5684Z" fill="#455A64"/>
<path d="M306.969 16.8181C306.969 16.9217 306.162 17.0046 304.662 17.5017C302.655 18.2261 300.935 19.4744 299.725 21.0852L299.333 21.6238L298.918 21.0852C295.08 16.2939 289.953 12.4529 284.016 9.92036C280.173 8.28718 275.994 7.39122 271.744 7.28967C267.578 7.24052 263.459 8.08959 259.734 9.76561C256.009 11.4416 252.787 13.8957 250.336 16.9217C248.405 19.3839 247.155 22.2245 246.692 25.2073L246.576 26.0773L245.631 25.8287C241.277 24.719 236.616 25.1412 232.597 27.0095C229.452 28.4862 226.903 30.8118 225.308 33.6587C223.969 36.2597 223.238 39.0797 223.162 41.9443C222.885 41.2121 222.775 40.437 222.839 39.6658C222.863 37.5199 223.39 35.4026 224.385 33.4515C225.963 30.3419 228.606 27.7657 231.928 26.098C236.264 23.97 241.349 23.4353 246.115 24.6066L245.054 25.2281C245.488 21.9751 246.802 18.8671 248.883 16.176C251.475 12.9069 254.916 10.2549 258.908 8.45014C262.9 6.64534 267.322 5.74217 271.79 5.81897C276.278 5.95919 280.681 6.95476 284.708 8.73965C290.817 11.4423 296.004 15.5705 299.725 20.6917H298.918C300.288 18.9858 302.253 17.7393 304.501 17.1496C305.278 16.8511 306.128 16.7369 306.969 16.8181Z" fill="#455A64"/>
<path d="M265.469 169.398C265.469 169.398 274.512 186.177 255.158 190.112C253.473 190.458 251.715 190.372 250.083 189.864C248.611 189.432 247.283 188.674 246.223 187.661C245.163 186.647 244.404 185.41 244.016 184.064L241.34 174.929C242.24 175.24 265.469 169.398 265.469 169.398Z" fill="#FF9A6C"/>
<path d="M247.984 190.151C248.827 190.171 249.666 190.24 250.499 190.358C252.75 190.466 255.002 190.163 257.119 189.467C260.625 188.377 263.534 186.124 265.25 183.17C266.965 180.216 267.358 176.785 266.347 173.579C265.944 172.181 265.272 170.856 264.363 169.664L265.009 169.872C257.535 171.57 250.937 173.02 246.185 174.014L240.602 175.154C239.926 175.32 239.228 175.411 238.526 175.423C239.149 175.139 239.807 174.923 240.487 174.781L246.001 173.331C250.614 172.15 257.235 170.576 264.686 168.836H265.101L265.332 169.126C266.324 170.425 267.058 171.869 267.5 173.393C268.06 175.279 268.185 177.247 267.867 179.178C267.55 181.108 266.797 182.96 265.655 184.62C264.024 186.831 261.734 188.586 259.046 189.685C256.358 190.784 253.38 191.182 250.453 190.834C249.588 190.755 248.749 190.522 247.984 190.151Z" fill="#263238"/>
<path d="M110.497 294.924C110.497 294.924 77.7167 310.687 71.027 351.97C65.306 387.433 30.7729 577.546 30.7729 577.546L0 694.705H79.7697L123.161 486.943L110.497 294.924Z" fill="#00638D"/>
<path d="M133.887 695.017L178.731 330.366L217.855 249.954L230.958 241.814L240.393 277.608L253.057 318.083L287.659 279.037L342.308 241.006L343.577 259.773L369.805 328.668L348.052 508.424V694.623L133.887 695.017Z" fill="white"/>
<path d="M231.835 694.706C231.908 694.385 231.947 694.059 231.95 693.732C231.95 693.028 231.95 692.096 232.112 690.894C232.112 688.305 232.366 684.68 232.55 679.978C232.919 670.387 233.427 656.675 234.073 639.772C235.411 605.822 237.51 558.987 240.509 507.202C243.508 455.417 246.899 408.603 249.505 374.632C250.843 357.75 251.812 344.079 252.666 334.509C253.012 329.848 253.288 326.223 253.496 323.593C253.496 322.412 253.496 321.521 253.658 320.755C253.719 320.433 253.719 320.103 253.658 319.781C253.58 320.102 253.526 320.427 253.496 320.755C253.496 321.459 253.312 322.391 253.173 323.572C252.896 326.161 252.527 329.786 252.043 334.468C251.097 343.934 249.851 357.626 248.398 374.57C245.468 408.437 241.939 455.355 238.917 507.036C235.895 558.718 233.98 605.697 232.942 639.606C232.435 656.592 232.089 670.325 231.927 679.833C231.927 684.514 231.812 688.119 231.789 690.77V693.608C231.759 693.974 231.775 694.342 231.835 694.706Z" fill="#263238"/>
<path d="M414.489 497.528L477.303 322.888L366.138 269.238L342.931 246.66C342.931 246.66 337.972 340.35 337.21 365.165C336.449 389.981 324.269 484.043 318.756 541.235C315.872 571.788 317.718 622.848 319.425 651.62C321.386 684.617 320.97 695.534 320.97 695.534L429.737 694.995L393.75 566.402L414.489 497.528Z" fill="#00638D"/>
<path d="M186.274 268.823L110.495 294.923L98.7306 547.965L69.457 695.035L153.056 696.444C153.817 678.526 175.086 529.219 175.086 529.219L203.022 295.565L224.914 245.623L186.274 268.823Z" fill="#00638D"/>
<path d="M187.659 267.438C187.147 267.858 186.684 268.323 186.275 268.825L182.446 272.968L168.213 288.814L167.913 289.146L168.305 289.415L180.369 297.556L180.531 296.665L166.39 300.642L165.929 300.766V301.181C166.206 323.593 166.552 351.827 166.921 382.421C167.52 419.707 168.074 453.553 168.489 478.141C168.766 490.3 168.974 500.181 169.135 507.141C169.251 510.476 169.343 513.106 169.412 515.012C169.412 515.841 169.412 516.524 169.412 517.083C169.386 517.318 169.386 517.553 169.412 517.788C169.443 517.554 169.443 517.317 169.412 517.083C169.412 516.545 169.412 515.861 169.412 515.012C169.412 513.106 169.412 510.455 169.412 507.12C169.412 500.16 169.412 490.279 169.274 478.12C168.974 453.512 168.582 419.707 168.166 382.38C167.682 351.785 167.221 323.573 166.851 301.16L166.413 301.699L180.531 297.556L181.592 297.266L180.692 296.665L168.881 288.711V289.312L182.722 273.237L186.367 268.929C186.844 268.466 187.276 267.967 187.659 267.438Z" fill="#263238"/>
<path d="M325.608 511.964C325.608 511.964 325.747 511.737 325.908 511.281C326.07 510.825 326.347 510.1 326.646 509.209L329.484 501.483C331.952 494.792 335.62 485.119 340.349 473.229C342.656 467.284 345.355 460.801 348.169 453.799C351.247 446.38 353.895 438.823 356.105 431.159C360.876 413.558 364.588 395.739 367.223 377.779C371.076 352.922 373.544 329.494 375.067 309.422V309.153L374.836 308.946L362.633 298.589V299.438L374.167 291.629L374.605 291.318L374.282 290.925L353.406 265.757L347.662 258.963L346.139 257.223C345.77 256.829 345.585 256.643 345.562 256.664C345.689 256.888 345.835 257.103 346.001 257.306C346.37 257.782 346.831 258.383 347.385 259.149L352.898 266.089C357.789 272.199 364.778 280.858 373.36 291.505V290.8L361.825 298.527L361.249 298.92L361.779 299.397L373.89 309.919L373.682 309.443C372.045 329.536 369.484 352.943 365.655 377.8C363.017 395.715 359.36 413.497 354.697 431.076C352.375 439.155 349.784 446.681 346.923 453.654L339.288 473.063C334.674 485.015 331.191 494.73 328.884 501.483C327.731 504.88 326.877 507.511 326.347 509.292C326.116 510.142 325.908 510.804 325.747 511.364C325.678 511.559 325.632 511.761 325.608 511.964Z" fill="#263238"/>
<g opacity="0.3">
<path d="M414.488 641.512L354.28 662.475L350.266 650.564L320.439 672.666L318.801 639.689L345.029 607.023L410.082 625.749L414.488 641.512Z" fill="black"/>
</g>
<path d="M520.188 584.362C523.365 582.611 526.01 580.181 527.89 577.29C529.769 574.399 530.824 571.136 530.961 567.791C531.167 558.352 530.558 548.912 529.138 539.558C524.825 507.72 477.281 322.889 477.281 322.889L407.154 466.851L427.408 529.553L324.224 573.467L352.944 645.51C352.944 645.51 490.199 600.996 520.188 584.362Z" fill="#00638D"/>
<path d="M449.853 365.496C449.57 366.011 449.353 366.553 449.207 367.112L447.615 371.814C446.254 376.081 444.386 381.964 442.079 389.172C437.465 403.859 431.167 424.138 424.754 446.695C418.342 469.253 413.22 489.822 410.06 504.798C408.445 512.297 407.246 518.366 406.531 522.591C406.185 524.663 405.908 526.175 405.7 527.439C405.582 527.999 405.52 528.567 405.516 529.137C405.767 528.608 405.937 528.05 406.023 527.48C406.3 526.237 406.669 524.642 407.13 522.674C408.122 518.324 409.437 512.317 411.167 505.005C414.628 490.091 419.887 469.564 426.3 447.006C432.713 424.448 438.849 404.148 443.186 389.421C445.262 382.171 446.992 376.247 448.215 371.938C448.745 369.97 449.184 368.396 449.507 367.153C449.698 366.616 449.815 366.059 449.853 365.496Z" fill="#263238"/>
<path d="M486.047 599.171C485.817 599.2 485.593 599.256 485.378 599.336L483.441 599.937L476.013 602.423L448.331 611.889L352.805 645.032L353.797 645.446L334.558 597.099C331.352 589.021 328.169 581.087 325.1 573.382L324.708 574.252L426.693 530.504C440.418 526.466 455.306 527.025 468.608 532.078C472.187 533.451 475.642 535.072 478.942 536.925L481.503 538.416C481.779 538.603 482.081 538.757 482.402 538.872C482.15 538.661 481.88 538.467 481.595 538.292L479.127 536.676C475.866 534.717 472.424 533.012 468.838 531.581C463.137 529.307 457.073 527.853 450.868 527.272C442.607 526.542 434.266 527.317 426.347 529.551L324.155 572.947L323.509 573.216L323.763 573.817L333.197 597.534L352.506 645.86L352.759 646.523L353.497 646.254L448.677 612.676L476.243 602.837L483.579 600.165L485.471 599.44L486.047 599.171Z" fill="#263238"/>
<path d="M254.35 316.634C255.398 315.936 256.371 315.153 257.256 314.293L264.938 307.499C271.605 301.471 280.601 293.289 290.913 283.926H289.805C294.913 289.581 297.524 296.725 297.141 303.998L297.026 305.593L298.41 304.599C311.559 295.132 322.193 285.956 330.175 279.514C334.119 276.324 337.326 273.776 339.54 272.057C340.746 271.208 341.879 270.28 342.931 269.281C341.602 269.974 340.344 270.771 339.171 271.663C336.864 273.258 333.52 275.703 329.46 278.81C321.317 285.024 310.498 294.159 297.441 303.501L298.71 304.102C298.893 301.491 298.675 298.87 298.064 296.313C296.997 291.415 294.551 286.844 290.959 283.035L290.405 282.455L289.828 282.994L264.246 306.919C261.247 309.819 258.786 312.18 256.864 314.003C255.941 314.812 255.1 315.692 254.35 316.634Z" fill="#263238"/>
<path d="M219.587 265.057C219.437 265.738 219.398 266.436 219.472 267.128C219.472 268.537 219.472 270.608 219.772 273.177C220.425 280.164 221.713 287.092 223.624 293.891L224.108 295.61L225.031 294.036C227.661 289.458 231.053 285.267 235.089 281.607C236.242 280.571 237.396 279.536 238.572 278.707L237.303 278.314C239.644 287.706 242.783 296.923 246.692 305.884C248.169 309.281 249.483 311.974 250.452 313.818C250.878 314.796 251.428 315.727 252.09 316.593C251.834 315.568 251.463 314.569 250.983 313.61C250.106 311.539 248.999 308.763 247.707 305.553C244.116 296.657 241.127 287.575 238.757 278.355L238.457 277.195L237.465 277.961C236.265 278.873 235.043 279.867 233.866 280.944C229.71 284.672 226.245 288.973 223.601 293.683L224.985 293.828C223.005 287.07 221.541 280.197 220.602 273.259C220.002 267.998 219.772 265.057 219.587 265.057Z" fill="#263238"/>
<g opacity="0.3">
<path d="M166.577 301.139L158.019 311.786C158.019 311.786 160.441 472.216 169.553 512.049L166.577 301.139Z" fill="black"/>
</g>
<path d="M69.457 695.015C69.457 695.015 69.4571 694.746 69.5724 694.249C69.6878 693.751 69.8262 692.964 70.0107 692.011C70.4029 689.94 71.0026 687.102 71.7408 683.394C73.3325 675.875 75.5932 665.021 78.4306 651.578C84.1976 624.546 92.2715 587.033 101.245 544.838V544.942C101.245 539.287 101.107 533.28 101.037 527.21C100.53 480.107 100.069 437.477 99.7226 406.572C99.7226 391.16 99.538 378.691 99.4688 370.011V360.069C99.4688 358.971 99.4688 358.122 99.4688 357.479C99.4332 357.19 99.4332 356.898 99.4688 356.609C99.4991 356.899 99.4991 357.19 99.4688 357.479V360.069C99.4688 362.389 99.6072 365.724 99.6995 370.011C99.8609 378.691 100.069 391.16 100.345 406.572C100.761 437.477 101.36 480.107 102.006 527.19C102.006 533.28 102.145 539.266 102.214 544.921V545.045C92.9866 587.219 84.8897 624.711 79.0073 651.702L72.0868 683.477C71.2564 687.164 70.5874 690.044 70.126 692.053L69.5955 694.269C69.5861 694.522 69.5395 694.773 69.457 695.015Z" fill="#263238"/>
<path d="M79.3074 538.896C79.3074 539.207 73.3096 538.751 65.997 539.228C58.6844 539.704 52.8251 540.843 52.7559 540.533C56.948 539.049 61.3996 538.242 65.9048 538.151C70.3866 537.697 74.9222 537.949 79.3074 538.896Z" fill="#263238"/>
<path d="M325.4 578.354C325.4 578.354 267.223 589.249 258.503 590.948C249.783 592.646 215.711 615.68 212.366 617.379C209.021 619.077 199.125 624.691 199.125 624.691C199.125 624.691 205.469 634.054 216.749 630.657C223.548 628.606 229.889 625.492 235.481 621.46L211.421 641.159L184.016 656.197C182.364 657.073 181.113 658.448 180.487 660.076C179.862 661.704 179.902 663.479 180.602 665.083C180.998 666.106 181.81 666.957 182.875 667.464C183.941 667.971 185.18 668.097 186.345 667.818C194.119 666.575 219.379 657.73 219.379 657.73C219.379 657.73 220.556 671.422 234.466 673.12C234.466 673.12 237.465 684.865 249.575 682.359C249.575 682.359 261.479 691.121 271.998 686.108C282.517 681.095 309.899 671.07 315.55 660.878C319.283 654.26 323.555 647.897 328.33 641.842L349.484 638.569L325.4 578.354Z" fill="#FFBF9D"/>
<path d="M219.402 657.732C219.587 658.105 226.876 655.474 235.365 651.248C243.854 647.023 249.921 642.362 249.598 642.01C249.275 641.658 242.909 645.697 234.489 649.84C226.069 653.982 219.171 657.297 219.402 657.732Z" fill="#FF9A6C"/>
<path d="M263.784 655.704C263.508 655.29 256.31 658.935 248.052 664.134C239.793 669.334 233.011 673.414 233.242 673.787C233.473 674.16 240.762 670.701 249.067 665.502C257.371 660.302 264.13 656.077 263.784 655.704Z" fill="#FF9A6C"/>
<path d="M274.649 666.2C274.327 665.91 269.044 669.888 261.962 674.196C254.88 678.505 249.298 682.254 249.597 682.647C249.897 683.041 255.872 679.892 262.977 675.522C270.082 671.151 275.042 666.532 274.649 666.2Z" fill="#FF9A6C"/>
<path d="M267.636 599.771C265.527 599.783 263.445 600.193 261.523 600.973C256.77 602.529 252.329 604.767 248.374 607.601C244.435 610.435 240.887 613.683 237.809 617.275C236.408 618.681 235.284 620.293 234.487 622.039C234.972 622.391 240.439 615.328 249.482 608.886C258.524 602.444 267.798 600.248 267.636 599.771Z" fill="#FF9A6C"/>
</svg>
