<svg width="650" height="789" viewBox="0 0 650 789" fill="none" xmlns="http://www.w3.org/2000/svg">
<path d="M213.165 434.999C213.541 437.819 185.323 507.633 185.323 507.633L145.913 377.422L91.6016 387.746C91.6016 387.746 106.343 567.711 115.812 592.037C126.007 618.005 185.592 637.427 218.921 602.213C228.444 592.135 258.868 527.839 258.868 527.839L213.165 434.999Z" fill="#FFBF9D"/>
<path d="M145.914 377.416C145.914 377.416 152.531 361.257 147.286 347.304C142.04 333.351 124.393 322.512 125.469 314.175C126.545 305.837 117.157 285.68 108.63 287.201C100.102 288.721 93.8344 296.347 101.017 309.27C105.624 317.713 109.431 326.499 112.396 335.533C112.396 335.533 23.6244 293.846 16.4958 292.963C9.36714 292.08 2.02328 291.173 0.140252 296.372C-1.74278 301.57 15.9577 308.24 15.9577 308.24L39.7646 336.244C43.7239 346.916 49.2918 357.034 56.3083 366.308C66.5305 378.79 86.6789 387.127 86.6789 387.127L112.53 415.205C112.53 415.205 151.724 403.115 145.914 377.416Z" fill="#FFBF9D"/>
<path d="M17.4637 309.395C17.5982 309.395 18.2438 308.904 19.6427 308.316C21.6135 307.502 23.8116 307.262 25.9373 307.629C31.3174 308.512 38.1771 312.681 43.7993 318.541C48.511 323.764 52.5291 329.477 55.7699 335.559C56.9811 338.168 58.5251 340.637 60.3699 342.916C59.7825 340.101 58.759 337.376 57.3302 334.824C54.4653 328.38 50.5174 322.382 45.6285 317.045C39.6835 310.89 32.3935 306.624 26.1526 306.011C23.7 305.73 21.2184 306.261 19.1585 307.506C17.7596 308.487 17.3561 309.272 17.4637 309.395Z" fill="#FF9A6C"/>
<path d="M49.9586 319.841C49.6088 320.381 55.3387 323.887 62.7094 327.713C70.0801 331.538 76.3479 334.187 76.6976 333.672C77.0473 333.157 71.3175 329.626 63.9199 325.8C56.5223 321.975 50.2814 319.326 49.9586 319.841Z" fill="#FF9A6C"/>
<path d="M96.9291 337.816C97.225 337.301 90.2308 335.168 82.0262 337.694C73.8216 340.219 69.652 345.663 70.2438 345.908C70.8356 346.154 75.3011 341.985 82.8064 339.778C90.3116 337.571 96.8215 338.478 96.9291 337.816Z" fill="#FF9A6C"/>
<path d="M314.31 310.891L344.977 298.777L450.642 301.23L490.32 316.433L498.39 408.929C498.39 408.929 348.124 457.679 347.532 457.679C346.941 457.679 258.062 378.204 258.062 378.204L314.31 310.891Z" fill="#FFBF9D"/>
<path d="M278.585 365.454C286.801 367.831 295.163 369.763 303.629 371.241C346.849 380.047 391.906 377.704 433.747 364.473L474.474 351.574C474.474 351.574 541.725 474.183 542.936 478.426C544.146 482.668 484.481 788.676 484.481 788.676H245.229L251.066 612.805C251.066 612.805 247.031 451.182 247.703 449.367L278.585 365.454Z" fill="white"/>
<path d="M342.288 287.375L311.245 307.36C287.357 314.275 244.908 327.493 232.023 339.239C212.547 356.796 187.045 474.771 187.045 474.771C187.045 474.771 182.58 464.643 172.438 464.643L102.874 563.981C102.874 563.981 109.922 615.943 126.708 621.387C143.494 626.831 189.628 623.839 190.3 623.839H219.084L208.324 788.454L264.384 788.675L266.644 605.693L277.081 491.617L306.16 385.291L342.288 287.375Z" fill="#FF6F19"/>
<path d="M225.674 408.979C225.819 409.715 225.891 410.462 225.889 411.21L226.212 417.586C226.454 423.152 226.696 431.171 226.885 441.102C227.288 460.94 227.288 488.356 226.293 518.64C225.297 548.925 223.468 576.315 221.774 596.178C220.94 605.987 220.16 614.079 219.568 619.596C219.245 622.245 219.003 624.354 218.814 625.948C218.759 626.69 218.642 627.428 218.465 628.155C218.388 627.412 218.388 626.665 218.465 625.923C218.465 624.329 218.734 622.22 218.922 619.547C219.326 613.858 219.917 605.889 220.644 596.105C222.043 576.315 223.683 548.925 224.679 518.665C225.674 488.405 225.836 461.014 225.728 441.176C225.728 431.367 225.728 423.373 225.566 417.684C225.566 415.011 225.566 412.779 225.566 411.284C225.535 410.514 225.571 409.743 225.674 408.979Z" fill="#263238"/>
<path d="M224.976 400.395C223.044 396.004 221.576 391.455 220.591 386.81C219.132 382.275 218.186 377.617 217.767 372.906C221.208 381.817 223.624 391.029 224.976 400.395Z" fill="#263238"/>
<g opacity="0.3">
<path d="M225.915 414.08C225.619 415.38 225.35 416.655 225.054 417.955C210.931 482.202 210.071 558.857 219.082 623.938C221.772 624.257 231.51 424.085 225.619 415.502" fill="black"/>
</g>
<path d="M615.567 384.457C608.734 359.199 592.756 347.184 592.756 347.184L522.814 429.896L549.069 788.454H650L638.459 606.428C638.459 606.428 622.4 409.812 615.567 384.457Z" fill="#FF6F19"/>
<path d="M585.306 368.131L598.998 352.486C579.444 335.12 556.302 321.467 530.913 312.319C511.222 305.527 481.067 293.143 481.067 293.143L459.412 268.793L454.167 339.072C454.167 339.072 450.347 494.32 447.657 522.447C444.967 549.421 413.924 672.618 414.327 788.607L565.346 788.386L531.774 608.028C531.774 608.028 545.493 493.07 546.354 489.318C547.215 485.566 585.306 368.131 585.306 368.131Z" fill="#FF6F19"/>
<path d="M592.73 367.239C593.079 367.484 582.131 379.5 568.304 394.041C554.477 408.583 542.991 420.157 542.668 419.912C542.345 419.667 553.267 407.651 567.094 393.109C580.921 378.568 592.461 366.969 592.73 367.239Z" fill="#263238"/>
<path d="M288.027 406.966C287.906 406.573 287.825 406.171 287.784 405.765C287.784 404.833 287.542 403.681 287.354 402.258C287.004 398.997 286.52 394.534 285.928 388.992L286.762 389.262C276.813 399.601 268.052 410.841 260.615 422.808L258.947 425.505L259.216 422.415C261.81 390.922 272.589 360.443 290.663 333.499C295.128 326.437 299.056 320.895 301.773 317.069L305.001 312.729C305.35 312.203 305.755 311.711 306.211 311.258C305.942 311.818 305.627 312.359 305.27 312.876C304.49 314.029 303.521 315.525 302.311 317.364C299.621 321.263 295.989 326.903 291.551 333.99C279.923 352.295 271.226 372.022 265.726 392.572C263.247 402.438 261.539 412.452 260.615 422.538L259.216 422.146C266.769 410.142 275.725 398.919 285.928 388.673L286.709 387.938V388.943C287.139 394.485 287.462 398.948 287.704 402.209C287.704 403.656 287.838 404.809 287.892 405.74C288.002 406.141 288.047 406.554 288.027 406.966Z" fill="#263238"/>
<path d="M161.354 611.282C161.49 610.812 161.688 610.358 161.946 609.933L163.856 606.132C164.717 604.489 165.766 602.478 166.842 600.1C167.918 597.721 169.317 595.073 170.554 592.032C171.792 588.991 173.245 585.705 174.59 582.076C175.935 578.447 177.28 574.597 178.652 570.502C181.439 561.563 183.693 552.493 185.403 543.332C187.002 534.155 188.044 524.904 188.524 515.622C188.658 511.331 188.847 507.26 188.739 503.361C188.632 499.462 188.551 496.005 188.389 492.768C188.228 489.531 187.905 486.588 187.69 484.038C187.475 481.488 187.233 479.256 186.964 477.442C186.695 475.627 186.614 474.376 186.479 473.297C186.408 472.809 186.408 472.314 186.479 471.826C186.654 472.287 186.771 472.764 186.829 473.248C187.044 474.327 187.286 475.701 187.582 477.393C187.878 479.085 188.282 481.39 188.551 483.964C188.82 486.539 189.277 489.457 189.439 492.694C189.6 495.931 189.95 499.511 189.977 503.337C190.003 507.162 189.977 511.257 189.977 515.598C189.245 534.29 185.909 552.822 180.05 570.747C178.625 574.867 177.36 578.79 175.854 582.37C174.347 585.951 173.002 589.286 171.63 592.302C170.259 595.318 168.94 597.966 167.73 600.32C166.519 602.675 165.47 604.661 164.502 606.279L162.35 609.982C162.09 610.458 161.755 610.896 161.354 611.282Z" fill="#263238"/>
<path d="M481.067 293.211C481.191 293.875 481.245 294.548 481.229 295.222C481.229 296.669 481.229 298.606 481.417 301.033C481.417 306.208 481.632 313.466 481.767 322.392C481.982 340.44 482.224 365.354 482.089 392.892C482.089 399.072 481.955 405.153 481.874 410.965C481.874 413.883 481.874 416.776 481.578 419.621C481.578 420.332 481.578 421.019 481.417 421.754V422.318C481.437 422.432 481.437 422.548 481.417 422.662C481.422 422.727 481.422 422.793 481.417 422.858L481.229 423.005C481.098 423.048 480.955 423.048 480.825 423.005C480.71 423.028 480.591 423.028 480.475 423.005C480.061 422.812 479.68 422.564 479.346 422.269C478.189 421.313 477.14 420.308 476.118 419.327C468.047 411.333 460.973 403.755 454.866 397.257L455.808 397.012C453.952 407.654 452.418 416.335 451.342 422.515C450.804 425.433 450.374 427.738 450.051 429.454L449.674 431.269C449.65 431.479 449.595 431.685 449.513 431.882C449.472 431.671 449.472 431.455 449.513 431.244C449.513 430.754 449.513 430.141 449.728 429.405C449.97 427.689 450.32 425.359 450.75 422.416C451.692 416.237 453.064 407.532 454.732 396.865L454.893 395.81L455.646 396.619C461.807 403.069 468.908 410.621 477.167 418.517C478.189 419.498 479.238 420.479 480.341 421.387L481.013 421.877C481.013 421.877 481.013 422.073 481.013 422.318C481.013 422.564 480.744 422.171 480.475 422.196V422.049V421.558C480.475 420.896 480.475 420.185 480.637 419.498C480.771 416.678 480.852 413.809 480.906 410.891C480.906 405.03 480.906 398.998 481.094 392.843C481.094 365.379 481.094 340.514 481.094 322.367C481.094 313.441 481.094 306.158 481.094 300.984C481.094 298.532 481.094 296.619 481.094 295.173C481.041 294.52 481.032 293.865 481.067 293.211Z" fill="#263238"/>
<path d="M542.667 438.355C542.685 438.633 542.685 438.912 542.667 439.189C542.667 439.802 542.667 440.611 542.667 441.641C542.667 443.873 542.372 447.036 542.156 451.082C541.645 459.371 540.892 471.264 539.977 485.977C537.987 515.55 535.243 556.526 532.176 602.357V602.21C532.903 606.109 533.71 610.253 534.49 614.471C543.555 662.534 551.787 706.06 557.732 737.62C560.637 753.338 563.112 766.09 564.618 774.967C565.371 779.331 565.99 782.74 566.421 785.143C566.582 786.247 566.743 787.129 566.851 787.792C566.887 788.093 566.887 788.397 566.851 788.699L566.609 787.816C566.609 787.154 566.286 786.296 566.044 785.192C565.56 782.74 564.887 779.405 563.999 775.065C562.251 766.188 559.749 753.461 556.683 737.791C550.603 706.232 542.264 662.73 533.037 614.692C532.257 610.499 531.45 606.354 530.724 602.431V602.284C533.979 556.453 536.857 515.501 538.955 485.903C540.058 471.19 540.946 459.346 541.645 451.058C541.995 447.012 542.237 443.848 542.425 441.641L542.667 439.189C542.626 438.913 542.626 438.632 542.667 438.355Z" fill="#263238"/>
<path d="M309.173 57.1152C285.124 57.5811 264.518 89.7783 268.069 107.924C269.818 116.728 274.229 126.855 266.321 133.378C258.412 139.901 242.11 139.288 234.578 145.933C234.578 145.933 225.028 154.516 226.078 165.551C227.127 176.586 225.109 191.495 215.317 195.443L264.061 211.186C269.091 206.6 271.109 199.342 276.139 194.756C270.382 199.661 264.787 216.826 290.881 218.69L307.021 205.791C351.38 216.09 398.025 228.915 433.453 211.529" fill="#263238"/>
<path d="M535.164 153.584C531.963 145.271 526.717 137.571 524.404 129.062C519.642 110.597 529.219 89.5571 519.024 73.0294C511.707 61.2834 496.481 55.6925 482.089 51.9651C467.698 48.2378 453.978 46.0063 443.138 36.7126C435.067 29.8955 430.548 20.43 422.612 13.5885C411.314 3.77973 394.851 0.739024 379.249 0.125978C363.109 -0.511589 346.646 1.1559 332.389 7.7768C318.131 14.3977 306.349 26.5605 304.089 40.8813C302.959 47.87 304.089 55.1775 301.749 61.921C299.22 69.2775 292.926 75.1873 289.106 82.1515C285.243 89.6122 284.243 98.0401 286.268 106.081C288.293 114.122 293.224 121.309 300.269 126.487L412.821 252.872C436.09 260.376 461.43 233.721 478.996 218.027C496.562 202.333 543.261 174.648 535.164 153.584Z" fill="#263238"/>
<path d="M302.85 111.455C306.804 82.2741 330.665 47.5022 362.811 52.2839L462.342 80.6802C472.107 82.1515 477.353 89.1893 476.573 98.0907L456.048 314.766C456.29 314.766 453.573 318.248 453.815 318.297C454.057 318.346 426.915 379.086 361.331 356.747C348.338 352.333 342.501 356.428 340.672 342.868C337.82 341.838 324.29 337.571 324.37 336.05L342.286 287.375C343.2 269.621 343.792 264.251 343.765 264.398C343.738 264.545 302.688 257.36 297.281 207.997C294.511 183.598 298.465 143.873 302.85 111.455Z" fill="#FFBF9D"/>
<path d="M381.371 153.437C381.259 155.077 381.854 156.693 383.03 157.939C384.206 159.185 385.869 159.963 387.665 160.107C388.539 160.22 389.429 160.174 390.283 159.971C391.137 159.768 391.938 159.411 392.639 158.923C393.34 158.434 393.927 157.823 394.367 157.126C394.806 156.428 395.088 155.657 395.198 154.859C395.31 153.216 394.716 151.597 393.54 150.348C392.365 149.098 390.701 148.314 388.903 148.165C388.028 148.054 387.137 148.104 386.283 148.31C385.429 148.516 384.629 148.875 383.928 149.365C383.227 149.856 382.64 150.468 382.201 151.167C381.762 151.866 381.48 152.638 381.371 153.437Z" fill="#263238"/>
<path d="M312.212 151.819C312.093 153.457 312.682 155.073 313.854 156.319C315.025 157.566 316.686 158.345 318.48 158.489C319.354 158.602 320.244 158.556 321.098 158.353C321.952 158.15 322.752 157.793 323.454 157.305C324.155 156.816 324.742 156.205 325.182 155.508C325.621 154.81 325.903 154.039 326.012 153.241C326.125 151.602 325.534 149.987 324.365 148.738C323.195 147.488 321.538 146.703 319.745 146.547C318.869 146.433 317.977 146.48 317.122 146.685C316.266 146.89 315.464 147.248 314.763 147.739C314.061 148.23 313.474 148.844 313.036 149.545C312.598 150.245 312.318 151.018 312.212 151.819Z" fill="#263238"/>
<path d="M309.225 132.394C310.006 133.522 316.381 129.745 324.478 130.677C332.575 131.609 337.928 136.513 338.897 135.582C339.381 135.165 338.735 133.129 336.449 130.923C333.436 128.052 329.423 126.224 325.097 125.748C320.776 125.29 316.417 126.227 312.776 128.397C310.006 130.113 308.849 131.879 309.225 132.394Z" fill="#263238"/>
<path d="M383.256 138.55C384.225 139.605 390.493 135.338 399.181 135.534C407.87 135.73 414.111 140.046 415.08 139.041C415.564 138.599 414.595 136.736 411.878 134.725C408.232 132.166 403.782 130.739 399.181 130.654C394.62 130.569 390.155 131.862 386.484 134.333C383.741 136.27 382.772 138.085 383.256 138.55Z" fill="#263238"/>
<path d="M354.042 184.967C354.042 184.574 349.496 183.618 342.044 182.343C340.134 182.073 338.359 181.632 338.117 180.43C338.065 178.642 338.63 176.884 339.731 175.403C341.775 171.333 343.954 167.066 346.214 162.603C355.252 144.383 361.924 129.351 361.117 129.008C360.31 128.665 352.293 143.206 343.255 161.45L336.906 174.398C335.579 176.415 335.075 178.794 335.48 181.117C335.724 181.735 336.117 182.296 336.629 182.758C337.141 183.221 337.759 183.573 338.44 183.79C339.489 184.092 340.571 184.289 341.668 184.378C349.28 185.065 353.988 185.335 354.042 184.967Z" fill="#263238"/>
<path d="M343.685 264.398C369.121 266.099 394.58 261.4 417.285 250.812C417.285 250.812 396.76 285.584 342.905 278.154L343.685 264.398Z" fill="#FF9A6C"/>
<path d="M383.496 115.551C384.115 117.439 391.567 116.948 400.336 118.371C409.106 119.793 415.992 122.319 417.256 120.823C417.821 120.063 416.692 118.371 413.948 116.335C410.299 113.911 406.064 112.321 401.6 111.701C397.121 110.945 392.509 111.181 388.15 112.387C384.949 113.393 383.254 114.741 383.496 115.551Z" fill="#263238"/>
<path d="M311.54 108.195C312.966 109.813 318.938 108.538 326.012 108.832C333.087 109.127 339.005 110.549 340.485 109.028C341.13 108.268 340.297 106.576 337.795 105.105C334.316 103.114 330.307 102.029 326.201 101.966C322.126 101.782 318.076 102.63 314.499 104.418C311.863 105.743 310.948 107.312 311.54 108.195Z" fill="#263238"/>
<path d="M567.174 144.24C562.063 135.731 571.935 126.216 564.08 118.369C556.925 111.184 538.067 111.013 531.369 103.656C525.989 97.9425 525.989 96.4466 525.72 91.1009C525.505 84.3819 522.142 56.2309 476.573 50.4928L470.252 76.0935C467.4 74.892 464.441 73.8375 461.536 72.8812C424.376 60.6108 385.758 52.3799 346.483 48.3594C341.748 55.7159 346.483 65.5246 353.907 70.6497C361.332 75.7748 370.881 77.7365 379.732 80.4584C388.582 83.1804 397.728 87.815 401.494 95.4903C405.529 103.754 402.463 113.661 406.04 122.096C412.147 136.589 434.824 140.929 440.876 155.471C445.423 166.481 438.563 178.374 437.003 190.022C436.198 196.669 437.12 203.396 439.695 209.658C442.27 215.92 446.425 221.542 451.825 226.069C460.379 233.156 474.959 246.005 476.035 243.43L597.84 174.769C604.969 159.321 574.195 155.912 567.174 144.24Z" fill="#263238"/>
<path d="M299.596 227.664C299.206 227.891 298.792 228.08 298.359 228.228C297.142 228.75 295.883 229.185 294.593 229.528C289.814 230.774 284.803 231.1 279.878 230.484C272.53 229.584 265.65 226.687 260.133 222.171C256.935 219.482 254.356 216.24 252.547 212.632C250.674 208.758 249.607 204.601 249.4 200.371C248.95 192.093 252.079 183.985 258.116 177.787C263.094 172.781 269.688 169.346 276.946 167.978C281.82 167.072 286.853 167.156 291.688 168.223C292.99 168.521 294.267 168.906 295.507 169.376C295.95 169.52 296.382 169.692 296.799 169.891C296.329 169.824 295.868 169.709 295.427 169.548C294.173 169.175 292.897 168.864 291.607 168.616C286.827 167.692 281.888 167.692 277.108 168.616C270.046 170.017 263.641 173.395 258.788 178.277C252.988 184.329 249.998 192.199 250.449 200.224C250.649 204.331 251.67 208.37 253.462 212.142C255.214 215.638 257.699 218.787 260.779 221.411C266.126 225.837 272.79 228.721 279.932 229.7C284.764 230.363 289.692 230.146 294.431 229.062C295.718 228.762 296.985 228.393 298.224 227.959C298.665 227.806 299.127 227.707 299.596 227.664Z" fill="#E0E0E0"/>
<path d="M540.865 205.592C540.936 205.339 541.036 205.092 541.161 204.856C541.498 204.132 541.776 203.386 541.995 202.625C542.872 199.733 543.01 196.696 542.398 193.748C541.496 189.036 538.914 184.727 535.054 181.487C532.651 179.483 529.754 178.037 526.608 177.269C523.272 176.411 519.56 176.141 515.847 174.964C513.86 174.396 512.027 173.452 510.467 172.193C508.912 170.863 507.707 169.228 506.943 167.412C505.499 163.586 504.967 159.522 505.383 155.494C505.891 151.283 505.954 147.038 505.572 142.816C505.263 140.651 504.476 138.566 503.258 136.686C501.951 134.787 500.196 133.179 498.12 131.978C493.567 129.683 488.633 128.084 483.513 127.245C478.041 126.339 472.781 124.58 467.965 122.046C465.545 120.601 463.528 118.661 462.074 116.382C460.687 114.088 459.724 111.603 459.222 109.025C458.119 103.826 458.119 98.5052 457.043 93.3066C455.918 88.2336 453.397 83.5044 449.717 79.5626C446.038 75.6208 441.32 72.5957 436.007 70.771C430.774 69.2881 425.344 68.4631 419.867 68.3188C417.131 68.1558 414.423 67.7115 411.797 66.9946C409.223 66.2929 406.871 65.0401 404.937 63.3409C401.144 59.8588 399.826 55.2242 398.158 51.08C396.676 47.0717 394.294 43.3887 391.164 40.2659C385.404 34.6449 377.647 31.0656 369.267 30.1628C362.338 29.4582 355.345 30.8174 349.334 34.0373C344.814 36.449 340.908 39.7089 337.874 43.6008C335.972 46.0627 334.493 48.7751 333.489 51.644C333.205 52.3758 332.962 53.1206 332.763 53.8755C332.699 54.1437 332.609 54.4062 332.494 54.6602C332.681 53.616 332.941 52.5839 333.274 51.5704C334.216 48.6555 335.649 45.8923 337.525 43.3801C340.536 39.3967 344.454 36.0513 349.011 33.5714C355.127 30.2395 362.259 28.7948 369.348 29.4517C377.945 30.3333 385.917 33.9756 391.836 39.7264C395.07 42.9113 397.535 46.6787 399.073 50.7857C400.741 54.8809 402.086 59.3929 405.663 62.6298C409.241 65.8666 414.594 66.8966 419.84 67.3134C425.382 67.4268 430.879 68.2523 436.168 69.7656C441.656 71.6319 446.53 74.7444 450.329 78.8082C454.128 82.872 456.726 87.7527 457.877 92.9878C458.98 98.3336 458.98 103.655 460.056 108.706C460.513 111.212 461.422 113.632 462.746 115.867C464.105 118.036 466.014 119.878 468.314 121.237C477.595 126.681 489.431 125.994 498.416 131.193C500.574 132.458 502.409 134.13 503.796 136.097C505.054 138.09 505.868 140.29 506.19 142.571C506.579 146.842 506.507 151.138 505.975 155.396C505.542 159.32 506.037 163.284 507.428 167.019C508.134 168.73 509.256 170.272 510.709 171.531C512.227 172.852 514.059 173.834 516.063 174.4C519.667 175.553 523.406 175.872 526.823 176.852C530.048 177.689 533.014 179.2 535.485 181.266C539.381 184.604 541.971 189.014 542.855 193.822C543.435 196.824 543.223 199.908 542.237 202.821C541.986 203.57 541.671 204.3 541.295 205.004L540.865 205.592Z" fill="#FF6F19"/>
<path d="M380.322 195.026C379.864 194.393 379.194 193.912 378.412 193.653C377.49 193.528 376.548 193.674 375.722 194.07L353.61 202.04C354.202 213.221 361.976 217.537 367.814 217.635C370.729 217.652 373.593 216.94 376.097 215.579C378.601 214.217 380.648 212.257 382.017 209.911C383.274 207.53 383.781 204.878 383.482 202.25C383.182 199.622 382.089 197.121 380.322 195.026Z" fill="#FF9A6C"/>
<path d="M364.723 217.243C367.989 217.421 371.257 216.944 374.299 215.845C375.909 215.284 377.382 214.438 378.633 213.357C379.884 212.275 380.889 210.979 381.589 209.543C383.108 205.885 383.108 201.847 381.589 198.189C380.937 196.673 380.03 195.258 378.899 193.996L379.679 194.168C372.174 196.914 365.395 199.072 360.526 200.323C357.905 201.163 355.203 201.779 352.456 202.162C354.933 201.127 357.485 200.25 360.096 199.538C364.884 197.993 371.555 195.786 378.926 193.015L379.383 192.844L379.706 193.187C380.942 194.543 381.924 196.076 382.611 197.724C384.301 201.665 384.301 206.043 382.611 209.984C381.836 211.545 380.721 212.945 379.334 214.1C377.946 215.255 376.316 216.141 374.541 216.703C372.222 217.529 369.738 217.897 367.251 217.782C366.376 217.77 365.513 217.586 364.723 217.243Z" fill="#263238"/>
</svg>
