<svg width="30" height="34" viewBox="0 0 30 34" fill="none" xmlns="http://www.w3.org/2000/svg">
<path fill-rule="evenodd" clip-rule="evenodd" d="M18 14.5C17.1716 14.5 16.5 13.8284 16.5 13C16.5 12.1716 17.1716 11.5 18 11.5H25.5C26.3284 11.5 27 12.1716 27 13V20.5C27 21.3284 26.3284 22 25.5 22C24.6716 22 24 21.3284 24 20.5V16.6213L17.5607 23.0607C16.9749 23.6464 16.0251 23.6464 15.4393 23.0607L12 19.6213L5.56066 26.0607C4.97487 26.6464 4.02513 26.6464 3.43934 26.0607C2.85355 25.4749 2.85355 24.5251 3.43934 23.9393L10.9393 16.4393C11.5251 15.8536 12.4749 15.8536 13.0607 16.4393L16.5 19.8787L21.8787 14.5H18Z" fill="#EE3434"/>
<path d="M2.05 16V5.2H6.5125C6.6175 5.2 6.7525 5.205 6.9175 5.215C7.0825 5.22 7.235 5.235 7.375 5.26C8 5.355 8.515 5.5625 8.92 5.8825C9.33 6.2025 9.6325 6.6075 9.8275 7.0975C10.0275 7.5825 10.1275 8.1225 10.1275 8.7175C10.1275 9.3075 10.0275 9.8475 9.8275 10.3375C9.6275 10.8225 9.3225 11.225 8.9125 11.545C8.5075 11.865 7.995 12.0725 7.375 12.1675C7.235 12.1875 7.08 12.2025 6.91 12.2125C6.745 12.2225 6.6125 12.2275 6.5125 12.2275H3.8575V16H2.05ZM3.8575 10.54H6.4375C6.5375 10.54 6.65 10.535 6.775 10.525C6.9 10.515 7.015 10.495 7.12 10.465C7.42 10.39 7.655 10.2575 7.825 10.0675C8 9.8775 8.1225 9.6625 8.1925 9.4225C8.2675 9.1825 8.305 8.9475 8.305 8.7175C8.305 8.4875 8.2675 8.2525 8.1925 8.0125C8.1225 7.7675 8 7.55 7.825 7.36C7.655 7.17 7.42 7.0375 7.12 6.9625C7.015 6.9325 6.9 6.915 6.775 6.91C6.65 6.9 6.5375 6.895 6.4375 6.895H3.8575V10.54Z" fill="#EE3434"/>
</svg>
