<svg width="578" height="813" viewBox="0 0 578 813" fill="none" xmlns="http://www.w3.org/2000/svg">
<path d="M553.595 223.279L550.19 217.519C520.945 169.004 468.072 139.741 412.305 143.29C405.127 143.75 397.993 144.736 390.958 146.239C340.281 157.176 296.191 195.765 277.909 245.188C267.15 274.331 264.154 307.742 243.744 330.902C217.205 360.92 172.128 361.863 132.499 360.628C92.8697 359.394 47.759 360.44 21.3395 390.594C4.79321 409.451 -0.466863 436.314 0.911992 461.617C4.43573 528.475 50.755 588.475 109.671 618.167C168.588 647.858 237.939 650.584 302.422 637.504C392.677 619.11 478.575 568.727 530.137 490.949C581.699 413.171 594.824 307.228 553.595 223.279Z" fill="#F5F5F5"/>
<path d="M532 811.858C532 811.363 433.462 811 311.95 811C190.437 811 91.8789 811.198 91.8789 811.858C91.8789 812.519 190.386 812.717 311.95 812.717C433.513 812.717 532 812.321 532 811.858Z" fill="#263238"/>
<path d="M209.302 79.5121L195.191 77.9415L194.957 77.9153L194.788 78.0798C186.48 86.1541 175.308 90.9706 163.466 91.5765C151.624 92.1824 139.976 88.5334 130.812 81.3518C121.648 74.1706 115.633 63.9784 113.94 52.7817C112.248 41.5854 115 30.1872 121.659 20.8268C128.319 11.4657 138.407 4.81847 149.944 2.19863C161.481 -0.421259 173.626 1.1776 183.989 6.67858C194.352 12.1793 202.18 21.1815 205.942 31.9101C209.703 42.638 209.129 54.3218 204.331 64.6666L204.246 64.8494L204.312 65.04L209.302 79.5121Z" fill="white" stroke="black"/>
<path d="M210.032 80.0965L209.66 79.0898C209.433 78.4186 209.081 77.4514 208.627 76.1683L204.66 64.8967H204.929C204.899 64.9192 204.863 64.9314 204.826 64.9314C204.788 64.9314 204.752 64.9192 204.722 64.8967C204.7 64.8719 204.688 64.8404 204.688 64.8079C204.688 64.7754 204.7 64.744 204.722 64.7191C207.901 57.7612 209.208 50.1542 208.524 42.5905C208.313 40.2495 207.92 37.9269 207.346 35.6421C206.672 33.2047 205.816 30.8166 204.784 28.4962C202.529 23.4456 199.33 18.8299 195.343 14.8756C189.138 8.72584 181.244 4.37305 172.568 2.31724C163.891 0.261435 154.783 0.586011 146.29 3.25368C137.798 5.92136 130.265 10.8239 124.558 17.3981C118.85 23.9724 115.199 31.9516 114.025 40.4191C113.088 47.4182 113.845 54.5293 116.235 61.2054C118.487 67.4849 122.178 73.2042 127.041 77.9449C135.651 86.4336 147.38 91.389 159.745 91.7629H161.811C162.499 91.8156 163.19 91.8156 163.877 91.7629L167.782 91.4273C170.229 91.0589 172.65 90.5514 175.034 89.9073C182.635 87.7348 189.546 83.7784 195.136 78.3989H195.26L206.272 79.7215L209.143 80.0571L210.135 80.1952H209.205L206.375 79.8991L195.219 78.7542H195.343C189.751 84.2192 182.809 88.2515 175.158 90.4798C172.752 91.13 170.311 91.6506 167.844 92.0392L163.919 92.3946C163.231 92.4459 162.54 92.4459 161.853 92.3946H159.787C147.314 92.0412 135.468 87.0893 126.731 78.5766C121.797 73.7726 118.043 67.9807 115.74 61.6199C113.203 54.7915 112.361 47.4931 113.281 40.3007C114.291 32.8649 117.2 25.7808 121.752 19.6724C122.291 18.8978 122.884 18.1591 123.528 17.4615L125.367 15.3099L127.433 13.3359C128.077 12.6731 128.767 12.0531 129.499 11.4803L131.71 9.74318C132.458 9.17689 133.237 8.64971 134.044 8.16397C134.829 7.67047 135.594 7.13749 136.4 6.68347L138.899 5.42011C145.4 2.17636 152.599 0.419402 159.931 0.287713C166.585 0.166241 173.193 1.36089 179.34 3.7966C185.488 6.23231 191.041 9.85644 195.652 14.4413C199.679 18.4527 202.9 23.1363 205.156 28.2593C206.191 30.5969 207.04 33.0053 207.697 35.4644C208.291 37.772 208.685 40.1224 208.875 42.4918C209.492 50.1605 208.071 57.8539 204.743 64.8573L204.495 64.7191C204.508 64.7059 204.525 64.6955 204.542 64.6884C204.56 64.6813 204.579 64.6776 204.598 64.6776C204.618 64.6776 204.637 64.6813 204.654 64.6884C204.672 64.6955 204.688 64.7059 204.702 64.7191C206.375 69.6936 207.656 73.5231 208.524 76.1288C208.937 77.3922 209.267 78.3594 209.474 79.0306C209.681 79.7017 210.032 80.0965 210.032 80.0965Z" fill="#263238"/>
<path d="M138.404 48.0188L144.292 41.9981L156.399 51.6115L178.753 29.6211L184.62 35.2667L155.944 62.8632L138.404 48.0188Z" fill="#00638D"/>
<path d="M270.663 164.496L261.49 166.036L181.102 221.308L113.275 184.236L93.6691 215.544C93.6691 215.544 165.876 273.757 179.801 274.428C190.131 274.941 241.078 246.358 241.078 246.358L270.663 164.496Z" fill="#00638D"/>
<path d="M107.015 211.735C107.015 211.636 108.007 211.083 109.474 211.932C109.891 212.196 110.229 212.558 110.457 212.983C110.685 213.409 110.795 213.883 110.776 214.36C110.77 214.96 110.575 215.545 110.217 216.038C109.858 216.53 109.352 216.908 108.765 217.121C108.178 217.334 107.537 217.373 106.926 217.233C106.315 217.093 105.763 216.779 105.342 216.334C104.995 215.989 104.75 215.563 104.63 215.099C104.51 214.634 104.521 214.148 104.66 213.689C105.156 212.129 106.354 211.873 106.354 211.991C106.354 212.11 105.59 212.603 105.404 213.847C105.341 214.177 105.366 214.516 105.478 214.834C105.59 215.152 105.785 215.437 106.044 215.663C106.342 215.949 106.719 216.147 107.132 216.233C107.544 216.319 107.973 216.289 108.368 216.147C108.764 216.005 109.107 215.758 109.358 215.434C109.609 215.109 109.757 214.723 109.784 214.321C109.823 213.985 109.771 213.646 109.634 213.334C109.496 213.023 109.278 212.751 108.999 212.544C107.924 211.695 107.036 211.873 107.015 211.735Z" fill="#263238"/>
<path d="M181.02 244.305C180.507 240.443 180.362 236.545 180.586 232.658C180.437 228.766 180.645 224.869 181.205 221.012C181.718 224.88 181.87 228.784 181.66 232.678C181.796 236.564 181.581 240.454 181.02 244.305Z" fill="#263238"/>
<path d="M350.225 738.043L357.539 779.497C357.539 779.497 315.888 800.54 316.446 808.337L401.152 797.658L392.516 732.516L350.225 738.043Z" fill="#00638D"/>
<path d="M383.24 772.706C384.09 772.837 384.859 773.265 385.397 773.907C385.935 774.549 386.205 775.359 386.153 776.18C386.049 776.996 385.619 777.741 384.952 778.26C384.286 778.779 383.435 779.031 382.579 778.964C381.681 778.819 380.872 778.361 380.307 777.68C379.742 776.998 379.462 776.14 379.521 775.272C379.728 774.42 380.277 773.68 381.05 773.211C381.823 772.742 382.758 772.582 383.653 772.765" fill="#E0E0E0"/>
<path d="M401.441 799.375L400.615 793.059L319.235 803.837C319.235 803.837 315.681 805.811 316.446 808.357L401.441 799.375Z" fill="#263238"/>
<path d="M316.425 808.416C315.64 805.929 319.194 803.856 319.235 803.837L400.656 793.059L401.503 799.415L316.425 808.416ZM319.256 803.876C319.049 803.995 315.805 805.969 316.487 808.298L401.296 799.316L400.47 793.118L319.256 803.876Z" fill="#455A64"/>
<path d="M356.113 779.279C356.113 779.674 358.282 779.595 360.493 780.602C362.704 781.608 364.005 783.148 364.377 782.931C364.749 782.714 363.799 780.523 361.092 779.358C358.386 778.193 355.968 778.924 356.113 779.279Z" fill="#263238"/>
<path d="M347.725 783.919C347.725 784.314 349.564 784.748 351.196 786.248C352.828 787.749 353.489 789.466 353.902 789.387C354.316 789.308 354.254 787.058 352.188 785.242C350.122 783.426 347.684 783.544 347.725 783.919Z" fill="#263238"/>
<path d="M344.089 794.716C344.461 794.716 344.771 792.742 343.407 790.669C342.044 788.597 339.998 788.024 339.874 788.38C339.75 788.735 341.093 789.722 342.188 791.42C343.283 793.117 343.655 794.716 344.089 794.716Z" fill="#263238"/>
<path d="M355.555 769.646C355.762 769.981 357.621 769.211 359.956 769.053C362.29 768.895 364.232 769.389 364.398 769.053C364.563 768.718 362.621 767.494 359.832 767.691C357.043 767.889 355.307 769.369 355.555 769.646Z" fill="#263238"/>
<path d="M274.361 732.199L277.337 774.166C277.337 774.166 233.723 791.182 233.475 798.979L318.863 796.334L316.962 730.758L274.361 732.199Z" fill="#00638D"/>
<path d="M303.657 769.804C304.49 770.014 305.211 770.512 305.68 771.201C306.15 771.891 306.335 772.722 306.198 773.535C306.005 774.333 305.499 775.029 304.784 775.481C304.069 775.933 303.2 776.105 302.356 775.963C301.477 775.739 300.718 775.211 300.225 774.481C299.732 773.751 299.542 772.872 299.691 772.015C299.979 771.198 300.588 770.519 301.39 770.121C302.191 769.724 303.122 769.638 303.988 769.883" fill="#E0E0E0"/>
<path d="M319.008 798.032L318.842 791.695L236.76 794.735C236.76 794.735 233 796.453 233.517 798.979L319.008 798.032Z" fill="#263238"/>
<path d="M233.475 799.039C232.959 796.492 236.698 794.755 236.74 794.735L318.863 791.676L319.049 798.091L233.475 799.039ZM236.76 794.795C236.554 794.893 233.124 796.552 233.558 798.94L318.966 797.993L318.78 791.735L236.76 794.795Z" fill="#455A64"/>
<path d="M275.994 773.792C275.994 774.187 278.06 774.305 280.126 775.51C282.192 776.714 283.369 778.372 283.741 778.214C284.113 778.056 283.411 775.746 280.849 774.266C278.287 772.785 275.89 773.417 275.994 773.792Z" fill="#263238"/>
<path d="M267.151 777.602C267.151 777.996 268.907 778.608 270.374 780.247C271.841 781.885 272.316 783.662 272.729 783.642C273.142 783.622 273.328 781.352 271.469 779.339C269.61 777.325 267.151 777.227 267.151 777.602Z" fill="#263238"/>
<path d="M262.42 788.003C262.792 788.003 263.308 786.029 262.172 783.917C261.036 781.805 259.052 780.956 258.887 781.292C258.722 781.627 259.961 782.772 260.953 784.549C261.945 786.325 262.007 787.984 262.42 788.003Z" fill="#263238"/>
<path d="M276.407 764.158C276.593 764.513 278.473 763.901 280.849 763.98C283.225 764.059 285.084 764.711 285.291 764.355C285.497 764 283.679 762.638 280.89 762.599C278.101 762.559 276.2 763.842 276.407 764.158Z" fill="#263238"/>
<path d="M229.818 437.659C229.818 437.659 242.71 591.019 245.066 611.825C247.132 630.44 267.089 770.476 267.089 770.476L324.069 768.699L314.215 546.526V420.584L238.496 415.195L229.818 437.659Z" fill="#263238"/>
<path d="M274.093 428.183L378.57 410.871C377.868 414.286 383.198 452.325 383.198 452.325L372.372 478.796L373.24 578.819L401.172 767.652L347.766 772.646C347.766 772.646 313.677 648.62 308.512 623.451C303.347 598.283 291.385 548.025 289.257 533.753C288.1 526.054 280.787 493.562 277.068 467.485" fill="#263238"/>
<path d="M277.006 467.485C277.006 467.485 277.109 467.979 277.274 468.986C277.44 469.992 277.688 471.512 277.998 473.447C278.638 477.395 279.63 483.179 281.035 490.7C282.439 498.221 284.258 507.4 286.447 518.119C288.637 528.837 290.579 541.234 293.678 554.835L303.678 599.625C305.496 607.718 307.335 616.147 309.194 624.853C311.054 633.558 313.326 642.421 315.743 651.6C325.226 688.238 336.403 728.962 348.221 772.508L347.663 772.153L401.09 767.139L400.615 767.731C398.321 752.215 395.883 735.811 393.425 719.17C386.132 669.82 379.128 622.444 372.765 578.898C372.476 542.734 372.207 509.137 371.959 478.875L382.702 452.108V452.305C381.656 444.804 380.712 437.612 379.872 430.73C379.459 427.295 379.066 423.919 378.715 420.623C378.286 417.349 378.086 414.052 378.116 410.753L378.529 411.148L301.695 423.722L281.2 427.038L275.89 427.867C274.713 428.045 274.093 428.104 274.093 428.104L275.87 427.769L281.159 426.841L301.674 423.367L378.446 410.496H378.88V410.97C378.868 414.177 379.075 417.382 379.5 420.564C379.851 423.86 380.265 427.236 380.678 430.67C381.545 437.54 382.503 444.725 383.549 452.226V452.325V452.424C380.106 460.912 376.518 469.762 372.786 478.974V478.816C373.075 509.078 373.385 542.655 373.736 578.839C380.203 622.405 387.206 669.643 394.52 719.111C396.999 735.732 399.416 752.136 401.71 767.672V768.185H401.152L347.725 773.159H347.291L347.167 772.745C335.267 729.179 324.255 688.455 314.834 651.778C312.5 642.599 310.227 633.696 308.306 624.991C306.384 616.286 304.608 607.876 302.872 599.763C299.298 583.557 295.992 568.554 292.997 554.934C290.001 541.313 288.183 528.916 285.89 518.198C283.596 507.479 281.985 498.24 280.642 490.739C279.299 483.238 278.349 477.395 277.77 473.467C277.502 471.493 277.274 470.012 277.13 468.986C276.985 467.959 277.006 467.485 277.006 467.485Z" fill="#455A64"/>
<path d="M344.812 145.802C344.812 145.802 376.133 169.391 376.814 173.122L366.36 329.956L393.652 434.282C393.652 434.282 304.938 449.897 226.657 446.758L233.579 289.746L237.525 219.511L251.346 187.789L264.093 176.083L259.011 172.135L281.468 148.013L336.837 128.51L344.812 145.802Z" fill="#00638D"/>
<g opacity="0.3">
<path d="M367.621 335.207H231.575L230.893 350.663C230.893 350.663 347.477 352.637 370.906 347.327L367.621 335.207Z" fill="black"/>
</g>
<path d="M343.655 143.316C343.231 143.871 342.754 144.386 342.23 144.856L337.974 149.061L322.148 164.379H322.024L309.917 167.36L310.289 166.748C310.868 168.978 311.467 171.367 312.107 173.815V174.032L311.963 174.229L289.237 205.932L252.545 256.663L241.306 271.942L238.207 276.048C237.862 276.545 237.475 277.014 237.05 277.45C237.308 276.906 237.627 276.39 238 275.91L240.913 271.686C243.557 267.915 247.276 262.664 251.842 256.209L288.245 205.379C296.509 193.989 304.298 183.211 311.116 173.795V174.209L309.339 167.143L309.236 166.669L309.731 166.55L321.859 163.688L321.652 163.807L337.767 148.765L342.188 144.817C342.634 144.28 343.125 143.778 343.655 143.316Z" fill="#263238"/>
<path d="M336.879 128.51C334.523 129.339 305.62 151.29 290.311 177.643C275.002 203.996 240.727 266.295 240.727 266.295L245.251 245.153L270.87 171.405L281.014 149.059L336.879 128.51Z" fill="#F5F5F5"/>
<path d="M391.855 214.537C391.855 214.537 391.648 161.101 355.741 167.536L328.387 191.105C326.117 198.804 325.498 206.861 326.569 214.793C326.569 216.945 340.04 291.997 340.04 291.997L230.046 288.187L224.034 336.668C224.034 336.668 360.968 348.512 380.43 337.734C399.892 326.956 397.64 321.291 398.383 306.999C399.127 292.707 391.855 214.537 391.855 214.537Z" fill="#00638D"/>
<path d="M283.225 391.388L285.621 369.062L348.304 363.238L358.943 382.623L283.225 391.388Z" fill="#00638D"/>
<path d="M283.225 391.388C283.225 391.388 283.803 391.27 284.795 391.132L289.154 390.559L305.124 388.585L358.84 382.091L358.365 382.94L350.68 368.944L347.704 363.555L348.304 363.871L285.601 369.438L285.972 369.102C285.146 375.952 284.464 381.439 283.906 385.368C283.658 387.204 283.473 388.684 283.328 389.789C283.291 390.328 283.208 390.863 283.08 391.388C283.048 390.909 283.048 390.427 283.08 389.947C283.183 388.842 283.307 387.401 283.452 385.585C283.824 381.637 284.361 375.991 285.001 369.023V368.707H285.353L347.994 362.785H348.386L348.593 363.14L351.547 368.51L359.233 382.525L359.646 383.256L358.778 383.354L304.484 389.276L288.617 390.954L284.485 391.369L283.225 391.388Z" fill="#263238"/>
<g opacity="0.3">
<path d="M286.799 390.973L285.807 396.974L357.787 387.913L355.617 383.57L286.799 390.973Z" fill="black"/>
</g>
<path d="M311.384 248.174H276.056V258.577H311.384V248.174Z" fill="#F5F5F5"/>
<path d="M336.238 128.807L337.726 58.8881C338.697 34.904 326.218 14.1572 301.095 13.8809L298.761 13.9993C287.487 14.5098 276.827 19.0591 268.906 26.7413C260.984 34.4234 256.382 44.6747 256.015 55.4533C255.292 76.2395 254.776 99.2366 255.478 110.35C256.924 133.328 281.179 135.815 281.179 135.815C281.179 136.525 281.179 142.25 281.035 149.1V160.529L336.238 128.807Z" fill="#FFCEB4"/>
<path d="M281.117 135.775C292.262 135.255 303.017 131.692 312.107 125.51C312.107 125.51 305.29 142.644 281.117 141.677V135.775Z" fill="#FF9C67"/>
<path d="M295.331 67.1581C295.848 67.316 298.286 65.6381 302.211 64.7498C306.136 63.8615 309.297 64.2761 309.649 63.9207C310 63.5654 309.235 63.4272 307.831 63.2298C305.807 62.9981 303.756 63.1185 301.777 63.5851C299.845 63.9857 298.013 64.7434 296.385 65.8158C295.331 66.5659 295.063 67.0989 295.331 67.1581Z" fill="#263238"/>
<path d="M295.228 74.2849C295.26 75.0965 295.625 75.8635 296.243 76.421C296.861 76.9784 297.684 77.2817 298.534 77.2656C298.947 77.2788 299.36 77.2127 299.747 77.071C300.133 76.9294 300.486 76.7151 300.785 76.4409C301.083 76.1668 301.321 75.8382 301.485 75.4747C301.648 75.1111 301.733 74.72 301.736 74.3244C301.709 73.5128 301.35 72.7437 300.735 72.1826C300.121 71.6215 299.301 71.3131 298.451 71.3239C298.034 71.3107 297.619 71.3774 297.23 71.52C296.841 71.6627 296.486 71.8784 296.185 72.1544C295.885 72.4304 295.645 72.7611 295.481 73.1271C295.317 73.493 295.231 73.8867 295.228 74.2849Z" fill="#263238"/>
<path d="M285.394 92.2671C283.439 91.7646 281.427 91.4928 279.403 91.4578C278.452 91.4578 277.564 91.2604 277.337 90.6484C277.221 89.72 277.394 88.7798 277.832 87.9441C278.617 85.7332 279.444 83.4039 280.291 80.9561C283.679 71.0861 286.096 62.815 285.683 62.6966C285.27 62.5782 282.15 70.5926 278.762 80.4626C277.956 82.9104 277.171 85.2594 276.428 87.49C275.904 88.6131 275.794 89.8728 276.118 91.063C276.276 91.3728 276.505 91.6451 276.787 91.8602C277.07 92.0752 277.398 92.2277 277.75 92.3066C278.277 92.4259 278.82 92.4724 279.361 92.4448C281.372 92.6368 283.4 92.5771 285.394 92.2671Z" fill="#263238"/>
<path d="M298.265 51.3857C298.637 52.2345 301.881 51.6818 305.723 51.9581C309.566 52.2345 312.727 53.1228 313.182 52.3135C313.388 51.9384 312.81 51.1291 311.529 50.3395C309.83 49.3627 307.909 48.7938 305.93 48.6813C303.956 48.5382 301.976 48.8637 300.166 49.6288C298.782 50.2408 298.1 50.9711 298.265 51.3857Z" fill="#263238"/>
<path d="M259.879 57.5652C260.271 58.2758 263.432 57.5652 267.254 57.5652C271.076 57.5652 274.196 58.0784 274.609 57.3678C274.795 57.0322 274.196 56.3808 272.874 55.8083C271.111 55.0732 269.198 54.7225 267.275 54.7818C265.335 54.7877 263.418 55.1916 261.656 55.9662C260.333 56.5782 259.693 57.2296 259.879 57.5652Z" fill="#263238"/>
<path d="M336.589 76.3387C337.003 76.1413 353.861 71.0682 353.675 87.5905C353.489 104.113 336.156 100.54 336.135 100.066C336.114 99.5925 336.589 76.3387 336.589 76.3387Z" fill="#FFCEB4"/>
<path d="M341.486 93.8659C341.486 93.8659 341.775 94.0633 342.291 94.3002C343.014 94.5759 343.82 94.5759 344.543 94.3002C346.382 93.6685 347.952 90.9246 348.056 87.9439C348.117 86.5301 347.849 85.1209 347.271 83.8182C347.113 83.2972 346.826 82.8203 346.434 82.4284C346.042 82.0365 345.556 81.7412 345.019 81.5679C344.675 81.4822 344.311 81.512 343.987 81.6521C343.664 81.7922 343.401 82.0343 343.242 82.3377C342.994 82.8115 343.097 83.1471 343.015 83.1668C342.932 83.1866 342.643 82.8905 342.787 82.1996C342.901 81.7948 343.147 81.4353 343.49 81.1731C343.728 81.0055 343.998 80.8844 344.285 80.8167C344.573 80.7489 344.871 80.7359 345.163 80.7783C345.87 80.9208 346.528 81.233 347.073 81.6855C347.619 82.1379 348.035 82.7156 348.283 83.3642C348.994 84.8063 349.335 86.3901 349.275 87.9834C349.13 91.3194 347.312 94.4186 344.791 95.0898C344.325 95.2099 343.837 95.2297 343.362 95.1478C342.887 95.0659 342.436 94.8842 342.044 94.616C341.506 94.2607 341.382 93.8856 341.486 93.8659Z" fill="#FF9C67"/>
<path d="M260.209 65.4423C260.581 65.8173 263.556 65.6397 267.378 66.8438C271.2 68.0479 273.721 69.8838 274.196 69.7851C274.671 69.6864 274.196 69.1731 273.019 68.3243C271.392 67.156 269.568 66.2614 267.626 65.6791C265.766 65.075 263.805 64.8008 261.841 64.8698C260.54 64.9685 260.023 65.2646 260.209 65.4423Z" fill="#263238"/>
<path d="M261.573 73.8902C261.6 74.7018 261.959 75.4708 262.574 76.032C263.188 76.5931 264.008 76.9014 264.858 76.8907C265.273 76.9012 265.686 76.8325 266.072 76.6886C266.459 76.5448 266.812 76.3287 267.11 76.0529C267.408 75.7772 267.646 75.4474 267.809 75.0828C267.972 74.7182 268.058 74.3262 268.06 73.9297C268.028 73.1215 267.666 72.3575 267.053 71.8006C266.439 71.2436 265.622 70.938 264.775 70.9489C264.361 70.9357 263.949 71.0019 263.562 71.1435C263.176 71.2852 262.823 71.4994 262.524 71.7736C262.226 72.0478 261.988 72.3764 261.824 72.7399C261.661 73.1034 261.576 73.4945 261.573 73.8902Z" fill="#263238"/>
<path d="M224.034 34.015C224.352 33.0997 225.035 32.341 225.934 31.9028C227.886 31.105 230.028 30.8254 232.132 31.0935C237.357 31.1142 242.52 30.0076 247.235 27.8561C245.635 27.0518 244.172 26.0201 242.896 24.7964C241.55 23.5408 240.589 21.9579 240.116 20.2185C239.642 18.4792 239.675 16.6493 240.21 14.9264C240.293 14.6 240.457 14.2972 240.687 14.0432C240.917 13.7891 241.207 13.5911 241.533 13.4656C242.607 13.1695 243.599 14.196 244.239 15.0054C245.151 16.2589 246.4 17.2543 247.854 17.8866C249.309 18.5189 250.915 18.7646 252.503 18.598C254.702 18.5062 256.853 17.9536 258.804 16.9794L259.011 16.7622L261.573 14.3934C267.915 8.70831 273.328 4.78004 278.845 2.80604C286.943 -0.0759987 300.372 -1.00377 308.678 1.28607C316.983 3.57591 324.297 10.248 325.206 18.4599C329.999 14.7882 337.023 14.9856 342.663 17.315H342.808C349.109 19.6443 352.56 26.1387 354.254 32.3766C354.254 32.7121 354.44 33.0675 354.522 33.403C356.555 36.7234 359.388 39.5319 362.786 41.5951C363.385 41.9505 364.067 42.3848 364.129 43.0559C364.191 43.7271 363.592 44.2798 362.993 44.6549C361.438 45.6702 359.667 46.3444 357.807 46.6289C358.362 48.1249 359.053 49.5715 359.873 50.9519C360.555 52.1166 361.381 53.5378 360.72 54.7222C360.424 55.1618 359.994 55.5036 359.487 55.7014C358.981 55.8991 358.423 55.9432 357.89 55.8277C356.822 55.5777 355.822 55.1134 354.956 54.4656L357.022 59.4006C354.703 59.7026 352.343 59.4933 350.122 58.7887C348.818 64.5358 347.183 70.2098 345.225 75.7848C342.581 75.7848 340.081 75.0544 338.387 76.4165C336.114 78.2721 335.019 81.845 331.362 80.3645C329.503 79.6341 327.891 75.8243 327.23 73.9688C323.371 61.6582 322.329 48.6987 324.173 35.9692C321.603 33.2181 318.503 30.9661 315.041 29.3366L315.33 29.5932C308.678 27.2047 301.137 24.8162 294.67 27.6192C289.67 29.8301 286.633 34.6664 282.853 38.4762C279.534 41.9625 275.494 44.7523 270.988 46.6687C266.482 48.5852 261.609 49.5867 256.676 49.6096C255.561 56.5186 256.098 65.4016 255.581 71.7579L249.611 61.197C249.177 60.4271 248.805 59.6572 248.454 58.8676L248.33 58.6505C247.803 57.3826 247.203 56.1436 246.532 54.9394C246.151 55.3179 245.696 55.6209 245.192 55.8312C244.688 56.0415 244.146 56.1549 243.596 56.165C242.486 56.1853 241.413 55.7835 240.613 55.048C239.813 54.3124 239.352 53.3033 239.331 52.2427C239.309 51.1821 239.73 50.1568 240.5 49.3925C241.085 48.6423 241.781 47.9773 242.566 47.4185C241.718 48.1652 240.683 48.6888 239.56 48.9379C238.437 49.1871 237.266 49.1533 236.161 48.8397C235.068 48.4938 234.126 47.813 233.479 46.9028C232.833 45.9926 232.519 44.904 232.587 43.806C232.697 43.0656 233.008 42.3657 233.491 41.7767C233.973 41.1877 234.609 40.7302 235.335 40.4502C232.354 40.6246 229.388 39.9367 226.823 38.4762C225.025 37.5879 223.414 36.0482 224.034 34.015Z" fill="#263238"/>
<path d="M317.562 20.9082C318.399 21.5707 319.187 22.2897 319.917 23.0599C321.747 25.3058 322.942 27.9637 323.388 30.7782C323.754 32.7318 323.906 34.7165 323.842 36.7002C323.842 38.8124 323.574 41.0825 323.326 43.4513C323.041 45.9487 322.917 48.4603 322.954 50.9722C322.989 52.2971 323.134 53.6172 323.388 54.9202C323.554 56.3451 324.101 57.7049 324.978 58.8682C325.387 59.3235 325.912 59.6701 326.502 59.8742C327.092 60.0782 327.727 60.1329 328.346 60.0329C329.533 59.86 330.624 59.3107 331.445 58.4734C332.787 56.7878 333.635 54.7917 333.904 52.6896H333.408C334.079 54.4442 335.019 56.094 336.197 57.5851C337.332 58.9663 338.983 59.8723 340.804 60.1118C341.649 60.2267 342.511 60.1032 343.283 59.7565C344.016 59.4295 344.623 58.891 345.019 58.2168C345.383 57.617 345.575 56.9362 345.576 56.2428C345.565 55.5813 345.309 54.9449 344.853 54.4465L344.585 54.6439C345.971 56.2462 347.696 57.5512 349.647 58.4734C350.162 58.7163 350.693 58.9273 351.237 59.1051L351.795 59.263C351.795 59.263 351.63 59.263 351.279 59.0261C350.927 58.7893 350.39 58.6511 349.729 58.3155C347.849 57.3177 346.192 55.9762 344.853 54.3675L344.605 54.5649C344.975 55.0645 345.173 55.6609 345.173 56.2724C345.173 56.8839 344.975 57.4804 344.605 57.9799C344.237 58.5787 343.69 59.0596 343.035 59.3617C342.324 59.6441 341.546 59.7395 340.783 59.6381C339.087 59.3887 337.557 58.5266 336.507 57.2298C335.377 55.7684 334.472 54.1596 333.821 52.4527L333.511 51.7223L333.325 52.5119C333.06 54.5135 332.247 56.413 330.97 58.0194C330.234 58.7686 329.262 59.2676 328.201 59.4407C327.676 59.5249 327.136 59.4764 326.636 59.2998C326.136 59.1232 325.692 58.8247 325.35 58.4339C324.539 57.3659 324.033 56.1139 323.883 54.8018C323.624 53.4996 323.479 52.179 323.45 50.8538C323.401 48.3624 323.511 45.8706 323.78 43.3921C324.007 41.0233 324.235 38.7532 324.255 36.6015C324.297 34.6149 324.117 32.6296 323.718 30.6795C323.235 27.8237 321.958 25.1444 320.02 22.9217C319.322 22.1261 318.491 21.4458 317.562 20.9082Z" fill="#455A64"/>
<path d="M242.669 41.4174C242.669 41.4174 242.669 41.4174 242.855 41.595L243.433 42.0096C243.752 42.2517 244.091 42.4695 244.446 42.661C244.907 42.951 245.391 43.2083 245.892 43.4308C249.108 44.9057 252.66 45.5845 256.222 45.4048C261.479 45.2005 266.561 43.5409 270.849 40.6278C276.032 37.0429 280.392 32.4812 283.658 27.2243C285.497 24.4804 286.985 21.6774 288.637 19.0717C290.132 16.5478 291.996 14.2412 294.174 12.2219C296.141 10.3743 298.553 9.01824 301.199 8.27391C302.401 7.99381 303.641 7.88734 304.876 7.95807C306.012 8.05706 307.13 8.29592 308.202 8.66871C310.048 9.32043 311.725 10.3437 313.12 11.6692C314.177 12.6683 315.063 13.8209 315.743 15.0842C316.253 16.2013 316.64 17.3655 316.9 18.5584C316.905 18.4795 316.905 18.4005 316.9 18.3216C316.9 18.1242 316.9 17.8873 316.9 17.6109C316.73 16.7151 316.452 15.8409 316.074 15.0052C315.42 13.69 314.54 12.4889 313.471 11.4521C311.997 10.1391 310.242 9.14882 308.326 8.55027C307.225 8.1507 306.071 7.89829 304.897 7.80016C303.622 7.69751 302.339 7.79081 301.095 8.07652C298.365 8.79264 295.865 10.1498 293.823 12.0245C291.587 14.0609 289.68 16.4025 288.162 18.973C286.489 21.5787 285.001 24.3817 283.183 27.0861C279.956 32.2882 275.663 36.8136 270.56 40.3909C266.348 43.2575 261.366 44.9149 256.201 45.168C252.723 45.348 249.251 44.725 246.078 43.3519C244.898 42.7796 243.759 42.1334 242.669 41.4174Z" fill="#455A64"/>
<path d="M240.748 31.2909C240.748 31.2909 241.037 31.5278 241.595 31.8831C242.403 32.3719 243.245 32.8072 244.115 33.1859C245.407 33.752 246.748 34.2078 248.123 34.548C249.809 34.9591 251.531 35.2234 253.268 35.3376C255.006 35.4085 256.748 35.3359 258.474 35.1204C259.876 34.9239 261.259 34.6136 262.606 34.1927C263.52 33.9245 264.412 33.5878 265.271 33.1859C265.591 33.0517 265.896 32.8863 266.18 32.6924C266.18 32.6924 264.796 33.2057 262.503 33.8373C261.147 34.1967 259.766 34.4606 258.371 34.6269C256.678 34.8219 254.97 34.8747 253.268 34.7849C251.569 34.683 249.883 34.4452 248.226 34.0742C246.881 33.7527 245.562 33.337 244.28 32.8306C242.07 31.962 240.81 31.2119 240.748 31.2909Z" fill="#455A64"/>
<path d="M297.48 98.25C297.48 98.25 288.72 100.698 285.394 101.843L286.737 105.495C287.032 106.246 287.483 106.932 288.064 107.511C288.645 108.091 289.343 108.551 290.116 108.865C290.889 109.179 291.72 109.34 292.56 109.337C293.4 109.334 294.23 109.169 295.001 108.85C296.094 108.364 297.006 107.57 297.615 106.576C298.224 105.581 298.502 104.433 298.41 103.284C298.234 101.586 297.923 99.9029 297.48 98.25Z" fill="#FF9C67"/>
<path d="M285.394 101.843C289.225 100.111 293.215 98.7235 297.315 97.6974L297.935 97.5L298.079 98.1514V98.408C298.482 99.9962 298.745 101.614 298.864 103.244C298.975 104.668 298.517 106.078 297.583 107.192C295.951 109.166 294.216 109.166 294.236 109.166C294.257 109.166 295.641 108.554 296.902 106.798C298.162 105.041 297.687 102.04 296.902 98.7041V98.4278L297.666 98.8818C293.682 100.237 289.573 101.228 285.394 101.843Z" fill="#263238"/>
<path d="M199.903 257.275C199.813 257.006 199.655 256.762 199.443 256.566C199.231 256.369 198.972 256.225 198.688 256.147C198.404 256.069 198.104 256.059 197.815 256.118C197.526 256.177 197.257 256.303 197.031 256.485C194.758 258.361 191.804 262.407 193.478 269.237C194.393 273.401 196.278 277.314 198.994 280.686L178.788 286.411C178.788 286.411 171.867 289.609 173.582 293.754C175.297 297.9 176.247 297.406 176.247 297.406C175.578 297.593 174.954 297.906 174.414 298.327C173.874 298.749 173.428 299.269 173.102 299.858C172.776 300.448 172.578 301.093 172.518 301.757C172.459 302.421 172.539 303.09 172.756 303.723C173.458 306.664 177.404 308.224 177.404 308.224C177.404 308.224 177.073 313.554 178.045 314.541C179.985 315.574 182.073 316.332 184.243 316.791C184.243 316.791 183.788 320.285 186.143 321.509C188.498 322.733 199.944 323.483 199.944 323.483C199.944 323.483 213.228 321.884 218.249 321.094L225.872 321.864L229.674 291.326C229.674 291.326 223.331 290.083 222.071 289.056C219.385 286.865 209.675 274.745 209.675 274.745C209.675 274.745 203.869 269.672 202.155 265.309C201.263 262.669 200.511 259.987 199.903 257.275Z" fill="#FFCEB4"/>
<path d="M188.271 295.076C184.254 296.036 180.165 296.696 176.041 297.05C178.027 296.49 180.059 296.087 182.115 295.846C184.144 295.447 186.202 295.189 188.271 295.076Z" fill="#FF9C67"/>
<path d="M192.321 306.624C191.618 306.855 190.89 307.007 190.151 307.078C188.808 307.275 186.949 307.512 184.862 307.69C182.776 307.867 180.916 307.966 179.553 308.005C178.818 308.079 178.077 308.079 177.342 308.005C178.061 307.843 178.794 307.751 179.532 307.729L184.821 307.295L190.11 306.801C190.839 306.676 191.58 306.616 192.321 306.624Z" fill="#FF9C67"/>
<path d="M192.63 316.831C191.261 317.006 189.875 317.039 188.498 316.929C187.11 316.969 185.722 316.843 184.366 316.554C185.739 316.406 187.125 316.406 188.498 316.554C189.882 316.49 191.269 316.583 192.63 316.831Z" fill="#FF9C67"/>
<path d="M237.525 277.449C237.476 276.956 237.476 276.461 237.525 275.968V271.764C237.525 268.112 237.917 262.822 238.64 256.327C240.758 239.426 243.876 222.653 247.979 206.089C249.487 199.831 251.036 193.791 252.627 188.066V187.967L263.928 175.097L264.031 175.748L259.032 172.393L258.619 172.116L258.949 171.761L274.919 155.14L279.402 150.679L280.601 149.494C280.731 149.355 280.876 149.229 281.035 149.119C281.035 149.119 280.931 149.297 280.704 149.593C280.477 149.889 280.022 150.343 279.588 150.856L275.27 155.515L259.61 172.393V171.761L264.651 174.919L265.085 175.176L264.755 175.571L253.515 188.52L253.619 188.323C252.069 194.028 250.52 200.167 249.032 206.326C244.942 222.854 241.722 239.569 239.384 256.406C238.578 262.881 238.144 268.132 237.938 271.783C237.938 273.521 237.793 274.922 237.752 275.968C237.725 276.468 237.648 276.963 237.525 277.449Z" fill="#263238"/>
<path d="M388.115 191.186C388.115 191.186 388.239 191.62 388.384 192.508C388.529 193.396 388.735 194.739 389.024 196.456C389.562 199.891 390.326 205.004 391.256 211.557C393.053 224.704 395.532 243.733 397.454 267.382C398.383 279.226 399.189 292.156 399.107 306.112C398.962 309.606 399.107 313.139 398.673 316.771C398.375 320.486 397.278 324.101 395.45 327.392C393.518 330.794 390.663 333.637 387.186 335.623C383.651 337.621 379.799 339.054 375.781 339.867C367.52 341.372 359.131 342.138 350.721 342.157L337.726 342.611C335.536 342.611 333.325 342.611 331.114 342.611C328.904 342.611 326.673 342.611 324.441 342.611C306.591 342.256 288.142 341.21 269.258 340.084C253.825 339.137 238.682 338.11 223.992 337.005H223.435V336.472C225.501 319.673 227.567 303.447 229.488 287.99V287.556H229.942L339.916 291.504L339.564 291.899C336.094 271.922 333.366 256.012 331.445 245.076C330.515 239.628 329.813 235.423 329.379 232.541C329.152 231.139 328.987 230.073 328.863 229.303C328.795 228.944 328.747 228.582 328.718 228.218C328.718 228.218 328.718 228.573 328.945 229.303L329.565 232.521C330.102 235.383 330.867 239.588 331.879 244.997C333.842 255.952 336.713 271.823 340.308 291.781V292.195H339.874L229.901 288.523L230.418 288.109C228.496 303.565 226.492 319.792 224.406 336.59L223.93 336.038C238.599 337.123 253.743 338.15 269.196 339.097C288.059 340.223 306.508 341.269 324.317 341.644C326.549 341.644 328.759 341.644 330.97 341.644C333.18 341.644 335.37 341.644 337.56 341.644L350.556 341.21C358.919 341.187 367.262 340.407 375.472 338.88C379.386 338.101 383.141 336.714 386.587 334.774C389.924 332.869 392.664 330.142 394.52 326.878C396.291 323.698 397.36 320.204 397.66 316.613C397.991 313.06 397.97 309.487 398.115 306.033C398.239 292.215 397.474 279.167 396.586 267.342C394.727 243.654 392.351 224.684 390.698 211.537C389.81 204.984 389.128 199.891 388.632 196.397C388.405 194.699 388.239 193.377 388.115 192.449C387.991 191.521 388.115 191.186 388.115 191.186Z" fill="#263238"/>
<path d="M380.141 182.657C376.989 181.623 373.755 180.831 370.472 180.288C362.5 179.117 354.346 180.424 347.212 184.018C340.077 187.611 334.34 193.3 330.846 200.245C329.455 203.141 328.309 206.137 327.416 209.207C327.427 208.34 327.552 207.478 327.788 206.641C328.322 204.328 329.119 202.077 330.164 199.929C333.572 192.721 339.399 186.806 346.722 183.119C354.046 179.433 362.447 178.186 370.596 179.577C373.041 179.981 375.431 180.643 377.723 181.551C378.578 181.813 379.392 182.185 380.141 182.657Z" fill="#263238"/>
<path d="M290.311 177.642C288.575 178.863 286.737 179.945 284.815 180.879L284.402 181.116L284.299 180.643C283.369 176.477 282.088 170.378 280.766 163.587L280.518 162.324L281.51 162.502C277.667 168.641 274.217 174.01 271.986 177.385L271.531 178.057L271.386 177.287C270.987 175.72 270.745 174.12 270.663 172.51C271.249 174.018 271.705 175.569 272.027 177.149H271.428C273.494 173.655 276.758 168.206 280.58 162.047L281.303 160.883L281.572 162.205L281.82 163.469C283.163 170.279 284.299 176.398 285.001 180.583L284.485 180.346C286.351 179.303 288.299 178.399 290.311 177.642Z" fill="#263238"/>
<path d="M106.459 173.237C102.738 167.035 98.7894 160.054 98.7894 160.054L95.0314 154.004C95.3612 153.798 95.7114 153.651 96.0739 153.567C96.7782 153.518 97.4515 153.235 98.0373 152.742C98.4532 152.049 98.6985 151.184 98.7413 150.259C98.7841 149.333 98.6224 148.392 98.2773 147.556C97.6706 145.735 96.7424 144.129 95.5836 142.895C94.4248 141.661 93.075 140.842 91.6664 140.517C90.3154 140.259 88.9636 140.472 87.7358 141.135C86.508 141.799 85.4438 142.892 84.6415 144.314C83.8782 144.419 83.1469 144.726 82.487 145.219C78.1284 148.799 78.1094 159.305 78.1094 159.305L76.6026 157.422C76.6026 157.422 73.7809 149.667 79.8436 139.002C80.7789 137.392 81.2233 135.316 81.091 133.174C81.0825 132.528 80.9694 131.883 80.7597 131.285C80.5501 130.687 80.2494 130.152 79.8796 129.719C77.8552 127.561 76.3337 128.884 72.5079 135.548C68.682 142.212 66.5927 150.389 67.7707 156.182C68.2679 158.878 68.9054 161.535 69.6777 164.13C69.6777 164.13 55.3164 148.097 54.363 147.13C51.6813 144.319 48.5832 143.57 47.1978 145.765C46.3002 147.18 45.9914 149.935 49.076 153.314C51.7905 156.248 76.6224 190.823 76.6224 190.823L88.2082 205.287L99.0679 215.217L110.892 191.307L110.847 189.111C110.762 183.403 109.207 177.775 106.459 173.237Z" fill="#FFCEB4"/>
</svg>
